<svg width="316" height="316" viewBox="0 0 316 316" fill="none" xmlns="http://www.w3.org/2000/svg">
<rect x="128" width="60" height="60" rx="4" fill="#3C6C54"/>
<path d="M165 26C165 35.9411 161.487 44 159.867 44C158.247 44 154 35.9411 154 26C154 16.0589 158.247 8 159.867 8C161.487 8 165 16.0589 165 26Z" fill="#F5AF37"/>
<path d="M164.284 32.3866C166.857 41.989 165.549 50.6826 163.984 51.1019C162.419 51.5212 156.232 44.836 153.659 35.2336C151.086 25.6313 153.102 16.7479 154.667 16.3286C156.232 15.9093 161.711 22.7843 164.284 32.3866Z" fill="#F5AF37"/>
<path d="M154.659 32.3866C152.086 41.989 153.394 50.6826 154.958 51.1019C156.523 51.5212 162.711 44.836 165.284 35.2336C167.857 25.6313 165.841 16.7479 164.276 16.3286C162.711 15.9093 157.232 22.7843 154.659 32.3866Z" fill="#F5AF37"/>
<path d="M163 32C163 38.0751 160.764 43 159.733 43C158.702 43 156 38.0751 156 32C156 25.9249 158.702 21 159.733 21C160.764 21 163 25.9249 163 32Z" fill="#AF4747"/>
<rect x="192" y="128" width="60" height="60" rx="4" fill="#3C6C54"/>
<rect x="192" y="192" width="60" height="60" rx="4" fill="#3C6C54"/>
<rect x="256" y="128" width="60" height="60" rx="4" fill="#3C6C54"/>
<rect x="256" y="192" width="60" height="60" rx="4" fill="#3C6C54"/>
<path d="M252.805 142.17C254.006 140.61 256.358 140.61 257.559 142.17L289.569 183.752C291.087 185.725 289.681 188.582 287.192 188.582H223.172C220.683 188.582 219.276 185.725 220.795 183.752L252.805 142.17Z" fill="#123C27"/>
<path d="M252.788 161.253C253.988 159.663 256.376 159.663 257.576 161.253L295.719 211.774C297.212 213.751 295.802 216.582 293.325 216.582H217.039C214.562 216.582 213.152 213.751 214.644 211.774L252.788 161.253Z" fill="#123C27"/>
<path d="M252.795 180.219C253.995 178.641 256.368 178.641 257.569 180.219L301.745 238.265C303.248 240.24 301.84 243.082 299.358 243.082H211.005C208.524 243.082 207.115 240.24 208.618 238.265L252.795 180.219Z" fill="#123C27"/>
<rect x="64" y="256" width="60" height="60" rx="4" fill="#3C6C54"/>
<rect y="192" width="60" height="60" rx="4" fill="#3C6C54"/>
<rect y="256" width="60" height="60" rx="4" fill="#3C6C54"/>
<path d="M7.23167 286.777C6.58543 281.314 7.91763 240.421 7.23167 216.5H55.3865C54.8378 230.716 54.0697 258.955 55.3868 266.5C57.0331 275.932 76.2076 274.5 79.5002 274.5C82.7929 274.5 94.9423 276.198 97.0002 288.5C99.0581 300.802 92.616 304.809 88.5002 308.5C84.3844 312.191 70.9571 311.792 40.5001 311.792C10.1891 311.792 8.51557 297.637 7.24993 286.932L7.23167 286.777Z" fill="#AC473D"/>
<rect width="60" height="60" rx="4" fill="#3C6C54"/>
<rect y="64" width="60" height="60" rx="4" fill="#3C6C54"/>
<rect y="128" width="60" height="60" rx="4" fill="#3C6C54"/>
<rect x="128" y="64" width="60" height="60" rx="4" fill="#3C6C54"/>
<rect x="128" y="128" width="60" height="60" rx="4" fill="#3C6C54"/>
<rect x="128" y="192" width="60" height="60" rx="4" fill="#3C6C54"/>
<rect x="128" y="256" width="60" height="60" rx="4" fill="#3C6C54"/>
<rect x="64" width="60" height="60" rx="4" fill="#3C6C54"/>
<rect x="64" y="64" width="60" height="60" rx="4" fill="#3C6C54"/>
<rect x="64" y="128" width="60" height="60" rx="4" fill="#3C6C54"/>
<rect x="64" y="192" width="60" height="60" rx="4" fill="#3C6C54"/>
<rect x="192" width="60" height="60" rx="4" fill="#3C6C54"/>
<rect x="192" y="64" width="60" height="60" rx="4" fill="#3C6C54"/>
<rect x="192" y="256" width="60" height="60" rx="4" fill="#3C6C54"/>
<rect x="256" width="60" height="60" rx="4" fill="#3C6C54"/>
<rect x="256" y="64" width="60" height="60" rx="4" fill="#3C6C54"/>
<rect x="256" y="256" width="60" height="60" rx="4" fill="#3C6C54"/>
<path d="M252.184 74.1767C253.012 71.2744 257.125 71.2744 257.953 74.1767L260.383 82.69C260.827 84.2469 262.427 85.1704 263.997 84.7767L272.585 82.6242C275.512 81.8903 277.569 85.4524 275.469 87.6208L269.311 93.9816C268.185 95.1448 268.185 96.9917 269.311 98.1549L275.469 104.516C277.569 106.684 275.512 110.246 272.585 109.512L263.997 107.36C262.427 106.966 260.827 107.89 260.383 109.446L257.953 117.96C257.125 120.862 253.012 120.862 252.184 117.96L249.754 109.446C249.31 107.89 247.71 106.966 246.14 107.36L237.552 109.512C234.625 110.246 232.568 106.684 234.667 104.516L240.825 98.1549C241.951 96.9917 241.951 95.1448 240.825 93.9816L234.667 87.6208C232.568 85.4524 234.625 81.8903 237.552 82.6242L246.14 84.7767C247.71 85.1704 249.31 84.2469 249.754 82.69L252.184 74.1767Z" fill="#F5AF37"/>
<path d="M241.624 78.552C240.89 75.6244 244.452 73.5679 246.621 75.6672L252.982 81.8252C254.145 82.9513 255.992 82.9513 257.155 81.8252L263.516 75.6672C265.684 73.5679 269.246 75.6244 268.512 78.552L266.36 87.1396C265.966 88.71 266.89 90.3095 268.446 90.7538L276.96 93.1834C279.862 94.0117 279.862 98.1248 276.96 98.9531L268.446 101.383C266.89 101.827 265.966 103.426 266.36 104.997L268.512 113.584C269.246 116.512 265.684 118.569 263.516 116.469L257.155 110.311C255.992 109.185 254.145 109.185 252.982 110.311L246.621 116.469C244.452 118.569 240.89 116.512 241.624 113.584L243.777 104.997C244.17 103.426 243.247 101.827 241.69 101.383L233.177 98.9531C230.274 98.1248 230.274 94.0117 233.177 93.1834L241.69 90.7538C243.247 90.3095 244.17 88.71 243.777 87.1396L241.624 78.552Z" fill="#F5AF37"/>
<path d="M284 141V161" stroke="white" stroke-linecap="round"/>
<path d="M294 151L274 151" stroke="white" stroke-linecap="round"/>
<path d="M289 146L279 156" stroke="white" stroke-linecap="round"/>
<path d="M289 156L279 146" stroke="white" stroke-linecap="round"/>
<rect x="202" y="274" width="44" height="37" rx="2" fill="#003C7F"/>
<rect x="198" y="269" width="52" height="12" rx="2" fill="#0A3260"/>
<rect x="24" y="64" width="12" height="10" rx="2" fill="#F5AF37"/>
<circle cx="30" cy="95" r="24" fill="#D5921F"/>
<path d="M144.481 113C142.902 108.322 142.147 102.085 144.481 98.577C150.292 89.8416 155.531 90.0012 165.398 91.9503C175.264 93.8993 173.032 106.65 167.766 108.322C153.831 112.746 150.544 95.2611 157.504 85.7133C163.042 78.1167 171.079 78.3069 180 79.8661" stroke="white" stroke-width="3" stroke-linecap="round"/>
<path d="M106.908 240.061C103.487 240.061 98.0303 238.131 98.8023 233.499C99.5743 228.867 102.662 225.779 106.522 224.235C110.382 222.691 113.856 225.393 111.02 229.639C108.737 232.111 103.82 232.341 100.346 231.955C96.8723 231.569 95.3283 230.904 93.7843 227.709C92.2403 224.513 91.8544 216.515 98.0303 214.971C104.206 213.427 104.592 221.919 97.2583 223.849C90.3103 224.621 89.5383 223.849 86.0643 221.533C83.2079 219.629 82.2044 216.901 83.7484 211.111C85.2924 205.321 89.103 204.935 91.2507 205.707C93.3983 206.479 93.3983 210.725 91.2507 212.655C89.103 214.585 82.9763 214.199 80.2743 211.883C77.5723 209.567 77.1863 204.549 79.5023 203.391" stroke="white" stroke-width="3" stroke-linecap="round"/>
<path d="M53.07 16.496C53.412 16.496 53.664 16.424 53.88 16.244C54.204 15.992 54.384 15.686 54.438 15.146C54.528 13.94 54.51 11.906 54.474 10.106C54.456 9.098 54.42 8.18 54.33 7.568C54.258 7.028 54.078 6.65 53.736 6.434C53.412 6.236 52.89 6.038 52.602 6.308C52.404 6.452 52.458 6.884 52.476 7.118C52.566 8.396 52.548 9.674 52.476 10.952C52.404 12.284 52.242 13.706 52.026 15.128C51.972 15.452 51.99 15.812 52.17 16.064C52.368 16.316 52.62 16.496 53.07 16.496Z" fill="white"/>
<path d="M113.808 12.822C114.708 11.904 116.004 10.536 116.634 9.402C116.994 8.754 117.174 8.16 117.228 7.494C117.39 5.478 116.04 3.984 114.024 4.182C113.052 4.272 112.098 4.668 111.738 5.802C111.576 6.288 111.612 6.99 111.9 7.386C112.008 7.53 112.206 7.656 112.386 7.602C112.566 7.548 112.656 7.404 112.638 7.296C112.566 6.918 112.512 6.63 112.602 6.27C112.728 5.802 113.196 5.406 113.754 5.352C114.816 5.262 115.428 5.874 115.554 6.81C115.626 7.35 115.572 7.854 115.374 8.34C114.798 9.78 113.61 10.86 112.458 12.048C111.918 12.588 111.378 13.254 111.612 14.028C111.756 14.514 112.17 14.694 112.944 14.64C114.114 14.568 115.59 14.604 116.76 14.658C117.138 14.676 117.642 14.586 117.822 14.172C117.984 13.686 117.84 13.146 117.174 12.876C116.796 12.732 116.256 12.66 115.644 12.66C115.248 12.66 114.366 12.732 113.808 12.822Z" fill="white"/>
<path d="M198.718 12.814C199.132 12.85 199.69 12.868 200.284 12.886C200.266 12.976 200.266 13.066 200.266 13.156C200.23 13.732 200.194 13.93 200.194 14.488C200.194 15.208 200.554 15.622 201.112 15.658C201.796 15.694 202.228 15.352 202.318 14.65C202.39 14.11 202.408 13.552 202.408 13.012V12.904C202.84 12.886 203.272 12.868 203.65 12.832C204.1 12.796 204.442 12.508 204.496 12.076C204.532 11.734 204.46 11.464 204.082 11.248C203.83 11.104 203.344 11.05 203.02 11.05C202.822 11.05 202.606 11.068 202.39 11.068C202.372 9.61 202.318 8.17 202.102 6.64C202.066 6.352 201.976 5.92 201.868 5.65C201.724 5.29 201.508 5.092 201.13 5.11C200.824 5.128 200.68 5.362 200.662 5.74L200.626 7.072C200.572 8.422 200.5 9.754 200.41 11.068C199.744 11.068 199.114 11.05 198.718 11.032C198.25 11.014 197.98 10.924 198.016 10.402C198.07 9.646 198.7 7.81 199.15 6.604C199.258 6.28 199.366 5.848 199.15 5.704C198.88 5.56 198.556 5.704 198.394 6.01C198.016 6.622 197.44 7.792 197.08 8.674C196.774 9.448 196.342 10.456 196.378 11.446C196.396 11.968 196.738 12.382 197.278 12.562C197.674 12.706 198.286 12.778 198.718 12.814Z" fill="white"/>
<path d="M287.904 24.686C286.896 24.47 285.78 24.506 284.772 24.686C284.718 24.056 284.394 23.948 283.998 23.93C283.278 23.876 283.152 24.578 283.098 25.064C282.99 25.946 282.972 27.08 283.044 27.98C283.062 28.268 283.116 28.574 283.188 28.88C283.35 29.42 283.764 29.564 284.142 29.528C284.412 29.492 284.61 29.348 284.736 29.096C285.114 28.898 285.6 28.844 286.05 28.898C287.076 29.042 287.706 29.762 287.706 30.842C287.724 32.048 287.076 32.93 285.888 32.984C285.258 33.02 284.412 32.768 284.034 32.102C283.854 31.778 283.62 31.328 283.116 31.508C282.612 31.706 282.666 32.318 282.864 32.75C283.296 33.794 284.376 34.658 285.888 34.64C287.976 34.622 289.254 33.2 289.326 31.31C289.398 29.402 288.552 27.98 286.392 27.728C285.888 27.674 285.312 27.746 284.772 27.944C284.754 27.458 284.754 26.972 284.754 26.558C284.736 26.378 284.736 26.036 284.754 25.712C285.222 25.604 285.582 25.568 286.158 25.55C287.004 25.532 287.778 25.64 288.606 25.874C288.732 25.91 288.948 25.838 289.002 25.694C289.074 25.46 289.02 25.244 288.84 25.082C288.588 24.848 288.228 24.776 287.904 24.686Z" fill="white"/>
<path d="M73.176 107.622C73.392 107.64 73.554 107.73 73.554 108C73.554 109.782 73.194 112.644 72.654 114.606C72.582 114.876 72.51 115.164 72.456 115.452C72.366 116.1 72.762 116.55 73.248 116.622C73.896 116.712 74.562 116.388 74.706 115.758C74.796 115.38 74.868 115.02 74.904 114.66C75.156 112.5 75.3 110.358 75.138 108.234C75.048 107.064 74.634 106.524 73.77 106.38C73.194 106.29 72.762 106.29 72.186 106.344C71.808 106.38 71.25 106.47 70.764 106.65C70.71 106.416 70.53 106.236 70.152 106.2C69.81 106.182 69.558 106.452 69.486 106.848C69.342 107.82 69.324 109.008 69.504 110.196C69.594 110.79 69.99 111.096 70.53 111.024C71.07 110.952 71.25 110.448 71.16 109.998C71.052 109.476 70.962 108.72 70.872 107.82C71.772 107.55 72.474 107.55 73.176 107.622Z" fill="white"/>
<path d="M136.826 72.664C136.268 73.024 135.8 73.366 135.494 73.744C134.936 74.446 134.72 74.95 134.72 75.868C134.72 77.74 136.142 78.964 138.104 78.82C139.958 78.676 141.29 77.614 141.218 75.652C141.182 74.698 140.822 73.798 140.048 73.204C139.742 72.988 139.292 72.718 138.878 72.502C139.238 72.268 139.616 72.016 139.994 71.566C140.372 71.116 140.552 70.432 140.372 69.658C140.102 68.56 139.094 67.948 137.744 68.02C136.592 68.074 135.512 68.92 135.386 70.18C135.296 71.044 135.512 71.944 136.556 72.502L136.826 72.664ZM136.736 74.23C137.006 73.816 137.492 73.456 137.906 73.186C138.284 73.366 138.662 73.672 139.004 74.104C139.31 74.518 139.49 74.986 139.526 75.418C139.598 76.444 139.04 77.074 138.05 77.164C137.15 77.254 136.412 76.642 136.34 75.688C136.304 75.256 136.376 74.752 136.736 74.23ZM138.446 71.692C138.248 71.818 138.05 71.944 137.852 72.052C137.708 71.998 137.564 71.926 137.402 71.8C137.06 71.584 136.808 71.26 136.736 70.864C136.628 70.18 136.916 69.604 137.51 69.37C138.338 69.082 139.13 69.532 139.184 70.45C139.22 71.026 138.878 71.422 138.446 71.692Z" fill="white"/>
<path d="M200.916 104.578C199.422 104.614 198.36 105.694 198.36 107.386C198.36 108.862 199.17 109.834 200.214 110.086C200.898 110.248 201.978 110.194 202.536 109.582C202.428 111.184 202.212 111.724 201.906 113.146C201.798 113.596 201.744 113.974 202.14 114.262C202.374 114.424 202.698 114.46 203.058 114.37C203.418 114.316 203.688 114.082 203.922 113.704C204.138 113.344 204.246 112.768 204.3 112.3C204.516 110.194 204.57 108.016 204.282 105.712C204.228 105.298 204.138 105.01 203.976 104.74C203.796 104.452 203.472 104.29 203.166 104.29C202.842 104.29 202.644 104.452 202.662 104.686C202.698 104.884 202.698 105.154 202.752 105.388C202.392 104.83 201.726 104.56 200.916 104.578ZM201.078 105.586C202.158 105.586 202.536 106.414 202.536 107.314C202.536 108.43 201.798 108.97 200.952 108.916C200.088 108.862 199.638 108.124 199.638 107.332C199.638 106.468 200.088 105.586 201.078 105.586Z" fill="white"/>
<path d="M299.07 113.496C299.412 113.496 299.664 113.424 299.88 113.244C300.204 112.992 300.384 112.686 300.438 112.146C300.528 110.94 300.51 108.906 300.474 107.106C300.456 106.098 300.42 105.18 300.33 104.568C300.258 104.028 300.078 103.65 299.736 103.434C299.412 103.236 298.89 103.038 298.602 103.308C298.404 103.452 298.458 103.884 298.476 104.118C298.566 105.396 298.548 106.674 298.476 107.952C298.404 109.284 298.242 110.706 298.026 112.128C297.972 112.452 297.99 112.812 298.17 113.064C298.368 113.316 298.62 113.496 299.07 113.496ZM303.066 104.622C302.328 105.828 302.22 107.214 302.22 108.564C302.22 109.518 302.382 110.832 302.796 111.732C303.426 113.1 304.506 113.73 305.82 113.712C307.026 113.694 307.926 113.208 308.484 112.326C309.402 110.904 309.582 108.186 309.258 106.386C308.898 104.388 307.62 102.948 305.298 103.182C304.398 103.272 303.624 103.722 303.066 104.622ZM307.854 108.456C307.854 109.464 307.728 110.562 307.26 111.264C306.9 111.822 306.378 112.02 305.748 112.002C305.172 111.984 304.668 111.606 304.38 111.066C304.02 110.382 303.858 109.284 303.84 108.528C303.804 107.61 303.912 106.422 304.308 105.576C304.578 105 305.118 104.604 305.73 104.568C306.36 104.532 306.918 104.82 307.278 105.342C307.8 106.098 307.854 107.52 307.854 108.456Z" fill="white"/>
<path d="M9.07 141.496C9.412 141.496 9.664 141.424 9.88 141.244C10.204 140.992 10.384 140.686 10.438 140.146C10.528 138.94 10.51 136.906 10.474 135.106C10.456 134.098 10.42 133.18 10.33 132.568C10.258 132.028 10.078 131.65 9.736 131.434C9.412 131.236 8.89 131.038 8.602 131.308C8.404 131.452 8.458 131.884 8.476 132.118C8.566 133.396 8.548 134.674 8.476 135.952C8.404 137.284 8.242 138.706 8.026 140.128C7.972 140.452 7.99 140.812 8.17 141.064C8.368 141.316 8.62 141.496 9.07 141.496ZM13.57 141.496C13.912 141.496 14.164 141.424 14.38 141.244C14.704 140.992 14.884 140.686 14.938 140.146C15.028 138.94 15.01 136.906 14.974 135.106C14.956 134.098 14.92 133.18 14.83 132.568C14.758 132.028 14.578 131.65 14.236 131.434C13.912 131.236 13.39 131.038 13.102 131.308C12.904 131.452 12.958 131.884 12.976 132.118C13.066 133.396 13.048 134.674 12.976 135.952C12.904 137.284 12.742 138.706 12.526 140.128C12.472 140.452 12.49 140.812 12.67 141.064C12.868 141.316 13.12 141.496 13.57 141.496Z" fill="white"/>
<path d="M199.07 177.496C199.412 177.496 199.664 177.424 199.88 177.244C200.204 176.992 200.384 176.686 200.438 176.146C200.528 174.94 200.51 172.906 200.474 171.106C200.456 170.098 200.42 169.18 200.33 168.568C200.258 168.028 200.078 167.65 199.736 167.434C199.412 167.236 198.89 167.038 198.602 167.308C198.404 167.452 198.458 167.884 198.476 168.118C198.566 169.396 198.548 170.674 198.476 171.952C198.404 173.284 198.242 174.706 198.026 176.128C197.972 176.452 197.99 176.812 198.17 177.064C198.368 177.316 198.62 177.496 199.07 177.496ZM204.218 174.814C204.632 174.85 205.19 174.868 205.784 174.886C205.766 174.976 205.766 175.066 205.766 175.156C205.73 175.732 205.694 175.93 205.694 176.488C205.694 177.208 206.054 177.622 206.612 177.658C207.296 177.694 207.728 177.352 207.818 176.65C207.89 176.11 207.908 175.552 207.908 175.012V174.904C208.34 174.886 208.772 174.868 209.15 174.832C209.6 174.796 209.942 174.508 209.996 174.076C210.032 173.734 209.96 173.464 209.582 173.248C209.33 173.104 208.844 173.05 208.52 173.05C208.322 173.05 208.106 173.068 207.89 173.068C207.872 171.61 207.818 170.17 207.602 168.64C207.566 168.352 207.476 167.92 207.368 167.65C207.224 167.29 207.008 167.092 206.63 167.11C206.324 167.128 206.18 167.362 206.162 167.74L206.126 169.072C206.072 170.422 206 171.754 205.91 173.068C205.244 173.068 204.614 173.05 204.218 173.032C203.75 173.014 203.48 172.924 203.516 172.402C203.57 171.646 204.2 169.81 204.65 168.604C204.758 168.28 204.866 167.848 204.65 167.704C204.38 167.56 204.056 167.704 203.894 168.01C203.516 168.622 202.94 169.792 202.58 170.674C202.274 171.448 201.842 172.456 201.878 173.446C201.896 173.968 202.238 174.382 202.778 174.562C203.174 174.706 203.786 174.778 204.218 174.814Z" fill="white"/>
<path d="M302.07 145.496C302.412 145.496 302.664 145.424 302.88 145.244C303.204 144.992 303.384 144.686 303.438 144.146C303.528 142.94 303.51 140.906 303.474 139.106C303.456 138.098 303.42 137.18 303.33 136.568C303.258 136.028 303.078 135.65 302.736 135.434C302.412 135.236 301.89 135.038 301.602 135.308C301.404 135.452 301.458 135.884 301.476 136.118C301.566 137.396 301.548 138.674 301.476 139.952C301.404 141.284 301.242 142.706 301.026 144.128C300.972 144.452 300.99 144.812 301.17 145.064C301.368 145.316 301.62 145.496 302.07 145.496ZM310.404 135.686C309.396 135.47 308.28 135.506 307.272 135.686C307.218 135.056 306.894 134.948 306.498 134.93C305.778 134.876 305.652 135.578 305.598 136.064C305.49 136.946 305.472 138.08 305.544 138.98C305.562 139.268 305.616 139.574 305.688 139.88C305.85 140.42 306.264 140.564 306.642 140.528C306.912 140.492 307.11 140.348 307.236 140.096C307.614 139.898 308.1 139.844 308.55 139.898C309.576 140.042 310.206 140.762 310.206 141.842C310.224 143.048 309.576 143.93 308.388 143.984C307.758 144.02 306.912 143.768 306.534 143.102C306.354 142.778 306.12 142.328 305.616 142.508C305.112 142.706 305.166 143.318 305.364 143.75C305.796 144.794 306.876 145.658 308.388 145.64C310.476 145.622 311.754 144.2 311.826 142.31C311.898 140.402 311.052 138.98 308.892 138.728C308.388 138.674 307.812 138.746 307.272 138.944C307.254 138.458 307.254 137.972 307.254 137.558C307.236 137.378 307.236 137.036 307.254 136.712C307.722 136.604 308.082 136.568 308.658 136.55C309.504 136.532 310.278 136.64 311.106 136.874C311.232 136.91 311.448 136.838 311.502 136.694C311.574 136.46 311.52 136.244 311.34 136.082C311.088 135.848 310.728 135.776 310.404 135.686Z" fill="white"/>
<path d="M33.07 228.496C33.412 228.496 33.664 228.424 33.88 228.244C34.204 227.992 34.384 227.686 34.438 227.146C34.528 225.94 34.51 223.906 34.474 222.106C34.456 221.098 34.42 220.18 34.33 219.568C34.258 219.028 34.078 218.65 33.736 218.434C33.412 218.236 32.89 218.038 32.602 218.308C32.404 218.452 32.458 218.884 32.476 219.118C32.566 220.396 32.548 221.674 32.476 222.952C32.404 224.284 32.242 225.706 32.026 227.128C31.972 227.452 31.99 227.812 32.17 228.064C32.368 228.316 32.62 228.496 33.07 228.496ZM39.01 221.206C39.496 220.414 39.982 219.892 40.594 219.172C40.864 218.848 40.99 218.524 40.774 218.326C40.504 218.056 40.072 218.218 39.712 218.452C39.334 218.704 38.92 219.082 38.578 219.424C37.318 220.738 36.49 222.304 36.274 224.05C36.184 224.824 36.256 225.688 36.472 226.426C36.868 227.632 37.876 228.748 39.55 228.694C41.386 228.64 42.664 227.236 42.592 225.4C42.556 224.572 42.394 223.78 41.8 223.114C41.062 222.304 40.18 222.124 39.118 222.286C38.866 222.322 38.524 222.448 38.218 222.628C38.452 222.124 38.722 221.656 39.01 221.206ZM39.316 223.51C40.306 223.528 40.828 224.446 40.774 225.418C40.738 226.462 40.126 227.11 39.334 227.038C38.488 226.966 38.056 226.336 37.894 225.58C37.804 225.166 37.786 224.788 37.804 224.32C37.804 224.194 37.822 224.05 37.84 223.906C38.236 223.654 38.776 223.492 39.316 223.51Z" fill="white"/>
<path d="M108.07 208.496C108.412 208.496 108.664 208.424 108.88 208.244C109.204 207.992 109.384 207.686 109.438 207.146C109.528 205.94 109.51 203.906 109.474 202.106C109.456 201.098 109.42 200.18 109.33 199.568C109.258 199.028 109.078 198.65 108.736 198.434C108.412 198.236 107.89 198.038 107.602 198.308C107.404 198.452 107.458 198.884 107.476 199.118C107.566 200.396 107.548 201.674 107.476 202.952C107.404 204.284 107.242 205.706 107.026 207.128C106.972 207.452 106.99 207.812 107.17 208.064C107.368 208.316 107.62 208.496 108.07 208.496ZM114.676 199.622C114.892 199.64 115.054 199.73 115.054 200C115.054 201.782 114.694 204.644 114.154 206.606C114.082 206.876 114.01 207.164 113.956 207.452C113.866 208.1 114.262 208.55 114.748 208.622C115.396 208.712 116.062 208.388 116.206 207.758C116.296 207.38 116.368 207.02 116.404 206.66C116.656 204.5 116.8 202.358 116.638 200.234C116.548 199.064 116.134 198.524 115.27 198.38C114.694 198.29 114.262 198.29 113.686 198.344C113.308 198.38 112.75 198.47 112.264 198.65C112.21 198.416 112.03 198.236 111.652 198.2C111.31 198.182 111.058 198.452 110.986 198.848C110.842 199.82 110.824 201.008 111.004 202.196C111.094 202.79 111.49 203.096 112.03 203.024C112.57 202.952 112.75 202.448 112.66 201.998C112.552 201.476 112.462 200.72 112.372 199.82C113.272 199.55 113.974 199.55 114.676 199.622Z" fill="white"/>
<path d="M134.07 208.496C134.412 208.496 134.664 208.424 134.88 208.244C135.204 207.992 135.384 207.686 135.438 207.146C135.528 205.94 135.51 203.906 135.474 202.106C135.456 201.098 135.42 200.18 135.33 199.568C135.258 199.028 135.078 198.65 134.736 198.434C134.412 198.236 133.89 198.038 133.602 198.308C133.404 198.452 133.458 198.884 133.476 199.118C133.566 200.396 133.548 201.674 133.476 202.952C133.404 204.284 133.242 205.706 133.026 207.128C132.972 207.452 132.99 207.812 133.17 208.064C133.368 208.316 133.62 208.496 134.07 208.496ZM139.326 202.664C138.768 203.024 138.3 203.366 137.994 203.744C137.436 204.446 137.22 204.95 137.22 205.868C137.22 207.74 138.642 208.964 140.604 208.82C142.458 208.676 143.79 207.614 143.718 205.652C143.682 204.698 143.322 203.798 142.548 203.204C142.242 202.988 141.792 202.718 141.378 202.502C141.738 202.268 142.116 202.016 142.494 201.566C142.872 201.116 143.052 200.432 142.872 199.658C142.602 198.56 141.594 197.948 140.244 198.02C139.092 198.074 138.012 198.92 137.886 200.18C137.796 201.044 138.012 201.944 139.056 202.502L139.326 202.664ZM139.236 204.23C139.506 203.816 139.992 203.456 140.406 203.186C140.784 203.366 141.162 203.672 141.504 204.104C141.81 204.518 141.99 204.986 142.026 205.418C142.098 206.444 141.54 207.074 140.55 207.164C139.65 207.254 138.912 206.642 138.84 205.688C138.804 205.256 138.876 204.752 139.236 204.23ZM140.946 201.692C140.748 201.818 140.55 201.944 140.352 202.052C140.208 201.998 140.064 201.926 139.902 201.8C139.56 201.584 139.308 201.26 139.236 200.864C139.128 200.18 139.416 199.604 140.01 199.37C140.838 199.082 141.63 199.532 141.684 200.45C141.72 201.026 141.378 201.422 140.946 201.692Z" fill="white"/>
<path d="M198.07 243.496C198.412 243.496 198.664 243.424 198.88 243.244C199.204 242.992 199.384 242.686 199.438 242.146C199.528 240.94 199.51 238.906 199.474 237.106C199.456 236.098 199.42 235.18 199.33 234.568C199.258 234.028 199.078 233.65 198.736 233.434C198.412 233.236 197.89 233.038 197.602 233.308C197.404 233.452 197.458 233.884 197.476 234.118C197.566 235.396 197.548 236.674 197.476 237.952C197.404 239.284 197.242 240.706 197.026 242.128C196.972 242.452 196.99 242.812 197.17 243.064C197.368 243.316 197.62 243.496 198.07 243.496ZM203.416 233.578C201.922 233.614 200.86 234.694 200.86 236.386C200.86 237.862 201.67 238.834 202.714 239.086C203.398 239.248 204.478 239.194 205.036 238.582C204.928 240.184 204.712 240.724 204.406 242.146C204.298 242.596 204.244 242.974 204.64 243.262C204.874 243.424 205.198 243.46 205.558 243.37C205.918 243.316 206.188 243.082 206.422 242.704C206.638 242.344 206.746 241.768 206.8 241.3C207.016 239.194 207.07 237.016 206.782 234.712C206.728 234.298 206.638 234.01 206.476 233.74C206.296 233.452 205.972 233.29 205.666 233.29C205.342 233.29 205.144 233.452 205.162 233.686C205.198 233.884 205.198 234.154 205.252 234.388C204.892 233.83 204.226 233.56 203.416 233.578ZM203.578 234.586C204.658 234.586 205.036 235.414 205.036 236.314C205.036 237.43 204.298 237.97 203.452 237.916C202.588 237.862 202.138 237.124 202.138 236.332C202.138 235.468 202.588 234.586 203.578 234.586Z" fill="white"/>
<path d="M266.808 232.822C267.708 231.904 269.004 230.536 269.634 229.402C269.994 228.754 270.174 228.16 270.228 227.494C270.39 225.478 269.04 223.984 267.024 224.182C266.052 224.272 265.098 224.668 264.738 225.802C264.576 226.288 264.612 226.99 264.9 227.386C265.008 227.53 265.206 227.656 265.386 227.602C265.566 227.548 265.656 227.404 265.638 227.296C265.566 226.918 265.512 226.63 265.602 226.27C265.728 225.802 266.196 225.406 266.754 225.352C267.816 225.262 268.428 225.874 268.554 226.81C268.626 227.35 268.572 227.854 268.374 228.34C267.798 229.78 266.61 230.86 265.458 232.048C264.918 232.588 264.378 233.254 264.612 234.028C264.756 234.514 265.17 234.694 265.944 234.64C267.114 234.568 268.59 234.604 269.76 234.658C270.138 234.676 270.642 234.586 270.822 234.172C270.984 233.686 270.84 233.146 270.174 232.876C269.796 232.732 269.256 232.66 268.644 232.66C268.248 232.66 267.366 232.732 266.808 232.822ZM272.738 225.622C272 226.828 271.892 228.214 271.892 229.564C271.892 230.518 272.054 231.832 272.468 232.732C273.098 234.1 274.178 234.73 275.492 234.712C276.698 234.694 277.598 234.208 278.156 233.326C279.074 231.904 279.254 229.186 278.93 227.386C278.57 225.388 277.292 223.948 274.97 224.182C274.07 224.272 273.296 224.722 272.738 225.622ZM277.526 229.456C277.526 230.464 277.4 231.562 276.932 232.264C276.572 232.822 276.05 233.02 275.42 233.002C274.844 232.984 274.34 232.606 274.052 232.066C273.692 231.382 273.53 230.284 273.512 229.528C273.476 228.61 273.584 227.422 273.98 226.576C274.25 226 274.79 225.604 275.402 225.568C276.032 225.532 276.59 225.82 276.95 226.342C277.472 227.098 277.526 228.52 277.526 229.456Z" fill="white"/>
<path d="M290.346 310.214C297.596 310.442 321.393 288.344 312.894 272.735C305.969 261.948 294.372 264.762 288.206 276.598C281.731 263.813 268.812 263.546 262.952 276.065C257.093 291.247 279.848 309.447 288.206 309.923C288.845 310.087 289.556 310.189 290.346 310.214Z" fill="#AC473D"/>
<path d="M282.808 290.822C283.708 289.904 285.004 288.536 285.634 287.402C285.994 286.754 286.174 286.16 286.228 285.494C286.39 283.478 285.04 281.984 283.024 282.182C282.052 282.272 281.098 282.668 280.738 283.802C280.576 284.288 280.612 284.99 280.9 285.386C281.008 285.53 281.206 285.656 281.386 285.602C281.566 285.548 281.656 285.404 281.638 285.296C281.566 284.918 281.512 284.63 281.602 284.27C281.728 283.802 282.196 283.406 282.754 283.352C283.816 283.262 284.428 283.874 284.554 284.81C284.626 285.35 284.572 285.854 284.374 286.34C283.798 287.78 282.61 288.86 281.458 290.048C280.918 290.588 280.378 291.254 280.612 292.028C280.756 292.514 281.17 292.694 281.944 292.64C283.114 292.568 284.59 292.604 285.76 292.658C286.138 292.676 286.642 292.586 286.822 292.172C286.984 291.686 286.84 291.146 286.174 290.876C285.796 290.732 285.256 290.66 284.644 290.66C284.248 290.66 283.366 290.732 282.808 290.822ZM293.076 282.686C292.068 282.47 290.952 282.506 289.944 282.686C289.89 282.056 289.566 281.948 289.17 281.93C288.45 281.876 288.324 282.578 288.27 283.064C288.162 283.946 288.144 285.08 288.216 285.98C288.234 286.268 288.288 286.574 288.36 286.88C288.522 287.42 288.936 287.564 289.314 287.528C289.584 287.492 289.782 287.348 289.908 287.096C290.286 286.898 290.772 286.844 291.222 286.898C292.248 287.042 292.878 287.762 292.878 288.842C292.896 290.048 292.248 290.93 291.06 290.984C290.43 291.02 289.584 290.768 289.206 290.102C289.026 289.778 288.792 289.328 288.288 289.508C287.784 289.706 287.838 290.318 288.036 290.75C288.468 291.794 289.548 292.658 291.06 292.64C293.148 292.622 294.426 291.2 294.498 289.31C294.57 287.402 293.724 285.98 291.564 285.728C291.06 285.674 290.484 285.746 289.944 285.944C289.926 285.458 289.926 284.972 289.926 284.558C289.908 284.378 289.908 284.036 289.926 283.712C290.394 283.604 290.754 283.568 291.33 283.55C292.176 283.532 292.95 283.64 293.778 283.874C293.904 283.91 294.12 283.838 294.174 283.694C294.246 283.46 294.192 283.244 294.012 283.082C293.76 282.848 293.4 282.776 293.076 282.686Z" fill="white"/>
<path d="M102.808 303.822C103.708 302.904 105.004 301.536 105.634 300.402C105.994 299.754 106.174 299.16 106.228 298.494C106.39 296.478 105.04 294.984 103.024 295.182C102.052 295.272 101.098 295.668 100.738 296.802C100.576 297.288 100.612 297.99 100.9 298.386C101.008 298.53 101.206 298.656 101.386 298.602C101.566 298.548 101.656 298.404 101.638 298.296C101.566 297.918 101.512 297.63 101.602 297.27C101.728 296.802 102.196 296.406 102.754 296.352C103.816 296.262 104.428 296.874 104.554 297.81C104.626 298.35 104.572 298.854 104.374 299.34C103.798 300.78 102.61 301.86 101.458 303.048C100.918 303.588 100.378 304.254 100.612 305.028C100.756 305.514 101.17 305.694 101.944 305.64C103.114 305.568 104.59 305.604 105.76 305.658C106.138 305.676 106.642 305.586 106.822 305.172C106.984 304.686 106.84 304.146 106.174 303.876C105.796 303.732 105.256 303.66 104.644 303.66C104.248 303.66 103.366 303.732 102.808 303.822ZM109.98 303.822C110.88 302.904 112.176 301.536 112.806 300.402C113.166 299.754 113.346 299.16 113.4 298.494C113.562 296.478 112.212 294.984 110.196 295.182C109.224 295.272 108.27 295.668 107.91 296.802C107.748 297.288 107.784 297.99 108.072 298.386C108.18 298.53 108.378 298.656 108.558 298.602C108.738 298.548 108.828 298.404 108.81 298.296C108.738 297.918 108.684 297.63 108.774 297.27C108.9 296.802 109.368 296.406 109.926 296.352C110.988 296.262 111.6 296.874 111.726 297.81C111.798 298.35 111.744 298.854 111.546 299.34C110.97 300.78 109.782 301.86 108.63 303.048C108.09 303.588 107.55 304.254 107.784 305.028C107.928 305.514 108.342 305.694 109.116 305.64C110.286 305.568 111.762 305.604 112.932 305.658C113.31 305.676 113.814 305.586 113.994 305.172C114.156 304.686 114.012 304.146 113.346 303.876C112.968 303.732 112.428 303.66 111.816 303.66C111.42 303.66 110.538 303.732 109.98 303.822Z" fill="white"/>
<circle cx="286" cy="30" r="19" fill="white" fill-opacity="0.2"/>
<circle cx="286" cy="30" r="20.75" stroke="white" stroke-width="0.5"/>
<path d="M270.98 52.1337C271.599 51.495 270.49 47.5892 272.449 45.5694C274.408 43.5496 297.919 43.4053 300.858 45.5695C303.797 47.7336 302.915 52.2347 303.307 52.6386C303.797 53.1436 304.287 55.1634 303.797 55.6683C303.307 56.1733 270 56.1732 270 55.1633C270 53.1436 270.49 52.6386 270.98 52.1337Z" fill="black"/>
<rect x="222" y="265" width="4" height="46" rx="2" fill="#F5AF37"/>
<path d="M230.808 305.822C231.708 304.904 233.004 303.536 233.634 302.402C233.994 301.754 234.174 301.16 234.228 300.494C234.39 298.478 233.04 296.984 231.024 297.182C230.052 297.272 229.098 297.668 228.738 298.802C228.576 299.288 228.612 299.99 228.9 300.386C229.008 300.53 229.206 300.656 229.386 300.602C229.566 300.548 229.656 300.404 229.638 300.296C229.566 299.918 229.512 299.63 229.602 299.27C229.728 298.802 230.196 298.406 230.754 298.352C231.816 298.262 232.428 298.874 232.554 299.81C232.626 300.35 232.572 300.854 232.374 301.34C231.798 302.78 230.61 303.86 229.458 305.048C228.918 305.588 228.378 306.254 228.612 307.028C228.756 307.514 229.17 307.694 229.944 307.64C231.114 307.568 232.59 307.604 233.76 307.658C234.138 307.676 234.642 307.586 234.822 307.172C234.984 306.686 234.84 306.146 234.174 305.876C233.796 305.732 233.256 305.66 232.644 305.66C232.248 305.66 231.366 305.732 230.808 305.822ZM237.89 304.814C238.304 304.85 238.862 304.868 239.456 304.886C239.438 304.976 239.438 305.066 239.438 305.156C239.402 305.732 239.366 305.93 239.366 306.488C239.366 307.208 239.726 307.622 240.284 307.658C240.968 307.694 241.4 307.352 241.49 306.65C241.562 306.11 241.58 305.552 241.58 305.012V304.904C242.012 304.886 242.444 304.868 242.822 304.832C243.272 304.796 243.614 304.508 243.668 304.076C243.704 303.734 243.632 303.464 243.254 303.248C243.002 303.104 242.516 303.05 242.192 303.05C241.994 303.05 241.778 303.068 241.562 303.068C241.544 301.61 241.49 300.17 241.274 298.64C241.238 298.352 241.148 297.92 241.04 297.65C240.896 297.29 240.68 297.092 240.302 297.11C239.996 297.128 239.852 297.362 239.834 297.74L239.798 299.072C239.744 300.422 239.672 301.754 239.582 303.068C238.916 303.068 238.286 303.05 237.89 303.032C237.422 303.014 237.152 302.924 237.188 302.402C237.242 301.646 237.872 299.81 238.322 298.604C238.43 298.28 238.538 297.848 238.322 297.704C238.052 297.56 237.728 297.704 237.566 298.01C237.188 298.622 236.612 299.792 236.252 300.674C235.946 301.448 235.514 302.456 235.55 303.446C235.568 303.968 235.91 304.382 236.45 304.562C236.846 304.706 237.458 304.778 237.89 304.814Z" fill="white"/>
<path d="M225.299 270.446C224.056 268.294 224.794 265.542 226.946 264.299L230.41 262.299C231.606 261.609 233.135 262.018 233.825 263.214C234.516 264.41 234.106 265.939 232.91 266.629L225.549 270.879L225.299 270.446Z" stroke="#F5AF37" stroke-width="3"/>
<path d="M223.592 270.031C224.235 267.63 222.81 265.163 220.41 264.519L216.546 263.484C215.212 263.127 213.842 263.918 213.484 265.252C213.127 266.586 213.918 267.956 215.252 268.314L223.462 270.514L223.592 270.031Z" stroke="#F5AF37" stroke-width="3"/>
<rect x="6" y="90" width="48" height="10" rx="2" fill="#F5AF37"/>
<rect x="12" y="108" width="36" height="4" rx="2" fill="#F5AF37"/>
<rect x="12" y="78" width="36" height="4" rx="2" fill="#F5AF37"/>
<path d="M29.51 93.206C29.996 92.414 30.482 91.892 31.094 91.172C31.364 90.848 31.49 90.524 31.274 90.326C31.004 90.056 30.572 90.218 30.212 90.452C29.834 90.704 29.42 91.082 29.078 91.424C27.818 92.738 26.99 94.304 26.774 96.05C26.684 96.824 26.756 97.688 26.972 98.426C27.368 99.632 28.376 100.748 30.05 100.694C31.886 100.64 33.164 99.236 33.092 97.4C33.056 96.572 32.894 95.78 32.3 95.114C31.562 94.304 30.68 94.124 29.618 94.286C29.366 94.322 29.024 94.448 28.718 94.628C28.952 94.124 29.222 93.656 29.51 93.206ZM29.816 95.51C30.806 95.528 31.328 96.446 31.274 97.418C31.238 98.462 30.626 99.11 29.834 99.038C28.988 98.966 28.556 98.336 28.394 97.58C28.304 97.166 28.286 96.788 28.304 96.32C28.304 96.194 28.322 96.05 28.34 95.906C28.736 95.654 29.276 95.492 29.816 95.51Z" fill="white"/>
<circle cx="42" cy="110" r="2" fill="white"/>
<circle cx="42" cy="80" r="2" fill="white"/>
<circle cx="34" cy="110" r="2" fill="white"/>
<circle cx="77" cy="286" r="2" fill="white"/>
<circle cx="81" cy="278" r="2" fill="white"/>
<circle cx="34" cy="80" r="2" fill="white"/>
<circle cx="26" cy="110" r="2" fill="white"/>
<circle cx="77" cy="295" r="2" fill="white"/>
<circle cx="79" cy="303" r="2" fill="white"/>
<circle cx="84" cy="307" r="2" fill="white"/>
<circle cx="26" cy="80" r="2" fill="white"/>
<circle cx="18" cy="110" r="2" fill="white"/>
<circle cx="18" cy="80" r="2" fill="white"/>
<path d="M34.5 284C27.7 276.8 12.5 276.667 7.00002 278.5C5.50002 293 7.5 300 16 307C22.8 312.6 36.5 312.667 42.5 312C43 305.5 41.3 291.2 34.5 284Z" fill="#563930"/>
<path d="M17.808 296.822C18.708 295.904 20.004 294.536 20.634 293.402C20.994 292.754 21.174 292.16 21.228 291.494C21.39 289.478 20.04 287.984 18.024 288.182C17.052 288.272 16.098 288.668 15.738 289.802C15.576 290.288 15.612 290.99 15.9 291.386C16.008 291.53 16.206 291.656 16.386 291.602C16.566 291.548 16.656 291.404 16.638 291.296C16.566 290.918 16.512 290.63 16.602 290.27C16.728 289.802 17.196 289.406 17.754 289.352C18.816 289.262 19.428 289.874 19.554 290.81C19.626 291.35 19.572 291.854 19.374 292.34C18.798 293.78 17.61 294.86 16.458 296.048C15.918 296.588 15.378 297.254 15.612 298.028C15.756 298.514 16.17 298.694 16.944 298.64C18.114 298.568 19.59 298.604 20.76 298.658C21.138 298.676 21.642 298.586 21.822 298.172C21.984 297.686 21.84 297.146 21.174 296.876C20.796 296.732 20.256 296.66 19.644 296.66C19.248 296.66 18.366 296.732 17.808 296.822ZM24.2419 298.496C24.5839 298.496 24.8359 298.424 25.0519 298.244C25.3759 297.992 25.5559 297.686 25.6099 297.146C25.6999 295.94 25.6819 293.906 25.6459 292.106C25.6279 291.098 25.5919 290.18 25.5019 289.568C25.4299 289.028 25.2499 288.65 24.9079 288.434C24.5839 288.236 24.0619 288.038 23.7739 288.308C23.5759 288.452 23.6299 288.884 23.6479 289.118C23.7379 290.396 23.7199 291.674 23.6479 292.952C23.5759 294.284 23.4139 295.706 23.1979 297.128C23.1439 297.452 23.1619 297.812 23.3419 298.064C23.5399 298.316 23.7919 298.496 24.2419 298.496Z" fill="white"/>
<rect x="87" width="12" height="10" rx="2" fill="black"/>
<ellipse cx="93" cy="32" rx="15" ry="25" fill="#0A3260"/>
<path d="M102.5 13.5C98 17.5 86.9 26.4 78.5 30" stroke="#003C7F" stroke-linecap="round"/>
<path d="M96 7.5C91.5 11.5 88.4 15.4 80 19" stroke="#003C7F" stroke-linecap="round"/>
<path d="M108 30C103.5 34 89.9 44.4 81.5 48" stroke="#003C7F" stroke-linecap="round"/>
<path d="M106.5 41.5C102 45.5 95.4 51.4 87 55" stroke="#003C7F" stroke-linecap="round"/>
<path fill-rule="evenodd" clip-rule="evenodd" d="M203.207 48.8681C202.795 50.325 204.051 51.5807 205.508 51.1691L217.526 47.7735C218.074 47.6185 218.5 47.2714 218.771 46.8421C218.927 46.7365 219.075 46.6147 219.213 46.4767L241.134 24.5564C243.477 22.2132 243.477 18.4142 241.134 16.0711L238.305 13.2426C235.962 10.8995 232.163 10.8995 229.82 13.2426L207.9 35.163C207.761 35.301 207.64 35.4492 207.534 35.6051C207.105 35.8757 206.758 36.3023 206.603 36.8506L203.207 48.8681Z" fill="#AF4747"/>
<rect x="218.506" y="47.1838" width="16" height="1" transform="rotate(-135 218.506 47.1838)" fill="#242424"/>
<rect x="239.012" y="26.6777" width="16" height="1" transform="rotate(-135 239.012 26.6777)" fill="#242424"/>
<rect x="219.92" y="45.7696" width="16" height="2" transform="rotate(-135 219.92 45.7696)" fill="#242424"/>
<rect x="240.427" y="25.2635" width="16" height="1" transform="rotate(-135 240.427 25.2635)" fill="#242424"/>
<rect x="221.334" y="38.6985" width="8" height="18" rx="4" transform="rotate(-135 221.334 38.6985)" fill="#242424"/>
<path fill-rule="evenodd" clip-rule="evenodd" d="M114.169 168.868C114.581 170.325 113.325 171.581 111.868 171.169L99.8506 167.773C99.3024 167.619 98.8757 167.271 98.6052 166.842C98.4493 166.737 98.3011 166.615 98.163 166.477L76.2427 144.556C73.8995 142.213 73.8995 138.414 76.2427 136.071L79.0711 133.243C81.4143 130.9 85.2133 130.9 87.5564 133.243L109.477 155.163C109.615 155.301 109.737 155.449 109.842 155.605C110.271 155.876 110.619 156.302 110.774 156.851L114.169 168.868Z" fill="#123B27"/>
<rect width="16" height="1" transform="matrix(0.707107 -0.707107 -0.707107 -0.707107 98.8701 167.184)" fill="#242424"/>
<rect width="16" height="1" transform="matrix(0.707107 -0.707107 -0.707107 -0.707107 78.364 146.678)" fill="#242424"/>
<rect width="16" height="2" transform="matrix(0.707107 -0.707107 -0.707107 -0.707107 97.4558 165.77)" fill="#242424"/>
<rect width="16" height="1" transform="matrix(0.707107 -0.707107 -0.707107 -0.707107 76.9497 145.263)" fill="#242424"/>
<rect width="8" height="18" rx="4" transform="matrix(0.707107 -0.707107 -0.707107 -0.707107 96.0417 158.698)" fill="#242424"/>
<path fill-rule="evenodd" clip-rule="evenodd" d="M135.449 221.412C133.981 221.784 133.522 223.5 134.607 224.555L143.556 233.265C143.964 233.663 144.478 233.858 144.985 233.878C145.155 233.96 145.334 234.028 145.523 234.078L175.467 242.102C178.667 242.959 181.957 241.06 182.815 237.859L183.85 233.995C184.708 230.795 182.809 227.505 179.608 226.647L149.664 218.623C149.475 218.573 149.286 218.542 149.098 218.528C148.649 218.292 148.106 218.204 147.554 218.344L135.449 221.412Z" fill="#4A2CA2"/>
<rect x="144.557" y="233.819" width="16" height="1" transform="rotate(-75 144.557 233.819)" fill="#242424"/>
<rect x="172.569" y="241.325" width="16" height="1" transform="rotate(-75 172.569 241.325)" fill="#242424"/>
<rect x="146.489" y="234.337" width="16" height="2" transform="rotate(-75 146.489 234.337)" fill="#242424"/>
<rect x="174.501" y="241.843" width="16" height="1" transform="rotate(-75 174.501 241.843)" fill="#242424"/>
<rect x="153.32" y="232.026" width="8" height="18" rx="4" transform="rotate(-75 153.32 232.026)" fill="#242424"/>
<path d="M179.022 11.024C179.958 10.646 180.534 9.656 180.498 8.684C180.444 7.172 179.508 6.38 178.158 6.254C177.294 6.11 175.998 6.452 175.386 7.208C175.278 7.334 175.044 7.748 175.368 8.036C175.71 8.342 176.142 8.036 176.466 7.784C176.772 7.55 177.258 7.352 177.816 7.424C178.536 7.514 178.95 7.91 179.076 8.612C179.202 9.35 178.878 9.872 178.41 10.16C178.068 10.376 177.564 10.502 177.222 10.538C176.772 10.61 176.34 10.592 175.962 10.808C175.764 10.934 175.638 11.168 175.674 11.474C175.764 11.798 176.034 11.978 176.358 11.96C176.736 11.924 177.132 11.888 177.51 11.888C177.816 11.888 178.23 11.978 178.446 12.122C179.058 12.482 179.238 13.382 179.094 13.958C178.914 14.66 178.284 15.002 177.582 15.074C177.042 15.128 176.484 14.93 176.07 14.66C175.908 14.552 175.692 14.462 175.548 14.408C175.224 14.282 174.81 14.39 174.63 14.714C174.486 15.002 174.522 15.434 174.756 15.722C174.99 16.01 175.332 16.226 175.656 16.37C176.286 16.658 177.114 16.712 177.888 16.658C179.508 16.55 180.822 15.524 180.912 13.85C180.984 12.554 180.372 11.438 179.022 11.024Z" fill="white"/>
<path d="M73.07 180.496C73.412 180.496 73.664 180.424 73.88 180.244C74.204 179.992 74.384 179.686 74.438 179.146C74.528 177.94 74.51 175.906 74.474 174.106C74.456 173.098 74.42 172.18 74.33 171.568C74.258 171.028 74.078 170.65 73.736 170.434C73.412 170.236 72.89 170.038 72.602 170.308C72.404 170.452 72.458 170.884 72.476 171.118C72.566 172.396 72.548 173.674 72.476 174.952C72.404 176.284 72.242 177.706 72.026 179.128C71.972 179.452 71.99 179.812 72.17 180.064C72.368 180.316 72.62 180.496 73.07 180.496ZM78.308 178.822C79.208 177.904 80.504 176.536 81.134 175.402C81.494 174.754 81.674 174.16 81.728 173.494C81.89 171.478 80.54 169.984 78.524 170.182C77.552 170.272 76.598 170.668 76.238 171.802C76.076 172.288 76.112 172.99 76.4 173.386C76.508 173.53 76.706 173.656 76.886 173.602C77.066 173.548 77.156 173.404 77.138 173.296C77.066 172.918 77.012 172.63 77.102 172.27C77.228 171.802 77.696 171.406 78.254 171.352C79.316 171.262 79.928 171.874 80.054 172.81C80.126 173.35 80.072 173.854 79.874 174.34C79.298 175.78 78.11 176.86 76.958 178.048C76.418 178.588 75.878 179.254 76.112 180.028C76.256 180.514 76.67 180.694 77.444 180.64C78.614 180.568 80.09 180.604 81.26 180.658C81.638 180.676 82.142 180.586 82.322 180.172C82.484 179.686 82.34 179.146 81.674 178.876C81.296 178.732 80.756 178.66 80.144 178.66C79.748 178.66 78.866 178.732 78.308 178.822Z" fill="white"/>
<path fill-rule="evenodd" clip-rule="evenodd" d="M36.4228 159.908C31.6676 157.703 26.0238 159.772 23.8182 164.53C22.5214 167.328 19.2022 168.545 16.4045 167.248C13.6068 165.951 12.39 162.632 13.6868 159.834C18.4851 149.482 30.7663 144.978 41.1188 149.776C51.4713 154.575 55.9714 166.857 51.1731 177.21L30.2771 222.292C28.9803 225.089 25.6611 226.306 22.8634 225.009C20.0656 223.713 18.8489 220.393 20.1457 217.596L41.0417 172.514C43.2473 167.755 41.178 162.112 36.4228 159.908Z" fill="white"/>
<path d="M52 175C50.5 178 40 178.5 39 177L34 187.5C39.2 190.3 45.3635 188.705 47.5 185.5C49.6365 182.295 52 175 52 175Z" fill="#AC473D"/>
<path d="M42.5 196C41 199 31 198 30 196.5L25 207C30.2 209.8 36.0577 209.885 37.5 207C38.9423 204.115 42.5 196 42.5 196Z" fill="#AC473D"/>
<path d="M3.72333 225.31C2.94124 222.181 1.72331 215.81 6.72335 213.31C11.7234 210.81 51.2235 212.31 55.7235 214.31C57.5511 215.122 58.89 221.976 58.2233 226.31C58.2233 226.31 57.7233 229.81 54.7233 230.81C51.7233 231.81 9.8233 230.81 8.2233 230.81C6.2233 230.81 4.72324 229.31 3.72333 225.31Z" fill="#563930"/>
<path d="M26 161.5C26 161.5 19.5 156.333 16.5 155C16.5 155 17.5 153.5 20.5 151.5C23.5 149.5 24.5 149.5 24.5 149.5C29.3333 153.167 33.5 159 33 159C29.5 159 26 161.5 26 161.5Z" fill="#AC473D"/>
<path d="M39 161.5C43 158.7 42 152.667 40.5 149.5C46 151.5 49.1667 156 50.5 158.5C50.9 164.1 44.8333 167.667 42 169C42 165 40 162.833 39 161.5Z" fill="#AC473D"/>
<circle cx="159.5" cy="161.5" r="21.5" fill="#AC473D"/>
<path d="M156.07 167.496C156.412 167.496 156.664 167.424 156.88 167.244C157.204 166.992 157.384 166.686 157.438 166.146C157.528 164.94 157.51 162.906 157.474 161.106C157.456 160.098 157.42 159.18 157.33 158.568C157.258 158.028 157.078 157.65 156.736 157.434C156.412 157.236 155.89 157.038 155.602 157.308C155.404 157.452 155.458 157.884 155.476 158.118C155.566 159.396 155.548 160.674 155.476 161.952C155.404 163.284 155.242 164.706 155.026 166.128C154.972 166.452 154.99 166.812 155.17 167.064C155.368 167.316 155.62 167.496 156.07 167.496ZM163.522 162.024C164.458 161.646 165.034 160.656 164.998 159.684C164.944 158.172 164.008 157.38 162.658 157.254C161.794 157.11 160.498 157.452 159.886 158.208C159.778 158.334 159.544 158.748 159.868 159.036C160.21 159.342 160.642 159.036 160.966 158.784C161.272 158.55 161.758 158.352 162.316 158.424C163.036 158.514 163.45 158.91 163.576 159.612C163.702 160.35 163.378 160.872 162.91 161.16C162.568 161.376 162.064 161.502 161.722 161.538C161.272 161.61 160.84 161.592 160.462 161.808C160.264 161.934 160.138 162.168 160.174 162.474C160.264 162.798 160.534 162.978 160.858 162.96C161.236 162.924 161.632 162.888 162.01 162.888C162.316 162.888 162.73 162.978 162.946 163.122C163.558 163.482 163.738 164.382 163.594 164.958C163.414 165.66 162.784 166.002 162.082 166.074C161.542 166.128 160.984 165.93 160.57 165.66C160.408 165.552 160.192 165.462 160.048 165.408C159.724 165.282 159.31 165.39 159.13 165.714C158.986 166.002 159.022 166.434 159.256 166.722C159.49 167.01 159.832 167.226 160.156 167.37C160.786 167.658 161.614 167.712 162.388 167.658C164.008 167.55 165.322 166.524 165.412 164.85C165.484 163.554 164.872 162.438 163.522 162.024Z" fill="white"/>
<path d="M155.147 264.781C156.045 262.017 159.955 262.017 160.853 264.781L164.062 274.657C164.464 275.893 165.615 276.729 166.915 276.729H177.299C180.205 276.729 181.413 280.448 179.062 282.157L170.661 288.26C169.61 289.024 169.17 290.378 169.572 291.614L172.78 301.489C173.678 304.253 170.515 306.552 168.164 304.843L159.763 298.74C158.712 297.976 157.288 297.976 156.237 298.74L147.836 304.843C145.485 306.552 142.322 304.253 143.22 301.489L146.428 291.614C146.83 290.378 146.39 289.024 145.339 288.26L136.938 282.157C134.587 280.448 135.795 276.729 138.701 276.729H149.085C150.385 276.729 151.536 275.893 151.938 274.657L155.147 264.781Z" fill="#F5AF37"/>
<path d="M153.808 290.822C154.708 289.904 156.004 288.536 156.634 287.402C156.994 286.754 157.174 286.16 157.228 285.494C157.39 283.478 156.04 281.984 154.024 282.182C153.052 282.272 152.098 282.668 151.738 283.802C151.576 284.288 151.612 284.99 151.9 285.386C152.008 285.53 152.206 285.656 152.386 285.602C152.566 285.548 152.656 285.404 152.638 285.296C152.566 284.918 152.512 284.63 152.602 284.27C152.728 283.802 153.196 283.406 153.754 283.352C154.816 283.262 155.428 283.874 155.554 284.81C155.626 285.35 155.572 285.854 155.374 286.34C154.798 287.78 153.61 288.86 152.458 290.048C151.918 290.588 151.378 291.254 151.612 292.028C151.756 292.514 152.17 292.694 152.944 292.64C154.114 292.568 155.59 292.604 156.76 292.658C157.138 292.676 157.642 292.586 157.822 292.172C157.984 291.686 157.84 291.146 157.174 290.876C156.796 290.732 156.256 290.66 155.644 290.66C155.248 290.66 154.366 290.732 153.808 290.822ZM163.194 287.024C164.13 286.646 164.706 285.656 164.67 284.684C164.616 283.172 163.68 282.38 162.33 282.254C161.466 282.11 160.17 282.452 159.558 283.208C159.45 283.334 159.216 283.748 159.54 284.036C159.882 284.342 160.314 284.036 160.638 283.784C160.944 283.55 161.43 283.352 161.988 283.424C162.708 283.514 163.122 283.91 163.248 284.612C163.374 285.35 163.05 285.872 162.582 286.16C162.24 286.376 161.736 286.502 161.394 286.538C160.944 286.61 160.512 286.592 160.134 286.808C159.936 286.934 159.81 287.168 159.846 287.474C159.936 287.798 160.206 287.978 160.53 287.96C160.908 287.924 161.304 287.888 161.682 287.888C161.988 287.888 162.402 287.978 162.618 288.122C163.23 288.482 163.41 289.382 163.266 289.958C163.086 290.66 162.456 291.002 161.754 291.074C161.214 291.128 160.656 290.93 160.242 290.66C160.08 290.552 159.864 290.462 159.72 290.408C159.396 290.282 158.982 290.39 158.802 290.714C158.658 291.002 158.694 291.434 158.928 291.722C159.162 292.01 159.504 292.226 159.828 292.37C160.458 292.658 161.286 292.712 162.06 292.658C163.68 292.55 164.994 291.524 165.084 289.85C165.156 288.554 164.544 287.438 163.194 287.024Z" fill="white"/>
<path d="M232.631 218.201C230.701 214.858 229.837 210.381 232.779 209.456C234.078 208.706 235.672 208.583 237.24 210.183C238.425 211.392 241.547 213.132 241.158 210.969C240.505 207.341 238.544 205.585 240.872 202.474C241.906 201.091 243.159 200.269 244.919 200.741C246.627 201.198 248.039 202.043 249.374 203.177C249.729 203.479 251.715 204.928 251.606 204.638C250.254 201.029 250.828 194.174 255.64 193.19C257.554 192.798 260.134 194.998 261.544 196.014C262.567 196.751 263.48 197.818 263.385 196.231C263.087 191.267 263.726 185.967 269.262 184.345C272.491 183.399 274.571 185.759 276.284 188.022" stroke="white" stroke-width="3" stroke-linecap="round"/>
<rect x="145" y="35" width="29" height="25" rx="2" fill="white"/>
<rect x="252" y="61" width="4" height="183" fill="#191C21"/>
<rect x="313" y="188" width="4.00001" height="117" transform="rotate(90 313 188)" fill="#191C21"/>
<rect x="60" y="256" width="4" height="60" fill="#191C21"/>
<rect x="61" y="252" width="4" height="60" transform="rotate(90 61 252)" fill="#191C21"/>
<rect x="61" y="188" width="4" height="60" transform="rotate(90 61 188)" fill="#191C21"/>
</svg>
