<svg width="228" height="255" viewBox="0 0 228 255" fill="none" xmlns="http://www.w3.org/2000/svg">
<path d="M122.625 191.992C153.991 192.982 256.937 97.027 220.172 29.2479C190.213 -17.5952 140.044 -5.37581 113.369 46.0189C85.3559 -9.49881 29.4706 -10.6554 4.12053 43.7056C-21.2295 109.633 77.2123 188.662 113.369 190.729C116.133 191.443 119.207 191.885 122.625 191.992Z" fill="#AC473D"/>
<path d="M94.7537 155.469C95.0831 157.618 99.6611 161.987 101.107 163.092L93.2195 165.627L91.0776 163.293L88.4152 159.509C84.3969 159.17 80.9141 158.572 78.7863 156.289C76.7195 154.072 78.8665 149.709 81.6891 152.124C83.9908 154.093 85.6528 153.633 85.6528 153.633C85.6528 153.633 82.6046 148.335 82.7102 146.348C80.2233 146.184 75.6806 145.174 74.3025 141.538C73.2001 138.63 76.1279 136.552 77.4685 138.526C79.2976 141.219 81.6094 141.015 81.6094 141.015C78.1643 131.925 78.5264 129.162 80.6689 128.418C82.4065 127.814 84.4198 128.797 84.6925 132.362C84.9652 135.927 86.7342 138.5 86.7342 138.5C86.7342 138.5 88.8488 138.121 90.07 136.531C91.2912 134.941 93.801 134.133 94.7534 137.085C95.7057 140.037 89.0369 143.536 89.1163 144.678C89.3432 147.943 90.358 149.888 91.7185 151.923C94.9553 150.734 95.9226 145.483 98.4043 147.518C101.339 149.924 96.2366 154.139 94.7537 155.469Z" fill="#F0EDE2"/>
<path d="M141.243 160.437C140.652 162.582 135.478 166.473 133.877 167.422L141.593 170.948L144.049 168.833L147.205 165.307C151.33 165.445 154.942 165.256 157.377 163.191C159.742 161.186 158.078 156.492 154.922 158.608C152.348 160.333 150.713 159.666 150.713 159.666C150.713 159.666 154.442 154.646 154.571 152.614C157.119 152.746 161.857 152.266 163.69 148.735C165.157 145.911 162.428 143.447 160.83 145.292C158.65 147.81 156.325 147.325 156.325 147.325C160.908 138.499 160.869 135.646 158.78 134.632C157.085 133.809 154.922 134.567 154.22 138.158C153.519 141.749 151.414 144.152 151.414 144.152C151.414 144.152 149.31 143.512 148.258 141.749C147.205 139.986 144.75 138.863 143.431 141.749C142.111 144.635 148.474 148.994 148.258 150.146C147.638 153.437 146.375 155.293 144.75 157.197C141.601 155.6 141.243 150.146 138.478 151.916C135.208 154.009 139.893 158.907 141.243 160.437Z" fill="#F0EDE2"/>
<path d="M68.2955 165.88C75.4424 164.003 77.4798 165.577 85.42 168.903C95.4154 164.118 99.9388 161.696 109.336 161.223C113.003 161.038 114.007 161.534 118.194 161.813C133.111 162.806 144.54 170.041 148.29 174.032L157.675 173.716C165.6 174.244 170.824 175.533 173.839 181.853C173.839 181.853 176.744 189.229 170.921 192.954C163.643 197.61 155.226 189.556 155.226 189.556C158.395 194.453 160.504 200.81 161.5 207.388C162.908 216.685 162.093 226.423 158.911 233.102C149.583 252.679 137.321 255.198 112.988 254.989C88.1873 254.776 65.2894 242.399 64.6817 220.707C64.3925 210.385 71.2274 192.433 76.9112 184.339C76.9112 184.339 71.2776 184.568 69.8261 185.279C64.5782 187.852 59.0776 184.972 58.2002 176.974C58.6326 170.414 65.4474 166.628 68.2955 165.88Z" fill="#93594E"/>
<path d="M125.044 185.738C122.806 184.177 119.419 184.422 119.046 184.397" stroke="#67392A" stroke-linecap="round"/>
<path d="M103.599 241.185C112.706 245.086 119.852 243.208 122.307 241.489" stroke="#67392A" stroke-linecap="round"/>
<path d="M110.19 183.784C110.19 183.784 106.958 183.098 104.969 184.848" stroke="#67392A" stroke-linecap="round"/>
<path d="M102.117 198.255C101.031 192.598 103.522 190.671 105.615 189.902C107.708 189.134 110.755 189.289 111.841 192.438C112.928 195.586 111.5 198.22 110.861 199.648C109.504 202.679 103.202 203.912 102.117 198.255Z" fill="#F0EDE2"/>
<path d="M105.465 197.511C104.842 194.519 105.978 192.88 107.178 192.474C108.378 192.067 110.467 191.788 111.09 193.454C111.713 195.119 110.906 197.067 110.539 197.823C109.761 199.426 106.087 200.504 105.465 197.511Z" fill="black"/>
<path d="M125.425 199.807C127.278 194.238 124.879 191.952 122.868 190.893C120.856 189.834 118.209 190.522 116.69 193.556C115.172 196.59 115.808 198.501 116.264 200.031C117.229 203.277 123.571 205.376 125.425 199.807Z" fill="#F0EDE2"/>
<path d="M156.52 184.7C159.536 188.666 163.681 190.194 166.698 190.661C169.714 191.128 172.313 186.69 170.628 183.757C168.942 180.825 164.784 180.073 161.49 180.325C158.196 180.576 154.232 181.692 156.52 184.7Z" fill="#67392A"/>
<path d="M79.5943 179.001C78.9047 181.259 74.7822 180.109 72.3226 180.38C69.8631 180.651 66.2399 183.156 64.4487 181.626C62.2869 179.779 62.0369 177.358 63.3097 175.771C64.5826 174.183 68.0825 173.786 71.0882 174.581C72.4397 174.938 80.2839 176.743 79.5943 179.001Z" fill="#67392A"/>
<path d="M97.6866 224.317C101.169 228.315 112.449 227.654 113.067 218.282C112.665 222.02 117.454 229.87 128.515 225.429" stroke="#67392A" stroke-linecap="round"/>
<path d="M105.662 211.878C105.353 207.597 107.05 204.126 111.298 203.457C115.545 202.788 118.736 204.183 120.536 207.214C122.337 210.244 120.497 216.885 115.555 217.956C109.377 219.293 105.903 215.223 105.662 211.878Z" fill="#F0EDE2" stroke="#67392A"/>
<path d="M117.615 198.436C116.993 195.444 118.129 193.805 119.329 193.399C120.529 192.992 122.618 192.713 123.241 194.379C123.864 196.044 123.056 197.992 122.69 198.748C121.911 200.351 118.238 201.429 117.615 198.436Z" fill="black"/>
</svg>
