<svg width="60" height="60" viewBox="0 0 60 60" fill="none" xmlns="http://www.w3.org/2000/svg">
<rect width="60" height="60" rx="4" fill="#3C6C54"/>
<path d="M8.07079 17.3196C8.41279 17.3196 8.66478 17.2476 8.88079 17.0676C9.20478 16.8156 9.38479 16.5096 9.43879 15.9696C9.52879 14.7636 9.51079 12.7296 9.47479 10.9296C9.45679 9.92158 9.42079 9.00358 9.33079 8.39158C9.25879 7.85158 9.07879 7.47358 8.73679 7.25758C8.41279 7.05958 7.89079 6.86158 7.60278 7.13158C7.40478 7.27558 7.45878 7.70758 7.47679 7.94158C7.56679 9.21958 7.54879 10.4976 7.47679 11.7756C7.40478 13.1076 7.24279 14.5296 7.02679 15.9516C6.97278 16.2756 6.99079 16.6356 7.17079 16.8876C7.36879 17.1396 7.62079 17.3196 8.07079 17.3196Z" fill="white"/>
<path d="M12.5708 17.3196C12.9128 17.3196 13.1648 17.2476 13.3808 17.0676C13.7048 16.8156 13.8848 16.5096 13.9388 15.9696C14.0288 14.7636 14.0108 12.7296 13.9748 10.9296C13.9568 9.92158 13.9208 9.00358 13.8308 8.39158C13.7588 7.85158 13.5788 7.47358 13.2368 7.25758C12.9128 7.05958 12.3908 6.86158 12.1028 7.13158C11.9048 7.27558 11.9588 7.70758 11.9768 7.94158C12.0668 9.21958 12.0488 10.4976 11.9768 11.7756C11.9048 13.1076 11.7428 14.5296 11.5268 15.9516C11.4728 16.2756 11.4908 16.6356 11.6708 16.8876C11.8688 17.1396 12.1208 17.3196 12.5708 17.3196Z" fill="white"/>
<path d="M37.2551 25.0517C32.4999 22.8476 26.8561 24.916 24.6505 29.6745C23.3537 32.4722 20.0345 33.689 17.2368 32.3922C14.439 31.0954 13.2223 27.7762 14.519 24.9785C19.3173 14.6264 31.5986 10.1218 41.9511 14.9203C52.3036 19.7187 56.8037 32.0016 52.0054 42.3537L43.8262 60H31.5L41.8739 37.6577C44.0795 32.8992 42.0102 27.2558 37.2551 25.0517Z" fill="white"/>
<path d="M52.832 40.1442C51.332 43.1442 40.832 43.6442 39.832 42.1442L34.832 52.6442C40.032 55.4442 46.1955 53.8489 48.332 50.6442C50.4685 47.4394 52.832 40.1442 52.832 40.1442Z" fill="#AC473D"/>
<path d="M26.832 26.6442C26.832 26.6442 20.332 21.4775 17.332 20.1442C17.332 20.1442 18.332 18.6442 21.332 16.6442C24.332 14.6442 25.332 14.6442 25.332 14.6442C30.1653 18.3108 34.3321 24.1442 33.832 24.1442C30.332 24.1442 26.832 26.6442 26.832 26.6442Z" fill="#AC473D"/>
<path d="M39.832 26.6442C43.832 23.8442 42.832 17.8108 41.332 14.6442C46.832 16.6442 49.9987 21.1442 51.332 23.6442C51.732 29.2442 45.6654 32.8108 42.832 34.1442C42.832 30.1442 40.832 27.9775 39.832 26.6442Z" fill="#AC473D"/>
</svg>
