<svg width="60" height="60" viewBox="0 0 60 60" fill="none" xmlns="http://www.w3.org/2000/svg">
<rect width="60" height="60" rx="4" fill="#3C6C54"/>
<mask id="mask0_345_169" style="mask-type:alpha" maskUnits="userSpaceOnUse" x="0" y="0" width="60" height="60">
<rect width="60" height="60" rx="4" fill="#3C6C54"/>
</mask>
<g mask="url(#mask0_345_169)">
<path d="M-4.51921 7.26077C-3.24658 5.57974 -0.753428 5.57974 0.519207 7.26077L28.4409 46.068C30.0502 48.1938 28.5599 51.2727 25.9217 51.2727H-29.9217C-32.5599 51.2727 -34.0502 48.1938 -32.4409 46.068L-4.51921 7.26077Z" fill="#123C27"/>
<path d="M-4.53725 27.8241C-3.26526 26.111 -0.734738 26.111 0.537251 27.8241L43.9589 85.2639C45.5402 87.3937 44.0461 90.4445 41.4216 90.4445H-45.4216C-48.0461 90.4445 -49.5402 87.3937 -47.9589 85.2639L-4.53725 27.8241Z" fill="#123C27"/>
<path d="M-4.52987 48.2608C-3.25757 46.5609 -0.742442 46.5609 0.529865 48.2608L47.3449 110.81C48.9377 112.938 47.4451 116 44.815 116H-48.815C-51.4451 116 -52.9377 112.938 -51.3449 110.81L-4.52987 48.2608Z" fill="#123C27"/>
<path d="M-4.51921 7.26077C-3.24658 5.57974 -0.753428 5.57974 0.519207 7.26077L28.4409 46.068C30.0502 48.1938 28.5599 51.2727 25.9217 51.2727H-29.9217C-32.5599 51.2727 -34.0502 48.1938 -32.4409 46.068L-4.51921 7.26077Z" fill="#123C27"/>
</g>
<path d="M28 19V33" stroke="white" stroke-linecap="round"/>
<path d="M35 26L21 26" stroke="white" stroke-linecap="round"/>
<path d="M31.5 22.5L24.5 29.5" stroke="white" stroke-linecap="round"/>
<path d="M31.5 29.5L24.5 22.5" stroke="white" stroke-linecap="round"/>
<path d="M10 44V52" stroke="white" stroke-linecap="round"/>
<path d="M14 48L6 48" stroke="white" stroke-linecap="round"/>
<path d="M12 46L7.99999 50" stroke="white" stroke-linecap="round"/>
<path d="M12 50L7.99999 46" stroke="white" stroke-linecap="round"/>
<path d="M43.0708 17.5689C43.4128 17.5689 43.6648 17.4969 43.8808 17.3169C44.2048 17.0649 44.3848 16.7589 44.4388 16.2189C44.5288 15.0129 44.5108 12.9789 44.4748 11.1789C44.4568 10.1709 44.4208 9.25294 44.3308 8.64094C44.2588 8.10094 44.0788 7.72294 43.7368 7.50694C43.4128 7.30894 42.8908 7.11094 42.6028 7.38094C42.4048 7.52494 42.4588 7.95694 42.4768 8.19094C42.5668 9.46894 42.5488 10.7469 42.4768 12.0249C42.4048 13.3569 42.2428 14.7789 42.0268 16.2009C41.9728 16.5249 41.9908 16.8849 42.1708 17.1369C42.3688 17.3889 42.6208 17.5689 43.0708 17.5689Z" fill="white"/>
<path d="M51.4048 7.75894C50.3968 7.54294 49.2808 7.57894 48.2728 7.75894C48.2188 7.12894 47.8948 7.02094 47.4988 7.00294C46.7788 6.94894 46.6528 7.65094 46.5988 8.13694C46.4908 9.01894 46.4728 10.1529 46.5448 11.0529C46.5628 11.3409 46.6168 11.6469 46.6888 11.9529C46.8508 12.4929 47.2648 12.6369 47.6428 12.6009C47.9128 12.5649 48.1108 12.4209 48.2368 12.1689C48.6148 11.9709 49.1008 11.9169 49.5508 11.9709C50.5768 12.1149 51.2068 12.8349 51.2068 13.9149C51.2248 15.1209 50.5768 16.0029 49.3888 16.0569C48.7588 16.0929 47.9128 15.8409 47.5348 15.1749C47.3548 14.8509 47.1208 14.4009 46.6168 14.5809C46.1128 14.7789 46.1668 15.3909 46.3648 15.8229C46.7968 16.8669 47.8768 17.7309 49.3888 17.7129C51.4768 17.6949 52.7548 16.2729 52.8268 14.3829C52.8988 12.4749 52.0528 11.0529 49.8928 10.8009C49.3888 10.7469 48.8128 10.8189 48.2728 11.0169C48.2548 10.5309 48.2548 10.0449 48.2548 9.63094C48.2368 9.45094 48.2368 9.10894 48.2548 8.78494C48.7228 8.67694 49.0828 8.64094 49.6588 8.62294C50.5048 8.60494 51.2788 8.71294 52.1068 8.94694C52.2328 8.98294 52.4488 8.91094 52.5028 8.76694C52.5748 8.53294 52.5208 8.31694 52.3408 8.15494C52.0888 7.92094 51.7288 7.84894 51.4048 7.75894Z" fill="white"/>
</svg>
