<svg width="60" height="60" viewBox="0 0 60 60" fill="none" xmlns="http://www.w3.org/2000/svg">
<rect width="60" height="60" rx="4" fill="#3C6C54"/>
<mask id="mask0_345_140" style="mask-type:alpha" maskUnits="userSpaceOnUse" x="0" y="0" width="60" height="60">
<rect width="60" height="60" rx="4" fill="#3C6C54"/>
</mask>
<g mask="url(#mask0_345_140)">
<path d="M59.4808 -56.7392C60.7534 -58.4203 63.2466 -58.4203 64.5192 -56.7392L92.4409 -17.932C94.0502 -15.8062 92.5599 -12.7273 89.9217 -12.7273H34.0783C31.4401 -12.7273 29.9498 -15.8062 31.5591 -17.932L59.4808 -56.7392Z" fill="#123C27"/>
<path d="M59.4627 -36.1759C60.7347 -37.889 63.2653 -37.889 64.5373 -36.1759L107.959 21.2639C109.54 23.3937 108.046 26.4445 105.422 26.4445H18.5784C15.9539 26.4445 14.4598 23.3937 16.0411 21.2639L59.4627 -36.1759Z" fill="#123C27"/>
<path d="M59.4701 -15.7392C60.7424 -17.4391 63.2576 -17.4391 64.5299 -15.7392L111.345 46.8095C112.938 48.9377 111.445 52 108.815 52H15.185C12.5549 52 11.0623 48.9377 12.6551 46.8095L59.4701 -15.7392Z" fill="#123C27"/>
<path d="M59.4808 -56.7392C60.7534 -58.4203 63.2466 -58.4203 64.5192 -56.7392L92.4409 -17.932C94.0502 -15.8062 92.5599 -12.7273 89.9217 -12.7273H34.0783C31.4401 -12.7273 29.9498 -15.8062 31.5591 -17.932L59.4808 -56.7392Z" fill="#123C27"/>
</g>
<path d="M48 37V45" stroke="white" stroke-linecap="round"/>
<path d="M52 41L44 41" stroke="white" stroke-linecap="round"/>
<path d="M50 39L46 43" stroke="white" stroke-linecap="round"/>
<path d="M50 43L46 39" stroke="white" stroke-linecap="round"/>
<path d="M10 23V35" stroke="white" stroke-linecap="round"/>
<path d="M16 29L4 29" stroke="white" stroke-linecap="round"/>
<path d="M13 26L6.99998 32" stroke="white" stroke-linecap="round"/>
<path d="M13 32L6.99998 26" stroke="white" stroke-linecap="round"/>
<path d="M27.0708 34.3196C27.4128 34.3196 27.6648 34.2476 27.8808 34.0676C28.2048 33.8156 28.3848 33.5096 28.4388 32.9696C28.5288 31.7636 28.5108 29.7296 28.4748 27.9296C28.4568 26.9216 28.4208 26.0036 28.3308 25.3916C28.2588 24.8516 28.0788 24.4736 27.7368 24.2576C27.4128 24.0596 26.8908 23.8616 26.6028 24.1316C26.4048 24.2756 26.4588 24.7076 26.4768 24.9416C26.5668 26.2196 26.5488 27.4976 26.4768 28.7756C26.4048 30.1076 26.2428 31.5296 26.0268 32.9516C25.9728 33.2756 25.9908 33.6356 26.1708 33.8876C26.3688 34.1396 26.6208 34.3196 27.0708 34.3196Z" fill="white"/>
<path d="M32.4168 24.4016C30.9228 24.4376 29.8608 25.5176 29.8608 27.2096C29.8608 28.6856 30.6708 29.6576 31.7148 29.9096C32.3988 30.0716 33.4788 30.0176 34.0368 29.4056C33.9288 31.0076 33.7128 31.5476 33.4068 32.9696C33.2988 33.4196 33.2448 33.7976 33.6408 34.0856C33.8748 34.2476 34.1988 34.2836 34.5588 34.1936C34.9188 34.1396 35.1888 33.9056 35.4228 33.5276C35.6388 33.1676 35.7468 32.5916 35.8008 32.1236C36.0168 30.0176 36.0708 27.8396 35.7828 25.5356C35.7288 25.1216 35.6388 24.8336 35.4768 24.5636C35.2968 24.2756 34.9728 24.1136 34.6668 24.1136C34.3428 24.1136 34.1448 24.2756 34.1628 24.5096C34.1988 24.7076 34.1988 24.9776 34.2528 25.2116C33.8928 24.6536 33.2268 24.3836 32.4168 24.4016ZM32.5788 25.4096C33.6588 25.4096 34.0368 26.2376 34.0368 27.1376C34.0368 28.2536 33.2988 28.7936 32.4528 28.7396C31.5888 28.6856 31.1388 27.9476 31.1388 27.1556C31.1388 26.2916 31.5888 25.4096 32.5788 25.4096Z" fill="white"/>
</svg>
