<svg width="60" height="60" viewBox="0 0 60 60" fill="none" xmlns="http://www.w3.org/2000/svg">
<rect width="60" height="60" rx="4" fill="#3C6C54"/>
<mask id="mask0_111_427" style="mask-type:alpha" maskUnits="userSpaceOnUse" x="0" y="0" width="60" height="60">
<rect width="60" height="60" rx="4" fill="#3C6C54"/>
</mask>
<g mask="url(#mask0_111_427)">
<path d="M-4.51921 -56.7392C-3.24658 -58.4203 -0.753428 -58.4203 0.519207 -56.7392L28.4409 -17.932C30.0502 -15.8062 28.5599 -12.7273 25.9217 -12.7273H-29.9217C-32.5599 -12.7273 -34.0502 -15.8062 -32.4409 -17.932L-4.51921 -56.7392Z" fill="#123C27"/>
<path d="M-4.53725 -36.1759C-3.26526 -37.889 -0.734738 -37.889 0.537251 -36.1759L43.9589 21.2639C45.5402 23.3937 44.0461 26.4445 41.4216 26.4445H-45.4216C-48.0461 26.4445 -49.5402 23.3937 -47.9589 21.2639L-4.53725 -36.1759Z" fill="#123C27"/>
<path d="M-4.52987 -15.7392C-3.25757 -17.4391 -0.742442 -17.4391 0.529865 -15.7392L47.3449 46.8095C48.9377 48.9377 47.4451 52 44.815 52H-48.815C-51.4451 52 -52.9377 48.9377 -51.3449 46.8095L-4.52987 -15.7392Z" fill="#123C27"/>
<path d="M-4.51921 -56.7392C-3.24658 -58.4203 -0.753428 -58.4203 0.519207 -56.7392L28.4409 -17.932C30.0502 -15.8062 28.5599 -12.7273 25.9217 -12.7273H-29.9217C-32.5599 -12.7273 -34.0502 -15.8062 -32.4409 -17.932L-4.51921 -56.7392Z" fill="#123C27"/>
</g>
<path d="M48 7V17" stroke="white" stroke-linecap="round"/>
<path d="M53 12L43 12" stroke="white" stroke-linecap="round"/>
<path d="M50.5 9.5L45.5 14.5" stroke="white" stroke-linecap="round"/>
<path d="M50.5 14.5L45.5 9.49998" stroke="white" stroke-linecap="round"/>
<path d="M41 45V57" stroke="white" stroke-linecap="round"/>
<path d="M47 51L35 51" stroke="white" stroke-linecap="round"/>
<path d="M44 48L38 54" stroke="white" stroke-linecap="round"/>
<path d="M44 54L38 48" stroke="white" stroke-linecap="round"/>
<path d="M10.2521 36.6649C11.1521 35.7469 12.4481 34.3789 13.0781 33.2449C13.4381 32.5969 13.6181 32.0029 13.6721 31.3369C13.8341 29.3209 12.4841 27.8269 10.4681 28.0249C9.49609 28.1149 8.54209 28.5109 8.18209 29.6449C8.02009 30.1309 8.05609 30.8329 8.34409 31.2289C8.45209 31.3729 8.65009 31.4989 8.83009 31.4449C9.01009 31.3909 9.10009 31.2469 9.08209 31.1389C9.01009 30.7609 8.95609 30.4729 9.04609 30.1129C9.17209 29.6449 9.64009 29.2489 10.1981 29.1949C11.2601 29.1049 11.8721 29.7169 11.9981 30.6529C12.0701 31.1929 12.0161 31.6969 11.8181 32.1829C11.2421 33.6229 10.0541 34.7029 8.90209 35.8909C8.36209 36.4309 7.82209 37.0969 8.05609 37.8709C8.20009 38.3569 8.61409 38.5369 9.38809 38.4829C10.5581 38.4109 12.0341 38.4469 13.2041 38.5009C13.5821 38.5189 14.0861 38.4289 14.2661 38.0149C14.4281 37.5289 14.2841 36.9889 13.6181 36.7189C13.2401 36.5749 12.7001 36.5029 12.0881 36.5029C11.6921 36.5029 10.8101 36.5749 10.2521 36.6649Z" fill="white"/>
<path d="M16.182 29.4649C15.444 30.6709 15.336 32.0569 15.336 33.4069C15.336 34.3609 15.498 35.6749 15.912 36.5749C16.542 37.9429 17.622 38.5729 18.936 38.5549C20.142 38.5369 21.042 38.0509 21.6 37.1689C22.518 35.7469 22.698 33.0289 22.374 31.2289C22.014 29.2309 20.736 27.7909 18.414 28.0249C17.514 28.1149 16.74 28.5649 16.182 29.4649ZM20.97 33.2989C20.97 34.3069 20.844 35.4049 20.376 36.1069C20.016 36.6649 19.494 36.8629 18.864 36.8449C18.288 36.8269 17.784 36.4489 17.496 35.9089C17.136 35.2249 16.974 34.1269 16.956 33.3709C16.92 32.4529 17.028 31.2649 17.424 30.4189C17.694 29.8429 18.234 29.4469 18.846 29.4109C19.476 29.3749 20.034 29.6629 20.394 30.1849C20.916 30.9409 20.97 32.3629 20.97 33.2989Z" fill="white"/>
</svg>
