<svg width="60" height="60" viewBox="0 0 60 60" fill="none" xmlns="http://www.w3.org/2000/svg">
<rect width="60" height="60" rx="4" fill="#3C6C54"/>
<circle cx="30" cy="30" r="22" fill="#AC473D"/>
<rect x="12" y="39" width="36" height="3" rx="1.5" fill="#123B27"/>
<rect x="8" y="28" width="44" height="3" rx="1.5" fill="#123B27"/>
<rect x="12" y="17" width="36" height="3" rx="1.5" fill="#123B27"/>
<rect x="39.5" y="47" width="36" height="3" rx="1.5" transform="rotate(-90 39.5 47)" fill="#123B27"/>
<rect x="28.5" y="52" width="44" height="3" rx="1.5" transform="rotate(-90 28.5 52)" fill="#123B27"/>
<rect x="17.5" y="48" width="37" height="3" rx="1.5" transform="rotate(-90 17.5 48)" fill="#123B27"/>
<path d="M31.4773 29.8022C32.4133 29.4242 32.9893 28.4342 32.9533 27.4622C32.8993 25.9502 31.9633 25.1582 30.6133 25.0322C29.7493 24.8882 28.4533 25.2302 27.8413 25.9862C27.7333 26.1122 27.4993 26.5262 27.8233 26.8142C28.1653 27.1202 28.5973 26.8142 28.9213 26.5622C29.2273 26.3282 29.7133 26.1302 30.2713 26.2022C30.9913 26.2922 31.4053 26.6882 31.5313 27.3902C31.6573 28.1282 31.3333 28.6502 30.8653 28.9382C30.5233 29.1542 30.0193 29.2802 29.6773 29.3162C29.2273 29.3882 28.7953 29.3702 28.4173 29.5862C28.2193 29.7122 28.0933 29.9462 28.1293 30.2522C28.2193 30.5762 28.4893 30.7562 28.8133 30.7382C29.1913 30.7022 29.5873 30.6662 29.9653 30.6662C30.2713 30.6662 30.6853 30.7562 30.9013 30.9002C31.5133 31.2602 31.6933 32.1602 31.5493 32.7362C31.3693 33.4382 30.7393 33.7802 30.0373 33.8522C29.4973 33.9062 28.9393 33.7082 28.5253 33.4382C28.3633 33.3302 28.1473 33.2402 28.0033 33.1862C27.6793 33.0602 27.2653 33.1682 27.0853 33.4922C26.9413 33.7802 26.9773 34.2122 27.2113 34.5002C27.4453 34.7882 27.7873 35.0042 28.1113 35.1482C28.7413 35.4362 29.5693 35.4902 30.3433 35.4362C31.9633 35.3282 33.2773 34.3022 33.3673 32.6282C33.4393 31.3322 32.8273 30.2162 31.4773 29.8022Z" fill="white"/>
</svg>
