<svg width="60" height="60" viewBox="0 0 60 60" fill="none" xmlns="http://www.w3.org/2000/svg">
<rect width="60" height="60" rx="4" fill="#3C6C54"/>
<rect x="24" width="12" height="10" rx="2" fill="#F5AF37"/>
<circle cx="30" cy="31" r="24" fill="#D5921F"/>
<rect x="6" y="26" width="48" height="10" rx="2" fill="#F5AF37"/>
<rect x="12" y="44" width="36" height="4" rx="2" fill="#F5AF37"/>
<rect x="12" y="14" width="36" height="4" rx="2" fill="#F5AF37"/>
<path d="M29.5102 29.206C29.9962 28.414 30.4822 27.892 31.0942 27.172C31.3642 26.848 31.4902 26.524 31.2742 26.326C31.0042 26.056 30.5722 26.218 30.2122 26.452C29.8342 26.704 29.4202 27.082 29.0782 27.424C27.8182 28.738 26.9902 30.304 26.7742 32.05C26.6842 32.824 26.7562 33.688 26.9722 34.426C27.3682 35.632 28.3762 36.748 30.0502 36.694C31.8862 36.64 33.1642 35.236 33.0922 33.4C33.0562 32.572 32.8942 31.78 32.3002 31.114C31.5622 30.304 30.6802 30.124 29.6182 30.286C29.3662 30.322 29.0242 30.448 28.7182 30.628C28.9522 30.124 29.2222 29.656 29.5102 29.206ZM29.8162 31.51C30.8062 31.528 31.3282 32.446 31.2742 33.418C31.2382 34.462 30.6262 35.11 29.8342 35.038C28.9882 34.966 28.5562 34.336 28.3942 33.58C28.3042 33.166 28.2862 32.788 28.3042 32.32C28.3042 32.194 28.3222 32.05 28.3402 31.906C28.7362 31.654 29.2762 31.492 29.8162 31.51Z" fill="white"/>
<circle cx="42" cy="46" r="2" fill="white"/>
<circle cx="42" cy="16" r="2" fill="white"/>
<circle cx="34" cy="46" r="2" fill="white"/>
<circle cx="34" cy="16" r="2" fill="white"/>
<circle cx="26" cy="46" r="2" fill="white"/>
<circle cx="26" cy="16" r="2" fill="white"/>
<circle cx="18" cy="46" r="2" fill="white"/>
<circle cx="18" cy="16" r="2" fill="white"/>
</svg>
