<svg width="41" height="41" viewBox="0 0 41 41" fill="none" xmlns="http://www.w3.org/2000/svg">
<rect x="0.5" width="40" height="41" rx="5" fill="#2D62AD"/>
<path d="M19.0098 23.2757C18.533 23.2757 18.0847 23.0899 17.7469 22.7527C15.0792 20.0849 15.0792 15.744 17.7469 13.0763L21.3222 9.50112C22.6125 8.21064 24.3307 7.5 26.1606 7.5C27.9904 7.5 29.7086 8.21064 30.9988 9.50112C33.6666 12.1688 33.6666 16.5097 30.9988 19.1774L28.6154 21.5608C28.2782 21.8982 27.8299 22.084 27.3525 22.0841C26.8757 22.0841 26.4274 21.8983 26.0896 21.5611C25.7524 21.2238 25.5663 20.7752 25.5663 20.298C25.5663 19.8209 25.7523 19.3724 26.0896 19.035L28.473 16.6516C29.7481 15.3766 29.7481 13.302 28.473 12.0271C27.8567 11.4108 27.0351 11.0712 26.1606 11.0712C25.286 11.0712 24.4645 11.4108 23.8481 12.0271L20.2728 15.6022C18.9976 16.8771 18.9976 18.9517 20.2728 20.2266C20.9693 20.923 20.9693 22.0562 20.2728 22.7526C19.9349 23.09 19.4866 23.2757 19.0098 23.2757Z" fill="white"/>
<path d="M14.8391 32.5002C13.0092 32.5002 11.291 31.7895 10.0008 30.4991C7.33307 27.8313 7.33307 23.4905 10.0008 20.8228L11.7888 19.035C12.126 18.6978 12.5749 18.512 13.0517 18.512C13.5285 18.512 13.9774 18.6979 14.3146 19.0353C14.6519 19.3725 14.8379 19.8211 14.8379 20.2981C14.8379 20.7753 14.6519 21.2239 14.3146 21.5613L12.5266 23.3489C11.2515 24.6236 11.2515 26.6981 12.5266 27.9731C13.143 28.5894 13.9646 28.9289 14.8391 28.9289C15.7136 28.9289 16.5352 28.5895 17.1515 27.9731L20.7269 24.3979C22.002 23.123 22.002 21.0485 20.7269 19.7736C20.3896 19.4362 20.2035 18.9876 20.2035 18.5106C20.2035 18.0335 20.3896 17.585 20.7269 17.2476C21.0641 16.9103 21.513 16.7246 21.9898 16.7246C22.4666 16.7246 22.9155 16.9102 23.2527 17.2475C25.9204 19.9153 25.9204 24.2562 23.2527 26.9239L19.6773 30.4991C18.3871 31.7895 16.6689 32.5002 14.8391 32.5002Z" fill="white"/>
</svg>
