<svg width="274" height="273" viewBox="0 0 274 273" fill="none" xmlns="http://www.w3.org/2000/svg">
<path d="M200.619 38.3029C197.72 31.3476 192.905 27.6134 192.855 27.5752C192.61 27.4005 190.208 25.8227 187.041 28.3723C184.524 30.6161 185.769 33.0619 185.993 33.4549C193.292 42.725 194.854 51.3781 190.77 59.8947C189.902 61.7127 187.904 62.7008 186.015 62.2477C185.578 62.144 185.169 61.9693 184.792 61.729C182.155 60.0585 177.487 54.4026 176.963 53.7638C176.952 53.7474 176.941 53.7311 176.925 53.7147C176.788 53.54 173.529 49.3253 169.604 51.7548C168.752 52.2789 168.245 52.9722 168.048 53.873C167.54 56.1769 169.167 59.3269 169.839 60.3424C169.85 60.3587 172.907 64.7262 177.711 68.9736C179.556 70.606 179.944 72.7078 178.798 74.8916C178.737 75.0008 178.666 75.1045 178.585 75.1919C171.154 83.0861 167.06 91.2533 166.438 93.8083L176.188 95.3097C180.555 86.8203 186.462 81.088 190.006 77.7032C192.659 75.17 194.952 72.9808 197.059 69.1975C203.299 57.9948 204.5 47.5947 200.63 38.2974L200.619 38.3029Z" fill="#685B4D"/>
<path d="M200.619 38.3031C197.72 31.3478 192.905 27.6136 192.856 27.5754C192.632 27.4171 190.618 26.1014 187.866 27.7938C188.909 28.6782 192.856 32.2759 195.367 38.3031C199.243 47.6004 198.042 58.0005 191.797 69.2032C189.69 72.9865 187.397 75.1757 184.743 77.7089C181.309 80.9899 175.086 87.0553 170.871 95.0151L175.73 95.763C180.097 87.2737 186.452 81.0937 189.995 77.7089C192.649 75.1757 194.941 72.9865 197.049 69.2032C203.289 58.0005 204.49 47.6004 200.619 38.3031Z" fill="#605040"/>
<path d="M238.712 85.1227C238.963 84.0636 238.734 82.9553 238.079 82.0764C237.424 81.1974 236.436 80.6569 235.349 80.5859C234.11 80.5041 232.674 80.4495 231.107 80.4495C223.453 80.4495 212.485 81.7816 203.898 88.1472C196.593 93.5629 190.752 100.01 187.46 106.3C184.326 112.278 183.895 117.322 186.248 120.489C188.595 123.66 193.541 124.714 200.174 123.458C207.152 122.137 215.019 118.425 222.329 113.009C232.68 105.339 237.036 92.2417 238.712 85.1172V85.1227Z" fill="#93724E"/>
<path d="M238.086 82.0762C237.437 81.1972 236.443 80.6567 235.357 80.5858C234.407 80.5257 233.348 80.4766 232.201 80.4602C232.671 81.2464 232.84 82.1854 232.654 83.0916C231.186 90.2598 227.342 102.631 217.215 110.607C210.069 116.235 199.712 118.195 192.774 119.724C190.912 120.133 191.665 123.169 190.082 123.207C192.67 124.13 196.104 124.233 200.176 123.464C207.154 122.143 215.02 118.43 222.331 113.014C232.682 105.344 237.038 92.247 238.714 85.1225C238.965 84.0634 238.736 82.9551 238.081 82.0762H238.086Z" fill="#825838"/>
<path d="M228.516 91.3463C228.663 90.724 228.527 90.0743 228.145 89.5557C227.762 89.0425 227.178 88.7204 226.54 88.6822C225.677 88.6276 224.683 88.5894 223.597 88.5894C218.307 88.5894 210.74 89.5065 204.822 93.8904C199.761 97.641 195.727 102.096 193.45 106.442C191.37 110.416 191.048 113.872 192.566 115.924C194.089 117.977 197.485 118.676 201.896 117.841C206.711 116.929 212.154 114.363 217.21 110.612C224.339 105.328 227.348 96.2762 228.51 91.3518L228.516 91.3463Z" fill="#DDBB92"/>
<path d="M228.146 89.5557C227.764 89.0425 227.18 88.7204 226.541 88.6822C225.679 88.6276 224.685 88.5894 223.599 88.5894C223.468 88.5894 223.326 88.5894 223.195 88.5894C221.66 93.6557 218.587 100.649 212.653 105.049C207.592 108.8 202.154 111.366 197.339 112.278C195.155 112.692 193.217 112.725 191.634 112.409C191.585 113.806 191.896 115.002 192.573 115.919C194.096 117.972 197.492 118.671 201.903 117.835C206.718 116.924 212.161 114.358 217.217 110.607C224.346 105.322 227.355 96.2707 228.517 91.3463C228.665 90.724 228.528 90.0743 228.146 89.5557Z" fill="#C18856"/>
<path d="M96.1458 106.3C92.8537 100.01 87.0122 93.5629 79.7076 88.1472C71.1145 81.7816 60.1521 80.4495 52.4981 80.4495C50.9312 80.4495 49.5009 80.5041 48.2561 80.5859C47.1697 80.6569 46.1761 81.1974 45.5264 82.0764C44.8768 82.9553 44.6475 84.0636 44.8931 85.1227C46.5692 92.2472 50.9258 105.344 61.2767 113.015C68.5814 118.43 76.4483 122.143 83.4254 123.464C90.0585 124.72 95.0047 123.666 97.3577 120.494C99.7053 117.322 99.274 112.283 96.1458 106.305V106.3Z" fill="#93724E"/>
<path d="M90.1588 106.436C87.8823 102.09 83.8478 97.6354 78.7869 93.8848C72.8744 89.5009 65.3077 88.5837 60.0121 88.5837C58.9257 88.5837 57.9321 88.622 57.0695 88.6765C56.4308 88.7202 55.8466 89.0369 55.4645 89.5501C55.0823 90.0632 54.9458 90.7184 55.0932 91.3407C56.2506 96.2651 59.2587 105.317 66.3941 110.601C71.455 114.352 76.8925 116.918 81.7077 117.83C86.1134 118.665 89.5146 117.966 91.0378 115.913C92.5609 113.861 92.2388 110.405 90.1533 106.43L90.1588 106.436Z" fill="#DDBB92"/>
<path d="M104.817 74.8971C103.671 72.7133 104.058 70.6115 105.904 68.9791C110.708 64.7317 113.76 60.3642 113.793 60.3205C114.442 59.3269 116.075 56.1769 115.561 53.873C115.365 52.9722 114.852 52.2789 114.005 51.7548C110.075 49.3254 106.815 53.5345 106.679 53.7147C106.668 53.7256 106.657 53.7474 106.646 53.7584C106.122 54.3971 101.454 60.053 98.8175 61.7236C98.4408 61.9638 98.0313 62.133 97.5946 62.2422C95.7056 62.6954 93.7075 61.7017 92.8395 59.8892C88.7559 51.3726 90.3227 42.7195 97.6164 33.4495C97.8676 33.0018 99.0577 30.5833 96.5682 28.3614C95.187 27.2531 93.9532 26.9255 92.9814 26.9255C91.7148 26.9255 90.885 27.4769 90.7376 27.5807C90.7103 27.6025 85.8897 31.3367 82.9908 38.292C79.1146 47.5893 80.3157 57.9894 86.5612 69.192C88.6685 72.9754 90.9615 75.1646 93.6147 77.6977C97.1578 81.0825 104.026 90.0632 108.393 98.5525L118.144 97.0512C117.521 94.5017 112.471 83.0861 105.036 75.1864C104.948 75.0936 104.877 74.9953 104.823 74.8861L104.817 74.8971Z" fill="#685B4D"/>
<path d="M226.386 174.809C224.535 169.017 223.274 163.224 222.63 157.585C220.462 138.504 211.105 120.882 196.277 107.959C181.319 94.9222 161.971 87.7432 141.804 87.7432C121.637 87.7432 102.289 94.9222 87.3302 107.959C72.5025 120.882 63.1451 138.504 60.9778 157.585C60.339 163.224 59.0724 169.017 57.2217 174.809C54.1262 184.505 50.5394 203.067 61.3272 218.424C73.5889 235.878 100.662 244.727 141.804 244.727C182.946 244.727 210.019 235.878 222.28 218.424C233.068 203.067 229.481 184.505 226.386 174.809Z" fill="#D1A87C"/>
<path d="M110.668 149.587H110.662C107.041 149.587 104.105 152.522 104.105 156.144V159.305C104.105 162.926 107.041 165.861 110.662 165.861H110.668C114.289 165.861 117.224 162.926 117.224 159.305V156.144C117.224 152.522 114.289 149.587 110.668 149.587Z" fill="#4F4034"/>
<path d="M172.395 165.861H172.4C176.022 165.861 178.957 162.926 178.957 159.305V156.144C178.957 152.522 176.022 149.587 172.4 149.587H172.395C168.774 149.587 165.838 152.522 165.838 156.144V159.305C165.838 162.926 168.774 165.861 172.395 165.861Z" fill="#4F4034"/>
<path d="M154.492 190.756C154.121 189.932 153.149 189.566 152.325 189.937C149.453 191.231 146.456 191.973 143.442 192.17V188.19C143.442 187.284 142.711 186.552 141.804 186.552C140.898 186.552 140.167 187.284 140.167 188.19V192.17C137.153 191.973 134.156 191.231 131.284 189.937C130.46 189.566 129.488 189.937 129.117 190.756C128.746 191.58 129.117 192.552 129.936 192.923C133.719 194.632 137.694 195.489 141.673 195.506C141.717 195.506 141.761 195.517 141.804 195.517C141.848 195.517 141.892 195.506 141.935 195.506C145.91 195.489 149.89 194.627 153.673 192.923C154.497 192.552 154.863 191.58 154.492 190.756Z" fill="#5E4530"/>
<path d="M226.388 174.809C224.537 169.017 223.276 163.224 222.632 157.585C220.464 138.504 211.107 120.882 196.279 107.959C181.32 94.9222 161.972 87.7432 141.805 87.7432C139.371 87.7432 136.947 87.8524 134.539 88.0598C152.053 89.5666 168.6 96.5 181.752 107.965C196.579 120.887 205.937 138.51 208.104 157.59C208.743 163.23 210.009 169.022 211.86 174.815C214.956 184.511 218.542 203.072 207.755 218.43C196.23 234.835 171.619 243.636 134.545 244.635C136.914 244.7 139.338 244.733 141.811 244.733C182.953 244.733 210.026 235.883 222.288 218.43C233.075 203.072 229.488 184.511 226.393 174.815L226.388 174.809Z" fill="#C18856"/>
<path d="M182.569 98.3014C170.242 91.3899 156.14 87.7375 141.804 87.7375C127.467 87.7375 113.366 91.3899 101.039 98.3014C90.1799 104.389 80.8772 112.867 73.9492 122.961C80.4677 121.302 94.8095 119.063 108.846 126.395C121.631 133.072 129.231 146.016 134.679 164.868H148.934C154.382 146.016 161.982 133.078 174.767 126.395C188.804 119.063 203.145 121.302 209.664 122.961C202.736 112.867 193.439 104.389 182.574 98.3014H182.569Z" fill="#93724E"/>
<path d="M209.66 122.961C202.732 112.867 193.435 104.389 182.571 98.3014C170.243 91.3899 156.142 87.7375 141.805 87.7375C139.376 87.7375 136.952 87.8522 134.539 88.0596C146.342 89.0806 157.801 92.5636 168.043 98.3014C178.318 104.061 187.195 111.961 193.986 121.345C200.592 121.051 206.221 122.088 209.66 122.961Z" fill="#825838"/>
<path d="M141.805 163.066C134.997 163.066 129.461 168.209 129.461 174.536C129.461 180.864 134.997 186.006 141.805 186.006C148.612 186.006 154.148 180.864 154.148 174.536C154.148 168.209 148.612 163.066 141.805 163.066Z" fill="#C4451E"/>
<path d="M141.805 160.882C133.796 160.882 127.277 167.008 127.277 174.536C127.277 182.065 133.796 188.19 141.805 188.19C149.814 188.19 156.332 182.065 156.332 174.536C156.332 167.008 149.814 160.882 141.805 160.882ZM141.805 186.006C134.997 186.006 129.461 180.864 129.461 174.536C129.461 168.209 134.997 163.066 141.805 163.066C148.613 163.066 154.148 168.209 154.148 174.536C154.148 180.864 148.613 186.006 141.805 186.006Z" fill="#5E4530"/>
<path d="M148.463 164.889C150.319 166.898 151.449 169.503 151.449 172.352C151.449 178.674 145.914 183.823 139.106 183.823C136.654 183.823 134.367 183.151 132.445 181.999C134.711 184.45 138.068 186.006 141.808 186.006C148.616 186.006 154.152 180.864 154.152 174.536C154.152 170.491 151.881 166.931 148.469 164.889H148.463Z" fill="#A0432D"/>
<path d="M93.2005 191.04C100.066 191.04 105.632 186.037 105.632 179.865C105.632 173.693 100.066 168.689 93.2005 168.689C86.3351 168.689 80.7695 173.693 80.7695 179.865C80.7695 186.037 86.3351 191.04 93.2005 191.04Z" fill="#D87252"/>
<path d="M190.408 191.04C197.273 191.04 202.839 186.037 202.839 179.865C202.839 173.693 197.273 168.689 190.408 168.689C183.542 168.689 177.977 173.693 177.977 179.865C177.977 186.037 183.542 191.04 190.408 191.04Z" fill="#D87252"/>
<path d="M137.652 170.401C138.827 169.723 139.324 168.383 138.762 167.409C138.199 166.435 136.791 166.196 135.616 166.874C134.441 167.552 133.944 168.892 134.506 169.866C135.069 170.84 136.477 171.079 137.652 170.401Z" fill="white"/>
</svg>
