<svg width="24" height="24" viewBox="0 0 24 24" fill="none" xmlns="http://www.w3.org/2000/svg">
<path d="M12 24C18.6274 24 24 18.6274 24 12C24 5.37258 18.6274 0 12 0C5.37258 0 0 5.37258 0 12C0 18.6274 5.37258 24 12 24Z" fill="#2C6B51"/>
<path d="M14.4492 11.9999L17.1292 9.31986C17.8292 8.61986 17.7892 7.44987 17.0592 6.79987C16.3692 6.18987 15.3092 6.23987 14.6292 6.91987L11.9992 9.54987L9.36923 6.91987C8.68923 6.23987 7.61923 6.18987 6.93923 6.79987C6.20923 7.45987 6.16923 8.62986 6.86923 9.31986L9.54922 11.9999L6.86923 14.6799C6.18923 15.3599 6.21922 16.5399 6.92922 17.1899C7.59922 17.8099 8.70925 17.7599 9.38925 17.0699L12.0092 14.4499L14.6292 17.0699C15.2992 17.7399 16.4492 17.8199 17.1392 17.1399C17.8192 16.4799 17.8092 15.3499 17.1392 14.6799L14.4592 11.9999H14.4492Z" fill="white"/>
</svg>
