<svg width="390" height="879" viewBox="0 0 390 879" fill="none" xmlns="http://www.w3.org/2000/svg">
<path d="M331.26 319.5H59.74L16.5 439.5H142.5L195.5 350.5L248.5 439.5H373.5L331.26 319.5Z" fill="#21499D"/>
<path d="M247.969 441.58L194.969 350.5L141.969 441.58H16.4688V831.5H373.469V441.58H247.969Z" fill="#2D62AD"/>
<path d="M15.4405 437.5C15.4405 437.5 11.4405 443.5 20.4405 443.5H127.441C127.441 443.5 144.441 444.5 150.441 433.5C152.691 429.37 184.251 375.87 193.361 360.91C194.301 359.37 196.551 359.39 197.461 360.95L232.441 427.5C234.051 430.24 237.441 443.5 251.571 444.5H371.44C371.44 444.5 375.44 444.5 375.44 440.5C375.44 436.5 372.44 431.5 372.44 431.5C372.44 431.5 360.44 428.5 354.44 431.5C348.44 434.5 329.44 432.5 324.44 431.5C319.44 430.5 302.44 429.5 292.44 431.5C282.44 433.5 259.441 433.5 256.441 431.5C253.441 429.5 250.441 427.5 245.441 421.5C240.441 415.5 239.441 412.5 234.441 404.5C229.441 396.5 224.441 382.5 216.441 372.5C208.441 362.5 207.441 355.5 203.441 349.5C199.441 343.5 189.441 343.5 184.441 352.5C179.441 361.5 161.941 384 158.941 393C155.941 402 144.941 413 140.941 420C136.941 427 128.941 430 120.941 431C112.941 432 96.9405 429 86.9405 430C76.9405 431 56.9405 431 50.9405 431C44.9405 431 26.6405 426.43 22.2905 428.22C17.9405 430.01 15.4405 437.5 15.4405 437.5Z" fill="#F9F9F9"/>
<path d="M69.5719 314.41C64.2119 314.9 59.4319 318.3 57.6219 323.37C57.2719 324.34 57.0419 325.35 56.9619 326.41C56.5119 332.73 59.7619 338.86 71.5019 336.61C83.2419 334.36 87.3019 333 96.3219 333.45C105.352 333.9 114.372 337.96 124.752 335.26C135.132 332.55 145.962 328.04 158.152 330.3C170.342 332.56 179.812 333.46 188.392 332.56C196.972 331.66 208.702 328.05 219.982 332.11C231.262 336.17 241.192 344.3 256.542 342.04C271.892 339.78 275.052 327.15 285.882 329.85C296.712 332.56 298.972 339.78 306.642 338.43C314.312 337.08 313.412 331.21 321.082 331.21C328.752 331.21 332.362 333.02 336.432 333.02C340.502 333.02 339.462 327.67 338.682 325.98C337.542 323.5 336.582 311.52 318.072 311.97C299.562 312.42 274.142 308.2 234.422 311.36C194.702 314.52 160.802 310.19 144.602 310.01C131.932 309.86 122.032 314.07 113.462 314.07C105.652 314.07 89.1519 312.65 69.5619 314.45L69.5719 314.41Z" fill="#F9F9F9"/>
<path d="M162 830.5H0V842.5H162V830.5Z" fill="#CCCCCC"/>
<path d="M390 830.5H228V842.5H390V830.5Z" fill="#CCCCCC"/>
<path d="M162 842.5H0V854.5H162V842.5Z" fill="#B3B3B3"/>
<path d="M390 842.5H228V854.5H390V842.5Z" fill="#B3B3B3"/>
<path d="M162 854.5H0V866.5H162V854.5Z" fill="#CCCCCC"/>
<path d="M390 854.5H228V866.5H390V854.5Z" fill="#CCCCCC"/>
<path d="M162 866.5H0V878.5H162V866.5Z" fill="#B3B3B3"/>
<path d="M390 866.5H228V878.5H390V866.5Z" fill="#B3B3B3"/>
<path d="M238 842.5L228 830.5H162L152 842.5H238Z" fill="#E6E6E6"/>
<path d="M238 842.5H152V854.5H238V842.5Z" fill="#CCCCCC"/>
<path d="M142 866.5H248L238 854.5H152L142 866.5Z" fill="#E6E6E6"/>
<path d="M248 866.5H142V878.5H248V866.5Z" fill="#CCCCCC"/>
<path d="M0 830.5H390C390 830.5 386 816.5 368 817.5C350 818.5 330 825.5 315 823.5C300 821.5 265.95 816.3 245.98 816.9C226 817.5 222 821.5 210 821.5C198 821.5 182.49 810.9 157.75 813.2C133 815.5 116.1 814.67 96.05 812.58C76 810.49 47 819.5 31 818.5C15 817.5 0 819.5 0 819.5V830.5Z" fill="#F9F9F9"/>
<path d="M214.262 449.5H174.262C168.739 449.5 164.262 453.977 164.262 459.5V495.5C164.262 501.023 168.739 505.5 174.262 505.5H214.262C219.785 505.5 224.262 501.023 224.262 495.5V459.5C224.262 453.977 219.785 449.5 214.262 449.5Z" fill="#1C3249"/>
<path d="M98.8384 449.59H98.0784L44.0384 449.64C38.4384 449.64 33.8984 454.13 33.8984 459.65L33.9384 495.65C33.9384 501.17 38.4884 505.65 44.0984 505.64L98.1384 505.59H98.8984L148.878 505.54C154.478 505.54 159.018 501.05 159.018 495.53L158.978 459.53C158.978 454.01 154.428 449.53 148.818 449.54L98.8384 449.59Z" fill="#1C3249"/>
<path d="M279.52 449.44H239.52C233.997 449.44 229.52 453.917 229.52 459.44V495.44C229.52 500.963 233.997 505.44 239.52 505.44H279.52C285.042 505.44 289.52 500.963 289.52 495.44V459.44C289.52 453.917 285.042 449.44 279.52 449.44Z" fill="#1C3249"/>
<path d="M344.789 449.37H304.789C299.266 449.37 294.789 453.847 294.789 459.37V495.37C294.789 500.893 299.266 505.37 304.789 505.37H344.789C350.312 505.37 354.789 500.893 354.789 495.37V459.37C354.789 453.847 350.312 449.37 344.789 449.37Z" fill="#1C3249"/>
<path d="M214.379 510.12H174.379C168.856 510.12 164.379 514.597 164.379 520.12V556.12C164.379 561.643 168.856 566.12 174.379 566.12H214.379C219.902 566.12 224.379 561.643 224.379 556.12V520.12C224.379 514.597 219.902 510.12 214.379 510.12Z" fill="#1C3249"/>
<path d="M149.18 510.2H109.18C103.657 510.2 99.1797 514.677 99.1797 520.2V556.2C99.1797 561.723 103.657 566.2 109.18 566.2H149.18C154.703 566.2 159.18 561.723 159.18 556.2V520.2C159.18 514.677 154.703 510.2 149.18 510.2Z" fill="#1C3249"/>
<path d="M83.9805 510.21H43.9805C38.4576 510.21 33.9805 514.687 33.9805 520.21V556.21C33.9805 561.733 38.4576 566.21 43.9805 566.21H83.9805C89.5033 566.21 93.9805 561.733 93.9805 556.21V520.21C93.9805 514.687 89.5033 510.21 83.9805 510.21Z" fill="#1C3249"/>
<path d="M344.852 509.97H304.852C299.329 509.97 294.852 514.447 294.852 519.97V555.97C294.852 561.493 299.329 565.97 304.852 565.97H344.852C350.374 565.97 354.852 561.493 354.852 555.97V519.97C354.852 514.447 350.374 509.97 344.852 509.97Z" fill="#1C3249"/>
<path d="M214.441 570.73H174.441C168.919 570.73 164.441 575.207 164.441 580.73V616.73C164.441 622.253 168.919 626.73 174.441 626.73H214.441C219.964 626.73 224.441 622.253 224.441 616.73V580.73C224.441 575.207 219.964 570.73 214.441 570.73Z" fill="#1C3249"/>
<path d="M149.238 570.77H109.238C103.715 570.77 99.2383 575.247 99.2383 580.77V616.77C99.2383 622.293 103.715 626.77 109.238 626.77H149.238C154.761 626.77 159.238 622.293 159.238 616.77V580.77C159.238 575.247 154.761 570.77 149.238 570.77Z" fill="#1C3249"/>
<path d="M84.0391 570.8H44.0391C38.5162 570.8 34.0391 575.277 34.0391 580.8V616.8C34.0391 622.323 38.5162 626.8 44.0391 626.8H84.0391C89.5619 626.8 94.0391 622.323 94.0391 616.8V580.8C94.0391 575.277 89.5619 570.8 84.0391 570.8Z" fill="#1C3249"/>
<path d="M239.619 510.12C234.099 510.12 229.619 514.67 229.629 520.27L229.679 569.95V581.1L229.729 616.59C229.729 622.19 234.219 626.73 239.739 626.72L279.739 626.68C285.259 626.68 289.739 622.13 289.729 616.53L289.689 581.04V569.89L289.629 520.21C289.629 514.61 285.139 510.07 279.619 510.08L239.619 510.12Z" fill="#1C3249"/>
<path d="M344.898 570.57H304.898C299.376 570.57 294.898 575.047 294.898 580.57V616.57C294.898 622.093 299.376 626.57 304.898 626.57H344.898C350.421 626.57 354.898 622.093 354.898 616.57V580.57C354.898 575.047 350.421 570.57 344.898 570.57Z" fill="#1C3249"/>
<path d="M214.441 631.35H174.441C168.919 631.35 164.441 635.827 164.441 641.35V677.35C164.441 682.873 168.919 687.35 174.441 687.35H214.441C219.964 687.35 224.441 682.873 224.441 677.35V641.35C224.441 635.827 219.964 631.35 214.441 631.35Z" fill="#1C3249"/>
<path d="M108.148 631.37H98.2581L44.2181 631.43C38.6181 631.43 34.0781 635.92 34.0781 641.44L34.1181 677.44C34.1181 682.96 38.6681 687.44 44.2781 687.43L98.3181 687.38H108.208L149.058 687.33C154.658 687.33 159.198 682.84 159.198 677.32L159.158 641.32C159.158 635.8 154.608 631.32 148.998 631.33L108.148 631.37Z" fill="#1C3249"/>
<path d="M279.699 631.4H239.699C234.176 631.4 229.699 635.877 229.699 641.4V677.4C229.699 682.923 234.176 687.4 239.699 687.4H279.699C285.222 687.4 289.699 682.923 289.699 677.4V641.4C289.699 635.877 285.222 631.4 279.699 631.4Z" fill="#1C3249"/>
<path d="M344.961 631.17H304.961C299.438 631.17 294.961 635.647 294.961 641.17V677.17C294.961 682.693 299.438 687.17 304.961 687.17H344.961C350.484 687.17 354.961 682.693 354.961 677.17V641.17C354.961 635.647 350.484 631.17 344.961 631.17Z" fill="#1C3249"/>
<path d="M149.359 691.99H109.359C103.837 691.99 99.3594 696.467 99.3594 701.99V737.99C99.3594 743.513 103.837 747.99 109.359 747.99H149.359C154.882 747.99 159.359 743.513 159.359 737.99V701.99C159.359 696.467 154.882 691.99 149.359 691.99Z" fill="#1C3249"/>
<path d="M84.1484 692.04H44.1484C38.6256 692.04 34.1484 696.517 34.1484 702.04V738.04C34.1484 743.563 38.6256 748.04 44.1484 748.04H84.1484C89.6713 748.04 94.1484 743.563 94.1484 738.04V702.04C94.1484 696.517 89.6713 692.04 84.1484 692.04Z" fill="#1C3249"/>
<path d="M279.781 691.89H239.781C234.258 691.89 229.781 696.367 229.781 701.89V737.89C229.781 743.413 234.258 747.89 239.781 747.89H279.781C285.304 747.89 289.781 743.413 289.781 737.89V701.89C289.781 696.367 285.304 691.89 279.781 691.89Z" fill="#1C3249"/>
<path d="M345.02 691.77H305.02C299.497 691.77 295.02 696.247 295.02 701.77V737.77C295.02 743.293 299.497 747.77 305.02 747.77H345.02C350.542 747.77 355.02 743.293 355.02 737.77V701.77C355.02 696.247 350.542 691.77 345.02 691.77Z" fill="#1C3249"/>
<path d="M174.56 691.99C169.04 691.99 164.56 696.54 164.57 702.13L164.61 741.65V748.74L164.67 798.39C164.67 803.99 169.16 808.52 174.68 808.51L214.68 808.47C220.2 808.47 224.68 803.92 224.67 798.33L224.62 748.68V741.59L224.57 702.07C224.57 696.47 220.08 691.94 214.56 691.95L174.56 691.99Z" fill="#1C3249"/>
<path d="M149.398 752.56H109.398C103.876 752.56 99.3984 757.037 99.3984 762.56V798.56C99.3984 804.083 103.876 808.56 109.398 808.56H149.398C154.921 808.56 159.398 804.083 159.398 798.56V762.56C159.398 757.037 154.921 752.56 149.398 752.56Z" fill="#1C3249"/>
<path d="M84.2109 752.63H44.2109C38.6881 752.63 34.2109 757.107 34.2109 762.63V798.63C34.2109 804.153 38.6881 808.63 44.2109 808.63H84.2109C89.7338 808.63 94.2109 804.153 94.2109 798.63V762.63C94.2109 757.107 89.7338 752.63 84.2109 752.63Z" fill="#1C3249"/>
<path d="M301.19 752.4H294.08L239.97 752.46C234.36 752.46 229.81 756.95 229.82 762.47L229.86 798.47C229.86 803.99 234.42 808.47 240.03 808.46L294.14 808.41H301.25L344.95 808.36C350.56 808.36 355.11 803.87 355.1 798.35L355.06 762.35C355.06 756.83 350.5 752.35 344.89 752.36L301.19 752.4Z" fill="#1C3249"/>
<path d="M33.6016 500.58C33.6016 500.58 33.6016 493.24 41.7516 493.44C49.9016 493.64 56.8416 497.52 64.9916 497.52C73.1416 497.52 93.7416 494.87 101.692 495.28C109.642 495.69 123.102 498.95 131.252 498.54C139.402 498.13 147.362 494.67 151.432 494.87C155.502 495.07 159.742 494.68 159.742 499.29C159.742 501.74 158.772 506.49 143.482 506.49H44.1016C44.1016 506.49 33.8116 507.51 33.6016 500.58Z" fill="#F9F9F9"/>
<path d="M229.819 803.24C229.819 803.24 229.819 795.9 237.969 796.1C246.119 796.3 253.059 800.18 261.209 800.18C269.359 800.18 289.959 797.53 297.909 797.94C305.859 798.35 319.319 801.61 327.469 801.2C335.619 800.79 343.579 797.33 347.649 797.53C351.729 797.73 355.959 797.34 355.959 801.95C355.959 804.4 354.989 809.15 339.699 809.15H240.309C240.309 809.15 230.019 810.17 229.809 803.24H229.819Z" fill="#F9F9F9"/>
<path d="M229.839 499.7C229.839 499.7 228.429 496.25 235.249 495.77C240.509 495.4 243.019 499.27 249.089 499.27C255.159 499.27 261.769 494.53 267.559 495.36C273.349 496.19 279.049 498.9 282.729 497.29C291.179 493.59 290.179 498.67 289.899 501.7C289.619 504.73 284.929 506.67 276.929 506.39C268.929 506.11 242.439 507.49 237.199 506.67C231.959 505.85 229.829 501.64 229.829 499.7H229.839Z" fill="#F9F9F9"/>
<path d="M229.839 620.15C229.839 620.15 228.429 616.7 235.249 616.22C240.509 615.85 243.019 619.72 249.089 619.72C255.159 619.72 261.769 614.98 267.559 615.81C273.349 616.64 279.049 619.35 282.729 617.74C291.179 614.04 290.179 619.12 289.899 622.15C289.619 625.18 284.929 627.12 276.929 626.84C268.929 626.56 242.439 627.94 237.199 627.12C231.959 626.3 229.829 622.09 229.829 620.15H229.839Z" fill="#F9F9F9"/>
<path d="M224.141 680.84C224.141 680.84 225.551 677.39 218.731 676.91C213.471 676.54 210.961 680.41 204.891 680.41C198.821 680.41 192.211 675.67 186.421 676.5C180.631 677.33 174.931 680.04 171.251 678.43C162.801 674.73 163.801 679.81 164.081 682.84C164.361 685.87 169.051 687.81 177.051 687.53C185.051 687.25 211.541 688.63 216.781 687.81C222.021 686.98 224.151 682.78 224.151 680.84H224.141Z" fill="#F9F9F9"/>
<path d="M94.0391 741.75C94.0391 741.75 95.4491 738.3 88.6291 737.82C83.3691 737.45 80.8591 741.32 74.7891 741.32C68.7191 741.32 62.1091 736.58 56.3191 737.41C50.5291 738.24 44.8291 740.95 41.1491 739.34C32.6991 735.64 33.6991 740.72 33.9791 743.75C34.2591 746.78 38.9491 748.72 46.9491 748.44C54.9491 748.16 81.4391 749.54 86.6791 748.72C91.9191 747.9 94.0491 743.69 94.0491 741.75H94.0391Z" fill="#F9F9F9"/>
<path d="M163.381 558.79C163.381 558.79 164.181 567.41 175.601 567.41H214.671C214.671 567.41 229.541 566.24 225.691 556.99C223.421 551.54 215.671 557.39 206.251 557.39C196.831 557.39 196.031 554.99 189.821 554.79C183.611 554.59 178.401 557.6 173.791 556.19C169.181 554.78 164.171 553.18 163.371 558.79H163.381Z" fill="#F9F9F9"/>
<path d="M95.099 618.77C95.099 618.77 94.299 627.39 82.879 627.39C71.459 627.39 43.809 627.39 43.809 627.39C43.809 627.39 28.939 626.22 32.789 616.97C35.059 611.52 42.809 617.37 52.229 617.37C61.649 617.37 62.449 614.97 68.659 614.77C74.869 614.57 80.079 617.58 84.689 616.17C89.299 614.77 94.309 613.16 95.109 618.77H95.099Z" fill="#F9F9F9"/>
<path d="M100.479 617.59C98.9291 617.34 97.6491 618.78 98.0991 620.29C98.9991 623.28 101.519 627.49 108.619 627.49H151.499C151.499 627.49 159.989 626.86 159.989 615.74C159.989 615.74 158.609 613.56 155.059 614.02C147.779 614.96 150.019 617.57 144.049 618.03C138.079 618.49 138.429 615.51 133.389 615.62C128.349 615.73 127.329 618.16 124.099 618.26C116.529 618.49 117.909 616.11 112.629 615.74C107.699 615.4 104.489 618.38 101.619 617.8C101.199 617.72 100.819 617.65 100.469 617.59H100.479Z" fill="#F9F9F9"/>
<path d="M92.7483 798.6C94.2983 798.35 95.5783 799.79 95.1283 801.3C94.2283 804.29 91.7083 808.5 84.6083 808.5C73.5983 808.5 41.7283 808.5 41.7283 808.5C41.7283 808.5 33.2383 807.87 33.2383 796.75C33.2383 796.75 34.6183 794.57 38.1683 795.03C45.4483 795.97 43.2083 798.58 49.1783 799.04C55.1383 799.5 54.7983 796.52 59.8383 796.63C64.8783 796.74 65.8983 799.17 69.1283 799.27C76.6983 799.5 75.3183 797.12 80.5983 796.75C85.5283 796.41 88.7383 799.39 91.6083 798.81C92.0283 798.73 92.4083 798.66 92.7583 798.6H92.7483Z" fill="#F9F9F9"/>
<path d="M49.3181 463.99C49.6981 463.89 49.6981 463.39 49.1981 463.47C48.6181 463.61 47.9181 463.69 47.2981 463.73C46.2581 463.81 45.5781 463.15 45.3181 461.93C45.0381 460.31 45.9181 459.33 47.0181 458.93C47.8981 458.63 49.1981 458.49 50.3781 458.49C51.9581 458.49 53.2181 459.23 53.2981 460.77C53.4781 464.43 53.4581 469.97 53.2981 473.63C53.2181 474.99 51.8781 475.59 50.4781 475.59C49.0781 475.59 47.7581 474.99 47.6781 473.63C47.5381 470.85 47.5381 466.75 47.6781 464.33C48.1981 464.25 48.8781 464.13 49.3181 463.99Z" fill="#5B93BC"/>
<path d="M192.089 487.13C191.539 488.18 192.919 488.64 193.419 487.68C195.029 484.74 197.689 482.45 201.819 482.45C206.449 482.45 209.439 485.52 209.439 490.11C209.439 494.7 206.779 497.45 202.469 497.91C197.379 498.46 189.669 498.51 184.579 497.96C180.729 497.5 177.419 494.79 177.839 490.62C178.349 483.97 188.709 477.96 193.669 472.13L194.399 471.26C194.949 470.57 193.799 469.7 193.159 470.43L191.369 472.54C190.269 473.82 189.029 475.11 187.519 475.61C185.359 476.39 182.699 476.07 180.779 474.92C177.979 473.27 177.059 469.51 178.389 466.29C180.779 460.78 186.879 458.31 193.939 458.31C202.659 458.31 208.529 462.94 208.529 469.6C208.529 476.26 204.449 479.37 200.589 481.16C196.409 481.85 193.519 484.05 192.099 487.12L192.089 487.13Z" fill="#5B93BC"/>
<path d="M252.091 470.25C252.091 473.57 249.291 475.77 245.131 475.77C240.971 475.77 238.271 473.63 238.191 470.93C238.191 468.87 239.811 467.87 241.731 467.87C243.511 467.87 245.131 468.79 245.231 470.57C245.251 470.99 245.831 470.95 245.811 470.55C245.711 468.83 244.191 467.41 241.991 467.41H241.451C240.651 467.41 240.651 465.71 241.451 465.71H242.251C244.251 465.71 245.351 464.79 245.851 463.85C246.071 463.45 245.571 463.21 245.371 463.59C244.831 464.67 243.491 465.27 242.111 465.27C239.991 465.27 238.591 464.03 238.591 462.39C238.591 459.51 242.171 458.31 245.131 458.31C249.051 458.31 251.691 460.05 251.691 462.51C251.691 464.03 250.711 465.41 248.891 465.93C250.951 466.57 252.091 468.13 252.091 470.25Z" fill="#5B93BC"/>
<path d="M309.25 472.81C308.01 472.87 306.85 472.77 305.61 472.53C304.31 472.25 303.25 471.27 303.25 469.71C303.25 468.71 303.69 467.83 304.15 467.19C305.83 464.91 308.17 462.13 310.29 459.85C311.07 459.03 312.31 458.35 313.71 458.35C315.33 458.35 316.35 459.39 316.59 461.05C316.81 462.63 316.43 463.75 315.71 464.63C313.45 464.23 311.61 464.93 310.19 466.33C309.97 466.53 310.35 466.91 310.59 466.69C311.65 465.67 313.01 465.05 314.41 465.05C317.01 465.05 318.11 466.97 318.11 468.67C318.11 470.67 316.41 472.11 314.55 472.31C314.13 472.35 314.21 472.73 314.57 472.71C315.11 472.67 315.81 472.53 316.53 472.15C317.05 473.93 315.59 475.73 312.95 475.73C310.31 475.73 308.85 474.33 309.25 472.81Z" fill="#5B93BC"/>
<path d="M49.5015 534.41C49.3215 530.72 49.7715 526.57 50.6715 523.47C51.4415 520.63 53.1915 519.24 56.1215 518.97C60.8015 518.56 65.9815 518.56 70.8915 518.92C74.4015 519.15 76.0215 519.96 76.9715 522.07C77.7815 523.87 77.7415 527.38 76.7415 529.91C76.2015 531.22 74.9815 531.62 73.9015 531.13C70.7915 529.73 67.8215 529.24 64.4915 529.19C63.3615 529.19 63.4115 530.5 64.3115 530.54C67.2815 530.63 79.6215 530.95 79.6215 544.28C79.6215 554.01 71.5615 557.88 63.6315 557.88C58.8615 557.88 54.7115 556.62 52.2415 554.73C46.8815 550.63 47.6515 544.06 50.7115 541.26C52.3315 539.77 54.3615 539.19 56.3015 539.19C58.2415 539.19 60.2615 539.86 61.6615 541.13C63.5115 542.66 63.7815 544.06 64.0515 544.87C64.2815 545.73 65.6715 545.68 65.5815 544.69C65.4915 543.52 64.4115 541.49 63.1915 540.28C61.4815 538.61 59.0015 537.94 56.4815 537.94C54.5915 537.94 52.9715 538.26 51.4415 539.02C50.1815 538.52 49.6815 537.08 49.5015 534.43V534.41Z" fill="#5B93BC"/>
<path d="M111.15 524.78C112.15 523.8 113.59 523.06 115.43 523.08C118.75 523.1 121.03 525.58 121.03 529.12C121.03 532.66 118.43 535.28 113.69 535.28C108.95 535.28 106.57 532.48 106.57 528.9C106.57 525.8 107.15 522.94 107.95 521C108.71 519.22 110.29 517.94 112.65 517.94C114.69 517.94 116.23 518.84 116.15 520.36C116.11 521.2 115.81 521.98 115.17 522.5C113.15 522.5 111.57 523.48 110.75 524.34C110.43 524.62 110.89 525.04 111.15 524.78ZM114.55 530.62C114.25 530.14 114.15 529.54 114.15 529.06C114.15 528.58 114.25 528 114.55 527.5C114.79 527.16 114.03 526.92 113.83 527.28C113.51 527.86 113.39 528.44 113.39 529.06C113.39 529.68 113.51 530.28 113.83 530.86C114.03 531.2 114.79 530.98 114.55 530.62Z" fill="#5B93BC"/>
<path d="M173.519 525.81C171.779 525.37 171.019 524.09 171.039 522.67C171.059 520.61 172.339 519.43 173.779 518.79C175.659 517.93 179.339 517.75 181.759 518.25C183.639 518.63 184.559 519.65 184.519 521.61C184.419 525.21 183.439 530.41 182.139 533.31C181.519 534.65 180.719 535.25 179.299 535.25C177.879 535.25 177.079 534.29 177.019 532.63C176.819 528.67 177.759 524.53 179.119 521.57C179.219 521.31 178.819 521.13 178.679 521.41C178.219 522.23 177.819 523.19 177.499 524.29C176.679 525.57 175.379 526.31 173.519 525.81Z" fill="#5B93BC"/>
<path d="M237.6 555.8C237.6 548.07 244.38 540.27 258.84 540.2C273.23 540.2 280.07 548.06 280.07 555.8C280.07 561.82 277.92 565.5 275.06 567.21C279.56 569.3 282.1 574.25 282.1 579.32C282.1 589.21 273.23 595.48 258.84 595.48C244.39 595.42 235.57 589.2 235.57 579.32C235.57 574.25 238.11 569.3 242.67 567.21C239.75 565.5 237.6 561.82 237.6 555.8ZM259.09 561C260.8 558.53 261.18 555.04 261.31 551.93C261.31 550.47 259.22 550.47 259.15 551.55C258.96 554.66 258.39 557.25 256.87 560.3C256.36 561.25 258.2 562.2 259.09 561ZM259.09 584.01C260.8 581.6 261.18 578.11 261.31 575.01C261.31 573.49 259.22 573.49 259.15 574.57C258.96 577.68 258.39 580.34 256.87 583.32C256.36 584.33 258.2 585.22 259.09 584.02V584.01Z" fill="#5B93BC"/>
<path d="M343.32 553.02C343.62 552.7 343.18 552.3 342.9 552.56C341.9 553.54 340.46 554.28 338.62 554.26C335.48 554.24 333.02 551.74 333.02 548.58C333.02 544.96 335.62 542.06 340.38 542.06C344.88 542.06 347.48 544.86 347.48 549.2C347.48 551.54 346.92 554.42 346.1 556.34C345.36 558.12 343.76 559.52 341.34 559.52C339.2 559.52 337.76 558.5 337.82 556.96C337.86 556.14 338.28 555.38 338.88 554.82C340.9 554.82 342.5 553.84 343.32 553.02ZM340.12 549.64C339.82 549.16 339.7 548.58 339.7 548.1C339.7 547.62 339.82 547.02 340.12 546.52C340.36 546.18 339.6 545.96 339.4 546.3C339.08 546.88 338.96 547.46 338.96 548.1C338.96 548.7 339.08 549.3 339.4 549.86C339.6 550.22 340.36 550 340.12 549.64Z" fill="#5B93BC"/>
<path d="M45.4783 583.35C45.8583 583.25 45.8583 582.75 45.3583 582.83C44.7783 582.97 44.0783 583.05 43.4583 583.09C42.4183 583.17 41.7383 582.51 41.4783 581.29C41.1983 579.67 42.0783 578.69 43.1783 578.29C44.0583 577.99 45.3583 577.85 46.5383 577.85C48.1183 577.85 49.3783 578.59 49.4583 580.13C49.6383 583.79 49.6183 589.33 49.4583 592.99C49.3783 594.35 48.0383 594.95 46.6383 594.95C45.2383 594.95 43.9183 594.35 43.8383 592.99C43.6983 590.21 43.6983 586.11 43.8383 583.69C44.3583 583.61 45.0383 583.49 45.4783 583.35Z" fill="#5B93BC"/>
<path d="M50.9219 586.35C50.9219 581.53 53.3019 577.65 58.0619 577.65C62.8219 577.65 65.1819 581.53 65.1819 586.35C65.1819 591.17 62.8219 595.11 58.0619 595.11C53.3019 595.11 50.9219 591.21 50.9219 586.35ZM58.4419 589.09C58.0019 588.19 57.8419 587.19 57.8419 586.35C57.8419 585.51 58.0019 584.53 58.4419 583.65C58.7419 583.03 58.0219 582.67 57.7219 583.23C57.2419 584.17 57.0219 585.29 57.0219 586.35C57.0219 587.41 57.2419 588.55 57.7219 589.49C58.0219 590.05 58.7419 589.69 58.4419 589.09Z" fill="#5B93BC"/>
<path d="M110.478 582.54C110.858 582.44 110.858 581.94 110.358 582.02C109.778 582.16 109.078 582.24 108.458 582.28C107.418 582.36 106.738 581.7 106.478 580.48C106.198 578.86 107.078 577.88 108.178 577.48C109.058 577.18 110.358 577.04 111.538 577.04C113.118 577.04 114.378 577.78 114.458 579.32C114.638 582.98 114.628 588.52 114.468 592.18C114.388 593.54 113.048 594.14 111.648 594.14C110.248 594.14 108.928 593.54 108.848 592.18C108.708 589.4 108.698 585.3 108.848 582.88C109.368 582.8 110.048 582.68 110.488 582.54H110.478Z" fill="#5B93BC"/>
<path d="M119.779 582.53C120.159 582.43 120.159 581.93 119.659 582.01C119.079 582.15 118.379 582.23 117.759 582.27C116.719 582.35 116.039 581.69 115.779 580.47C115.499 578.85 116.379 577.87 117.479 577.47C118.359 577.17 119.659 577.03 120.839 577.03C122.419 577.03 123.679 577.77 123.759 579.31C123.939 582.97 123.929 588.51 123.769 592.17C123.689 593.53 122.349 594.13 120.949 594.13C119.549 594.13 118.229 593.53 118.149 592.17C118.009 589.39 117.999 585.29 118.149 582.87C118.669 582.79 119.349 582.67 119.789 582.53H119.779Z" fill="#5B93BC"/>
<path d="M197.662 607.41C198.042 607.31 198.042 606.81 197.542 606.89C196.962 607.03 196.262 607.11 195.642 607.15C194.602 607.23 193.922 606.57 193.662 605.35C193.382 603.73 194.262 602.75 195.362 602.35C196.242 602.05 197.542 601.91 198.722 601.91C200.302 601.91 201.562 602.65 201.642 604.19C201.822 607.85 201.802 613.39 201.642 617.05C201.562 618.41 200.222 619.01 198.822 619.01C197.422 619.01 196.102 618.41 196.022 617.05C195.882 614.27 195.882 610.17 196.022 607.75C196.542 607.67 197.222 607.55 197.662 607.41Z" fill="#5B93BC"/>
<path d="M209.441 614.27C209.201 614.73 209.801 614.93 210.021 614.51C210.721 613.23 211.881 612.23 213.681 612.23C215.701 612.23 217.001 613.57 217.001 615.57C217.001 617.57 215.841 618.77 213.961 618.97C211.741 619.21 208.381 619.23 206.161 618.99C204.481 618.79 203.041 617.61 203.221 615.79C203.441 612.89 207.961 610.27 210.121 607.73L210.441 607.35C210.681 607.05 210.181 606.67 209.901 606.99L209.121 607.91C208.641 608.47 208.101 609.03 207.441 609.25C206.501 609.59 205.341 609.45 204.501 608.95C203.281 608.23 202.881 606.59 203.461 605.19C204.501 602.79 207.161 601.71 210.241 601.71C214.041 601.71 216.601 603.73 216.601 606.63C216.601 609.53 214.821 610.89 213.141 611.67C211.321 611.97 210.061 612.93 209.441 614.27Z" fill="#5B93BC"/>
<path d="M307.021 582.23C307.401 582.13 307.401 581.63 306.901 581.71C306.321 581.85 305.621 581.93 305.001 581.97C303.961 582.05 303.281 581.39 303.021 580.17C302.741 578.55 303.621 577.57 304.721 577.17C305.601 576.87 306.901 576.73 308.081 576.73C309.661 576.73 310.921 577.47 311.001 579.01C311.181 582.67 311.161 588.21 311.001 591.87C310.921 593.23 309.581 593.83 308.181 593.83C306.781 593.83 305.461 593.23 305.381 591.87C305.241 589.09 305.241 584.99 305.381 582.57C305.901 582.49 306.581 582.37 307.021 582.23Z" fill="#5B93BC"/>
<path d="M326.322 588.45C326.322 591.77 323.522 593.97 319.362 593.97C315.202 593.97 312.502 591.83 312.422 589.13C312.422 587.07 314.042 586.07 315.962 586.07C317.742 586.07 319.362 586.99 319.462 588.77C319.482 589.19 320.062 589.15 320.042 588.75C319.942 587.03 318.422 585.61 316.222 585.61H315.682C314.882 585.61 314.882 583.91 315.682 583.91H316.482C318.482 583.91 319.582 582.99 320.082 582.05C320.302 581.65 319.802 581.41 319.602 581.79C319.062 582.87 317.722 583.47 316.342 583.47C314.222 583.47 312.822 582.23 312.822 580.59C312.822 577.71 316.402 576.51 319.362 576.51C323.282 576.51 325.922 578.25 325.922 580.71C325.922 582.23 324.942 583.61 323.122 584.13C325.182 584.77 326.322 586.33 326.322 588.45Z" fill="#5B93BC"/>
<path d="M131.021 668.48C131.401 668.38 131.401 667.88 130.901 667.96C130.321 668.1 129.621 668.18 129.001 668.22C127.961 668.3 127.281 667.64 127.021 666.42C126.741 664.8 127.621 663.82 128.721 663.42C129.601 663.12 130.901 662.98 132.081 662.98C133.661 662.98 134.921 663.72 135.001 665.26C135.181 668.92 135.161 674.46 135.001 678.12C134.921 679.48 133.581 680.08 132.181 680.08C130.781 680.08 129.461 679.48 129.381 678.12C129.241 675.34 129.241 671.24 129.381 668.82C129.901 668.74 130.581 668.62 131.021 668.48Z" fill="#5B93BC"/>
<path d="M142.422 677.34C141.182 677.4 140.022 677.3 138.782 677.06C137.482 676.78 136.422 675.8 136.422 674.24C136.422 673.24 136.862 672.36 137.322 671.72C139.002 669.44 141.342 666.66 143.462 664.38C144.242 663.56 145.482 662.88 146.882 662.88C148.502 662.88 149.522 663.92 149.762 665.58C149.982 667.16 149.602 668.28 148.882 669.16C146.622 668.76 144.782 669.46 143.362 670.86C143.142 671.06 143.522 671.44 143.762 671.22C144.822 670.2 146.182 669.58 147.582 669.58C150.182 669.58 151.282 671.5 151.282 673.2C151.282 675.2 149.582 676.64 147.722 676.84C147.302 676.88 147.382 677.26 147.742 677.24C148.282 677.2 148.982 677.06 149.702 676.68C150.222 678.46 148.762 680.26 146.122 680.26C143.482 680.26 142.022 678.86 142.422 677.34Z" fill="#5B93BC"/>
<path d="M180.16 654.13C180.82 653.96 180.82 653.08 179.95 653.22C178.94 653.46 177.71 653.6 176.63 653.67C174.81 653.81 173.63 652.66 173.17 650.53C172.68 647.7 174.22 645.99 176.14 645.29C177.68 644.77 179.95 644.52 182.01 644.52C184.77 644.52 186.97 645.81 187.11 648.5C187.42 654.89 187.39 664.57 187.11 670.96C186.97 673.34 184.63 674.38 182.19 674.38C179.75 674.38 177.44 673.33 177.3 670.96C177.06 666.11 177.06 658.95 177.3 654.72C178.21 654.58 179.4 654.37 180.16 654.13Z" fill="#5B93BC"/>
<path d="M190.768 656.47C190.628 653.61 190.978 650.39 191.678 647.98C192.268 645.78 193.638 644.7 195.908 644.49C199.538 644.18 203.558 644.18 207.368 644.46C210.088 644.63 211.348 645.26 212.088 646.91C212.718 648.31 212.678 651.03 211.918 652.99C211.498 654 210.558 654.32 209.718 653.93C207.308 652.85 205.008 652.46 202.418 652.43C201.548 652.43 201.578 653.44 202.278 653.48C204.588 653.55 214.148 653.79 214.148 664.13C214.148 671.67 207.898 674.68 201.748 674.68C198.048 674.68 194.838 673.7 192.908 672.23C188.748 669.05 189.348 663.95 191.718 661.79C192.978 660.64 194.548 660.18 196.048 660.18C197.548 660.18 199.118 660.7 200.208 661.68C201.638 662.87 201.848 663.95 202.058 664.58C202.228 665.24 203.318 665.21 203.248 664.44C203.178 663.53 202.338 661.96 201.398 661.02C200.068 659.73 198.148 659.2 196.198 659.2C194.728 659.2 193.478 659.44 192.288 660.04C191.308 659.66 190.928 658.54 190.788 656.48L190.768 656.47Z" fill="#5B93BC"/>
<path d="M241.412 644.13C241.792 644.03 241.792 643.53 241.292 643.61C240.712 643.75 240.012 643.83 239.392 643.87C238.352 643.95 237.672 643.29 237.412 642.07C237.132 640.45 238.012 639.47 239.112 639.07C239.992 638.77 241.292 638.63 242.472 638.63C244.052 638.63 245.312 639.37 245.392 640.91C245.572 644.57 245.552 650.11 245.392 653.77C245.312 655.13 243.972 655.73 242.572 655.73C241.172 655.73 239.852 655.13 239.772 653.77C239.632 650.99 239.632 646.89 239.772 644.47C240.292 644.39 240.972 644.27 241.412 644.13Z" fill="#5B93BC"/>
<path d="M251.432 645.41C252.432 644.43 253.872 643.69 255.712 643.71C259.032 643.73 261.312 646.21 261.312 649.75C261.312 653.29 258.712 655.91 253.972 655.91C249.232 655.91 246.852 653.11 246.852 649.53C246.852 646.43 247.432 643.57 248.232 641.63C248.992 639.85 250.572 638.57 252.932 638.57C254.972 638.57 256.512 639.47 256.432 640.99C256.392 641.83 256.092 642.61 255.452 643.13C253.432 643.13 251.852 644.11 251.032 644.97C250.712 645.25 251.172 645.67 251.432 645.41ZM254.832 651.25C254.532 650.77 254.432 650.17 254.432 649.69C254.432 649.21 254.532 648.63 254.832 648.13C255.072 647.79 254.312 647.55 254.112 647.91C253.792 648.49 253.672 649.07 253.672 649.69C253.672 650.31 253.792 650.91 254.112 651.49C254.312 651.83 255.072 651.61 254.832 651.25Z" fill="#5B93BC"/>
<path d="M306.119 644.23C306.499 644.13 306.499 643.63 305.999 643.71C305.419 643.85 304.719 643.93 304.099 643.97C303.059 644.05 302.379 643.39 302.119 642.17C301.839 640.55 302.719 639.57 303.819 639.17C304.699 638.87 305.999 638.73 307.179 638.73C308.759 638.73 310.019 639.47 310.099 641.01C310.279 644.67 310.259 650.21 310.099 653.87C310.019 655.23 308.679 655.83 307.279 655.83C305.879 655.83 304.559 655.23 304.479 653.87C304.339 651.09 304.339 646.99 304.479 644.57C304.999 644.49 305.679 644.37 306.119 644.23Z" fill="#5B93BC"/>
<path d="M313.762 646.37C312.022 645.93 311.262 644.65 311.282 643.23C311.302 641.17 312.582 639.99 314.022 639.35C315.902 638.49 319.582 638.31 322.002 638.81C323.882 639.19 324.802 640.21 324.762 642.17C324.662 645.77 323.682 650.97 322.382 653.87C321.762 655.21 320.962 655.81 319.542 655.81C318.122 655.81 317.322 654.85 317.262 653.19C317.062 649.23 318.002 645.09 319.362 642.13C319.462 641.87 319.062 641.69 318.922 641.97C318.462 642.79 318.062 643.75 317.742 644.85C316.922 646.13 315.622 646.87 313.762 646.37Z" fill="#5B93BC"/>
<path d="M45.4392 705.66C45.8192 705.56 45.8192 705.06 45.3192 705.14C44.7392 705.28 44.0392 705.36 43.4192 705.4C42.3792 705.48 41.6992 704.82 41.4392 703.6C41.1592 701.98 42.0392 701 43.1392 700.6C44.0192 700.3 45.3192 700.16 46.4992 700.16C48.0792 700.16 49.3392 700.9 49.4192 702.44C49.5992 706.1 49.5792 711.64 49.4192 715.3C49.3392 716.66 47.9992 717.26 46.5992 717.26C45.1992 717.26 43.8792 716.66 43.7992 715.3C43.6592 712.52 43.6592 708.42 43.7992 706C44.3192 705.92 44.9992 705.8 45.4392 705.66Z" fill="#5B93BC"/>
<path d="M51.4212 704.88C51.4212 702.44 53.5613 699.98 58.1213 699.96C62.6613 699.96 64.8213 702.44 64.8213 704.88C64.8213 706.78 64.1413 707.94 63.2413 708.48C64.6613 709.14 65.4613 710.7 65.4613 712.3C65.4613 715.42 62.6613 717.4 58.1213 717.4C53.5613 717.38 50.7812 715.42 50.7812 712.3C50.7812 710.7 51.5813 709.14 53.0213 708.48C52.1013 707.94 51.4212 706.78 51.4212 704.88ZM58.2013 706.52C58.7413 705.74 58.8613 704.64 58.9013 703.66C58.9013 703.2 58.2413 703.2 58.2213 703.54C58.1613 704.52 57.9813 705.34 57.5013 706.3C57.3413 706.6 57.9213 706.9 58.2013 706.52ZM58.2013 713.78C58.7413 713.02 58.8613 711.92 58.9013 710.94C58.9013 710.46 58.2413 710.46 58.2213 710.8C58.1613 711.78 57.9813 712.62 57.5013 713.56C57.3413 713.88 57.9213 714.16 58.2013 713.78Z" fill="#5B93BC"/>
<path d="M111.881 705.65C112.261 705.55 112.261 705.05 111.761 705.13C111.181 705.27 110.481 705.35 109.861 705.39C108.821 705.47 108.141 704.81 107.881 703.59C107.601 701.97 108.481 700.99 109.581 700.59C110.461 700.29 111.761 700.15 112.941 700.15C114.521 700.15 115.781 700.89 115.861 702.43C116.041 706.09 116.021 711.63 115.861 715.29C115.781 716.65 114.441 717.25 113.041 717.25C111.641 717.25 110.321 716.65 110.241 715.29C110.101 712.51 110.101 708.41 110.241 705.99C110.761 705.91 111.441 705.79 111.881 705.65Z" fill="#5B93BC"/>
<path d="M127.628 710.91C127.928 710.59 127.488 710.19 127.208 710.45C126.208 711.43 124.768 712.17 122.928 712.15C119.788 712.13 117.328 709.63 117.328 706.47C117.328 702.85 119.928 699.95 124.688 699.95C129.188 699.95 131.788 702.75 131.788 707.09C131.788 709.43 131.228 712.31 130.408 714.23C129.668 716.01 128.068 717.41 125.648 717.41C123.508 717.41 122.068 716.39 122.128 714.85C122.168 714.03 122.588 713.27 123.188 712.71C125.208 712.71 126.808 711.73 127.628 710.91ZM124.428 707.53C124.128 707.05 124.008 706.47 124.008 705.99C124.008 705.51 124.128 704.91 124.428 704.41C124.668 704.07 123.908 703.85 123.708 704.19C123.388 704.77 123.268 705.35 123.268 705.99C123.268 706.59 123.388 707.19 123.708 707.75C123.908 708.11 124.668 707.89 124.428 707.53Z" fill="#5B93BC"/>
<path d="M65.1402 788.09C64.9002 788.55 65.5002 788.75 65.7202 788.33C66.4202 787.05 67.5802 786.05 69.3802 786.05C71.4002 786.05 72.7002 787.39 72.7002 789.39C72.7002 791.39 71.5402 792.59 69.6602 792.79C67.4402 793.03 64.0802 793.05 61.8602 792.81C60.1802 792.61 58.7402 791.43 58.9202 789.61C59.1402 786.71 63.6602 784.09 65.8202 781.55L66.1402 781.17C66.3802 780.87 65.8802 780.49 65.6002 780.81L64.8202 781.73C64.3402 782.29 63.8002 782.85 63.1402 783.07C62.2002 783.41 61.0402 783.27 60.2002 782.77C58.9802 782.05 58.5802 780.41 59.1602 779.01C60.2002 776.61 62.8602 775.53 65.9402 775.53C69.7402 775.53 72.3002 777.55 72.3002 780.45C72.3002 783.35 70.5202 784.71 68.8402 785.49C67.0202 785.79 65.7602 786.75 65.1402 788.09Z" fill="#5B93BC"/>
<path d="M73.5391 784.23C73.5391 779.41 75.9191 775.53 80.6791 775.53C85.4391 775.53 87.7991 779.41 87.7991 784.23C87.7991 789.05 85.4391 792.99 80.6791 792.99C75.9191 792.99 73.5391 789.09 73.5391 784.23ZM81.0591 786.97C80.6191 786.07 80.4591 785.07 80.4591 784.23C80.4591 783.39 80.6191 782.41 81.0591 781.53C81.3591 780.91 80.6391 780.55 80.3391 781.11C79.8591 782.05 79.6391 783.17 79.6391 784.23C79.6391 785.29 79.8591 786.43 80.3391 787.37C80.6391 787.93 81.3591 787.57 81.0591 786.97Z" fill="#5B93BC"/>
<path d="M119.221 787.94C118.761 788.82 119.911 789.21 120.341 788.4C121.691 785.94 123.921 784.01 127.381 784.01C131.271 784.01 133.771 786.59 133.771 790.44C133.771 794.29 131.541 796.6 127.921 796.98C123.651 797.44 117.181 797.48 112.911 797.02C109.681 796.64 106.911 794.37 107.251 790.86C107.671 785.28 116.371 780.24 120.531 775.35L121.151 774.62C121.611 774.04 120.651 773.31 120.111 773.93L118.611 775.7C117.691 776.78 116.651 777.85 115.381 778.28C113.571 778.93 111.341 778.67 109.721 777.7C107.371 776.31 106.601 773.16 107.721 770.47C109.721 765.85 114.841 763.77 120.771 763.77C128.081 763.77 133.011 767.66 133.011 773.24C133.011 778.82 129.591 781.44 126.351 782.94C122.851 783.52 120.421 785.36 119.231 787.94H119.221Z" fill="#5B93BC"/>
<path d="M142.809 774.74C143.539 774.55 143.539 773.59 142.579 773.74C141.459 774.01 140.119 774.16 138.919 774.24C136.919 774.39 135.609 773.12 135.109 770.78C134.569 767.66 136.269 765.78 138.379 765.01C140.069 764.43 142.569 764.16 144.849 764.16C147.889 764.16 150.309 765.58 150.469 768.55C150.819 775.59 150.779 786.25 150.469 793.29C150.319 795.91 147.739 797.06 145.039 797.06C142.339 797.06 139.809 795.9 139.649 793.29C139.379 787.94 139.379 780.05 139.649 775.4C140.649 775.25 141.959 775.01 142.809 774.75V774.74Z" fill="#5B93BC"/>
<path d="M177.7 711.54C177.46 712 178.06 712.2 178.28 711.78C178.98 710.49 180.15 709.49 181.96 709.49C183.99 709.49 185.3 710.84 185.3 712.85C185.3 714.86 184.13 716.06 182.25 716.27C180.02 716.51 176.64 716.53 174.41 716.29C172.72 716.09 171.28 714.9 171.46 713.08C171.68 710.17 176.22 707.53 178.39 704.98L178.71 704.6C178.95 704.3 178.45 703.92 178.17 704.24L177.39 705.16C176.91 705.72 176.36 706.29 175.7 706.51C174.76 706.85 173.59 706.71 172.75 706.21C171.52 705.49 171.12 703.84 171.71 702.43C172.75 700.02 175.43 698.93 178.52 698.93C182.34 698.93 184.91 700.96 184.91 703.87C184.91 706.78 183.119 708.15 181.429 708.93C179.599 709.23 178.34 710.2 177.71 711.54H177.7Z" fill="#5B93BC"/>
<path d="M192.508 711.54C192.268 712 192.868 712.2 193.088 711.78C193.788 710.49 194.958 709.49 196.768 709.49C198.798 709.49 200.108 710.84 200.108 712.85C200.108 714.86 198.938 716.06 197.058 716.27C194.828 716.51 191.448 716.53 189.218 716.29C187.528 716.09 186.088 714.9 186.268 713.08C186.488 710.17 191.028 707.53 193.198 704.98L193.518 704.6C193.758 704.3 193.258 703.92 192.978 704.24L192.198 705.16C191.718 705.72 191.168 706.29 190.508 706.51C189.568 706.85 188.398 706.71 187.558 706.21C186.328 705.49 185.928 703.84 186.518 702.43C187.558 700.02 190.238 698.93 193.328 698.93C197.148 698.93 199.718 700.96 199.718 703.87C199.718 706.78 197.928 708.15 196.238 708.93C194.408 709.23 193.148 710.2 192.518 711.54H192.508Z" fill="#5B93BC"/>
<path d="M261.121 738.25C260.881 738.71 261.481 738.91 261.701 738.49C262.401 737.21 263.561 736.21 265.361 736.21C267.381 736.21 268.681 737.55 268.681 739.55C268.681 741.55 267.521 742.75 265.641 742.95C263.421 743.19 260.061 743.21 257.841 742.97C256.161 742.77 254.721 741.59 254.901 739.77C255.121 736.87 259.641 734.25 261.801 731.71L262.121 731.33C262.361 731.03 261.861 730.65 261.581 730.97L260.801 731.89C260.321 732.45 259.781 733.01 259.121 733.23C258.181 733.57 257.021 733.43 256.181 732.93C254.961 732.21 254.561 730.57 255.141 729.17C256.181 726.77 258.841 725.69 261.921 725.69C265.721 725.69 268.281 727.71 268.281 730.61C268.281 733.51 266.501 734.87 264.821 735.65C263.001 735.95 261.741 736.91 261.121 738.25Z" fill="#5B93BC"/>
<path d="M283.38 737.61C283.38 740.93 280.58 743.13 276.42 743.13C272.26 743.13 269.56 740.99 269.48 738.29C269.48 736.23 271.1 735.23 273.02 735.23C274.8 735.23 276.42 736.15 276.52 737.93C276.54 738.35 277.12 738.31 277.1 737.91C277 736.19 275.48 734.77 273.28 734.77H272.74C271.94 734.77 271.94 733.07 272.74 733.07H273.54C275.54 733.07 276.64 732.15 277.14 731.21C277.36 730.81 276.86 730.57 276.66 730.95C276.12 732.03 274.78 732.63 273.4 732.63C271.28 732.63 269.88 731.39 269.88 729.75C269.88 726.87 273.46 725.67 276.42 725.67C280.34 725.67 282.98 727.41 282.98 729.87C282.98 731.39 282 732.77 280.18 733.29C282.24 733.93 283.38 735.49 283.38 737.61Z" fill="#5B93BC"/>
<path d="M310.95 725.74C310.55 726.5 311.55 726.83 311.91 726.14C313.07 724.02 315 722.36 317.98 722.36C321.33 722.36 323.49 724.58 323.49 727.9C323.49 731.22 321.57 733.21 318.45 733.54C314.77 733.94 309.2 733.97 305.51 733.57C302.72 733.24 300.34 731.28 300.63 728.26C301 723.45 308.49 719.11 312.07 714.89L312.6 714.26C313 713.76 312.17 713.13 311.7 713.66L310.41 715.19C309.61 716.12 308.72 717.05 307.62 717.41C306.06 717.97 304.14 717.74 302.74 716.91C300.72 715.72 300.05 713 301.02 710.67C302.74 706.69 307.16 704.9 312.26 704.9C318.56 704.9 322.81 708.25 322.81 713.06C322.81 717.87 319.86 720.12 317.07 721.42C314.05 721.92 311.96 723.51 310.93 725.73L310.95 725.74Z" fill="#5B93BC"/>
<path d="M334.751 729.06C332.691 729.16 330.771 728.99 328.711 728.6C326.551 728.14 324.801 726.51 324.801 723.92C324.801 722.26 325.531 720.8 326.291 719.74C329.081 715.96 332.961 711.35 336.471 707.57C337.761 706.21 339.821 705.08 342.141 705.08C344.831 705.08 346.521 706.8 346.921 709.56C347.291 712.18 346.661 714.04 345.461 715.5C341.711 714.84 338.661 716 336.311 718.32C335.951 718.65 336.581 719.28 336.971 718.92C338.731 717.23 340.981 716.2 343.311 716.2C347.621 716.2 349.451 719.38 349.451 722.2C349.451 725.52 346.631 727.91 343.551 728.24C342.851 728.31 342.991 728.94 343.581 728.9C344.481 728.83 345.641 728.6 346.831 727.97C347.691 730.92 345.271 733.91 340.891 733.91C336.511 733.91 334.091 731.59 334.751 729.07V729.06Z" fill="#5B93BC"/>
<path d="M325.609 788.09C325.369 788.55 325.969 788.75 326.189 788.33C326.889 787.05 328.049 786.05 329.849 786.05C331.869 786.05 333.169 787.39 333.169 789.39C333.169 791.39 332.009 792.59 330.129 792.79C327.909 793.03 324.549 793.05 322.329 792.81C320.649 792.61 319.209 791.43 319.389 789.61C319.609 786.71 324.129 784.09 326.289 781.55L326.609 781.17C326.849 780.87 326.349 780.49 326.069 780.81L325.289 781.73C324.809 782.29 324.269 782.85 323.609 783.07C322.669 783.41 321.509 783.27 320.669 782.77C319.449 782.05 319.049 780.41 319.629 779.01C320.669 776.61 323.329 775.53 326.409 775.53C330.209 775.53 332.769 777.55 332.769 780.45C332.769 783.35 330.989 784.71 329.309 785.49C327.489 785.79 326.229 786.75 325.609 788.09Z" fill="#5B93BC"/>
<path d="M334.65 782.57C334.57 780.93 334.77 779.09 335.17 777.71C335.51 776.45 336.29 775.83 337.59 775.71C339.67 775.53 341.97 775.53 344.15 775.69C345.71 775.79 346.43 776.15 346.85 777.09C347.21 777.89 347.19 779.45 346.75 780.57C346.51 781.15 345.97 781.33 345.49 781.11C344.11 780.49 342.79 780.27 341.31 780.25C340.81 780.25 340.83 780.83 341.23 780.85C342.55 780.89 348.03 781.03 348.03 786.95C348.03 791.27 344.45 792.99 340.93 792.99C338.81 792.99 336.97 792.43 335.87 791.59C333.49 789.77 333.83 786.85 335.19 785.61C335.91 784.95 336.81 784.69 337.67 784.69C338.53 784.69 339.43 784.99 340.05 785.55C340.87 786.23 340.99 786.85 341.11 787.21C341.21 787.59 341.83 787.57 341.79 787.13C341.75 786.61 341.27 785.71 340.73 785.17C339.97 784.43 338.87 784.13 337.75 784.13C336.91 784.13 336.19 784.27 335.51 784.61C334.95 784.39 334.73 783.75 334.65 782.57Z" fill="#5B93BC"/>
<path d="M98.2223 244.984C99.6771 246.585 100.521 251.512 101.129 254.226C101.736 251.512 102.58 246.585 104.035 244.984C105.574 243.292 107.657 242.619 110.257 241.633C106.565 241.428 104.856 239.924 104.856 239.924C101.778 238.078 101.129 231 101.129 231C101.129 231 100.479 238.078 97.4022 239.924C97.4022 239.924 95.6929 241.428 92 241.633C94.6007 242.619 96.6841 243.292 98.2223 244.984Z" fill="#CEEBFF"/>
<path d="M111.565 266.481C114.035 269.169 115.468 277.442 116.5 282C117.532 277.442 118.965 269.169 121.434 266.481C124.047 263.64 127.584 262.511 132 260.855C125.731 260.511 122.828 257.985 122.828 257.985C117.603 254.885 116.5 243 116.5 243C116.5 243 115.397 254.885 110.172 257.985C110.172 257.985 107.269 260.511 101 260.855C105.416 262.511 108.953 263.64 111.565 266.481Z" fill="#9DD7FF"/>
<path d="M290.222 130.984C291.677 132.585 292.521 137.512 293.129 140.226C293.736 137.512 294.58 132.585 296.035 130.984C297.574 129.292 299.657 128.619 302.257 127.633C298.565 127.428 296.856 125.924 296.856 125.924C293.778 124.078 293.129 117 293.129 117C293.129 117 292.479 124.078 289.402 125.924C289.402 125.924 287.693 127.428 284 127.633C286.601 128.619 288.684 129.292 290.222 130.984Z" fill="#CEEBFF"/>
<path d="M298.232 156.501C300.156 158.618 301.273 165.137 302.077 168.728C302.881 165.137 303.997 158.618 305.922 156.501C307.957 154.262 310.713 153.372 314.154 152.068C309.269 151.797 307.007 149.806 307.007 149.806C302.936 147.364 302.077 138 302.077 138C302.077 138 301.217 147.364 297.147 149.806C297.147 149.806 294.885 151.797 290 152.068C293.44 153.372 296.197 154.262 298.232 156.501Z" fill="#9DD7FF"/>
<path d="M121.234 154.398C119.233 154.223 118 152.816 118 150.71C118 148.953 119.233 147.128 121.234 147.333C128.76 148.033 142.388 147.964 150.196 147.333C152.235 147.158 153.468 148.945 153.468 150.71C153.468 152.816 152.235 154.223 150.165 154.398C148.058 154.573 145.805 154.679 143.522 154.748C143.629 155.242 143.659 155.835 143.659 156.542C143.659 160.512 142.32 160.618 137.716 160.618C133.112 160.618 131.743 160.512 131.743 156.542C131.743 155.843 131.781 155.28 131.88 154.786C129.559 154.717 123.311 154.573 121.242 154.398H121.234ZM132.511 139.257C132.055 139.432 132.298 140.101 132.899 139.957C137.754 138.588 143.865 138.025 146.437 138.025C149.602 138.025 151.748 138.976 152.098 141.713C152.342 143.751 151.467 145.44 148.301 145.896C142.746 146.671 134.977 146.565 130.86 146.139C126.363 145.721 124.217 144.732 123.509 142.344C122.771 139.782 122.771 136.162 123.509 133.561C124.209 131.242 126.005 130.086 128.958 129.835C131.598 129.66 144.146 129.622 146.779 129.766C149.694 129.941 151.352 130.854 151.352 132.649C151.352 134.443 149.876 135.561 146.779 135.561H134.65C134.969 136.405 135.068 137.736 134.931 138.512C133.911 138.793 133.242 138.9 132.504 139.249L132.511 139.257Z" fill="white"/>
<path d="M157.547 143.759C157.547 141.706 158.985 139.934 161.329 140.185C170.125 140.968 181.433 140.884 190.564 140.185C192.946 139.979 194.392 141.706 194.392 143.759C194.392 146.223 192.954 147.5 190.526 147.66C181.441 148.398 170.133 148.443 161.329 147.66C158.985 147.493 157.547 146.223 157.547 143.759ZM164.251 149.021C167.5 148.489 170.133 149.516 171.655 151.485C172.85 153.006 172.271 155.843 170.711 156.953C170.179 157.364 170.59 158.147 171.206 157.691C175.566 154.489 181.075 150.991 187.239 150.991C190.283 150.991 192.916 152.056 193.327 155.097C193.654 158.428 191.927 160.482 187.117 161.059C181.981 161.713 173.839 161.797 166.146 161.348C161.291 161.021 158.787 159.044 158.787 155.675C158.787 151.812 161.215 149.516 164.258 149.021H164.251ZM158.985 131.804C158.658 128.474 160.34 126.177 165.156 125.561C170.293 124.907 177.94 124.823 185.717 125.318C190.526 125.561 193.038 128.603 193.038 131.934C193.038 136.04 190.983 138.922 188.023 139.455C184.69 140.033 181.403 139.333 180.17 136.496C179.348 134.565 179.515 132.344 181.159 130.869C181.814 130.215 181.281 129.637 180.665 130.086C176.266 133.287 171.206 136.253 165.042 136.253C162.044 136.253 159.327 134.9 159 131.812L158.985 131.804Z" fill="white"/>
<path d="M200.738 152.786C198.737 152.611 197.504 151.204 197.504 149.097C197.504 147.341 198.737 145.516 200.738 145.721C208.264 146.421 221.162 147.014 228.969 146.383C231.009 146.208 232.241 147.995 232.241 149.759C232.241 151.866 231.009 153.272 228.939 153.447C226.831 153.622 224.578 153.729 222.296 153.797C222.402 154.291 222.433 154.885 222.433 155.592C222.433 159.561 221.093 159.668 216.49 159.668C211.886 159.668 210.516 159.561 210.516 155.592C210.516 154.892 210.554 154.329 210.653 153.835C208.332 153.767 202.815 152.961 200.738 152.786ZM211.285 138.307C210.828 138.481 211.072 139.151 211.673 139.006C216.528 137.637 222.638 137.075 225.21 137.075C228.376 137.075 230.522 138.025 230.872 140.763C231.115 142.801 230.24 144.489 227.074 144.945C221.519 145.721 213.75 145.615 209.633 145.189C205.136 144.77 202.99 143.782 202.283 141.394C201.545 138.831 201.545 135.211 202.283 132.611C202.983 130.291 204.779 129.135 207.731 128.884C210.372 128.709 222.92 128.671 225.553 128.816C228.467 128.991 230.126 129.903 230.126 131.698C230.126 133.493 228.65 134.611 225.553 134.611H213.423C213.743 135.455 213.841 136.786 213.705 137.561C212.685 137.843 212.015 137.949 211.277 138.299L211.285 138.307Z" fill="white"/>
<path d="M235.68 143.759C235.68 141.706 237.118 139.934 239.462 140.185C248.258 140.968 259.566 140.884 268.697 140.185C271.079 139.979 272.525 141.706 272.525 143.759C272.525 146.223 271.087 147.5 268.659 147.66C259.574 148.398 248.266 148.443 239.462 147.66C237.118 147.493 235.68 146.223 235.68 143.759ZM242.384 149.021C245.633 148.489 248.266 149.516 249.788 151.485C250.982 153.006 250.404 155.843 248.844 156.953C248.311 157.364 248.722 158.147 249.339 157.691C253.699 154.489 264.132 150.223 270.295 150.223C273.339 150.223 275.972 151.288 276.383 154.329C276.71 157.66 274.983 159.713 270.174 160.291C265.037 160.945 251.972 161.805 244.278 161.348C239.424 161.021 236.92 159.044 236.92 155.675C236.92 151.812 239.347 149.516 242.391 149.021H242.384ZM237.118 131.804C236.791 128.474 238.472 126.177 243.289 125.561C248.426 124.907 256.073 124.823 263.85 125.318C268.659 125.561 271.17 128.603 271.17 131.934C271.17 136.04 269.116 138.922 266.156 139.455C262.823 140.033 259.535 139.333 258.303 136.496C257.481 134.565 257.648 132.344 259.292 130.869C259.946 130.215 259.414 129.637 258.797 130.086C254.399 133.287 249.339 136.253 243.175 136.253C240.177 136.253 237.46 134.9 237.133 131.812L237.118 131.804Z" fill="white"/>
<path d="M140.699 198.9C139.756 206.505 136.423 211.189 129.475 211.189C121.006 211.189 118 204.246 118 193.6C118 182.953 120.633 176.01 129.475 176.01C136.795 176.01 139.839 180.695 140.699 188.299H143.005C142.883 185.79 142.678 183.326 142.388 180.862C141.939 176.794 144.199 174.862 147.532 174.862C150.409 174.862 152.463 176.505 152.798 179.874C153.704 188.748 153.704 198.779 152.798 207.691C152.471 210.977 150.416 212.619 147.532 212.619C144.199 212.619 141.939 210.726 142.35 207.03C142.678 204.315 142.883 201.608 143.005 198.893H140.699V198.9ZM128.691 196.269C128.691 196.923 130.297 196.923 130.297 196.269V190.969C130.297 190.269 128.691 190.269 128.691 190.969V196.269Z" fill="white"/>
<path d="M157.18 204.375C157.005 201.296 158.71 198.687 161.852 198.885C171.06 199.311 179.56 198.824 188.699 197.356C191.841 196.809 193.79 199.204 193.965 202.284C194.185 206.102 192.481 208.087 189.3 208.604C180.199 210.071 171.699 210.55 162.492 210.132C159.357 209.98 157.401 208.201 157.18 204.383V204.375ZM169.135 188.626C174.652 186.459 181.797 185.394 184.757 185.227C188.455 185.014 191.027 186.147 191.651 189.858C192.1 192.634 191.21 195.067 187.542 195.851C181.112 197.204 172.034 197.638 167.286 197.379C161.951 197.067 159.372 195.813 158.367 192.657C157.302 189.181 157.02 184.17 157.682 180.679C158.314 177.349 160.323 175.676 163.747 175.151C166.814 174.733 181.424 173.858 184.514 173.888C187.938 173.942 189.932 175.022 190.076 177.485C190.221 180.071 188.585 181.645 184.97 181.851L170.847 182.657C171.281 183.782 171.471 185.706 171.364 186.702C170.238 187.181 169.462 187.349 168.625 187.805C168.107 188.162 168.397 188.885 169.127 188.641L169.135 188.626Z" fill="white"/>
<path d="M214.436 190.695C214.398 190.862 214.398 191.022 214.352 191.189C213.98 194.109 212.793 195.874 210.776 196.284C207.154 197.068 203.988 197.068 200.252 196.284C198.236 195.874 197.087 194.109 196.714 191.189C196.135 187.448 196.181 182.725 196.714 178.611C197.125 175.037 197.863 173.889 200.99 173.889C204.118 173.889 204.361 175.166 204.361 177.79V178.117C205.267 177.911 205.883 177.911 206.743 178.117V177.79C206.743 174.999 207.321 173.889 210.441 173.889C213.074 173.889 213.98 175.204 214.345 178.611C214.467 179.638 214.55 180.71 214.634 181.813H216.156C216.118 181.113 216.118 180.497 216.072 179.919C215.745 175.889 217.351 174.041 219.938 174.041C222.198 174.041 223.803 175.645 224.047 178.892C224.29 182.999 224.29 190.931 224.047 195.045C223.803 198.33 222.198 199.896 219.938 199.896C217.351 199.896 215.661 198.003 215.989 194.391C216.072 193.326 216.156 192.048 216.194 190.695H214.429H214.436ZM204.034 197.889C207.443 197.44 211.149 198.505 212.26 201.22C212.914 202.862 212.709 205.288 211.316 206.436C210.738 206.847 211.149 207.63 211.765 207.174C216.164 204.132 220.607 201.052 227.182 201.052C230.226 201.052 232.897 202.117 233.224 204.877C233.551 207.919 231.87 209.973 227.06 210.551C221.916 211.205 214.231 211.334 206.461 210.84C201.279 210.551 198.776 207.554 198.776 204.185C198.776 200.444 200.876 198.353 204.042 197.896L204.034 197.889ZM207.9 187.737C208.478 188.064 209.254 186.832 208.349 186.299C206.583 185.227 204.65 184.9 202.756 185.067C201.896 185.151 201.85 186.383 202.55 186.383C204.521 186.421 206.172 186.794 207.892 187.737H207.9ZM225.211 194.52C225.538 190.33 225.538 183.425 225.249 179.6C224.876 175.531 226.566 173.6 229.115 173.6C231.375 173.6 233.064 175.242 233.27 178.611C233.475 182.885 233.513 190.938 233.27 195.212C233.026 198.497 231.375 200.14 229.115 200.14C226.566 200.14 224.876 198.292 225.211 194.512V194.52Z" fill="white"/>
<path d="M236.557 203.493C236.801 200.626 238.84 198.452 241.922 199.037C250.985 200.703 259.462 201.417 268.722 201.28C271.903 201.22 273.509 203.699 273.273 206.566C272.976 210.087 271.021 211.737 267.802 211.798C258.587 211.935 250.11 211.22 241.047 209.554C237.957 208.969 236.268 207.007 236.565 203.486L236.557 203.493ZM239.304 188.01L239.799 182.155C240.187 177.569 241.815 175.356 244.737 175.394C253.892 175.501 262.62 176.231 271.645 177.364C273.281 177.539 273.775 178.535 273.661 179.927C273.555 181.197 272.862 182.543 271.226 182.406L253.359 180.908C252.583 180.839 252.453 182.315 253.237 182.383L270.731 183.851C272.367 183.988 272.87 184.938 272.756 186.292C272.641 187.645 272.01 188.292 270.366 188.193L252.864 186.809C252.042 186.74 251.905 188.421 252.72 188.489L270.267 189.881C272.154 190.041 273.144 192.018 272.892 194.969C272.641 197.919 271.371 199.334 269.461 199.463C260.421 199.98 252.225 199.334 244.494 197.493C240.765 196.642 238.863 193.265 239.304 188.026V188.01Z" fill="white"/>
<path d="M141.242 236.421C141.531 234.285 144.164 232.885 147.04 231.699C147.862 231.326 147.535 230.345 146.591 230.756C145.107 231.41 143.669 231.95 142.025 232.155C138.365 232.65 137.376 232.117 137.422 230.14C137.46 228.33 138.898 228.125 141.82 228.125C143.098 228.125 145.069 228.125 147.002 228.246C148.319 228.284 148.357 226.764 147.002 226.764H140.755C138.084 226.764 136.684 226.802 136.684 224.3C136.684 222.535 138.373 222.163 140.755 221.836C143.471 221.463 146.469 221.258 149.308 221.836C152.352 222.452 154.322 223.684 155.228 226.688C155.882 229.068 156.012 232.771 155.266 235.273C153.782 239.996 149.019 241.19 145.275 240.49C141.736 239.836 141.044 238.315 141.242 236.421ZM140.382 255.197C139.514 253.638 139.514 250.962 140.504 249.159C141.204 247.844 142.969 247.228 145.602 247.228C149.589 247.228 156.172 247.19 159.748 246.901C160.608 246.817 160.532 245.912 159.664 245.958C155.966 246.079 151.933 246.125 148.395 246.247C142.025 246.414 139.842 246.49 139.842 244.193C139.842 241.897 142.391 241.889 148.889 241.608C153.288 241.402 160.364 241.319 165.668 241.608C169.45 241.775 172.205 242.224 172.905 243.783C173.559 245.266 173.437 246.779 172.905 247.851C172.372 249 170.934 249.699 168.796 249.699C161.726 249.577 155.061 249.783 149.962 250.482C149.019 250.604 149.224 251.509 150.206 251.387C153.782 250.939 158.515 250.604 162.952 250.604C169.739 250.604 173.81 250.809 173.886 253.768C173.97 257.136 170.059 257.547 164.884 257.996C159.87 258.406 155.137 258.444 150 258.163C144.24 257.92 141.242 256.931 140.382 255.205V255.197ZM164.808 234.977C164.77 235.387 164.77 235.76 164.725 236.17C164.435 239.334 162.914 240.612 160.57 240.612C158.059 240.612 156.255 239.007 156.704 235.478C157.031 232.193 157.031 229.722 156.742 226.809C156.331 222.862 158.059 221.303 160.57 221.303C162.914 221.303 164.473 222.619 164.725 225.783C164.725 226.072 164.763 226.361 164.763 226.649L166.368 226.771C166.368 226.688 166.33 226.566 166.33 226.482C165.881 222.497 167.647 220.855 170.196 220.855C172.456 220.855 174.099 222.254 174.351 225.456C174.594 228.946 174.64 232.809 174.351 236.345C174.061 239.509 172.456 240.825 170.196 240.825C167.647 240.825 165.881 239.304 166.292 235.646C166.33 235.357 166.33 235.113 166.376 234.862L164.816 234.984L164.808 234.977Z" fill="white"/>
<path d="M180.515 240.323C180.02 238.018 179.861 235.554 180.515 233.501C181.169 231.326 182.204 230.011 185.857 230.011C188.444 230.011 190.955 229.889 193.588 229.638C194.166 229.6 194.166 228.406 193.588 228.444C191.123 228.688 188.817 228.817 186.39 228.817C181.869 228.817 180.507 227.828 180.507 225.57C180.507 223.311 182.562 221.828 186.633 221.334C189.966 220.885 192.142 220.885 195.064 221.167C198.352 221.539 201.106 222.231 201.806 224.862C202.423 227.037 202.423 229.63 201.806 231.478C201.395 232.71 200.163 233.037 198.39 233.083C193.664 233.083 189.753 233.372 187.082 234.315C186.382 234.52 186.838 235.585 187.455 235.38C189.799 234.726 193.17 234.064 196.046 234.064C200.528 234.064 202.75 235.501 203.161 238.505C203.694 243.357 198.101 244.672 192.142 244.672C184.989 244.672 181.124 243.068 180.507 240.315L180.515 240.323ZM181.664 251.95C181.664 247.798 183.719 245.95 186.762 245.501C190.012 244.969 193.504 245.623 194.615 248.254C195.27 249.981 195.194 252.65 193.626 253.798C193.048 254.171 193.504 254.992 194.075 254.536C198.435 251.539 203.534 248.414 209.697 248.414C212.741 248.414 215.412 249.281 215.785 252.239C216.112 255.403 214.385 257.334 209.576 257.912C204.439 258.566 196.784 258.65 189.015 258.201C184.206 257.874 181.656 255.327 181.656 251.958L181.664 251.95ZM204.569 242.87C205.223 238.307 205.223 230.049 204.607 225.813C204.196 222.444 206.334 220.961 209.667 220.961C212.543 220.961 214.56 222.231 214.933 224.992C215.671 229.638 215.671 238.718 214.933 243.319C214.56 246.072 212.551 247.349 209.667 247.349C206.334 247.349 204.196 245.866 204.569 242.87Z" fill="white"/>
<path d="M243.87 245.623C244.113 246.277 244.319 247.022 244.448 247.882C245.103 252.072 243.375 254.414 239.883 255.73C237.501 256.635 233.795 256.756 230.957 256.756C225.653 256.756 223.187 253.676 222.365 248.665C221.498 243.159 221.498 236.011 222.365 230.505C223.187 225.494 225.287 222.984 228.735 222.49C231.816 222.079 235.111 222.041 238.231 222.406C241.648 222.733 243.535 224.543 243.535 228.406C243.535 232.269 241.846 234.574 238.231 234.574H232.395C233.338 236.543 233.3 240.201 232.638 242.049C231.527 242.46 230.744 242.787 229.967 243.243C229.435 243.57 229.762 244.391 230.416 244.026C232.311 242.916 235.393 242.216 237.942 242.178C237.904 241.646 237.858 241.03 237.858 240.368C237.858 236.216 238.969 235.189 240.78 235.235L246.328 235.402C246.206 232.528 246.001 229.646 245.673 226.855C245.224 222.786 247.484 220.855 250.81 220.855C253.686 220.855 255.741 222.497 256.076 225.866C256.981 234.741 256.981 244.771 256.076 253.684C255.748 256.969 253.694 258.612 250.81 258.612C247.477 258.612 245.217 256.718 245.628 253.022C245.917 250.475 246.122 247.965 246.244 245.418L243.862 245.623H243.87Z" fill="white"/>
<path d="M159.179 290.148C155.222 290.148 153.784 286.817 153.731 283.213C153.715 281.152 154.781 279.342 156.881 279.342C158.981 279.342 159.826 280.764 159.826 282.574C159.826 284.065 159.59 285.753 158.152 286.855C157.878 287.061 158.205 287.449 158.456 287.258C160.031 286.072 160.366 284.369 160.336 282.08C160.32 280.544 160.777 279.342 162.504 279.342C164.064 279.342 164.688 280.528 164.551 283.471C164.384 286.924 162.421 290.148 159.187 290.148H159.179Z" fill="white"/>
<path d="M165.196 284.924C165.166 282.825 166.079 280.726 167.821 279.92C168.666 279.532 169.617 279.342 170.515 279.342C172.92 279.342 174.982 280.528 174.83 283.198C174.746 284.802 173.932 285.547 172.227 285.95C171.345 286.171 169.99 286.103 169.488 285.289C169.404 285.152 169.016 285.152 169.062 285.471C169.13 285.966 169.975 286.635 171.177 286.635C171.398 286.635 171.717 286.566 171.923 286.513C173.445 286.072 174.107 286.057 174.579 287.464C174.951 288.528 174.373 289.327 172.699 289.852C171.885 290.103 171.36 290.141 170.53 290.141C169.45 290.141 168.384 289.935 167.502 289.38C165.98 288.414 165.234 286.658 165.204 284.916L165.196 284.924ZM172.136 283.015C172.41 283.046 172.562 282.475 172.166 282.407C171.367 282.239 170.454 282.103 169.693 282.422C169.358 282.559 169.473 283.114 169.747 283.045C170.606 282.81 171.322 282.84 172.136 283.015Z" fill="white"/>
<path d="M180.193 279.73C179.638 280.308 179.242 281.083 179.181 281.897C179.128 282.3 179.486 282.353 179.569 281.996C180.011 279.981 181.038 279.205 182.598 279.327C184.006 279.426 184.477 280.886 184.462 281.829C184.462 282.726 184.257 284.3 182.621 284.551C182.08 284.635 181.456 284.399 180.931 283.973C180.68 283.753 180.543 283.973 180.543 284.262C180.513 285.479 180.444 286.711 180.323 287.912C180.186 289.182 179.493 290.179 178.085 290.179C176.678 290.179 175.94 289.182 175.833 287.912C175.65 285.441 175.734 282.992 175.765 280.521C175.78 279.966 176.069 279.509 176.51 279.441C176.868 279.372 177.355 279.342 177.88 279.342C178.862 279.342 179.896 279.494 180.201 279.73H180.193Z" fill="white"/>
<path d="M187.678 286.666C189.047 286.666 189.915 287.563 189.915 288.985C189.915 290.133 188.964 291 187.678 291C186.392 291 185.41 290.141 185.41 288.985C185.41 287.563 186.323 286.666 187.678 286.666Z" fill="white"/>
<path d="M196.483 286.027C196.277 286.414 196.787 286.582 196.97 286.232C197.564 285.152 198.545 284.3 200.067 284.3C201.779 284.3 202.875 285.433 202.875 287.122C202.875 288.81 201.893 289.829 200.303 289.996C198.423 290.201 195.585 290.217 193.705 290.011C192.283 289.844 191.065 288.848 191.217 287.304C191.4 284.855 195.227 282.635 197.054 280.49L197.328 280.171C197.533 279.92 197.107 279.593 196.871 279.867L196.209 280.642C195.806 281.114 195.349 281.593 194.786 281.776C193.987 282.065 193.013 281.943 192.298 281.525C191.263 280.916 190.928 279.532 191.415 278.346C192.298 276.315 194.543 275.403 197.153 275.403C200.371 275.403 202.533 277.114 202.533 279.563C202.533 282.011 201.026 283.167 199.603 283.821C198.066 284.072 197 284.886 196.475 286.019L196.483 286.027Z" fill="white"/>
<path d="M203.59 282.757C203.59 278.68 205.606 275.403 209.632 275.403C213.657 275.403 215.659 278.68 215.659 282.757C215.659 286.833 213.665 290.163 209.632 290.163C205.599 290.163 203.59 286.863 203.59 282.757ZM209.951 285.076C209.579 284.315 209.442 283.471 209.442 282.757C209.442 282.042 209.579 281.22 209.951 280.475C210.202 279.95 209.594 279.646 209.343 280.118C208.939 280.916 208.749 281.859 208.749 282.757C208.749 283.654 208.932 284.62 209.343 285.411C209.594 285.882 210.202 285.578 209.951 285.076Z" fill="white"/>
<path d="M221.85 286.027C221.645 286.414 222.155 286.582 222.345 286.232C222.939 285.152 223.92 284.3 225.442 284.3C227.154 284.3 228.25 285.433 228.25 287.122C228.25 288.81 227.268 289.829 225.678 289.996C223.798 290.201 220.96 290.217 219.081 290.011C217.658 289.844 216.44 288.848 216.592 287.304C216.775 284.855 220.602 282.635 222.429 280.49L222.703 280.171C222.908 279.92 222.482 279.593 222.246 279.867L221.584 280.642C221.181 281.114 220.724 281.593 220.161 281.776C219.37 282.065 218.388 281.943 217.673 281.525C216.638 280.916 216.303 279.532 216.79 278.346C217.673 276.315 219.918 275.403 222.528 275.403C225.746 275.403 227.908 277.114 227.908 279.563C227.908 282.011 226.401 283.167 224.978 283.821C223.441 284.072 222.375 284.886 221.85 286.019V286.027Z" fill="white"/>
<path d="M240.682 285.479C240.682 288.285 238.316 290.148 234.792 290.148C231.269 290.148 228.986 288.338 228.918 286.057C228.918 284.316 230.288 283.471 231.916 283.471C233.423 283.471 234.793 284.247 234.876 285.753C234.891 286.11 235.386 286.072 235.371 285.738C235.287 284.285 234.001 283.084 232.137 283.084H231.68C231.003 283.084 231.003 281.646 231.68 281.646H232.357C234.047 281.646 234.983 280.871 235.401 280.072C235.584 279.738 235.165 279.532 234.998 279.852C234.541 280.764 233.408 281.274 232.243 281.274C230.447 281.274 229.268 280.224 229.268 278.84C229.268 276.407 232.297 275.388 234.8 275.388C238.118 275.388 240.347 276.855 240.347 278.939C240.347 280.224 239.518 281.388 237.981 281.829C239.723 282.369 240.69 283.692 240.69 285.479H240.682Z" fill="white"/>
</svg>
