<svg width="390" height="818" viewBox="0 0 390 818" fill="none" xmlns="http://www.w3.org/2000/svg">
<path d="M369.5 781.5H227.5V793.5H369.5V781.5Z" fill="#B3B3B3"/>
<path d="M162 781.5H20V793.5H162V781.5Z" fill="#B3B3B3"/>
<path d="M162 793.5H20L0 805.5H162V793.5Z" fill="#CCCCCC"/>
<path d="M369.563 793.5H228V805.5H390L369.563 793.5Z" fill="#CCCCCC"/>
<path d="M162 805.5H0V817.5H162V805.5Z" fill="#B3B3B3"/>
<path d="M390 805.5H228V817.5H390V805.5Z" fill="#B3B3B3"/>
<path d="M238 781.5H152V793.5H238V781.5Z" fill="#CCCCCC"/>
<path d="M142 805.5H248L238 793.5H152L142 805.5Z" fill="#E6E6E6"/>
<path d="M248 805.5H142V817.5H248V805.5Z" fill="#CCCCCC"/>
<path d="M314.339 321.35H75.5407L37.5117 426.888H148.327L194.94 348.614L241.553 426.888H351.489L314.339 321.35Z" fill="#21499D"/>
<path d="M241.086 428.717L194.473 348.614L147.86 428.717H37.4844V771.647H351.461V428.717H241.086Z" fill="#2D62AD"/>
<path d="M36.5798 425.129C36.5798 425.129 33.0619 430.406 40.9773 430.406H135.082C135.082 430.406 150.034 431.286 155.311 421.611C157.289 417.979 185.046 370.926 193.058 357.769C193.885 356.415 195.864 356.432 196.664 357.804L227.429 416.334C228.845 418.744 231.826 430.406 244.253 431.286H349.677C349.677 431.286 353.195 431.286 353.195 427.768C353.195 424.25 350.557 419.852 350.557 419.852C350.557 419.852 340.003 417.214 334.726 419.852C329.449 422.491 312.739 420.732 308.341 419.852C303.944 418.973 288.993 418.093 280.198 419.852C271.403 421.611 251.175 421.611 248.536 419.852C245.898 418.093 243.259 416.334 238.862 411.057C234.464 405.78 233.585 403.142 229.188 396.106C224.79 389.07 220.393 376.757 213.357 367.963C206.321 359.168 205.441 353.011 201.923 347.734C198.405 342.457 189.611 342.457 185.213 350.373C180.816 358.288 165.425 378.077 162.786 385.992C160.148 393.907 150.473 403.582 146.955 409.738C143.438 415.895 136.402 418.533 129.366 419.413C122.33 420.292 108.258 417.654 99.4632 418.533C90.6683 419.413 73.0786 419.413 67.8016 419.413C62.5247 419.413 46.4301 415.393 42.6043 416.968C38.7786 418.542 36.5798 425.129 36.5798 425.129Z" fill="#F9F9F9"/>
<path d="M84.188 316.873C79.474 317.304 75.27 320.294 73.6782 324.753C73.3703 325.606 73.1681 326.495 73.0977 327.427C72.7019 332.985 75.5603 338.377 85.8854 336.398C96.2106 334.419 99.7813 333.223 107.714 333.619C115.656 334.014 123.589 337.585 132.718 335.21C141.847 332.827 151.372 328.861 162.093 330.848C172.814 332.836 181.143 333.627 188.689 332.836C196.235 332.044 206.551 328.869 216.472 332.44C226.392 336.011 235.126 343.161 248.626 341.173C262.126 339.186 264.905 328.078 274.43 330.452C283.955 332.836 285.942 339.186 292.688 337.998C299.434 336.811 298.642 331.649 305.388 331.649C312.133 331.649 315.308 333.24 318.888 333.24C322.467 333.24 321.553 328.535 320.867 327.049C319.864 324.868 319.02 314.331 302.741 314.727C286.461 315.123 264.105 311.412 229.171 314.191C194.238 316.97 164.424 313.162 150.176 313.003C139.033 312.872 130.326 316.574 122.789 316.574C115.92 316.574 101.408 315.325 84.1792 316.908L84.188 316.873Z" fill="#F9F9F9"/>
<path d="M23 770.768H366C366 770.768 362.482 758.455 346.651 759.334C330.821 760.214 313.231 766.37 300.038 764.611C286.846 762.852 256.9 758.279 239.336 758.807C221.764 759.334 218.246 762.852 207.692 762.852C197.138 762.852 183.498 753.53 161.739 755.553C139.972 757.575 125.108 756.845 107.475 755.007C89.841 753.169 64.3359 761.093 50.2641 760.214C36.1923 759.334 23 761.093 23 761.093V770.768Z" fill="#F9F9F9"/>
<path d="M211.439 435.683H176.26C171.402 435.683 167.465 439.621 167.465 444.478V476.14C167.465 480.997 171.402 484.934 176.26 484.934H211.439C216.296 484.934 220.234 480.997 220.234 476.14V444.478C220.234 439.621 216.296 435.683 211.439 435.683Z" fill="#1C3249"/>
<path d="M109.926 435.762H109.258L61.7305 435.806C56.8054 435.806 52.8125 439.755 52.8125 444.61L52.8477 476.271C52.8477 481.126 56.8493 485.066 61.7833 485.058L109.311 485.014H109.979L153.936 484.97C158.861 484.97 162.854 481.021 162.854 476.166L162.819 444.504C162.819 439.65 158.817 435.709 153.883 435.718L109.926 435.762Z" fill="#1C3249"/>
<path d="M268.834 435.63H233.654C228.797 435.63 224.859 439.568 224.859 444.425V476.087C224.859 480.944 228.797 484.882 233.654 484.882H268.834C273.691 484.882 277.629 480.944 277.629 476.087V444.425C277.629 439.568 273.691 435.63 268.834 435.63Z" fill="#1C3249"/>
<path d="M326.236 435.569H291.057C286.199 435.569 282.262 439.506 282.262 444.364V476.025C282.262 480.883 286.199 484.82 291.057 484.82H326.236C331.093 484.82 335.031 480.883 335.031 476.025V444.364C335.031 439.506 331.093 435.569 326.236 435.569Z" fill="#1C3249"/>
<path d="M211.545 488.998H176.365C171.508 488.998 167.57 492.935 167.57 497.793V529.454C167.57 534.311 171.508 538.249 176.365 538.249H211.545C216.402 538.249 220.34 534.311 220.34 529.454V497.793C220.34 492.935 216.402 488.998 211.545 488.998Z" fill="#1C3249"/>
<path d="M154.201 489.068H119.021C114.164 489.068 110.227 493.005 110.227 497.863V529.524C110.227 534.382 114.164 538.319 119.021 538.319H154.201C159.058 538.319 162.996 534.382 162.996 529.524V497.863C162.996 493.005 159.058 489.068 154.201 489.068Z" fill="#1C3249"/>
<path d="M96.8611 489.077H61.6816C56.8243 489.077 52.8867 493.014 52.8867 497.872V529.533C52.8867 534.39 56.8243 538.328 61.6816 538.328H96.8611C101.718 538.328 105.656 534.39 105.656 529.533V497.872C105.656 493.014 101.718 489.077 96.8611 489.077Z" fill="#1C3249"/>
<path d="M326.291 488.866H291.111C286.254 488.866 282.316 492.803 282.316 497.661V529.322C282.316 534.179 286.254 538.117 291.111 538.117H326.291C331.148 538.117 335.086 534.179 335.086 529.322V497.661C335.086 492.803 331.148 488.866 326.291 488.866Z" fill="#1C3249"/>
<path d="M211.599 542.303H176.42C171.563 542.303 167.625 546.241 167.625 551.098V582.76C167.625 587.617 171.563 591.555 176.42 591.555H211.599C216.457 591.555 220.394 587.617 220.394 582.76V551.098C220.394 546.241 216.457 542.303 211.599 542.303Z" fill="#1C3249"/>
<path d="M154.252 542.339H119.072C114.215 542.339 110.277 546.276 110.277 551.133V582.795C110.277 587.652 114.215 591.59 119.072 591.59H154.252C159.109 591.59 163.047 587.652 163.047 582.795V551.133C163.047 546.276 159.109 542.339 154.252 542.339Z" fill="#1C3249"/>
<path d="M96.9119 542.365H61.7324C56.8751 542.365 52.9375 546.303 52.9375 551.16V582.821C52.9375 587.679 56.8751 591.616 61.7324 591.616H96.9119C101.769 591.616 105.707 587.679 105.707 582.821V551.16C105.707 546.303 101.769 542.365 96.9119 542.365Z" fill="#1C3249"/>
<path d="M233.743 488.998C228.888 488.998 224.948 492.999 224.957 497.924L225.001 541.617V551.424L225.045 582.637C225.045 587.562 228.994 591.555 233.849 591.546L269.028 591.511C273.883 591.511 277.823 587.509 277.814 582.584L277.779 551.371V541.565L277.726 497.872C277.726 492.946 273.777 488.954 268.923 488.962L233.743 488.998Z" fill="#1C3249"/>
<path d="M326.334 542.163H291.154C286.297 542.163 282.359 546.1 282.359 550.957V582.619C282.359 587.476 286.297 591.414 291.154 591.414H326.334C331.191 591.414 335.129 587.476 335.129 582.619V550.957C335.129 546.1 331.191 542.163 326.334 542.163Z" fill="#1C3249"/>
<path d="M211.599 595.618H176.42C171.563 595.618 167.625 599.556 167.625 604.413V636.074C167.625 640.932 171.563 644.869 176.42 644.869H211.599C216.457 644.869 220.394 640.932 220.394 636.074V604.413C220.394 599.556 216.457 595.618 211.599 595.618Z" fill="#1C3249"/>
<path d="M118.116 595.636H109.418L61.8907 595.688C56.9655 595.688 52.9727 599.637 52.9727 604.492L53.0078 636.154C53.0078 641.008 57.0095 644.948 61.9434 644.94L109.471 644.896H118.169L154.096 644.852C159.021 644.852 163.014 640.903 163.014 636.048L162.979 604.386C162.979 599.532 158.977 595.592 154.043 595.6L118.116 595.636Z" fill="#1C3249"/>
<path d="M268.99 595.662H233.81C228.953 595.662 225.016 599.599 225.016 604.456V636.118C225.016 640.975 228.953 644.913 233.81 644.913H268.99C273.847 644.913 277.785 640.975 277.785 636.118V604.456C277.785 599.599 273.847 595.662 268.99 595.662Z" fill="#1C3249"/>
<path d="M326.388 595.459H291.209C286.352 595.459 282.414 599.397 282.414 604.254V635.916C282.414 640.773 286.352 644.711 291.209 644.711H326.388C331.246 644.711 335.183 640.773 335.183 635.916V604.254C335.183 599.397 331.246 595.459 326.388 595.459Z" fill="#1C3249"/>
<path d="M154.361 648.95H119.182C114.324 648.95 110.387 652.888 110.387 657.745V689.406C110.387 694.264 114.324 698.201 119.182 698.201H154.361C159.218 698.201 163.156 694.264 163.156 689.406V657.745C163.156 652.888 159.218 648.95 154.361 648.95Z" fill="#1C3249"/>
<path d="M97.0056 648.994H61.8261C56.9688 648.994 53.0312 652.931 53.0312 657.789V689.45C53.0312 694.308 56.9688 698.245 61.8261 698.245H97.0056C101.863 698.245 105.8 694.308 105.8 689.45V657.789C105.8 652.931 101.863 648.994 97.0056 648.994Z" fill="#1C3249"/>
<path d="M269.064 648.862H233.885C229.027 648.862 225.09 652.8 225.09 657.657V689.318C225.09 694.176 229.027 698.113 233.885 698.113H269.064C273.921 698.113 277.859 694.176 277.859 689.318V657.657C277.859 652.8 273.921 648.862 269.064 648.862Z" fill="#1C3249"/>
<path d="M326.439 648.756H291.26C286.402 648.756 282.465 652.694 282.465 657.551V689.213C282.465 694.07 286.402 698.008 291.26 698.008H326.439C331.296 698.008 335.234 694.07 335.234 689.213V657.551C335.234 652.694 331.296 648.756 326.439 648.756Z" fill="#1C3249"/>
<path d="M176.524 648.95C171.67 648.95 167.73 652.952 167.738 657.868L167.773 692.625V698.861L167.826 742.527C167.826 747.453 171.775 751.437 176.63 751.428L211.809 751.393C216.664 751.393 220.604 747.391 220.595 742.475L220.551 698.808V692.573L220.508 657.815C220.508 652.89 216.559 648.906 211.704 648.915L176.524 648.95Z" fill="#1C3249"/>
<path d="M154.392 702.22H119.213C114.356 702.22 110.418 706.158 110.418 711.015V742.677C110.418 747.534 114.356 751.472 119.213 751.472H154.392C159.25 751.472 163.187 747.534 163.187 742.677V711.015C163.187 706.158 159.25 702.22 154.392 702.22Z" fill="#1C3249"/>
<path d="M97.0642 702.282H61.8847C57.0274 702.282 53.0898 706.22 53.0898 711.077V742.738C53.0898 747.596 57.0274 751.533 61.8847 751.533H97.0642C101.921 751.533 105.859 747.596 105.859 742.738V711.077C105.859 706.22 101.921 702.282 97.0642 702.282Z" fill="#1C3249"/>
<path d="M287.894 702.08H281.641L234.052 702.133C229.118 702.133 225.116 706.081 225.125 710.936L225.16 742.598C225.16 747.452 229.171 751.393 234.105 751.384L281.694 751.34H287.947L326.38 751.296C331.314 751.296 335.316 747.347 335.307 742.492L335.272 710.831C335.272 705.976 331.262 702.036 326.328 702.045L287.894 702.08Z" fill="#1C3249"/>
<path d="M52.5508 480.607C52.5508 480.607 52.5508 474.152 59.7186 474.328C66.8864 474.504 72.9901 477.916 80.1579 477.916C87.3257 477.916 105.443 475.585 112.435 475.946C119.427 476.307 131.265 479.174 138.433 478.813C145.601 478.453 152.601 475.41 156.181 475.585C159.76 475.761 163.489 475.418 163.489 479.473C163.489 481.627 162.636 485.805 149.189 485.805H61.7854C61.7854 485.805 52.7355 486.702 52.5508 480.607Z" fill="#F9F9F9"/>
<path d="M225.122 746.793C225.122 746.793 225.122 740.337 232.29 740.513C239.458 740.689 245.561 744.102 252.729 744.102C259.897 744.102 278.014 741.771 285.006 742.132C291.998 742.492 303.836 745.359 311.004 744.999C318.172 744.638 325.173 741.595 328.752 741.771C332.34 741.947 336.061 741.604 336.061 745.658C336.061 747.813 335.208 751.991 321.76 751.991H234.348C234.348 751.991 225.298 752.888 225.113 746.793H225.122Z" fill="#F9F9F9"/>
<path d="M225.141 479.833C225.141 479.833 223.901 476.799 229.899 476.377C234.525 476.052 236.733 479.455 242.071 479.455C247.41 479.455 253.223 475.286 258.316 476.016C263.408 476.746 268.421 479.13 271.657 477.714C279.089 474.46 278.21 478.928 277.963 481.592C277.717 484.257 273.592 485.963 266.556 485.717C259.52 485.471 236.223 486.685 231.614 485.963C227.006 485.242 225.132 481.54 225.132 479.833H225.141Z" fill="#F9F9F9"/>
<path d="M225.141 585.768C225.141 585.768 223.901 582.733 229.899 582.311C234.525 581.986 236.733 585.389 242.071 585.389C247.41 585.389 253.223 581.221 258.316 581.951C263.408 582.681 268.421 585.064 271.657 583.648C279.089 580.394 278.21 584.862 277.963 587.526C277.717 590.191 273.592 591.898 266.556 591.651C259.52 591.405 236.223 592.619 231.614 591.898C227.006 591.176 225.132 587.474 225.132 585.768H225.141Z" fill="#F9F9F9"/>
<path d="M220.13 639.143C220.13 639.143 221.37 636.109 215.372 635.687C210.746 635.362 208.539 638.765 203.2 638.765C197.862 638.765 192.048 634.597 186.956 635.327C181.864 636.056 176.851 638.44 173.614 637.024C166.182 633.77 167.062 638.238 167.308 640.902C167.554 643.567 171.679 645.274 178.715 645.027C185.751 644.781 209.049 645.995 213.657 645.274C218.266 644.544 220.139 640.85 220.139 639.143H220.13Z" fill="#F9F9F9"/>
<path d="M105.704 692.713C105.704 692.713 106.944 689.679 100.946 689.257C96.3203 688.932 94.1128 692.335 88.7743 692.335C83.4358 692.335 77.6224 688.166 72.5302 688.896C67.4379 689.626 62.4249 692.01 59.1883 690.594C51.7567 687.34 52.6362 691.807 52.8824 694.472C53.1287 697.137 57.2535 698.843 64.2894 698.597C71.3253 698.351 94.6229 699.565 99.2314 698.843C103.84 698.122 105.713 694.42 105.713 692.713H105.704Z" fill="#F9F9F9"/>
<path d="M166.692 531.802C166.692 531.802 167.396 539.383 177.44 539.383H211.801C211.801 539.383 224.879 538.354 221.493 530.219C219.497 525.426 212.681 530.571 204.396 530.571C196.111 530.571 195.408 528.46 189.946 528.284C184.484 528.108 179.902 530.756 175.848 529.515C171.793 528.275 167.387 526.868 166.684 531.802H166.692Z" fill="#F9F9F9"/>
<path d="M106.638 584.554C106.638 584.554 105.935 592.135 95.8908 592.135C85.847 592.135 61.5292 592.135 61.5292 592.135C61.5292 592.135 48.4512 591.106 51.8372 582.971C53.8337 578.178 60.6497 583.323 68.9345 583.323C77.2192 583.323 77.9228 581.212 83.3845 581.036C88.8461 580.86 93.4282 583.507 97.4826 582.267C101.537 581.036 105.943 579.62 106.647 584.554H106.638Z" fill="#F9F9F9"/>
<path d="M111.369 583.516C110.006 583.296 108.88 584.563 109.276 585.891C110.067 588.52 112.283 592.223 118.528 592.223H156.24C156.24 592.223 163.707 591.669 163.707 581.889C163.707 581.889 162.493 579.972 159.371 580.376C152.969 581.203 154.939 583.499 149.688 583.903C144.438 584.308 144.745 581.687 140.313 581.784C135.88 581.88 134.983 584.017 132.142 584.105C125.485 584.308 126.698 582.215 122.055 581.889C117.719 581.59 114.896 584.211 112.371 583.701C112.002 583.63 111.668 583.569 111.36 583.516H111.369Z" fill="#F9F9F9"/>
<path d="M104.573 742.712C105.936 742.492 107.062 743.759 106.666 745.087C105.874 747.716 103.658 751.419 97.4136 751.419C87.7305 751.419 59.7012 751.419 59.7012 751.419C59.7012 751.419 52.2344 750.865 52.2344 741.085C52.2344 741.085 53.4481 739.168 56.5702 739.572C62.9729 740.399 61.0029 742.694 66.2534 743.099C71.4951 743.504 71.1961 740.883 75.6287 740.979C80.0613 741.076 80.9584 743.213 83.7992 743.301C90.4569 743.504 89.2432 741.41 93.8869 741.085C98.2228 740.786 101.046 743.407 103.57 742.897C103.939 742.826 104.274 742.765 104.581 742.712H104.573Z" fill="#F9F9F9"/>
<path d="M66.3727 448.427C66.7069 448.339 66.7069 447.899 66.2672 447.969C65.7571 448.093 65.1414 448.163 64.5961 448.198C63.6815 448.268 63.0834 447.688 62.8547 446.615C62.6085 445.19 63.3824 444.328 64.3499 443.977C65.1238 443.713 66.2672 443.59 67.305 443.59C68.6945 443.59 69.8027 444.24 69.8731 445.595C70.0314 448.814 70.0138 453.686 69.8731 456.905C69.8027 458.101 68.6242 458.629 67.3929 458.629C66.1616 458.629 65.0007 458.101 64.9303 456.905C64.8072 454.46 64.8072 450.854 64.9303 448.726C65.3877 448.655 65.9857 448.55 66.3727 448.427Z" fill="#5B93BC"/>
<path d="M191.94 468.778C191.456 469.702 192.67 470.106 193.109 469.262C194.525 466.676 196.865 464.662 200.497 464.662C204.569 464.662 207.199 467.362 207.199 471.399C207.199 475.436 204.859 477.855 201.069 478.259C196.592 478.743 189.811 478.787 185.335 478.303C181.949 477.898 179.037 475.515 179.407 471.848C179.855 465.999 188.967 460.713 193.329 455.586L193.971 454.821C194.455 454.214 193.443 453.449 192.881 454.091L191.306 455.947C190.339 457.072 189.248 458.207 187.92 458.647C186.021 459.333 183.681 459.051 181.993 458.04C179.53 456.589 178.721 453.282 179.891 450.45C181.993 445.604 187.357 443.431 193.567 443.431C201.236 443.431 206.398 447.503 206.398 453.361C206.398 459.218 202.81 461.953 199.415 463.528C195.739 464.135 193.197 466.069 191.948 468.769L191.94 468.778Z" fill="#5B93BC"/>
<path d="M244.709 453.932C244.709 456.852 242.247 458.787 238.588 458.787C234.929 458.787 232.555 456.905 232.484 454.531C232.484 452.719 233.909 451.839 235.598 451.839C237.163 451.839 238.588 452.648 238.676 454.214C238.694 454.583 239.204 454.548 239.186 454.196C239.098 452.684 237.761 451.435 235.826 451.435H235.351C234.648 451.435 234.648 449.94 235.351 449.94H236.055C237.814 449.94 238.782 449.13 239.221 448.304C239.415 447.952 238.975 447.741 238.799 448.075C238.324 449.025 237.146 449.553 235.932 449.553C234.067 449.553 232.836 448.462 232.836 447.02C232.836 444.487 235.985 443.431 238.588 443.431C242.036 443.431 244.357 444.962 244.357 447.125C244.357 448.462 243.496 449.676 241.895 450.133C243.707 450.696 244.709 452.068 244.709 453.932Z" fill="#5B93BC"/>
<path d="M294.98 456.184C293.889 456.237 292.869 456.149 291.779 455.938C290.635 455.691 289.703 454.83 289.703 453.458C289.703 452.578 290.09 451.804 290.495 451.241C291.972 449.236 294.03 446.791 295.895 444.786C296.581 444.065 297.671 443.467 298.903 443.467C300.327 443.467 301.224 444.381 301.435 445.841C301.629 447.231 301.295 448.216 300.662 448.99C298.674 448.638 297.056 449.254 295.807 450.485C295.613 450.661 295.947 450.995 296.159 450.801C297.091 449.904 298.287 449.359 299.518 449.359C301.805 449.359 302.772 451.048 302.772 452.543C302.772 454.302 301.277 455.568 299.641 455.744C299.272 455.779 299.342 456.114 299.659 456.096C300.134 456.061 300.749 455.938 301.383 455.603C301.84 457.169 300.556 458.752 298.234 458.752C295.912 458.752 294.628 457.521 294.98 456.184Z" fill="#5B93BC"/>
<path d="M66.534 510.36C66.3757 507.115 66.7714 503.465 67.563 500.739C68.2402 498.241 69.7793 497.019 72.3562 496.781C76.4722 496.42 81.0279 496.421 85.3462 496.737C88.4332 496.939 89.858 497.652 90.6935 499.507C91.4059 501.091 91.3707 504.178 90.4912 506.403C90.0163 507.555 88.9433 507.907 87.9935 507.476C85.2583 506.244 82.6462 505.813 79.7175 505.769C78.7237 505.769 78.7676 506.922 79.5592 506.957C82.1712 507.036 93.0241 507.317 93.0241 519.041C93.0241 527.598 85.9355 531.002 78.9611 531.002C74.766 531.002 71.1161 529.894 68.9438 528.232C64.2297 524.626 64.9069 518.847 67.5981 516.385C69.0229 515.074 70.8083 514.564 72.5145 514.564C74.2207 514.564 75.9973 515.154 77.2285 516.271C78.8556 517.616 79.093 518.847 79.3305 519.56C79.5328 520.316 80.7553 520.272 80.6761 519.401C80.597 518.372 79.6471 516.587 78.5741 515.523C77.0702 514.054 74.8891 513.465 72.6728 513.465C71.0106 513.465 69.5858 513.746 68.2402 514.415C67.132 513.975 66.6923 512.709 66.534 510.378V510.36Z" fill="#5B93BC"/>
<path d="M120.755 501.891C121.634 501.029 122.901 500.378 124.519 500.396C127.439 500.413 129.444 502.595 129.444 505.708C129.444 508.821 127.157 511.126 122.989 511.126C118.82 511.126 116.727 508.663 116.727 505.514C116.727 502.788 117.237 500.273 117.94 498.566C118.609 497.001 119.998 495.875 122.074 495.875C123.868 495.875 125.222 496.667 125.152 498.004C125.117 498.742 124.853 499.428 124.29 499.886C122.514 499.886 121.124 500.748 120.403 501.504C120.121 501.75 120.526 502.12 120.755 501.891ZM123.745 507.027C123.481 506.605 123.393 506.077 123.393 505.655C123.393 505.233 123.481 504.723 123.745 504.283C123.956 503.984 123.288 503.773 123.112 504.09C122.83 504.6 122.725 505.11 122.725 505.655C122.725 506.2 122.83 506.728 123.112 507.238C123.288 507.537 123.956 507.344 123.745 507.027Z" fill="#5B93BC"/>
<path d="M175.607 502.797C174.077 502.41 173.409 501.284 173.426 500.035C173.444 498.224 174.569 497.186 175.836 496.623C177.489 495.867 180.726 495.708 182.854 496.148C184.508 496.482 185.317 497.379 185.282 499.103C185.194 502.269 184.332 506.843 183.188 509.393C182.643 510.572 181.94 511.099 180.691 511.099C179.442 511.099 178.738 510.255 178.685 508.795C178.51 505.312 179.336 501.671 180.532 499.068C180.62 498.839 180.269 498.681 180.145 498.927C179.741 499.648 179.389 500.493 179.108 501.46C178.386 502.586 177.243 503.237 175.607 502.797Z" fill="#5B93BC"/>
<path d="M231.965 529.173C231.965 522.374 237.928 515.514 250.645 515.453C263.301 515.453 269.317 522.365 269.317 529.173C269.317 534.467 267.426 537.704 264.911 539.208C268.868 541.046 271.102 545.399 271.102 549.858C271.102 558.556 263.301 564.071 250.645 564.071C237.937 564.018 230.18 558.548 230.18 549.858C230.18 545.399 232.414 541.046 236.424 539.208C233.856 537.704 231.965 534.467 231.965 529.173ZM250.865 533.746C252.369 531.574 252.703 528.504 252.818 525.769C252.818 524.485 250.98 524.485 250.918 525.435C250.751 528.17 250.25 530.448 248.913 533.13C248.464 533.966 250.082 534.801 250.865 533.746ZM250.865 553.983C252.369 551.863 252.703 548.794 252.818 546.068C252.818 544.731 250.98 544.731 250.918 545.681C250.751 548.416 250.25 550.755 248.913 553.376C248.464 554.264 250.082 555.047 250.865 553.992V553.983Z" fill="#5B93BC"/>
<path d="M324.945 526.728C325.209 526.446 324.822 526.094 324.576 526.323C323.697 527.185 322.43 527.836 320.812 527.818C318.05 527.801 315.887 525.602 315.887 522.823C315.887 519.639 318.173 517.088 322.36 517.088C326.317 517.088 328.604 519.551 328.604 523.368C328.604 525.426 328.112 527.959 327.39 529.647C326.74 531.213 325.332 532.444 323.204 532.444C321.322 532.444 320.056 531.547 320.108 530.193C320.143 529.472 320.513 528.803 321.041 528.311C322.817 528.311 324.224 527.449 324.945 526.728ZM322.131 523.755C321.867 523.333 321.762 522.823 321.762 522.4C321.762 521.978 321.867 521.451 322.131 521.011C322.342 520.712 321.674 520.518 321.498 520.817C321.216 521.327 321.111 521.838 321.111 522.4C321.111 522.928 321.216 523.456 321.498 523.948C321.674 524.265 322.342 524.072 322.131 523.755Z" fill="#5B93BC"/>
<path d="M62.9977 553.403C63.3319 553.315 63.3319 552.875 62.8922 552.945C62.3821 553.068 61.7664 553.139 61.2211 553.174C60.3065 553.244 59.7084 552.664 59.4797 551.591C59.2335 550.166 60.0074 549.304 60.9749 548.952C61.7488 548.689 62.8922 548.565 63.93 548.565C65.3195 548.565 66.4277 549.216 66.4981 550.571C66.6564 553.79 66.6388 558.662 66.4981 561.881C66.4277 563.077 65.2492 563.605 64.0179 563.605C62.7866 563.605 61.6257 563.077 61.5553 561.881C61.4322 559.436 61.4322 555.83 61.5553 553.702C62.0127 553.631 62.6107 553.526 62.9977 553.403Z" fill="#5B93BC"/>
<path d="M67.7852 556.041C67.7852 551.802 69.8783 548.389 74.0647 548.389C78.2511 548.389 80.3266 551.802 80.3266 556.041C80.3266 560.28 78.2511 563.745 74.0647 563.745C69.8783 563.745 67.7852 560.315 67.7852 556.041ZM74.3989 558.451C74.0119 557.659 73.8712 556.78 73.8712 556.041C73.8712 555.302 74.0119 554.44 74.3989 553.666C74.6627 553.121 74.0295 552.804 73.7657 553.297C73.3435 554.124 73.15 555.109 73.15 556.041C73.15 556.973 73.3435 557.976 73.7657 558.803C74.0295 559.295 74.6627 558.978 74.3989 558.451Z" fill="#5B93BC"/>
<path d="M120.166 552.69C120.5 552.602 120.5 552.162 120.06 552.233C119.55 552.356 118.934 552.426 118.389 552.462C117.474 552.532 116.876 551.951 116.648 550.878C116.401 549.454 117.175 548.592 118.143 548.24C118.917 547.976 120.06 547.853 121.098 547.853C122.488 547.853 123.596 548.504 123.666 549.858C123.824 553.077 123.816 557.95 123.675 561.168C123.604 562.365 122.426 562.892 121.195 562.892C119.963 562.892 118.802 562.365 118.732 561.168C118.609 558.723 118.6 555.118 118.732 552.989C119.189 552.919 119.787 552.813 120.174 552.69H120.166Z" fill="#5B93BC"/>
<path d="M128.345 552.681C128.68 552.593 128.68 552.154 128.24 552.224C127.73 552.347 127.114 552.418 126.569 552.453C125.654 552.523 125.056 551.943 124.827 550.87C124.581 549.445 125.355 548.583 126.323 548.231C127.096 547.967 128.24 547.844 129.278 547.844C130.667 547.844 131.775 548.495 131.846 549.849C132.004 553.068 131.995 557.941 131.855 561.16C131.784 562.356 130.606 562.883 129.374 562.883C128.143 562.883 126.982 562.356 126.912 561.16C126.789 558.715 126.78 555.109 126.912 552.98C127.369 552.91 127.967 552.805 128.354 552.681H128.345Z" fill="#5B93BC"/>
<path d="M196.841 574.563C197.176 574.475 197.176 574.035 196.736 574.105C196.226 574.229 195.61 574.299 195.065 574.334C194.15 574.404 193.552 573.824 193.323 572.751C193.077 571.326 193.851 570.464 194.819 570.113C195.593 569.849 196.736 569.726 197.774 569.726C199.163 569.726 200.271 570.376 200.342 571.731C200.5 574.95 200.483 579.822 200.342 583.041C200.271 584.237 199.093 584.765 197.862 584.765C196.63 584.765 195.469 584.237 195.399 583.041C195.276 580.596 195.276 576.99 195.399 574.862C195.856 574.791 196.454 574.686 196.841 574.563Z" fill="#5B93BC"/>
<path d="M207.2 580.596C206.989 581.001 207.517 581.177 207.711 580.807C208.326 579.682 209.346 578.802 210.929 578.802C212.706 578.802 213.849 579.981 213.849 581.74C213.849 583.498 212.829 584.554 211.176 584.73C209.223 584.941 206.268 584.958 204.316 584.747C202.838 584.571 201.572 583.534 201.73 581.933C201.924 579.382 205.899 577.078 207.799 574.844L208.08 574.51C208.291 574.246 207.851 573.912 207.605 574.193L206.919 575.003C206.497 575.495 206.022 575.988 205.442 576.181C204.615 576.48 203.595 576.357 202.856 575.917C201.783 575.284 201.431 573.842 201.941 572.61C202.856 570.5 205.195 569.55 207.904 569.55C211.246 569.55 213.498 571.326 213.498 573.877C213.498 576.427 211.932 577.624 210.455 578.31C208.854 578.573 207.746 579.418 207.2 580.596Z" fill="#5B93BC"/>
<path d="M293.021 552.418C293.355 552.33 293.355 551.89 292.916 551.96C292.405 552.083 291.79 552.154 291.245 552.189C290.33 552.259 289.732 551.679 289.503 550.606C289.257 549.181 290.031 548.319 290.998 547.967C291.772 547.703 292.916 547.58 293.953 547.58C295.343 547.58 296.451 548.231 296.522 549.586C296.68 552.804 296.662 557.677 296.522 560.896C296.451 562.092 295.273 562.62 294.041 562.62C292.81 562.62 291.649 562.092 291.579 560.896C291.456 558.451 291.456 554.845 291.579 552.717C292.036 552.646 292.634 552.541 293.021 552.418Z" fill="#5B93BC"/>
<path d="M309.994 557.888C309.994 560.808 307.532 562.743 303.873 562.743C300.214 562.743 297.84 560.86 297.77 558.486C297.77 556.674 299.194 555.795 300.883 555.795C302.448 555.795 303.873 556.604 303.961 558.169C303.979 558.539 304.489 558.503 304.471 558.152C304.383 556.639 303.046 555.39 301.112 555.39H300.637C299.933 555.39 299.933 553.895 300.637 553.895H301.34C303.099 553.895 304.067 553.086 304.506 552.259C304.7 551.907 304.26 551.696 304.084 552.03C303.609 552.98 302.431 553.508 301.217 553.508C299.353 553.508 298.121 552.417 298.121 550.975C298.121 548.442 301.27 547.387 303.873 547.387C307.321 547.387 309.643 548.917 309.643 551.081C309.643 552.417 308.781 553.631 307.18 554.088C308.992 554.651 309.994 556.023 309.994 557.888Z" fill="#5B93BC"/>
<path d="M138.232 628.273C138.566 628.185 138.566 627.746 138.127 627.816C137.616 627.939 137.001 628.009 136.456 628.045C135.541 628.115 134.943 627.534 134.714 626.461C134.468 625.037 135.242 624.175 136.209 623.823C136.983 623.559 138.127 623.436 139.164 623.436C140.554 623.436 141.662 624.087 141.732 625.441C141.891 628.66 141.873 633.533 141.732 636.751C141.662 637.948 140.484 638.475 139.252 638.475C138.021 638.475 136.86 637.948 136.79 636.751C136.667 634.306 136.667 630.701 136.79 628.572C137.247 628.502 137.845 628.396 138.232 628.273Z" fill="#5B93BC"/>
<path d="M148.257 636.065C147.167 636.118 146.147 636.03 145.056 635.819C143.913 635.573 142.98 634.711 142.98 633.339C142.98 632.459 143.367 631.685 143.772 631.123C145.25 629.117 147.308 626.672 149.172 624.667C149.858 623.946 150.949 623.348 152.18 623.348C153.605 623.348 154.502 624.263 154.713 625.722C154.906 627.112 154.572 628.097 153.939 628.871C151.951 628.519 150.333 629.135 149.084 630.366C148.891 630.542 149.225 630.876 149.436 630.683C150.368 629.786 151.564 629.24 152.796 629.24C155.082 629.24 156.05 630.929 156.05 632.424C156.05 634.183 154.555 635.45 152.919 635.626C152.549 635.661 152.62 635.995 152.936 635.977C153.411 635.942 154.027 635.819 154.66 635.485C155.117 637.05 153.833 638.633 151.511 638.633C149.19 638.633 147.906 637.402 148.257 636.065Z" fill="#5B93BC"/>
<path d="M181.447 615.653C182.028 615.503 182.028 614.729 181.262 614.852C180.374 615.063 179.292 615.186 178.343 615.248C176.742 615.371 175.704 614.36 175.3 612.486C174.869 609.997 176.223 608.494 177.912 607.878C179.266 607.421 181.262 607.201 183.074 607.201C185.502 607.201 187.436 608.335 187.56 610.701C187.832 616.321 187.806 624.834 187.56 630.454C187.436 632.548 185.378 633.462 183.233 633.462C181.087 633.462 179.055 632.539 178.932 630.454C178.721 626.189 178.721 619.892 178.932 616.171C179.732 616.048 180.779 615.864 181.447 615.653Z" fill="#5B93BC"/>
<path d="M190.78 617.71C190.657 615.195 190.964 612.363 191.58 610.244C192.099 608.309 193.304 607.359 195.3 607.174C198.493 606.902 202.028 606.902 205.379 607.148C207.771 607.297 208.88 607.851 209.53 609.303C210.084 610.534 210.049 612.926 209.381 614.65C209.011 615.538 208.185 615.82 207.446 615.477C205.326 614.527 203.304 614.184 201.026 614.157C200.261 614.157 200.287 615.046 200.903 615.081C202.934 615.142 211.342 615.353 211.342 624.447C211.342 631.079 205.845 633.726 200.436 633.726C197.182 633.726 194.359 632.864 192.662 631.571C189.003 628.774 189.531 624.289 191.615 622.389C192.723 621.378 194.104 620.973 195.423 620.973C196.743 620.973 198.123 621.431 199.082 622.293C200.34 623.339 200.524 624.289 200.709 624.843C200.859 625.424 201.817 625.397 201.756 624.72C201.694 623.92 200.955 622.539 200.129 621.712C198.959 620.578 197.27 620.111 195.555 620.111C194.262 620.111 193.163 620.323 192.117 620.85C191.255 620.516 190.92 619.531 190.797 617.719L190.78 617.71Z" fill="#5B93BC"/>
<path d="M235.318 606.858C235.652 606.77 235.652 606.33 235.212 606.4C234.702 606.523 234.087 606.594 233.541 606.629C232.627 606.699 232.029 606.119 231.8 605.046C231.554 603.621 232.328 602.759 233.295 602.407C234.069 602.144 235.212 602.021 236.25 602.021C237.64 602.021 238.748 602.671 238.818 604.026C238.977 607.245 238.959 612.117 238.818 615.336C238.748 616.532 237.569 617.06 236.338 617.06C235.107 617.06 233.946 616.532 233.876 615.336C233.753 612.891 233.753 609.285 233.876 607.157C234.333 607.086 234.931 606.981 235.318 606.858Z" fill="#5B93BC"/>
<path d="M244.13 607.983C245.009 607.122 246.276 606.471 247.894 606.488C250.814 606.506 252.819 608.687 252.819 611.8C252.819 614.914 250.532 617.218 246.364 617.218C242.195 617.218 240.102 614.756 240.102 611.607C240.102 608.881 240.612 606.365 241.315 604.659C241.984 603.094 243.373 601.968 245.449 601.968C247.243 601.968 248.597 602.759 248.527 604.096C248.492 604.835 248.228 605.521 247.665 605.978C245.889 605.978 244.499 606.84 243.778 607.596C243.496 607.843 243.901 608.212 244.13 607.983ZM247.12 613.12C246.856 612.698 246.768 612.17 246.768 611.748C246.768 611.326 246.856 610.815 247.12 610.376C247.331 610.077 246.663 609.866 246.487 610.182C246.205 610.692 246.1 611.202 246.1 611.748C246.1 612.293 246.205 612.821 246.487 613.331C246.663 613.63 247.331 613.436 247.12 613.12Z" fill="#5B93BC"/>
<path d="M292.228 606.946C292.562 606.858 292.562 606.418 292.123 606.488C291.613 606.611 290.997 606.682 290.452 606.717C289.537 606.787 288.939 606.207 288.71 605.134C288.464 603.709 289.238 602.847 290.205 602.495C290.979 602.232 292.123 602.108 293.16 602.108C294.55 602.108 295.658 602.759 295.729 604.114C295.887 607.333 295.869 612.205 295.729 615.424C295.658 616.62 294.48 617.148 293.248 617.148C292.017 617.148 290.856 616.62 290.786 615.424C290.663 612.979 290.663 609.373 290.786 607.245C291.243 607.174 291.841 607.069 292.228 606.946Z" fill="#5B93BC"/>
<path d="M298.951 608.828C297.421 608.441 296.752 607.315 296.77 606.066C296.787 604.254 297.913 603.217 299.18 602.654C300.833 601.897 304.07 601.739 306.198 602.179C307.851 602.513 308.661 603.41 308.625 605.134C308.537 608.3 307.676 612.873 306.532 615.424C305.987 616.602 305.283 617.13 304.034 617.13C302.786 617.13 302.082 616.286 302.029 614.826C301.853 611.343 302.68 607.702 303.876 605.099C303.964 604.87 303.612 604.712 303.489 604.958C303.085 605.679 302.733 606.523 302.451 607.491C301.73 608.617 300.587 609.267 298.951 608.828Z" fill="#5B93BC"/>
<path d="M62.9625 660.972C63.2967 660.884 63.2967 660.445 62.857 660.515C62.3469 660.638 61.7313 660.709 61.186 660.744C60.2713 660.814 59.6733 660.234 59.4446 659.161C59.1983 657.736 59.9723 656.874 60.9397 656.522C61.7137 656.258 62.857 656.135 63.8948 656.135C65.2844 656.135 66.3925 656.786 66.4629 658.141C66.6212 661.359 66.6036 666.232 66.4629 669.451C66.3925 670.647 65.214 671.175 63.9827 671.175C62.7515 671.175 61.5905 670.647 61.5202 669.451C61.3971 667.006 61.3971 663.4 61.5202 661.271C61.9775 661.201 62.5756 661.096 62.9625 660.972Z" fill="#5B93BC"/>
<path d="M68.223 660.287C68.223 658.141 70.1051 655.977 74.1156 655.959C78.1085 655.959 80.0082 658.141 80.0082 660.287C80.0082 661.958 79.4101 662.978 78.6186 663.453C79.8674 664.033 80.571 665.405 80.571 666.812C80.571 669.556 78.1085 671.298 74.1156 671.298C70.1051 671.28 67.6602 669.556 67.6602 666.812C67.6602 665.405 68.3637 664.033 69.6302 663.453C68.8211 662.978 68.223 661.958 68.223 660.287ZM74.186 661.729C74.6609 661.043 74.7664 660.075 74.8016 659.214C74.8016 658.809 74.2211 658.809 74.2035 659.108C74.1508 659.97 73.9925 660.691 73.5703 661.535C73.4296 661.799 73.9397 662.063 74.186 661.729ZM74.186 668.114C74.6609 667.446 74.7664 666.478 74.8016 665.616C74.8016 665.194 74.2211 665.194 74.2035 665.493C74.1508 666.355 73.9925 667.094 73.5703 667.92C73.4296 668.202 73.9397 668.448 74.186 668.114Z" fill="#5B93BC"/>
<path d="M121.396 660.964C121.73 660.876 121.73 660.436 121.291 660.506C120.78 660.629 120.165 660.7 119.62 660.735C118.705 660.805 118.107 660.225 117.878 659.152C117.632 657.727 118.406 656.865 119.373 656.513C120.147 656.25 121.291 656.126 122.328 656.126C123.718 656.126 124.826 656.777 124.896 658.132C125.055 661.351 125.037 666.223 124.896 669.442C124.826 670.638 123.648 671.166 122.416 671.166C121.185 671.166 120.024 670.638 119.954 669.442C119.831 666.997 119.831 663.391 119.954 661.263C120.411 661.192 121.009 661.087 121.396 660.964Z" fill="#5B93BC"/>
<path d="M135.246 665.59C135.51 665.308 135.123 664.957 134.877 665.185C133.997 666.047 132.731 666.698 131.113 666.68C128.351 666.663 126.188 664.464 126.188 661.685C126.188 658.501 128.474 655.951 132.661 655.951C136.618 655.951 138.905 658.413 138.905 662.23C138.905 664.288 138.412 666.821 137.691 668.51C137.04 670.075 135.633 671.306 133.505 671.306C131.623 671.306 130.356 670.409 130.409 669.055C130.444 668.334 130.814 667.665 131.341 667.173C133.118 667.173 134.525 666.311 135.246 665.59ZM132.432 662.617C132.168 662.195 132.062 661.685 132.062 661.263C132.062 660.841 132.168 660.313 132.432 659.873C132.643 659.574 131.975 659.381 131.799 659.68C131.517 660.19 131.412 660.7 131.412 661.263C131.412 661.79 131.517 662.318 131.799 662.811C131.975 663.127 132.643 662.934 132.432 662.617Z" fill="#5B93BC"/>
<path d="M80.2903 733.469C80.0792 733.873 80.6069 734.049 80.8004 733.68C81.4161 732.554 82.4363 731.675 84.0193 731.675C85.7959 731.675 86.9392 732.853 86.9392 734.612C86.9392 736.371 85.919 737.426 84.2656 737.602C82.3131 737.813 79.3581 737.831 77.4056 737.62C75.9281 737.444 74.6616 736.406 74.8199 734.806C75.0134 732.255 78.9887 729.951 80.8884 727.717L81.1698 727.383C81.3809 727.119 80.9411 726.785 80.6949 727.066L80.0089 727.875C79.5867 728.368 79.1118 728.86 78.5313 729.054C77.7046 729.353 76.6844 729.23 75.9457 728.79C74.8727 728.157 74.5209 726.714 75.031 725.483C75.9457 723.372 78.2851 722.422 80.9939 722.422C84.336 722.422 86.5875 724.199 86.5875 726.749C86.5875 729.3 85.022 730.496 83.5444 731.182C81.9438 731.446 80.8356 732.29 80.2903 733.469Z" fill="#5B93BC"/>
<path d="M87.6758 730.074C87.6758 725.835 89.769 722.422 93.9553 722.422C98.1417 722.422 100.217 725.835 100.217 730.074C100.217 734.313 98.1417 737.778 93.9553 737.778C89.769 737.778 87.6758 734.348 87.6758 730.074ZM94.2895 732.484C93.9025 731.692 93.7618 730.813 93.7618 730.074C93.7618 729.335 93.9025 728.473 94.2895 727.699C94.5534 727.154 93.9201 726.837 93.6563 727.33C93.2341 728.157 93.0407 729.142 93.0407 730.074C93.0407 731.006 93.2341 732.009 93.6563 732.835C93.9201 733.328 94.5534 733.011 94.2895 732.484Z" fill="#5B93BC"/>
<path d="M127.852 733.337C127.448 734.111 128.459 734.454 128.837 733.741C130.025 731.578 131.986 729.88 135.029 729.88C138.45 729.88 140.649 732.149 140.649 735.535C140.649 738.922 138.688 740.953 135.504 741.287C131.748 741.692 126.058 741.727 122.303 741.323C119.462 740.988 117.026 738.992 117.325 735.905C117.694 730.997 125.346 726.565 129.004 722.264L129.55 721.622C129.954 721.112 129.11 720.47 128.635 721.015L127.316 722.572C126.507 723.522 125.592 724.463 124.475 724.841C122.883 725.413 120.922 725.184 119.497 724.331C117.43 723.108 116.753 720.338 117.738 717.972C119.497 713.909 124 712.08 129.215 712.08C135.644 712.08 139.98 715.501 139.98 720.408C139.98 725.316 136.973 727.62 134.123 728.939C131.045 729.449 128.908 731.068 127.861 733.337H127.852Z" fill="#5B93BC"/>
<path d="M148.599 721.727C149.241 721.56 149.241 720.716 148.397 720.848C147.412 721.085 146.233 721.217 145.178 721.288C143.419 721.42 142.267 720.303 141.827 718.245C141.352 715.501 142.847 713.847 144.703 713.17C146.189 712.66 148.388 712.422 150.393 712.422C153.067 712.422 155.195 713.671 155.336 716.283C155.644 722.475 155.609 731.85 155.336 738.042C155.204 740.346 152.935 741.358 150.561 741.358C148.186 741.358 145.961 740.337 145.82 738.042C145.583 733.337 145.583 726.398 145.82 722.308C146.7 722.176 147.852 721.965 148.599 721.736V721.727Z" fill="#5B93BC"/>
<path d="M179.285 666.144C179.074 666.548 179.602 666.724 179.795 666.355C180.411 665.22 181.44 664.341 183.032 664.341C184.817 664.341 185.969 665.528 185.969 667.296C185.969 669.064 184.94 670.119 183.287 670.304C181.326 670.515 178.353 670.532 176.392 670.321C174.905 670.145 173.639 669.099 173.797 667.498C173.991 664.939 177.984 662.617 179.892 660.374L180.173 660.04C180.385 659.776 179.945 659.442 179.699 659.724L179.013 660.533C178.59 661.025 178.107 661.527 177.526 661.72C176.699 662.019 175.67 661.896 174.932 661.456C173.85 660.823 173.498 659.372 174.017 658.132C174.932 656.012 177.289 655.053 180.006 655.053C183.366 655.053 185.626 656.839 185.626 659.398C185.626 661.957 184.052 663.162 182.566 663.848C180.956 664.112 179.848 664.965 179.294 666.144H179.285Z" fill="#5B93BC"/>
<path d="M192.309 666.144C192.098 666.548 192.625 666.724 192.819 666.355C193.434 665.22 194.463 664.341 196.055 664.341C197.841 664.341 198.993 665.528 198.993 667.296C198.993 669.064 197.964 670.119 196.31 670.304C194.349 670.515 191.376 670.532 189.415 670.321C187.929 670.145 186.662 669.099 186.821 667.498C187.014 664.939 191.007 662.617 192.915 660.374L193.197 660.04C193.408 659.776 192.968 659.442 192.722 659.724L192.036 660.533C191.614 661.025 191.13 661.527 190.55 661.72C189.723 662.019 188.694 661.896 187.955 661.456C186.873 660.823 186.522 659.372 187.04 658.132C187.955 656.012 190.312 655.053 193.03 655.053C196.389 655.053 198.65 656.839 198.65 659.398C198.65 661.957 197.075 663.162 195.589 663.848C193.98 664.112 192.871 664.965 192.317 666.144H192.309Z" fill="#5B93BC"/>
<path d="M252.654 689.635C252.443 690.04 252.97 690.215 253.164 689.846C253.779 688.72 254.8 687.841 256.383 687.841C258.159 687.841 259.303 689.019 259.303 690.778C259.303 692.537 258.282 693.593 256.629 693.769C254.676 693.98 251.721 693.997 249.769 693.786C248.291 693.61 247.025 692.572 247.183 690.972C247.377 688.421 251.352 686.117 253.252 683.883L253.533 683.549C253.744 683.285 253.304 682.951 253.058 683.232L252.372 684.041C251.95 684.534 251.475 685.026 250.895 685.22C250.068 685.519 249.048 685.396 248.309 684.956C247.236 684.323 246.884 682.881 247.394 681.649C248.309 679.538 250.648 678.589 253.357 678.589C256.699 678.589 258.951 680.365 258.951 682.916C258.951 685.466 257.385 686.662 255.908 687.348C254.307 687.612 253.199 688.456 252.654 689.635Z" fill="#5B93BC"/>
<path d="M272.229 689.072C272.229 691.992 269.766 693.927 266.108 693.927C262.449 693.927 260.074 692.045 260.004 689.67C260.004 687.858 261.429 686.979 263.117 686.979C264.683 686.979 266.108 687.788 266.195 689.354C266.213 689.723 266.723 689.688 266.706 689.336C266.618 687.823 265.281 686.574 263.346 686.574H262.871C262.167 686.574 262.167 685.079 262.871 685.079H263.575C265.334 685.079 266.301 684.27 266.741 683.443C266.934 683.092 266.495 682.881 266.319 683.215C265.844 684.165 264.665 684.692 263.451 684.692C261.587 684.692 260.356 683.602 260.356 682.159C260.356 679.626 263.504 678.571 266.108 678.571C269.555 678.571 271.877 680.101 271.877 682.265C271.877 683.602 271.015 684.815 269.414 685.273C271.226 685.836 272.229 687.208 272.229 689.072Z" fill="#5B93BC"/>
<path d="M296.478 678.632C296.126 679.301 297.006 679.591 297.322 678.984C298.343 677.12 300.04 675.66 302.661 675.66C305.607 675.66 307.507 677.612 307.507 680.532C307.507 683.452 305.818 685.202 303.074 685.492C299.838 685.844 294.939 685.871 291.694 685.519C289.24 685.229 287.147 683.505 287.402 680.849C287.727 676.618 294.314 672.801 297.463 669.09L297.929 668.536C298.281 668.096 297.551 667.542 297.138 668.008L296.003 669.354C295.299 670.172 294.517 670.99 293.549 671.306C292.177 671.799 290.489 671.597 289.257 670.867C287.481 669.82 286.892 667.428 287.745 665.379C289.257 661.878 293.145 660.304 297.63 660.304C303.171 660.304 306.909 663.25 306.909 667.481C306.909 671.711 304.314 673.69 301.86 674.833C299.204 675.273 297.366 676.671 296.46 678.624L296.478 678.632Z" fill="#5B93BC"/>
<path d="M317.407 681.552C315.595 681.64 313.907 681.491 312.095 681.148C310.195 680.743 308.656 679.31 308.656 677.032C308.656 675.572 309.298 674.288 309.967 673.356C312.42 670.031 315.833 665.977 318.92 662.652C320.054 661.456 321.866 660.462 323.907 660.462C326.272 660.462 327.759 661.975 328.111 664.402C328.436 666.707 327.882 668.343 326.826 669.627C323.528 669.046 320.846 670.066 318.779 672.107C318.463 672.397 319.017 672.951 319.36 672.634C320.908 671.148 322.886 670.242 324.936 670.242C328.726 670.242 330.336 673.039 330.336 675.519C330.336 678.439 327.855 680.541 325.147 680.831C324.531 680.893 324.654 681.447 325.173 681.412C325.965 681.35 326.985 681.148 328.031 680.594C328.788 683.188 326.659 685.818 322.807 685.818C318.955 685.818 316.827 683.778 317.407 681.561V681.552Z" fill="#5B93BC"/>
<path d="M309.368 733.469C309.157 733.873 309.685 734.049 309.879 733.68C310.494 732.554 311.514 731.675 313.097 731.675C314.874 731.675 316.017 732.853 316.017 734.612C316.017 736.371 314.997 737.426 313.344 737.602C311.391 737.813 308.436 737.831 306.484 737.62C305.006 737.444 303.74 736.406 303.898 734.806C304.092 732.255 308.067 729.951 309.967 727.717L310.248 727.383C310.459 727.119 310.019 726.785 309.773 727.066L309.087 727.875C308.665 728.368 308.19 728.86 307.609 729.054C306.783 729.353 305.763 729.23 305.024 728.79C303.951 728.157 303.599 726.714 304.109 725.483C305.024 723.372 307.363 722.422 310.072 722.422C313.414 722.422 315.666 724.199 315.666 726.749C315.666 729.3 314.1 730.496 312.623 731.182C311.022 731.446 309.914 732.29 309.368 733.469Z" fill="#5B93BC"/>
<path d="M317.321 728.614C317.251 727.172 317.427 725.553 317.779 724.34C318.078 723.231 318.764 722.686 319.907 722.581C321.736 722.422 323.759 722.422 325.677 722.563C327.049 722.651 327.682 722.968 328.051 723.794C328.368 724.498 328.35 725.87 327.963 726.855C327.752 727.365 327.277 727.523 326.855 727.33C325.641 726.785 324.48 726.591 323.179 726.573C322.739 726.573 322.757 727.084 323.109 727.101C324.269 727.136 329.089 727.259 329.089 732.466C329.089 736.265 325.94 737.778 322.845 737.778C320.98 737.778 319.362 737.286 318.394 736.547C316.301 734.946 316.6 732.378 317.796 731.288C318.43 730.707 319.221 730.478 319.978 730.478C320.734 730.478 321.525 730.742 322.071 731.235C322.792 731.833 322.897 732.378 323.003 732.695C323.091 733.029 323.636 733.011 323.601 732.624C323.566 732.167 323.144 731.375 322.669 730.901C322 730.25 321.033 729.986 320.048 729.986C319.309 729.986 318.676 730.109 318.078 730.408C317.585 730.215 317.392 729.652 317.321 728.614Z" fill="#5B93BC"/>
<path d="M99.2223 232.984C100.677 234.585 101.521 239.512 102.129 242.226C102.736 239.512 103.58 234.585 105.035 232.984C106.574 231.292 108.657 230.619 111.257 229.633C107.565 229.428 105.856 227.924 105.856 227.924C102.778 226.078 102.129 219 102.129 219C102.129 219 101.479 226.078 98.4022 227.924C98.4022 227.924 96.6929 229.428 93 229.633C95.6007 230.619 97.6841 231.292 99.2223 232.984Z" fill="#CEEBFF"/>
<path d="M112.565 254.481C115.035 257.169 116.468 265.442 117.5 270C118.532 265.442 119.965 257.169 122.434 254.481C125.047 251.64 128.584 250.511 133 248.855C126.731 248.511 123.828 245.985 123.828 245.985C118.603 242.885 117.5 231 117.5 231C117.5 231 116.397 242.885 111.172 245.985C111.172 245.985 108.269 248.511 102 248.855C106.416 250.511 109.953 251.64 112.565 254.481Z" fill="#9DD7FF"/>
<path d="M291.222 118.984C292.677 120.585 293.521 125.512 294.129 128.226C294.736 125.512 295.58 120.585 297.035 118.984C298.574 117.292 300.657 116.619 303.257 115.633C299.565 115.428 297.856 113.924 297.856 113.924C294.778 112.078 294.129 105 294.129 105C294.129 105 293.479 112.078 290.402 113.924C290.402 113.924 288.693 115.428 285 115.633C287.601 116.619 289.684 117.292 291.222 118.984Z" fill="#CEEBFF"/>
<path d="M299.232 144.501C301.156 146.618 302.273 153.137 303.077 156.728C303.881 153.137 304.997 146.618 306.922 144.501C308.957 142.262 311.713 141.372 315.154 140.068C310.269 139.797 308.007 137.806 308.007 137.806C303.936 135.364 303.077 126 303.077 126C303.077 126 302.217 135.364 298.147 137.806C298.147 137.806 295.885 139.797 291 140.068C294.44 141.372 297.197 142.262 299.232 144.501Z" fill="#9DD7FF"/>
<path d="M122.234 142.398C120.233 142.223 119 140.816 119 138.71C119 136.953 120.233 135.128 122.234 135.333C129.76 136.033 143.388 135.964 151.196 135.333C153.235 135.158 154.468 136.945 154.468 138.71C154.468 140.816 153.235 142.223 151.165 142.398C149.058 142.573 146.805 142.679 144.522 142.748C144.629 143.242 144.659 143.835 144.659 144.542C144.659 148.512 143.32 148.618 138.716 148.618C134.112 148.618 132.743 148.512 132.743 144.542C132.743 143.843 132.781 143.28 132.88 142.786C130.559 142.717 124.311 142.573 122.242 142.398H122.234ZM133.511 127.257C133.055 127.432 133.298 128.101 133.899 127.957C138.754 126.588 144.865 126.025 147.437 126.025C150.602 126.025 152.748 126.976 153.098 129.713C153.342 131.751 152.467 133.44 149.301 133.896C143.746 134.671 135.977 134.565 131.86 134.139C127.363 133.721 125.217 132.732 124.509 130.344C123.771 127.782 123.771 124.162 124.509 121.561C125.209 119.242 127.005 118.086 129.958 117.835C132.598 117.66 145.146 117.622 147.779 117.766C150.694 117.941 152.352 118.854 152.352 120.649C152.352 122.443 150.876 123.561 147.779 123.561H135.65C135.969 124.405 136.068 125.736 135.931 126.512C134.911 126.793 134.242 126.9 133.504 127.249L133.511 127.257Z" fill="white"/>
<path d="M158.547 131.759C158.547 129.706 159.985 127.934 162.329 128.185C171.125 128.968 182.433 128.884 191.564 128.185C193.946 127.979 195.392 129.706 195.392 131.759C195.392 134.223 193.954 135.5 191.526 135.66C182.441 136.398 171.133 136.443 162.329 135.66C159.985 135.493 158.547 134.223 158.547 131.759ZM165.251 137.021C168.5 136.489 171.133 137.516 172.655 139.485C173.85 141.006 173.271 143.843 171.711 144.953C171.179 145.364 171.59 146.147 172.206 145.691C176.566 142.489 182.075 138.991 188.239 138.991C191.283 138.991 193.916 140.056 194.327 143.097C194.654 146.428 192.927 148.482 188.117 149.059C182.981 149.713 174.839 149.797 167.146 149.348C162.291 149.021 159.787 147.044 159.787 143.675C159.787 139.812 162.215 137.516 165.258 137.021H165.251ZM159.985 119.804C159.658 116.474 161.34 114.177 166.156 113.561C171.293 112.907 178.94 112.823 186.717 113.318C191.526 113.561 194.038 116.603 194.038 119.934C194.038 124.04 191.983 126.922 189.023 127.455C185.69 128.033 182.403 127.333 181.17 124.496C180.348 122.565 180.515 120.344 182.159 118.869C182.814 118.215 182.281 117.637 181.665 118.086C177.266 121.287 172.206 124.253 166.042 124.253C163.044 124.253 160.327 122.9 160 119.812L159.985 119.804Z" fill="white"/>
<path d="M201.738 140.786C199.737 140.611 198.504 139.204 198.504 137.097C198.504 135.341 199.737 133.516 201.738 133.721C209.264 134.421 222.162 135.014 229.969 134.383C232.009 134.208 233.241 135.995 233.241 137.759C233.241 139.866 232.009 141.272 229.939 141.447C227.831 141.622 225.578 141.729 223.296 141.797C223.402 142.291 223.433 142.885 223.433 143.592C223.433 147.561 222.093 147.668 217.49 147.668C212.886 147.668 211.516 147.561 211.516 143.592C211.516 142.892 211.554 142.329 211.653 141.835C209.332 141.767 203.815 140.961 201.738 140.786ZM212.285 126.307C211.828 126.481 212.072 127.151 212.673 127.006C217.528 125.637 223.638 125.075 226.21 125.075C229.376 125.075 231.521 126.025 231.872 128.763C232.115 130.801 231.24 132.489 228.074 132.945C222.519 133.721 214.75 133.615 210.633 133.189C206.136 132.77 203.99 131.782 203.283 129.394C202.545 126.831 202.545 123.211 203.283 120.611C203.983 118.291 205.779 117.135 208.731 116.884C211.372 116.709 223.92 116.671 226.553 116.816C229.467 116.991 231.126 117.903 231.126 119.698C231.126 121.493 229.65 122.611 226.553 122.611H214.423C214.743 123.455 214.841 124.786 214.705 125.561C213.685 125.843 213.015 125.949 212.277 126.299L212.285 126.307Z" fill="white"/>
<path d="M236.68 131.759C236.68 129.706 238.118 127.934 240.462 128.185C249.258 128.968 260.566 128.884 269.697 128.185C272.079 127.979 273.525 129.706 273.525 131.759C273.525 134.223 272.087 135.5 269.659 135.66C260.574 136.398 249.266 136.443 240.462 135.66C238.118 135.493 236.68 134.223 236.68 131.759ZM243.384 137.021C246.633 136.489 249.266 137.516 250.788 139.485C251.982 141.006 251.404 143.843 249.844 144.953C249.311 145.364 249.722 146.147 250.339 145.691C254.699 142.489 265.132 138.223 271.295 138.223C274.339 138.223 276.972 139.288 277.383 142.329C277.71 145.66 275.983 147.713 271.174 148.291C266.037 148.945 252.972 149.805 245.278 149.348C240.424 149.021 237.92 147.044 237.92 143.675C237.92 139.812 240.347 137.516 243.391 137.021H243.384ZM238.118 119.804C237.791 116.474 239.472 114.177 244.289 113.561C249.426 112.907 257.073 112.823 264.85 113.318C269.659 113.561 272.17 116.603 272.17 119.934C272.17 124.04 270.116 126.922 267.156 127.455C263.823 128.033 260.535 127.333 259.303 124.496C258.481 122.565 258.648 120.344 260.292 118.869C260.946 118.215 260.414 117.637 259.797 118.086C255.399 121.287 250.339 124.253 244.175 124.253C241.177 124.253 238.46 122.9 238.133 119.812L238.118 119.804Z" fill="white"/>
<path d="M141.699 186.9C140.756 194.505 137.423 199.189 130.475 199.189C122.006 199.189 119 192.246 119 181.6C119 170.953 121.633 164.01 130.475 164.01C137.795 164.01 140.839 168.695 141.699 176.299H144.005C143.883 173.79 143.678 171.326 143.388 168.862C142.939 164.794 145.199 162.862 148.532 162.862C151.409 162.862 153.463 164.505 153.798 167.874C154.704 176.748 154.704 186.779 153.798 195.691C153.471 198.977 151.416 200.619 148.532 200.619C145.199 200.619 142.939 198.726 143.35 195.03C143.678 192.315 143.883 189.608 144.005 186.893H141.699V186.9ZM129.691 184.269C129.691 184.923 131.297 184.923 131.297 184.269V178.969C131.297 178.269 129.691 178.269 129.691 178.969V184.269Z" fill="white"/>
<path d="M158.18 192.375C158.005 189.296 159.71 186.687 162.852 186.885C172.06 187.311 180.56 186.824 189.699 185.356C192.841 184.809 194.79 187.204 194.965 190.284C195.185 194.102 193.481 196.087 190.3 196.604C181.199 198.071 172.699 198.55 163.492 198.132C160.357 197.98 158.401 196.201 158.18 192.383V192.375ZM170.135 176.626C175.652 174.459 182.797 173.394 185.757 173.227C189.455 173.014 192.027 174.147 192.651 177.858C193.1 180.634 192.21 183.067 188.542 183.851C182.112 185.204 173.034 185.638 168.286 185.379C162.951 185.067 160.372 183.813 159.367 180.657C158.302 177.181 158.02 172.17 158.682 168.679C159.314 165.349 161.323 163.676 164.747 163.151C167.814 162.733 182.424 161.858 185.514 161.888C188.938 161.942 190.932 163.022 191.076 165.485C191.221 168.071 189.585 169.645 185.97 169.851L171.847 170.657C172.281 171.782 172.471 173.706 172.364 174.702C171.238 175.181 170.462 175.349 169.625 175.805C169.107 176.162 169.397 176.885 170.127 176.641L170.135 176.626Z" fill="white"/>
<path d="M215.436 178.695C215.398 178.862 215.398 179.022 215.352 179.189C214.98 182.109 213.793 183.874 211.776 184.284C208.154 185.068 204.988 185.068 201.252 184.284C199.236 183.874 198.087 182.109 197.714 179.189C197.135 175.448 197.181 170.725 197.714 166.611C198.125 163.037 198.863 161.889 201.99 161.889C205.118 161.889 205.361 163.166 205.361 165.79V166.117C206.267 165.911 206.883 165.911 207.743 166.117V165.79C207.743 162.999 208.321 161.889 211.441 161.889C214.074 161.889 214.98 163.204 215.345 166.611C215.467 167.638 215.55 168.71 215.634 169.813H217.156C217.118 169.113 217.118 168.497 217.072 167.919C216.745 163.889 218.351 162.041 220.938 162.041C223.198 162.041 224.803 163.645 225.047 166.892C225.29 170.999 225.29 178.931 225.047 183.045C224.803 186.33 223.198 187.896 220.938 187.896C218.351 187.896 216.661 186.003 216.989 182.391C217.072 181.326 217.156 180.048 217.194 178.695H215.429H215.436ZM205.034 185.889C208.443 185.44 212.149 186.505 213.26 189.22C213.914 190.862 213.709 193.288 212.316 194.436C211.738 194.847 212.149 195.63 212.765 195.174C217.164 192.132 221.607 189.052 228.182 189.052C231.226 189.052 233.897 190.117 234.224 192.877C234.551 195.919 232.87 197.973 228.06 198.551C222.916 199.205 215.231 199.334 207.461 198.84C202.279 198.551 199.776 195.554 199.776 192.185C199.776 188.444 201.876 186.353 205.042 185.896L205.034 185.889ZM208.9 175.737C209.478 176.064 210.254 174.832 209.349 174.299C207.583 173.227 205.65 172.9 203.756 173.067C202.896 173.151 202.85 174.383 203.55 174.383C205.521 174.421 207.172 174.794 208.892 175.737H208.9ZM226.211 182.52C226.538 178.33 226.538 171.425 226.249 167.6C225.876 163.531 227.566 161.6 230.115 161.6C232.375 161.6 234.064 163.242 234.27 166.611C234.475 170.885 234.513 178.938 234.27 183.212C234.026 186.497 232.375 188.14 230.115 188.14C227.566 188.14 225.876 186.292 226.211 182.512V182.52Z" fill="white"/>
<path d="M237.557 191.493C237.801 188.626 239.84 186.452 242.922 187.037C251.985 188.703 260.462 189.417 269.722 189.28C272.903 189.22 274.509 191.699 274.273 194.566C273.976 198.087 272.021 199.737 268.802 199.798C259.587 199.935 251.11 199.22 242.047 197.554C238.957 196.969 237.268 195.007 237.565 191.486L237.557 191.493ZM240.304 176.01L240.799 170.155C241.187 165.569 242.815 163.356 245.737 163.394C254.892 163.501 263.62 164.231 272.645 165.364C274.281 165.539 274.775 166.535 274.661 167.927C274.555 169.197 273.862 170.543 272.226 170.406L254.359 168.908C253.583 168.839 253.453 170.315 254.237 170.383L271.731 171.851C273.367 171.988 273.87 172.938 273.756 174.292C273.641 175.645 273.01 176.292 271.366 176.193L253.864 174.809C253.042 174.74 252.905 176.421 253.72 176.489L271.267 177.881C273.154 178.041 274.144 180.018 273.892 182.969C273.641 185.919 272.371 187.334 270.461 187.463C261.421 187.98 253.225 187.334 245.494 185.493C241.765 184.642 239.863 181.265 240.304 176.026V176.01Z" fill="white"/>
<path d="M142.242 224.421C142.531 222.285 145.164 220.885 148.04 219.699C148.862 219.326 148.535 218.345 147.591 218.756C146.107 219.41 144.669 219.95 143.025 220.155C139.365 220.65 138.376 220.117 138.422 218.14C138.46 216.33 139.898 216.125 142.82 216.125C144.098 216.125 146.069 216.125 148.002 216.246C149.319 216.284 149.357 214.764 148.002 214.764H141.755C139.084 214.764 137.684 214.802 137.684 212.3C137.684 210.535 139.373 210.163 141.755 209.836C144.471 209.463 147.469 209.258 150.308 209.836C153.352 210.452 155.322 211.684 156.228 214.688C156.882 217.068 157.012 220.771 156.266 223.273C154.782 227.996 150.019 229.19 146.275 228.49C142.736 227.836 142.044 226.315 142.242 224.421ZM141.382 243.197C140.514 241.638 140.514 238.962 141.504 237.159C142.204 235.844 143.969 235.228 146.602 235.228C150.589 235.228 157.172 235.19 160.748 234.901C161.608 234.817 161.532 233.912 160.664 233.958C156.966 234.079 152.933 234.125 149.395 234.247C143.025 234.414 140.842 234.49 140.842 232.193C140.842 229.897 143.391 229.889 149.889 229.608C154.288 229.402 161.364 229.319 166.668 229.608C170.45 229.775 173.205 230.224 173.905 231.783C174.559 233.266 174.437 234.779 173.905 235.851C173.372 237 171.934 237.699 169.796 237.699C162.726 237.577 156.061 237.783 150.962 238.482C150.019 238.604 150.224 239.509 151.206 239.387C154.782 238.939 159.515 238.604 163.952 238.604C170.739 238.604 174.81 238.809 174.886 241.768C174.97 245.136 171.059 245.547 165.884 245.996C160.87 246.406 156.137 246.444 151 246.163C145.24 245.92 142.242 244.931 141.382 243.205V243.197ZM165.808 222.977C165.77 223.387 165.77 223.76 165.725 224.17C165.435 227.334 163.914 228.612 161.57 228.612C159.059 228.612 157.255 227.007 157.704 223.478C158.031 220.193 158.031 217.722 157.742 214.809C157.331 210.862 159.059 209.303 161.57 209.303C163.914 209.303 165.473 210.619 165.725 213.783C165.725 214.072 165.763 214.361 165.763 214.649L167.368 214.771C167.368 214.688 167.33 214.566 167.33 214.482C166.881 210.497 168.647 208.855 171.196 208.855C173.456 208.855 175.099 210.254 175.351 213.456C175.594 216.946 175.64 220.809 175.351 224.345C175.061 227.509 173.456 228.825 171.196 228.825C168.647 228.825 166.881 227.304 167.292 223.646C167.33 223.357 167.33 223.113 167.376 222.862L165.816 222.984L165.808 222.977Z" fill="white"/>
<path d="M181.515 228.323C181.02 226.018 180.861 223.554 181.515 221.501C182.169 219.326 183.204 218.011 186.857 218.011C189.444 218.011 191.955 217.889 194.588 217.638C195.166 217.6 195.166 216.406 194.588 216.444C192.123 216.688 189.817 216.817 187.39 216.817C182.869 216.817 181.507 215.828 181.507 213.57C181.507 211.311 183.562 209.828 187.633 209.334C190.966 208.885 193.142 208.885 196.064 209.167C199.352 209.539 202.106 210.231 202.806 212.862C203.423 215.037 203.423 217.63 202.806 219.478C202.395 220.71 201.163 221.037 199.39 221.083C194.664 221.083 190.753 221.372 188.082 222.315C187.382 222.52 187.838 223.585 188.455 223.38C190.799 222.726 194.17 222.064 197.046 222.064C201.528 222.064 203.75 223.501 204.161 226.505C204.694 231.357 199.101 232.672 193.142 232.672C185.989 232.672 182.124 231.068 181.507 228.315L181.515 228.323ZM182.664 239.95C182.664 235.798 184.719 233.95 187.762 233.501C191.012 232.969 194.504 233.623 195.615 236.254C196.27 237.981 196.194 240.65 194.626 241.798C194.048 242.171 194.504 242.992 195.075 242.536C199.435 239.539 204.534 236.414 210.697 236.414C213.741 236.414 216.412 237.281 216.785 240.239C217.112 243.403 215.385 245.334 210.576 245.912C205.439 246.566 197.784 246.65 190.015 246.201C185.206 245.874 182.656 243.327 182.656 239.958L182.664 239.95ZM205.569 230.87C206.223 226.307 206.223 218.049 205.607 213.813C205.196 210.444 207.334 208.961 210.667 208.961C213.543 208.961 215.56 210.231 215.933 212.992C216.671 217.638 216.671 226.718 215.933 231.319C215.56 234.072 213.551 235.349 210.667 235.349C207.334 235.349 205.196 233.866 205.569 230.87Z" fill="white"/>
<path d="M244.87 233.623C245.113 234.277 245.319 235.022 245.448 235.882C246.103 240.072 244.375 242.414 240.883 243.73C238.501 244.635 234.795 244.756 231.957 244.756C226.653 244.756 224.187 241.676 223.365 236.665C222.498 231.159 222.498 224.011 223.365 218.505C224.187 213.494 226.287 210.984 229.735 210.49C232.816 210.079 236.111 210.041 239.231 210.406C242.648 210.733 244.535 212.543 244.535 216.406C244.535 220.269 242.846 222.574 239.231 222.574H233.395C234.338 224.543 234.3 228.201 233.638 230.049C232.527 230.46 231.744 230.787 230.967 231.243C230.435 231.57 230.762 232.391 231.416 232.026C233.311 230.916 236.393 230.216 238.942 230.178C238.904 229.646 238.858 229.03 238.858 228.368C238.858 224.216 239.969 223.189 241.78 223.235L247.328 223.402C247.206 220.528 247.001 217.646 246.673 214.855C246.224 210.786 248.484 208.855 251.81 208.855C254.686 208.855 256.741 210.497 257.076 213.866C257.981 222.741 257.981 232.771 257.076 241.684C256.748 244.969 254.694 246.612 251.81 246.612C248.477 246.612 246.217 244.718 246.628 241.022C246.917 238.475 247.122 235.965 247.244 233.418L244.862 233.623H244.87Z" fill="white"/>
<path d="M160.179 278.148C156.222 278.148 154.784 274.817 154.731 271.213C154.715 269.152 155.781 267.342 157.881 267.342C159.981 267.342 160.826 268.764 160.826 270.574C160.826 272.065 160.59 273.753 159.152 274.855C158.878 275.061 159.205 275.449 159.456 275.258C161.031 274.072 161.366 272.369 161.336 270.08C161.32 268.544 161.777 267.342 163.504 267.342C165.064 267.342 165.688 268.528 165.551 271.471C165.384 274.924 163.421 278.148 160.187 278.148H160.179Z" fill="white"/>
<path d="M166.196 272.924C166.166 270.825 167.079 268.726 168.821 267.92C169.666 267.532 170.617 267.342 171.515 267.342C173.92 267.342 175.982 268.528 175.83 271.198C175.746 272.802 174.932 273.547 173.227 273.95C172.345 274.171 170.99 274.103 170.488 273.289C170.404 273.152 170.016 273.152 170.062 273.471C170.13 273.966 170.975 274.635 172.177 274.635C172.398 274.635 172.717 274.566 172.923 274.513C174.445 274.072 175.107 274.057 175.579 275.464C175.951 276.528 175.373 277.327 173.699 277.852C172.885 278.103 172.36 278.141 171.53 278.141C170.45 278.141 169.384 277.935 168.502 277.38C166.98 276.414 166.234 274.658 166.204 272.916L166.196 272.924ZM173.136 271.015C173.41 271.046 173.562 270.475 173.166 270.407C172.367 270.239 171.454 270.103 170.693 270.422C170.358 270.559 170.473 271.114 170.747 271.045C171.606 270.81 172.322 270.84 173.136 271.015Z" fill="white"/>
<path d="M181.193 267.73C180.638 268.308 180.242 269.083 180.181 269.897C180.128 270.3 180.486 270.353 180.569 269.996C181.011 267.981 182.038 267.205 183.598 267.327C185.006 267.426 185.477 268.886 185.462 269.829C185.462 270.726 185.257 272.3 183.621 272.551C183.08 272.635 182.456 272.399 181.931 271.973C181.68 271.753 181.543 271.973 181.543 272.262C181.513 273.479 181.444 274.711 181.323 275.912C181.186 277.182 180.493 278.179 179.085 278.179C177.678 278.179 176.94 277.182 176.833 275.912C176.65 273.441 176.734 270.992 176.765 268.521C176.78 267.966 177.069 267.509 177.51 267.441C177.868 267.372 178.355 267.342 178.88 267.342C179.862 267.342 180.896 267.494 181.201 267.73H181.193Z" fill="white"/>
<path d="M188.678 274.666C190.047 274.666 190.915 275.563 190.915 276.985C190.915 278.133 189.964 279 188.678 279C187.392 279 186.41 278.141 186.41 276.985C186.41 275.563 187.323 274.666 188.678 274.666Z" fill="white"/>
<path d="M197.483 274.027C197.278 274.414 197.787 274.582 197.97 274.232C198.564 273.152 199.545 272.3 201.067 272.3C202.779 272.3 203.875 273.433 203.875 275.122C203.875 276.81 202.893 277.829 201.303 277.996C199.423 278.201 196.585 278.217 194.705 278.011C193.283 277.844 192.065 276.848 192.217 275.304C192.4 272.855 196.227 270.635 198.054 268.49L198.328 268.171C198.533 267.92 198.107 267.593 197.871 267.867L197.209 268.642C196.806 269.114 196.349 269.593 195.786 269.776C194.987 270.065 194.013 269.943 193.298 269.525C192.263 268.916 191.928 267.532 192.415 266.346C193.298 264.315 195.543 263.403 198.153 263.403C201.371 263.403 203.533 265.114 203.533 267.563C203.533 270.011 202.026 271.167 200.603 271.821C199.066 272.072 198 272.886 197.475 274.019L197.483 274.027Z" fill="white"/>
<path d="M204.59 270.757C204.59 266.68 206.606 263.403 210.632 263.403C214.657 263.403 216.659 266.68 216.659 270.757C216.659 274.833 214.665 278.163 210.632 278.163C206.599 278.163 204.59 274.863 204.59 270.757ZM210.951 273.076C210.579 272.315 210.442 271.471 210.442 270.757C210.442 270.042 210.579 269.22 210.951 268.475C211.202 267.95 210.594 267.646 210.343 268.118C209.939 268.916 209.749 269.859 209.749 270.757C209.749 271.654 209.932 272.62 210.343 273.411C210.594 273.882 211.202 273.578 210.951 273.076Z" fill="white"/>
<path d="M222.85 274.027C222.645 274.414 223.155 274.582 223.345 274.232C223.939 273.152 224.92 272.3 226.442 272.3C228.154 272.3 229.25 273.433 229.25 275.122C229.25 276.81 228.268 277.829 226.678 277.996C224.798 278.201 221.96 278.217 220.081 278.011C218.658 277.844 217.44 276.848 217.592 275.304C217.775 272.855 221.602 270.635 223.429 268.49L223.703 268.171C223.908 267.92 223.482 267.593 223.246 267.867L222.584 268.642C222.181 269.114 221.724 269.593 221.161 269.776C220.37 270.065 219.388 269.943 218.673 269.525C217.638 268.916 217.303 267.532 217.79 266.346C218.673 264.315 220.918 263.403 223.528 263.403C226.746 263.403 228.908 265.114 228.908 267.563C228.908 270.011 227.401 271.167 225.978 271.821C224.441 272.072 223.375 272.886 222.85 274.019V274.027Z" fill="white"/>
<path d="M241.682 273.479C241.682 276.285 239.316 278.148 235.792 278.148C232.269 278.148 229.986 276.338 229.918 274.057C229.918 272.316 231.288 271.471 232.916 271.471C234.423 271.471 235.793 272.247 235.876 273.753C235.891 274.11 236.386 274.072 236.371 273.738C236.287 272.285 235.001 271.084 233.137 271.084H232.68C232.003 271.084 232.003 269.646 232.68 269.646H233.357C235.047 269.646 235.983 268.871 236.401 268.072C236.584 267.738 236.165 267.532 235.998 267.852C235.541 268.764 234.408 269.274 233.243 269.274C231.447 269.274 230.268 268.224 230.268 266.84C230.268 264.407 233.297 263.388 235.8 263.388C239.118 263.388 241.347 264.855 241.347 266.939C241.347 268.224 240.518 269.388 238.981 269.829C240.723 270.369 241.69 271.692 241.69 273.479H241.682Z" fill="white"/>
<path d="M370 781.5L351.5 769.5H34.7442L20 781.5H370Z" fill="#CCCCCC"/>
<path d="M238 781.5L228 769.5H162L152 781.5H238Z" fill="#E6E6E6"/>
</svg>
