<svg width="25" height="25" viewBox="0 0 25 25" fill="none" xmlns="http://www.w3.org/2000/svg">
<path d="M12.5 24.9399C19.1274 24.9399 24.5 19.5674 24.5 12.9399C24.5 6.31252 19.1274 0.939941 12.5 0.939941C5.87258 0.939941 0.5 6.31252 0.5 12.9399C0.5 19.5674 5.87258 24.9399 12.5 24.9399Z" fill="#006D4F"/>
<path d="M14.9492 12.9398L17.6292 10.2598C18.3292 9.55981 18.2892 8.38982 17.5592 7.73982C16.8692 7.12982 15.8092 7.17981 15.1292 7.85981L12.4992 10.4898L9.86923 7.85981C9.18923 7.17981 8.11923 7.12982 7.43923 7.73982C6.70923 8.39982 6.66923 9.56981 7.36923 10.2598L10.0492 12.9398L7.36923 15.6198C6.68923 16.2998 6.71922 17.4798 7.42922 18.1298C8.09922 18.7498 9.20925 18.6998 9.88925 18.0098L12.5092 15.3898L15.1292 18.0098C15.7992 18.6798 16.9492 18.7598 17.6392 18.0798C18.3192 17.4198 18.3092 16.2898 17.6392 15.6198L14.9592 12.9398H14.9492Z" fill="white"/>
</svg>
