<svg width="40" height="40" viewBox="0 0 40 40" fill="none" xmlns="http://www.w3.org/2000/svg">
<path d="M12.423 8.89652C12.5259 9.56798 13.9566 10.9334 14.4084 11.2787L11.9436 12.071L11.2742 11.3415L10.4422 10.1592C9.18651 10.053 8.09814 9.86621 7.43318 9.15293C6.78732 8.46014 7.45827 7.09652 8.34032 7.85119C9.05958 8.46659 9.57896 8.32289 9.57896 8.32289C9.57896 8.32289 8.6264 6.66726 8.65942 6.04634C7.88224 5.9949 6.46265 5.6795 6.03201 4.54326C5.6875 3.63426 6.60244 2.98492 7.02138 3.60178C7.59297 4.44342 8.3154 4.37982 8.3154 4.37982C7.23881 1.5392 7.35197 0.675697 8.02149 0.443078C8.5645 0.254415 9.19365 0.56167 9.27888 1.6757C9.36411 2.78974 9.91691 3.59378 9.91691 3.59378C9.91691 3.59378 10.5777 3.47525 10.9594 2.97845C11.341 2.48165 12.1253 2.2292 12.4229 3.15158C12.7205 4.07397 10.6365 5.16747 10.6613 5.52444C10.7322 6.54456 11.0494 7.15254 11.4745 7.7884C12.486 7.41687 12.7883 5.77605 13.5638 6.41187C14.481 7.16378 12.8864 8.48102 12.423 8.89652Z" fill="#F0EDE2"/>
<path d="M26.9509 10.4491C26.7664 11.1193 25.1496 12.3353 24.6492 12.632L27.0605 13.7338L27.8278 13.0727L28.8142 11.9709C30.1034 12.014 31.232 11.9549 31.9928 11.3098C32.7319 10.6832 32.2121 9.21634 31.2256 9.87743C30.4212 10.4165 29.9103 10.208 29.9103 10.208C29.9103 10.208 31.0757 8.63949 31.116 8.00432C31.9122 8.04548 33.3928 7.89558 33.9658 6.79231C34.4242 5.90968 33.5713 5.13956 33.0721 5.71626C32.3909 6.50311 31.664 6.35157 31.664 6.35157C33.0965 3.59338 33.0842 2.70197 32.4313 2.38499C31.9017 2.1279 31.2256 2.36459 31.0064 3.48682C30.7872 4.60905 30.1295 5.35993 30.1295 5.35993C30.1295 5.35993 29.4719 5.15997 29.1431 4.60905C28.8142 4.05814 28.047 3.70718 27.6347 4.60905C27.2224 5.51092 29.2108 6.87314 29.1431 7.23304C28.9496 8.26153 28.5548 8.84143 28.047 9.4367C27.0629 8.93738 26.9509 7.23304 26.0869 7.78612C25.0651 8.44019 26.5293 9.971 26.9509 10.4491Z" fill="#F0EDE2"/>
<path d="M4.15479 12.1499C6.38818 11.5633 7.02488 12.0554 9.50618 13.0947C12.6298 11.5995 14.0433 10.8426 16.9801 10.6946C18.1259 10.6369 18.4396 10.7919 19.7479 10.879C24.4096 11.1895 27.9813 13.4503 29.153 14.6975L32.0859 14.5987C34.5623 14.7637 36.1948 15.1665 37.1372 17.1414C37.1372 17.1414 38.045 19.4466 36.2253 20.6107C33.9508 22.0657 31.3206 19.5486 31.3206 19.5486C32.311 21.0792 32.9698 23.0658 33.2811 25.1212C33.7211 28.0267 33.4665 31.0697 32.472 33.157C29.5572 39.2748 25.7254 40.0618 18.1213 39.9965C10.371 39.93 3.21538 36.062 3.02546 29.2835C2.93509 26.0579 5.07101 20.4477 6.84718 17.9185C6.84718 17.9185 5.08669 17.9899 4.63309 18.2122C2.99312 19.0162 1.2742 18.1163 1 15.6169C1.13513 13.5667 3.26474 12.3837 4.15479 12.1499Z" fill="#93594E"/>
<path d="M21.8887 18.3556C21.1893 17.8678 20.1307 17.9443 20.0142 17.9366" stroke="#67392A" stroke-linecap="round"/>
<path d="M15.187 35.6827C18.0329 36.9018 20.2663 36.3152 21.0333 35.7779" stroke="#67392A" stroke-linecap="round"/>
<path d="M17.2467 17.7449C17.2467 17.7449 16.2367 17.5306 15.6153 18.0775" stroke="#67392A" stroke-linecap="round"/>
<path d="M14.7238 22.2672C14.3846 20.4994 15.1631 19.8971 15.817 19.6569C16.471 19.4168 17.4234 19.4654 17.7628 20.4492C18.1022 21.433 17.6563 22.2562 17.4563 22.7026C17.0322 23.6497 15.063 24.0349 14.7238 22.2672Z" fill="#F0EDE2"/>
<path d="M15.7704 22.0348C15.5758 21.0996 15.9308 20.5876 16.3058 20.4605C16.6808 20.3335 17.3337 20.2463 17.5284 20.7668C17.723 21.2872 17.4708 21.896 17.3561 22.1322C17.1129 22.6332 15.9649 22.9699 15.7704 22.0348Z" fill="black"/>
<path d="M22.0076 22.7523C22.5868 21.012 21.8371 20.2976 21.2085 19.9666C20.5799 19.6356 19.7526 19.8506 19.2781 20.7987C18.8035 21.7468 19.0024 22.3442 19.1447 22.8223C19.4465 23.8365 21.4283 24.4925 22.0076 22.7523Z" fill="#F0EDE2"/>
<path d="M31.725 18.0313C32.6675 19.2708 33.9631 19.748 34.9056 19.8939C35.8482 20.0398 36.6606 18.653 36.1339 17.7367C35.6071 16.8203 34.3076 16.5854 33.2783 16.6639C32.2489 16.7425 31.0102 17.0913 31.725 18.0313Z" fill="#67392A"/>
<path d="M7.6856 16.2503C7.47009 16.9558 6.1818 16.5966 5.41319 16.6813C4.64458 16.766 3.51235 17.5489 2.95261 17.0707C2.27705 16.4935 2.19889 15.7367 2.59667 15.2408C2.99445 14.7448 4.08817 14.6206 5.02743 14.869C5.44978 14.9806 7.9011 15.5448 7.6856 16.2503Z" fill="#67392A"/>
<path d="M13.3396 30.4117C14.4278 31.6608 17.9529 31.4544 18.146 28.5256C18.0202 29.6939 19.5168 32.1469 22.9735 30.7592" stroke="#67392A" stroke-linecap="round"/>
<path d="M15.8319 26.5244C15.7353 25.1866 16.2658 24.1018 17.5931 23.8928C18.9203 23.6838 19.9175 24.1198 20.4802 25.0668C21.0429 26.0138 20.4678 28.0892 18.9234 28.4236C16.9928 28.8417 15.9073 27.5696 15.8319 26.5244Z" fill="#F0EDE2" stroke="#67392A"/>
<path d="M19.5672 22.3238C19.3727 21.3886 19.7277 20.8766 20.1027 20.7495C20.4777 20.6225 21.1306 20.5353 21.3253 21.0558C21.5199 21.5762 21.2677 22.185 21.153 22.4212C20.9098 22.9222 19.7618 23.2589 19.5672 22.3238Z" fill="black"/>
</svg>
