<svg width="120" height="40" viewBox="0 0 120 40" fill="none" xmlns="http://www.w3.org/2000/svg">
<path d="M1.82083 3.45961C1.3892 5.0717 1.45394 6.28076 2.16614 7.21408C2.74884 7.9777 3.67685 8.55041 5.01492 8.65647C6.20191 8.76253 7.36732 8.67768 8.46799 8.23224C9.11544 7.95649 9.46075 7.27771 9.26651 6.705C9.07228 6.15349 8.46799 5.85653 7.6263 6.15349C6.61196 6.51409 5.68395 6.74742 4.60487 6.51409C4.10849 6.40803 3.76318 6.13228 3.56895 5.7929C3.28838 5.34745 3.35313 4.30808 3.61211 3.54446C4.82068 3.48082 6.26666 3.52325 7.58314 3.6293C8.53274 3.71415 9.02911 3.41719 9.11544 2.80205C9.20177 2.20812 8.77013 1.74146 7.90687 1.55056C6.3314 1.21117 3.24522 1.27481 1.64818 1.72025C1.00073 1.88995 0.741745 2.25055 0.741745 2.65357C0.741745 3.12022 1.10863 3.4384 1.82083 3.45961ZM1.54027 12.1352C2.53303 12.0716 3.63369 11.9655 4.73436 11.8806L4.69119 14.5321C4.69119 15.02 5.01492 15.4654 5.5113 15.5078C6.02926 15.5503 6.61196 15.3594 6.63355 14.7018L6.71987 11.7322C7.92845 11.6473 9.09386 11.5413 10.1514 11.4352C10.9499 11.3716 11.3168 10.9473 11.2952 10.3322C11.2736 9.71706 10.7988 9.2504 9.95713 9.31403C7.12993 9.54736 4.00058 9.78069 1.21654 10.0564C0.331693 10.1413 -0.0136139 10.6504 0.00796781 11.2655C0.0295495 11.817 0.569092 12.22 1.54027 12.1352Z" fill="white"/>
<path d="M30.2431 10.6504C32.9408 10.4595 34.3868 10.3322 37.1492 10.1201C38.0988 10.0564 38.4873 9.611 38.4657 9.03828C38.4441 8.40193 37.9046 7.9777 37.0845 8.04133C34.9479 8.21103 32.725 8.35951 30.0057 8.59284C29.1424 8.67768 28.7539 9.12313 28.8187 9.78069C28.8834 10.311 29.3798 10.7564 30.2431 10.6504ZM32.3581 12.4746C32.5307 12.0716 32.4228 11.7322 32.1854 11.6049C31.8401 11.4352 31.4516 11.6473 31.2142 12.0291C30.3941 13.4291 30.5021 14.8503 31.2142 15.6775C31.7754 16.3351 32.7465 16.6957 34.0199 16.6745C34.9695 16.6533 35.8759 16.4836 36.6312 15.9957C37.1924 15.6563 37.3866 15.0412 37.1924 14.5321C36.9766 13.9594 36.3291 13.8321 35.7032 14.1291C34.9695 14.4473 34.4299 14.617 33.6314 14.6594C32.9839 14.7018 32.5091 14.5745 32.2502 14.1291C32.0344 13.7473 32.0559 13.1746 32.3581 12.4746ZM33.394 1.996C34.2141 2.08085 34.7105 2.33539 34.9047 3.16265C35.0342 3.67173 34.9479 4.41414 34.7968 5.09291C34.6242 5.89895 34.9263 6.62015 35.7248 6.83227C36.5665 7.0656 37.3434 6.705 37.6456 5.45351C37.8614 4.56262 37.9046 3.20507 37.4514 2.1657C36.7392 0.55361 35.0774 -0.0403168 33.2213 0.0021073C31.8833 0.0233187 31.0416 0.299071 30.351 0.680881C29.5309 1.12633 29.3366 1.76268 29.6604 2.22933C29.8762 2.5263 30.4157 2.7172 31.1279 2.39903C31.8401 2.08085 32.6171 1.91116 33.394 1.996Z" fill="white"/>
<path d="M57.7983 3.45961C57.3667 5.0717 57.4314 6.28076 58.1436 7.21408C58.7263 7.9777 59.6544 8.55041 60.9924 8.65647C62.1794 8.76253 63.3448 8.67768 64.4455 8.23224C65.0929 7.95649 65.4382 7.27771 65.244 6.705C65.0498 6.15349 64.4455 5.85653 63.6038 6.15349C62.5895 6.51409 61.6615 6.74742 60.5824 6.51409C60.086 6.40803 59.7407 6.13228 59.5465 5.7929C59.2659 5.34745 59.3306 4.30808 59.5896 3.54446C60.7982 3.48082 62.2442 3.52325 63.5606 3.6293C64.5102 3.71415 65.0066 3.41719 65.0929 2.80205C65.1793 2.20812 64.7476 1.74146 63.8844 1.55056C62.3089 1.21117 59.2227 1.27481 57.6257 1.72025C56.9782 1.88995 56.7192 2.25055 56.7192 2.65357C56.7192 3.12022 57.0861 3.4384 57.7983 3.45961ZM57.5178 12.1352C58.5105 12.0716 59.6112 11.9655 60.7119 11.8806L60.6687 14.5321C60.6687 15.02 60.9924 15.4654 61.4888 15.5078C62.0068 15.5503 62.5895 15.3594 62.6111 14.7018L62.6974 11.7322C63.9059 11.6473 65.0714 11.5413 66.1289 11.4352C66.9274 11.3716 67.2943 10.9473 67.2727 10.3322C67.2511 9.71706 66.7763 9.2504 65.9346 9.31403C63.1074 9.54736 59.9781 9.78069 57.194 10.0564C56.3092 10.1413 55.9639 10.6504 55.9855 11.2655C56.0071 11.817 56.5466 12.22 57.5178 12.1352Z" fill="white"/>
<path d="M86.2206 10.6504C88.9183 10.4595 90.3643 10.3322 93.1267 10.1201C94.0763 10.0564 94.4648 9.611 94.4432 9.03828C94.4216 8.40193 93.8821 7.9777 93.062 8.04133C90.9254 8.21103 88.7025 8.35951 85.9832 8.59284C85.1199 8.67768 84.7314 9.12313 84.7962 9.78069C84.8609 10.311 85.3573 10.7564 86.2206 10.6504ZM88.3356 12.4746C88.5082 12.0716 88.4003 11.7322 88.1629 11.6049C87.8176 11.4352 87.4291 11.6473 87.1917 12.0291C86.3716 13.4291 86.4796 14.8503 87.1917 15.6775C87.7529 16.3351 88.724 16.6957 89.9974 16.6745C90.947 16.6533 91.8534 16.4836 92.6088 15.9957C93.1699 15.6563 93.3641 15.0412 93.1699 14.5321C92.9541 13.9594 92.3066 13.8321 91.6807 14.1291C90.947 14.4473 90.4074 14.617 89.6089 14.6594C88.9614 14.7018 88.4866 14.5745 88.2277 14.1291C88.0118 13.7473 88.0334 13.1746 88.3356 12.4746ZM89.3715 1.996C90.1916 2.08085 90.688 2.33539 90.8822 3.16265C91.0117 3.67173 90.9254 4.41414 90.7743 5.09291C90.6017 5.89895 90.9038 6.62015 91.7023 6.83227C92.544 7.0656 93.321 6.705 93.6231 5.45351C93.8389 4.56262 93.8821 3.20507 93.4289 2.1657C92.7167 0.55361 91.0549 -0.0403168 89.1988 0.0021073C87.8608 0.0233187 87.0191 0.299071 86.3285 0.680881C85.5084 1.12633 85.3141 1.76268 85.6379 2.22933C85.8537 2.5263 86.3932 2.7172 87.1054 2.39903C87.8176 2.08085 88.5946 1.91116 89.3715 1.996Z" fill="white"/>
<path d="M5.72712 31.8389C5.92135 29.9935 5.12283 28.339 2.87833 28.2753C1.21654 28.2329 0.0942945 29.6117 0.00796781 31.3298C-0.0999406 33.154 0.892817 34.6176 2.70568 34.7025C4.47538 34.8085 5.55446 33.5358 5.72712 31.8389ZM7.06518 29.739C6.48247 29.9086 5.96451 30.3753 6.11559 30.8632C6.28824 31.4147 6.8062 31.4571 7.38891 31.3298C8.05794 31.2026 9.18019 31.1177 10.0219 31.3935C9.95713 33.0904 9.76289 33.6419 9.59024 34.851C9.50391 35.4449 9.396 35.9964 9.52549 36.3782C9.69815 36.8873 10.0866 37.2691 10.9067 37.3327C11.8995 37.4176 12.4606 36.5691 12.5901 35.551C12.6764 34.9146 12.7843 34.0237 12.8059 33.3237C12.8491 31.8389 12.8707 30.3541 12.7627 28.8269C12.698 27.8299 12.5685 26.6845 12.0074 25.8572C11.6621 25.3481 11.2304 25.03 10.6262 24.8603C10.3024 24.7754 10.065 24.8391 9.93554 25.0087C9.80605 25.1784 9.80605 25.4118 9.8708 25.6663C10.0435 26.4724 10.1945 27.8299 10.1298 29.5693C9.00753 29.3784 7.97161 29.4844 7.06518 29.739ZM2.77042 32.8146C2.16614 32.7722 1.71292 32.2419 1.77767 31.3723C1.84241 30.6086 2.25246 30.0359 2.94308 30.0359C3.63369 30.0359 3.979 30.5662 4.00058 31.351C4.02216 32.2631 3.41787 32.8571 2.77042 32.8146Z" fill="white"/>
<path d="M18.8441 30.4814C18.0455 30.3965 17.5923 29.8874 17.506 29.2299C17.4197 28.5935 17.506 27.8723 17.6355 27.342C18.7793 27.2148 20.549 27.1936 21.6928 27.2784C22.664 27.342 23.3546 27.1511 23.441 26.4299C23.5273 25.6663 22.923 25.1997 21.9734 25.0724C20.1174 24.8603 17.5492 24.9663 15.801 25.433C15.132 25.6239 14.8514 26.0693 14.873 26.4511C14.8946 26.8542 15.1752 27.1936 15.8658 27.2996C15.7363 27.7663 15.5421 28.339 15.5205 29.1662C15.4773 31.1813 16.4485 32.5177 18.952 32.645C20.3332 32.7086 21.9518 32.4328 22.7503 32.051C23.7215 31.5844 23.9158 30.948 23.7215 30.3753C23.5489 29.8662 22.8583 29.5905 21.9734 29.9086C20.9591 30.2692 19.7721 30.5874 18.8441 30.4814ZM15.909 35.2328C14.8514 35.3813 14.5061 35.9116 14.5925 36.5479C14.6572 37.057 15.2399 37.3327 16.1464 37.2479C18.434 37.057 21.0886 36.9085 23.4625 36.6964C24.5416 36.5903 24.9733 36.1237 24.9517 35.5085C24.9301 34.8934 24.3906 34.4904 23.4194 34.554C20.9375 34.7025 17.8513 34.9782 15.909 35.2328Z" fill="white"/>
<path d="M31.0807 25.836C31.0375 26.4936 30.9944 27.2996 30.9728 28.0844C30.088 27.9996 29.311 28.0208 28.4477 28.2541C28.4262 27.7238 28.383 27.1936 28.3398 26.6208C28.2967 26.133 27.865 25.8572 27.2392 25.836C26.7212 25.8148 26.2464 26.1118 26.2896 26.6845C26.4622 28.5935 26.6565 29.9935 26.8723 31.9662C27.0449 33.1328 27.4981 33.6843 28.5988 33.451C29.5052 33.2177 30.2174 33.1752 31.3397 33.2389C32.0087 33.2813 32.5914 32.7086 32.6778 31.9874C32.872 30.4814 33.0446 28.3602 33.131 26.6845C33.1741 25.8572 32.8288 25.3906 31.8145 25.2633C31.4692 25.2209 31.1023 25.3906 31.0807 25.836ZM38.289 25.3693C38.5696 26.6208 38.5911 27.8299 38.5264 29.0814C38.4832 30.248 38.3322 31.4783 38.2027 32.454C38.03 33.5358 38.1811 34.2783 39.1307 34.4904C39.9724 34.6601 40.5767 34.151 40.7925 33.3662C41.073 32.0934 41.1378 30.3329 41.073 29.0602C40.9867 27.4057 40.7493 25.836 39.7565 24.4997C39.4976 24.1603 39.1738 23.8633 38.7422 23.8209C38.2458 23.7785 37.9653 24.0542 38.0732 24.5421C38.1379 24.8391 38.2243 25.0724 38.289 25.3693ZM37.62 28.5511C37.4905 26.8542 36.9725 24.9239 35.915 24.33C35.7424 24.2451 35.4402 24.2027 35.2676 24.2451C34.9438 24.33 34.8575 24.6481 34.9654 24.9875C35.1596 25.539 35.2244 26.0269 35.2891 26.5784C35.3539 27.1723 35.397 27.8299 35.397 28.5087C34.8575 28.3178 34.2101 28.339 33.6705 28.6359C33.1526 28.9117 33.0662 29.2511 33.1526 29.5693C33.2389 29.845 33.5626 30.0783 34.0806 29.8662C34.5554 29.6753 34.9223 29.6541 35.3539 29.8026C35.3323 30.4602 35.246 31.1177 35.1812 31.6904C35.0086 32.8571 35.3107 33.4086 35.9366 33.5571C36.6919 33.7692 37.2747 33.3237 37.4689 32.5389C37.6631 31.6904 37.7063 29.8026 37.62 28.5511ZM36.174 36.9509C35.4186 36.9297 35.0517 36.7176 34.728 36.3358C34.3611 35.8479 34.4475 34.9358 34.6417 34.1086C34.7496 33.6419 34.6417 33.2813 34.2532 33.1752C33.9079 33.0904 33.4979 33.2389 33.1957 33.8328C32.4404 35.36 32.5483 36.8661 33.39 37.8842C33.9079 38.5206 34.5554 39.0085 35.9582 39.1569C37.102 39.263 38.2242 39.1357 39.2386 38.6054C40.0587 38.1812 40.3608 37.3539 40.0155 36.76C39.735 36.2509 39.1523 36.0812 38.4185 36.4206C37.5984 36.7812 36.9293 36.9721 36.174 36.9509ZM28.642 31.6904C28.5988 31.0541 28.5557 30.4602 28.5341 29.845C29.2894 29.6329 30.0232 29.548 30.9296 29.6965L30.8649 31.4783C30.2606 31.3298 29.5268 31.4147 28.642 31.6904Z" fill="white"/>
<path d="M45.9414 30.6511C45.8766 30.4814 45.8335 30.2905 45.8119 30.1208C47.2147 30.0571 49.5239 29.9511 50.9699 30.0147C51.5526 30.0571 51.9195 29.6965 51.9195 29.2511C51.9195 28.7844 51.5742 28.4875 51.121 28.445L50.1282 28.3814C48.8981 28.3178 47.2579 28.3814 45.8551 28.4663C45.9198 28.0844 46.0061 27.6814 46.1356 27.236C47.5169 27.1299 49.4808 27.1511 50.6246 27.2148C51.1426 27.236 51.7684 27.0663 51.8116 26.4087C51.8764 25.6239 51.1642 25.3269 50.3009 25.2633C48.7686 25.1572 46.114 25.1572 44.6681 25.6027C44.0638 25.7936 43.4811 25.9845 43.4811 26.4936C43.4811 26.7057 43.6537 26.9814 43.9559 27.0875C44.1285 27.1511 44.3228 27.1723 44.5602 27.1936C43.848 28.7632 43.7832 30.3329 44.1069 31.3298C44.3875 32.3268 45.0997 33.048 46.2867 33.3449C47.6032 33.6631 49.416 33.5995 51.1426 32.9843C51.8116 32.751 52.2001 32.1783 51.9843 31.6268C51.79 31.0753 51.2289 30.948 50.5814 31.1389C49.4592 31.4995 47.9269 31.7116 47.1931 31.5844C46.6104 31.4783 46.114 31.2026 45.9414 30.6511ZM52.2217 34.5964C50.3225 34.7237 45.963 35.0843 43.9775 35.3176C43.2221 35.4025 42.8336 35.7631 42.8552 36.2509C42.8768 36.8024 43.2868 37.1843 44.1501 37.1418C46.3299 37.0146 50.3656 36.6752 52.5454 36.4631C53.3655 36.3782 53.7108 35.9116 53.6676 35.4237C53.6245 34.8934 53.1281 34.5328 52.2217 34.5964Z" fill="white"/>
<path d="M67.037 24.4997C67.2744 25.3057 67.4039 25.8996 67.447 26.4299C67.6197 28.1905 67.447 29.9086 67.1233 31.0329C66.9722 31.6692 67.1881 32.4116 68.0082 32.5177C68.7851 32.6237 69.3462 32.2419 69.5405 31.4359C69.7347 30.6723 69.7994 29.6965 69.7779 28.7208C70.1879 28.4663 70.6843 28.445 71.0943 28.6147C71.0943 29.3996 71.008 30.1844 70.9001 30.9268C70.7922 31.648 70.9648 32.348 71.6986 32.5389C72.6914 32.8146 73.5546 32.3268 73.7057 31.3723C73.9215 29.9723 73.8568 28.5935 73.6626 27.342C73.5331 26.4511 73.1878 24.9663 72.3461 24.0966C71.8281 23.5451 71.1375 23.1845 70.4253 23.2694C70.0368 23.3118 70.0584 23.6512 70.2095 24.0118C70.5548 24.7754 70.7706 25.3693 70.9217 26.3875C70.9648 26.642 71.008 26.8966 71.0296 27.1511C70.5332 27.0239 70.1016 27.0875 69.6699 27.2572C69.6699 27.1936 69.6484 27.1087 69.6484 27.0239C69.4973 26.0905 69.2167 25.1784 68.8714 24.6057C68.5693 24.1603 68.0082 23.6724 67.4254 23.6724C66.778 23.6724 66.9291 24.1603 67.037 24.4997ZM62.6127 26.5148C63.3249 26.4511 63.9292 26.6845 64.0155 27.3845C64.0371 27.6814 64.0155 27.9996 63.9292 28.339C62.8933 28.0632 61.5768 28.2117 60.8215 28.6359C60.4546 28.8269 60.0445 29.3147 60.2603 29.7177C60.4761 30.142 60.9941 30.0996 61.3394 29.9299C61.9437 29.6541 62.6775 29.5268 63.3897 29.6541L63.2602 29.8662C62.9149 30.4177 62.3969 31.0541 61.9221 31.6268C61.4042 32.2631 61.3394 33.0056 61.9869 33.4086C62.5696 33.7904 63.3897 33.5358 63.9724 33.0056C64.5767 32.4753 65.2241 31.4571 65.6558 30.5026C66.0658 29.6541 66.3895 28.445 66.3032 27.3845C66.1737 25.8148 65.2025 24.8391 63.5623 24.7118C62.5048 24.6057 61.2099 24.9451 60.4546 25.6027C60.1308 25.8996 59.9582 26.3239 60.1524 26.7057C60.2819 26.9814 60.6488 27.1723 61.1236 26.9814C61.7495 26.7057 62.2027 26.5572 62.6127 26.5148ZM71.0728 36.9721C71.7634 36.9509 72.3245 36.8873 72.7993 36.5903C73.123 36.3782 73.4252 35.9328 73.4683 35.4661C73.5978 34.2783 73.0799 33.3237 71.8065 32.9843C70.4685 32.6237 68.9578 32.7298 67.6629 33.1116C67.1449 33.2601 66.6917 33.7055 66.8427 34.2358C66.9938 34.7237 67.5334 34.7873 68.0082 34.6601C69.0009 34.4267 70.1879 34.2358 71.0943 34.4055C71.4828 34.4904 71.677 34.7025 71.6986 35.0207C71.7202 35.3176 71.5476 35.5297 71.2886 35.5934C71.008 35.6782 70.4901 35.5934 70.1879 35.5934C69.4325 35.5934 68.8498 35.5934 68.0513 35.7631C67.5334 35.8691 67.1233 36.06 67.1449 36.5479C67.1665 36.8873 67.4686 37.1206 67.9002 37.1418C67.8571 37.863 67.9866 38.3509 68.2456 38.7751C68.634 39.4751 69.3246 39.8357 70.2527 39.9418C71.0943 40.0478 71.8713 40.0266 72.713 39.7297C73.4467 39.4963 73.9863 38.9448 73.7489 38.2236C73.5762 37.6933 72.8856 37.6297 72.3245 37.863C71.7634 38.0751 71.3102 38.2236 70.749 38.266C70.2095 38.2873 69.6268 38.1812 69.4541 37.6297C69.411 37.4812 69.3894 37.2903 69.411 37.057C69.9073 36.9933 70.5764 36.9933 71.0728 36.9721Z" fill="white"/>
<path d="M76.5783 30.1844C76.5351 32.454 77.6358 33.748 80.2472 33.748C81.0889 33.748 82.0169 33.5571 82.6859 33.2389C83.3333 32.9631 83.6139 32.3268 83.3981 31.7541C83.2254 31.2874 82.6643 30.9268 81.9521 31.3086C81.4342 31.5844 80.6356 31.8177 80.0313 31.7965C78.8228 31.7541 78.1322 31.3935 78.089 30.248C78.8659 30.2692 80.1608 30.3753 80.9594 30.2692C82.3838 30.0783 83.247 29.3996 83.2902 28.0632C83.3549 26.239 82.1895 25.3693 80.2472 25.136C78.8444 24.9663 77.3768 25.1148 76.4056 25.539C75.9092 25.7512 75.456 26.2178 75.6503 26.8117C75.7798 27.2148 76.2114 27.4057 76.6646 27.2996C77.6358 27.0451 78.8228 26.939 80.1608 27.0875C80.7435 27.1511 81.1536 27.4057 81.1104 27.9784C81.0673 28.4875 80.6141 28.6359 80.1824 28.6359C79.1897 28.6359 77.9811 28.6359 76.9883 28.6572C76.1898 28.6784 75.8445 28.9753 75.8013 29.3571C75.7582 29.7177 75.9956 30.142 76.5783 30.1844ZM87.9302 32.9843C88.2971 30.3965 87.9734 27.2148 87.2612 25.4542C86.8512 24.436 86.0526 23.736 85.2325 23.8421C84.9088 23.8845 84.8656 24.1603 84.9304 24.5845C85.4052 27.2996 85.4268 29.6117 84.8872 32.454C84.6714 33.6631 85.2757 34.2783 86.0095 34.3843C86.8296 34.5116 87.7792 34.0025 87.9302 32.9843ZM84.0455 39.2418C85.3189 39.3054 86.549 39.1145 87.477 38.5206C88.2971 37.9903 88.405 37.3327 88.1245 36.8237C87.8439 36.3358 87.1965 36.0812 86.549 36.4843C85.88 36.9085 85.0167 37.163 84.2182 37.1418C82.7938 37.1418 82.4917 35.8691 82.6859 34.5328C82.7291 34.2358 82.578 34.0237 82.3622 33.9601C82.1248 33.8752 81.7795 33.9601 81.6068 34.2783C80.8946 35.5297 81.0457 37.1206 81.6716 37.9903C82.1464 38.6479 82.9449 39.1782 84.0455 39.2418Z" fill="white"/>
<path d="M99.8858 25.7512C100.015 26.6633 100.123 27.4481 100.145 28.3814C100.145 28.9965 100.145 29.5905 100.123 30.1844C99.4758 30.0996 98.8499 30.1208 98.2888 30.1632C97.5334 30.248 96.8644 30.4177 96.3896 30.6511C95.8501 30.9056 95.699 31.3298 95.8285 31.6268C95.9364 31.9025 96.3033 32.1147 96.8428 31.945C97.3824 31.7753 97.9435 31.6904 98.5262 31.7116C99.001 31.7329 99.4758 31.8177 99.9937 31.9662C99.9074 32.8571 99.7779 33.8328 99.6269 34.9782C99.4542 36.2085 100.317 37.057 101.159 37.1206C101.958 37.163 102.735 36.6964 102.843 35.0631C102.907 34.1298 102.972 32.4965 102.929 31.0329C102.864 29.145 102.627 27.1936 101.979 26.1118C101.569 25.433 100.986 25.03 100.296 25.1148C99.9506 25.1572 99.8427 25.3906 99.8858 25.7512ZM91.1884 29.6753C91.0158 30.5874 90.9294 31.5207 90.9294 32.4328C90.9294 33.5995 91.2316 34.4692 91.8359 35.0419C92.4617 35.6358 93.4113 35.9328 94.6631 35.9328C95.3968 35.9328 96.2601 35.8055 96.9723 35.4873C97.7061 35.1691 98.0946 34.4904 97.8572 33.8328C97.6413 33.2177 97.037 32.9419 96.109 33.2813C95.6342 33.451 95.1163 33.5358 94.7278 33.5571C93.6919 33.6207 93.1523 33.2601 93.0229 32.2844C92.8934 31.3723 93.0013 30.4814 93.1308 29.5693C93.7566 29.5056 94.2746 29.5056 95.0084 29.3996C95.8501 29.3147 96.5191 29.0814 96.5191 28.4026C96.5191 27.6602 95.9364 27.4693 95.0947 27.4481C93.6271 27.4269 91.8574 27.7026 90.9942 28.0632C90.6489 28.2329 89.9583 28.5087 90.023 29.0602C90.0877 29.7177 90.5841 29.739 91.1884 29.6753Z" fill="white"/>
<path d="M15.5585 5.60383C14.3841 8.18665 18.7765 11.3053 20.0152 11.1041C21.2538 10.9029 21.4506 9.67556 21.3411 9.28561C20.7774 7.27819 17.0264 2.37531 15.5585 5.60383Z" fill="white"/>
<path d="M23.9312 5.26446C25.5076 7.65884 21.4445 11.195 20.2031 11.1585C18.9617 11.122 18.8658 10.0519 18.9075 9.65287C19.1218 7.59881 21.9607 2.27148 23.9312 5.26446Z" fill="white"/>
<path d="M72.4557 6.56794C71.2813 9.15076 75.6737 12.2694 76.9124 12.0682C78.151 11.867 78.3478 10.6397 78.2383 10.2497C77.6747 8.2423 73.9236 3.33942 72.4557 6.56794Z" fill="white"/>
<path d="M80.8284 6.22857C82.4049 8.62296 78.3417 12.1591 77.1003 12.1226C75.8589 12.0861 75.7631 11.016 75.8047 10.617C76.0191 8.56292 78.8579 3.23559 80.8284 6.22857Z" fill="white"/>
<path d="M109.733 29.708C108.559 32.2908 112.951 35.4095 114.19 35.2083C115.429 35.0071 115.625 33.7798 115.516 33.3898C114.952 31.3824 111.201 26.4795 109.733 29.708Z" fill="white"/>
<path d="M118.106 29.3686C119.682 31.763 115.619 35.2991 114.378 35.2626C113.136 35.2261 113.04 34.156 113.082 33.757C113.296 31.7029 116.135 26.3756 118.106 29.3686Z" fill="white"/>
<path d="M44.0072 5.60383C42.8328 8.18665 47.2252 11.3053 48.4639 11.1041C49.7025 10.9029 49.8993 9.67556 49.7898 9.28561C49.2262 7.27819 45.4751 2.37531 44.0072 5.60383Z" fill="white"/>
<path d="M52.3797 5.26446C53.9561 7.65884 49.893 11.195 48.6516 11.1585C47.4102 11.122 47.3143 10.0519 47.356 9.65287C47.5703 7.59881 50.4092 2.27148 52.3797 5.26446Z" fill="white"/>
</svg>
