<svg width="100%" height="100%" viewBox="0 0 359 65" preserveAspectRatio="none" fill="none" xmlns="http://www.w3.org/2000/svg">
<g clip-path="url(#clip0_1146_4874)">
<path d="M27.2078 37.7455C25.8589 37.6258 25.0195 36.6784 25.0195 35.2524C25.0195 34.0657 25.8489 32.8391 27.2078 32.9787C32.2937 33.4574 41.4962 33.4075 46.772 32.9787C48.1508 32.859 48.9802 34.0657 48.9802 35.2524C48.9802 36.6784 48.1508 37.6258 46.752 37.7455C45.3231 37.8652 43.8044 37.935 42.2656 37.9848C42.3355 38.3139 42.3655 38.7228 42.3655 39.1915C42.3655 41.8741 41.4662 41.9439 38.3488 41.9439C35.2313 41.9439 34.312 41.8741 34.312 39.1915C34.312 38.7128 34.332 38.3339 34.4119 38.0048C32.8432 37.9549 28.6266 37.8652 27.2277 37.7455H27.2078ZM34.8216 27.5338C34.5119 27.6534 34.6817 28.1022 35.0814 28.0124C38.3588 27.085 42.4954 26.7061 44.224 26.7061C46.3623 26.7061 47.8111 27.3443 48.0509 29.1992C48.2208 30.5754 47.6213 31.7122 45.483 32.0213C41.726 32.5399 36.4803 32.4701 33.7025 32.1909C30.665 31.9017 29.2161 31.2435 28.7365 29.628C28.2369 27.8928 28.2369 25.4595 28.7365 23.7044C29.2161 22.1387 30.4252 21.3609 32.4136 21.1913C34.1921 21.0717 42.6753 21.0517 44.4538 21.1415C46.4222 21.2611 47.5413 21.8794 47.5413 23.0861C47.5413 24.2927 46.5421 25.0507 44.4538 25.0507H36.2605C36.4703 25.6191 36.5502 26.5166 36.4503 27.0451C35.7609 27.2346 35.3112 27.3044 34.8116 27.5437L34.8216 27.5338Z" fill="white"/>
<path d="M51.7479 30.5654C51.7479 29.1792 52.7172 27.9825 54.3059 28.1521C60.2511 28.6806 67.8849 28.6208 74.0599 28.1521C75.6686 28.0124 76.6478 29.1792 76.6478 30.5654C76.6478 32.2308 75.6786 33.0884 74.0399 33.1981C67.9049 33.6967 60.2611 33.7266 54.3159 33.1981C52.7371 33.0884 51.7579 32.2308 51.7579 30.5654H51.7479ZM56.2743 34.1155C58.4725 33.7565 60.2511 34.4446 61.2702 35.7809C62.0796 36.8081 61.6899 38.7228 60.6308 39.4707C60.2711 39.7499 60.5508 40.2785 60.9605 39.9693C63.9081 37.8053 67.6251 35.4518 71.7917 35.4518C73.8501 35.4518 75.6286 36.1699 75.8984 38.2242C76.1183 40.468 74.9592 41.8541 71.7018 42.243C68.2346 42.6818 62.7291 42.7417 57.5333 42.4325C54.2559 42.2131 52.5573 40.8768 52.5573 38.6031C52.5573 36.0003 54.196 34.4446 56.2543 34.1155H56.2743ZM52.7172 22.4977C52.4973 20.2539 53.6364 18.6982 56.8838 18.2794C60.351 17.8406 65.5268 17.7808 70.7726 18.1099C74.02 18.2794 75.7186 20.3237 75.7186 22.5775C75.7186 25.3498 74.3297 27.2944 72.3313 27.6534C70.0831 28.0424 67.8549 27.5737 67.0256 25.659C66.4661 24.3526 66.586 22.8567 67.6951 21.8595C68.1347 21.4207 67.775 21.0318 67.3653 21.3309C64.3977 23.495 60.9805 25.4894 56.8138 25.4894C54.7855 25.4894 52.957 24.572 52.7271 22.4977H52.7172Z" fill="white"/>
<path d="M80.9144 36.6585C79.5555 36.5388 78.7261 35.5915 78.7261 34.1654C78.7261 32.9787 79.5555 31.7521 80.9144 31.8917C86.0003 32.3704 94.7132 32.7693 99.989 32.3405C101.368 32.2208 102.197 33.4274 102.197 34.6142C102.197 36.0402 101.368 36.9876 99.969 37.1073C98.5401 37.2269 97.0214 37.2967 95.4826 37.3466C95.5526 37.6757 95.5825 38.0846 95.5825 38.5533C95.5825 41.2358 94.6833 41.3056 91.5658 41.3056C88.4483 41.3056 87.529 41.2358 87.529 38.5533C87.529 38.0746 87.549 37.6956 87.629 37.3665C86.0602 37.3167 82.3332 36.7782 80.9344 36.6585H80.9144ZM88.0386 26.8856C87.7289 27.0052 87.8987 27.454 88.2984 27.3642C91.5758 26.4368 95.7124 26.0579 97.441 26.0579C99.5793 26.0579 101.028 26.6961 101.268 28.551C101.438 29.9271 100.838 31.064 98.7 31.3731C94.943 31.8917 89.6973 31.8219 86.9195 31.5427C83.882 31.2535 82.4332 30.5953 81.9535 28.9798C81.4539 27.2446 81.4539 24.8113 81.9535 23.0562C82.4232 21.4905 83.6422 20.7127 85.6306 20.5431C87.4091 20.4235 95.8923 20.4035 97.6708 20.4933C99.6393 20.6129 100.758 21.2312 100.758 22.4379C100.758 23.6445 99.7592 24.4024 97.6708 24.4024H89.4775C89.6873 24.9709 89.7672 25.8684 89.6673 26.3969C88.9779 26.5864 88.5282 26.6562 88.0286 26.8955L88.0386 26.8856Z" fill="white"/>
<path d="M104.525 30.5654C104.525 29.1792 105.495 27.9825 107.083 28.1521C113.028 28.6806 120.662 28.6208 126.837 28.1521C128.446 28.0124 129.425 29.1792 129.425 30.5654C129.425 32.2308 128.456 33.0884 126.817 33.1981C120.682 33.6967 113.038 33.7266 107.093 33.1981C105.515 33.0884 104.535 32.2308 104.535 30.5654H104.525ZM109.052 34.1155C111.25 33.7565 113.028 34.4446 114.048 35.7809C114.857 36.8081 114.467 38.7228 113.408 39.4707C113.048 39.7499 113.328 40.2785 113.738 39.9693C116.685 37.8053 123.73 34.9333 127.896 34.9333C129.955 34.9333 131.733 35.6513 132.003 37.7056C132.223 39.9494 131.064 41.3356 127.807 41.7245C124.339 42.1633 115.506 42.7417 110.311 42.4425C107.033 42.2231 105.335 40.8868 105.335 38.6131C105.335 36.0103 106.973 34.4546 109.032 34.1255L109.052 34.1155ZM105.495 22.4977C105.275 20.2539 106.414 18.6982 109.661 18.2794C113.128 17.8406 118.304 17.7808 123.55 18.1099C126.797 18.2794 128.496 20.3237 128.496 22.5775C128.496 25.3498 127.107 27.2944 125.109 27.6534C122.86 28.0424 120.632 27.5737 119.803 25.659C119.243 24.3526 119.363 22.8567 120.472 21.8595C120.912 21.4207 120.552 21.0318 120.143 21.3309C117.175 23.495 113.758 25.4894 109.591 25.4894C107.563 25.4894 105.734 24.572 105.505 22.4977H105.495Z" fill="white"/>
<path d="M155.204 33.3277C154.565 38.4535 152.317 41.6148 147.621 41.6148C141.895 41.6148 139.867 36.9278 139.867 29.7476C139.867 22.5675 141.645 17.8805 147.621 17.8805C152.567 17.8805 154.625 21.0417 155.204 26.1676H156.763C156.683 24.4722 156.543 22.8168 156.343 21.1514C156.034 18.409 157.562 17.1027 159.821 17.1027C161.769 17.1027 163.158 18.2096 163.378 20.4833C163.987 26.4667 163.987 33.238 163.378 39.2513C163.158 41.4652 161.769 42.5821 159.821 42.5821C157.572 42.5821 156.044 41.3056 156.323 38.8125C156.543 36.9876 156.683 35.1527 156.763 33.3277H155.204ZM147.091 31.5526C147.091 31.9914 148.17 31.9914 148.17 31.5526V27.9726C148.17 27.5039 147.091 27.5039 147.091 27.9726V31.5526Z" fill="white"/>
<path d="M166.335 37.0275C166.215 34.9532 167.365 33.1881 169.493 33.3178C175.718 33.607 181.453 33.2779 187.628 32.2906C189.746 31.9216 191.065 33.5371 191.185 35.6114C191.335 38.1843 190.186 39.5305 188.038 39.8696C181.893 40.8569 176.147 41.186 169.932 40.8968C167.814 40.797 166.495 39.5904 166.345 37.0175L166.335 37.0275ZM174.409 26.4069C178.136 24.941 182.962 24.2229 184.96 24.1132C187.458 23.9736 189.197 24.7315 189.617 27.2346C189.916 29.1094 189.317 30.7549 186.839 31.2834C182.492 32.2008 176.367 32.49 173.15 32.3105C169.553 32.1011 167.804 31.2535 167.125 29.1294C166.405 26.7858 166.215 23.4052 166.665 21.0517C167.095 18.8079 168.444 17.6711 170.762 17.3221C172.83 17.0329 182.702 16.4445 184.79 16.4644C187.099 16.5043 188.448 17.2323 188.547 18.8877C188.647 20.6329 187.538 21.69 185.1 21.8296L175.558 22.3681C175.848 23.126 175.978 24.4224 175.908 25.1005C175.148 25.4196 174.629 25.5393 174.059 25.8484C173.709 26.0878 173.909 26.5764 174.399 26.4169L174.409 26.4069Z" fill="white"/>
<path d="M205.014 27.7931C204.984 27.9028 204.984 28.0124 204.954 28.1221C204.704 30.0867 203.895 31.2834 202.536 31.5626C200.088 32.0912 197.95 32.0912 195.422 31.5626C194.063 31.2834 193.284 30.0967 193.034 28.1221C192.644 25.5991 192.674 22.408 193.034 19.6356C193.314 17.2223 193.813 16.4445 195.921 16.4445C198.03 16.4445 198.2 17.3021 198.2 19.0772V19.2966C198.809 19.157 199.229 19.157 199.808 19.2966V19.0772C199.808 17.1924 200.198 16.4445 202.306 16.4445C204.085 16.4445 204.694 17.332 204.944 19.6356C205.024 20.3237 205.084 21.0517 205.134 21.7997H206.163C206.133 21.3309 206.133 20.9121 206.103 20.5232C205.883 17.8107 206.963 16.5542 208.711 16.5542C210.24 16.5542 211.319 17.6312 211.489 19.8251C211.659 22.5974 211.659 27.9526 211.489 30.7249C211.319 32.9388 210.24 33.9959 208.711 33.9959C206.963 33.9959 205.823 32.7194 206.043 30.2762C206.103 29.5582 206.153 28.7005 206.183 27.7831H204.984L205.014 27.7931ZM197.99 32.6396C200.298 32.3305 202.796 33.0585 203.545 34.8834C203.985 35.9904 203.855 37.6258 202.906 38.4037C202.516 38.6829 202.796 39.2114 203.216 38.9023C206.183 36.848 209.191 34.7737 213.627 34.7737C215.686 34.7737 217.484 35.4917 217.714 37.3566C217.934 39.4109 216.795 40.797 213.547 41.186C210.07 41.6247 204.884 41.7145 199.628 41.3754C196.131 41.186 194.433 39.1616 194.433 36.8879C194.433 34.3649 195.852 32.9488 197.99 32.6496V32.6396ZM200.598 25.7886C200.987 26.008 201.517 25.1803 200.907 24.8213C199.708 24.1033 198.409 23.8739 197.131 23.9936C196.551 24.0534 196.521 24.8811 196.991 24.8811C198.32 24.911 199.439 25.1603 200.598 25.7986V25.7886ZM212.288 30.3659C212.508 27.5338 212.508 22.8767 212.318 20.3038C212.068 17.5614 213.208 16.255 214.926 16.255C216.455 16.255 217.594 17.3619 217.734 19.6356C217.874 22.5177 217.904 27.9526 217.734 30.8346C217.564 33.0485 216.455 34.1654 214.926 34.1654C213.208 34.1654 212.068 32.9189 212.288 30.3659Z" fill="white"/>
<path d="M219.962 36.4291C220.122 34.4945 221.501 33.0286 223.589 33.4175C229.714 34.5444 235.44 35.023 241.695 34.9333C243.843 34.8934 244.932 36.5688 244.772 38.5034C244.572 40.8768 243.253 41.9937 241.075 42.0336C234.85 42.1234 229.125 41.6447 223 40.5178C220.911 40.1189 219.772 38.8026 219.972 36.4291H219.962ZM221.821 25.9881L222.15 22.039C222.41 18.9476 223.509 17.4517 225.488 17.4816C231.673 17.5514 237.568 18.05 243.663 18.8079C244.772 18.9276 245.102 19.5958 245.022 20.5332C244.952 21.3908 244.482 22.2983 243.373 22.2085L231.303 21.2013C230.773 21.1614 230.693 22.1487 231.223 22.1985L243.043 23.1858C244.153 23.2756 244.482 23.9138 244.412 24.8313C244.342 25.7487 243.913 26.1775 242.804 26.1177L230.983 25.1803C230.434 25.1304 230.334 26.2673 230.883 26.3171L242.734 27.2545C244.003 27.3642 244.672 28.7005 244.512 30.685C244.352 32.6696 243.483 33.6269 242.194 33.7167C236.089 34.0657 230.554 33.6369 225.328 32.3903C222.81 31.8219 221.521 29.5382 221.821 26.008V25.9881Z" fill="white"/>
<path d="M257.911 27.7532C258.101 26.3072 259.88 25.3698 261.828 24.562C262.388 24.3127 262.158 23.6445 261.518 23.9238C260.519 24.3626 259.55 24.7315 258.431 24.8612C255.963 25.1903 255.294 24.8313 255.323 23.5049C255.353 22.2883 256.323 22.1487 258.291 22.1487C259.15 22.1487 260.489 22.1487 261.788 22.2285C262.678 22.2584 262.708 21.2312 261.788 21.2312H257.562C255.753 21.2312 254.814 21.2611 254.814 19.5658C254.814 18.3692 255.953 18.1198 257.562 17.9004C259.39 17.6511 261.419 17.5115 263.337 17.9004C265.395 18.3193 266.724 19.147 267.334 21.1714C267.773 22.7769 267.863 25.27 267.364 26.9653C266.365 30.1565 263.137 30.9543 260.609 30.4856C258.221 30.0468 257.752 29.0197 257.891 27.7432L257.911 27.7532ZM257.332 40.4181C256.752 39.361 256.752 37.566 257.412 36.3394C257.881 35.4518 259.08 35.033 260.859 35.033C263.557 35.033 267.993 35.0031 270.411 34.8136C270.991 34.7538 270.941 34.1455 270.351 34.1754C267.853 34.2552 265.126 34.2851 262.738 34.3649C258.431 34.4746 256.962 34.5344 256.962 32.9787C256.962 31.423 258.681 31.423 263.077 31.2335C266.045 31.0939 270.831 31.0441 274.408 31.2335C276.966 31.3432 278.824 31.6524 279.294 32.6995C279.734 33.6967 279.654 34.7239 279.294 35.4419C278.934 36.2197 277.965 36.6884 276.516 36.6884C271.74 36.6086 267.244 36.7483 263.797 37.217C263.157 37.2967 263.297 37.9051 263.967 37.8253C266.385 37.5161 269.582 37.2967 272.58 37.2967C277.166 37.2967 279.914 37.4364 279.964 39.4308C280.024 41.7045 277.376 41.9838 273.879 42.2829C270.491 42.5622 267.294 42.5921 263.827 42.3926C259.94 42.2231 257.911 41.5649 257.332 40.3981V40.4181ZM273.829 26.7759C273.799 27.0551 273.799 27.3044 273.769 27.5836C273.579 29.7177 272.55 30.5753 270.961 30.5753C269.262 30.5753 268.043 29.4983 268.353 27.105C268.573 24.8911 268.573 23.2257 268.383 21.2512C268.103 18.5885 269.272 17.5315 270.971 17.5315C272.55 17.5315 273.609 18.419 273.779 20.5531C273.779 20.7426 273.809 20.942 273.809 21.1315L274.888 21.2113C274.888 21.1514 274.858 21.0717 274.858 21.0218C274.548 18.3293 275.747 17.2223 277.466 17.2223C278.994 17.2223 280.103 18.1697 280.273 20.3237C280.443 22.6772 280.463 25.29 280.273 27.6734C280.083 29.8075 278.994 30.695 277.466 30.695C275.747 30.695 274.548 29.6679 274.828 27.2047C274.858 27.0152 274.858 26.8457 274.888 26.6761L273.829 26.7559V26.7759Z" fill="white"/>
<path d="M284.44 30.3958C284.11 28.8402 284 27.1847 284.44 25.7986C284.88 24.3326 285.579 23.4451 288.047 23.4451C289.796 23.4451 291.494 23.3653 293.273 23.1958C293.663 23.1659 293.663 22.3681 293.273 22.388C291.604 22.5576 290.045 22.6373 288.407 22.6373C285.349 22.6373 284.43 21.9692 284.43 20.4434C284.43 18.9176 285.819 17.9204 288.567 17.5913C290.815 17.2822 292.294 17.2822 294.262 17.4816C296.48 17.7309 298.349 18.1996 298.818 19.9747C299.238 21.4406 299.238 23.1858 298.818 24.4423C298.539 25.27 297.709 25.4994 296.51 25.5194C293.313 25.5194 290.675 25.7088 288.866 26.3471C288.397 26.4867 288.697 27.2047 289.116 27.0651C290.695 26.6263 292.973 26.1775 294.922 26.1775C297.949 26.1775 299.448 27.1448 299.728 29.1692C300.087 32.4402 296.31 33.3277 292.284 33.3277C287.448 33.3277 284.84 32.2507 284.42 30.3859L284.44 30.3958ZM285.219 38.2441C285.219 35.4419 286.608 34.1953 288.667 33.8962C290.865 33.5371 293.223 33.9759 293.972 35.751C294.412 36.9178 294.362 38.7128 293.303 39.4907C292.913 39.74 293.223 40.2984 293.613 39.9893C296.56 37.9649 299.997 35.8607 304.164 35.8607C306.222 35.8607 308.021 36.4391 308.271 38.4436C308.491 40.5776 307.331 41.884 304.074 42.273C300.607 42.7117 295.431 42.7716 290.185 42.4624C286.938 42.243 285.209 40.5178 285.209 38.2441H285.219ZM300.687 32.1211C301.126 29.0396 301.126 23.475 300.717 20.6129C300.437 18.3392 301.886 17.342 304.134 17.342C306.082 17.342 307.441 18.1996 307.691 20.0545C308.191 23.1858 308.191 29.3188 307.691 32.4202C307.441 34.2751 306.082 35.1327 304.134 35.1327C301.886 35.1327 300.437 34.1355 300.687 32.1111V32.1211Z" fill="white"/>
<path d="M327.245 33.966C327.415 34.4047 327.555 34.9133 327.635 35.4917C328.075 38.3239 326.916 39.8995 324.548 40.7871C322.939 41.3954 320.441 41.4752 318.522 41.4752C314.935 41.4752 313.277 39.3909 312.717 36.0103C312.138 32.2906 312.138 27.4739 312.717 23.7542C313.277 20.3736 314.686 18.6783 317.024 18.3492C319.112 18.07 321.33 18.0401 323.438 18.2894C325.747 18.5088 327.026 19.7354 327.026 22.3382C327.026 24.941 325.887 26.4966 323.438 26.4966H319.492C320.131 27.823 320.101 30.2961 319.662 31.5427C318.912 31.8219 318.383 32.0413 317.853 32.3504C317.493 32.5698 317.713 33.1283 318.163 32.879C319.442 32.131 321.52 31.6623 323.249 31.6324C323.219 31.2734 323.189 30.8546 323.189 30.4158C323.189 27.6136 323.938 26.9255 325.157 26.9554L328.904 27.0651C328.824 25.1205 328.684 23.1858 328.464 21.301C328.155 18.5586 329.683 17.2522 331.932 17.2522C333.88 17.2522 335.269 18.3592 335.489 20.6329C336.098 26.6163 336.098 33.3876 335.489 39.4009C335.269 41.6148 333.88 42.7317 331.932 42.7317C329.683 42.7317 328.155 41.4552 328.434 38.9621C328.624 37.2469 328.764 35.5516 328.854 33.8363L327.245 33.9759V33.966Z" fill="white"/>
<path d="M5.59721 29.7477C6.90615 31.1837 7.66554 35.6014 8.21509 38.0447C8.76465 35.6114 9.52403 31.1837 10.823 29.7477C12.2019 28.2318 14.0804 27.6235 16.4185 26.746C13.1011 26.5665 11.5624 25.2102 11.5624 25.2102C8.79462 23.5548 8.21509 17.2024 8.21509 17.2024C8.21509 17.2024 7.63556 23.5548 4.8678 25.2102C4.8678 25.2102 3.32904 26.5565 0.0117188 26.746C2.34983 27.6335 4.21832 28.2318 5.6072 29.7477H5.59721Z" fill="#CEEBFF"/>
<path d="M348.179 27.773C349.488 29.2091 350.248 33.6268 350.797 36.0701C351.347 33.6368 352.106 29.2091 353.405 27.773C354.784 26.2572 356.662 25.6489 359.001 24.7714C355.683 24.5919 354.144 23.2356 354.144 23.2356C351.377 21.5802 350.797 15.2278 350.797 15.2278C350.797 15.2278 350.218 21.5802 347.45 23.2356C347.45 23.2356 345.911 24.5819 342.594 24.7714C344.932 25.6589 346.8 26.2572 348.189 27.773H348.179Z" fill="#CEEBFF"/>
<path d="M15.3669 54.3894C17.0455 56.2243 18.0147 61.8886 18.7142 65C19.4136 61.8786 20.3828 56.2243 22.0615 54.3894C23.83 52.4447 26.2281 51.6769 29.2257 50.54C24.9791 50.3007 23.0107 48.5755 23.0107 48.5755C19.4736 46.4513 18.7242 38.3239 18.7242 38.3239C18.7242 38.3239 17.9748 46.4513 14.4376 48.5755C14.4376 48.5755 12.4692 50.3007 8.22266 50.54C11.2202 51.6769 13.6183 52.4447 15.3869 54.3894H15.3669Z" fill="#CEEBFF"/>
<path d="M340.546 9.79292C341.565 10.9098 342.155 14.3603 342.584 16.265C343.014 14.3603 343.604 10.9198 344.623 9.79292C345.702 8.6062 347.161 8.1375 348.989 7.44941C346.401 7.30979 345.202 6.25272 345.202 6.25272C343.044 4.95631 342.584 0.0100098 342.584 0.0100098C342.584 0.0100098 342.125 4.96628 339.967 6.25272C339.967 6.25272 338.768 7.30979 336.18 7.44941C338.008 8.1375 339.467 8.6062 340.546 9.79292Z" fill="#CEEBFF"/>
</g>
<defs>
<clipPath id="clip0_1146_4874">
<rect width="359" height="65" fill="white"/>
</clipPath>
</defs>
</svg>
