<svg width="32" height="32" viewBox="0 0 32 32" fill="none" xmlns="http://www.w3.org/2000/svg">
<path d="M26.2498 5.75002C25.648 5.14419 24.9323 4.66338 24.1439 4.33527C23.3555 4.00717 22.51 3.83826 21.6561 3.83826C20.8021 3.83826 19.9566 4.00717 19.1682 4.33527C18.3799 4.66338 17.6641 5.14419 17.0623 5.75002L14.5873 8.22503C14.415 8.41525 14.3224 8.66447 14.3287 8.92109C14.335 9.17771 14.4398 9.42207 14.6213 9.60358C14.8028 9.7851 15.0472 9.88986 15.3038 9.89617C15.5604 9.90249 15.8096 9.80988 15.9998 9.63752L18.4748 7.16252C19.3203 6.32211 20.464 5.85038 21.6561 5.85038C22.8482 5.85038 23.9919 6.32211 24.8373 7.16252C25.2565 7.57952 25.5891 8.07524 25.816 8.62118C26.043 9.16712 26.1598 9.75254 26.1598 10.3438C26.1598 10.935 26.043 11.5204 25.816 12.0664C25.5891 12.6123 25.2565 13.108 24.8373 13.525L21.2998 17.0625C20.4544 17.9029 19.3107 18.3747 18.1186 18.3747C16.9265 18.3747 15.7828 17.9029 14.9373 17.0625C14.8464 16.9621 14.736 16.8813 14.6128 16.8249C14.4897 16.7684 14.3563 16.7376 14.2209 16.7343C14.0855 16.7309 13.9508 16.7552 13.825 16.8055C13.6992 16.8558 13.585 16.9311 13.4892 17.0269C13.3934 17.1227 13.3181 17.2369 13.2678 17.3627C13.2175 17.4885 13.1933 17.6232 13.1966 17.7586C13.1999 17.894 13.2307 18.0274 13.2872 18.1505C13.3436 18.2737 13.4245 18.3841 13.5248 18.475C14.7436 19.6925 16.3959 20.3764 18.1186 20.3764C19.8413 20.3764 21.4936 19.6925 22.7123 18.475L26.2498 14.9375C26.8557 14.3357 27.3365 13.62 27.6646 12.8316C27.9927 12.0432 28.1616 11.1977 28.1616 10.3438C28.1616 9.48983 27.9927 8.64433 27.6646 7.85593C27.3365 7.06754 26.8557 6.35184 26.2498 5.75002Z" fill="white"/>
<path d="M16 22.3625L13.525 24.8375C12.6752 25.6516 11.5404 26.1004 10.3637 26.0878C9.18698 26.0752 8.06202 25.6022 7.22992 24.7701C6.39781 23.938 5.92476 22.813 5.91216 21.6363C5.89955 20.4596 6.34838 19.3248 7.16247 18.475L10.7 14.9375C11.5454 14.0971 12.6891 13.6254 13.8812 13.6254C15.0733 13.6254 16.217 14.0971 17.0625 14.9375C17.2527 15.1099 17.5019 15.2025 17.7585 15.1962C18.0152 15.1899 18.2595 15.0851 18.441 14.9036C18.6225 14.7221 18.7273 14.4777 18.7336 14.2211C18.7399 13.9645 18.6473 13.7152 18.475 13.525C17.2562 12.3075 15.6039 11.6237 13.8812 11.6237C12.1585 11.6237 10.5063 12.3075 9.28747 13.525L5.74997 17.0625C5.11401 17.6583 4.60434 18.3759 4.25126 19.1726C3.89819 19.9693 3.70892 20.8288 3.69471 21.7002C3.6805 22.5715 3.84164 23.4367 4.16855 24.2445C4.49546 25.0523 4.98146 25.7861 5.59765 26.4023C6.21385 27.0185 6.94766 27.5045 7.75545 27.8314C8.56324 28.1583 9.42852 28.3195 10.2998 28.3053C11.1712 28.2911 12.0307 28.1018 12.8274 27.7487C13.6241 27.3957 14.3417 26.886 14.9375 26.25L17.4125 23.775C17.5848 23.5848 17.6774 23.3356 17.6711 23.079C17.6648 22.8223 17.56 22.578 17.3785 22.3965C17.197 22.215 16.9527 22.1102 16.696 22.1039C16.4394 22.0976 16.1902 22.1902 16 22.3625Z" fill="white"/>
</svg>
