<svg width="15" height="14" viewBox="0 0 15 14" fill="none" xmlns="http://www.w3.org/2000/svg">
<path d="M2.15955 7.46002C2.12955 7.24002 2.11954 7.02002 2.11954 6.83002C2.11954 3.96002 4.48955 1.59998 7.34955 1.59998C8.68955 1.59998 9.93953 2.13998 10.8595 2.97998L10.3995 3.45001C10.2995 3.55001 10.2595 3.70998 10.2995 3.84998C10.3495 3.98998 10.4595 4.08999 10.5995 4.12C10.6795 4.14 13.3295 4.99002 13.1595 4.96002C13.3695 5.03002 13.6895 4.79999 13.6295 4.48999C13.6095 4.40999 13.0295 1.47001 13.0595 1.64001C13.0295 1.50001 12.9195 1.37997 12.7795 1.33997C12.6395 1.29997 12.4896 1.34 12.3896 1.44L11.9995 1.82001C10.7895 0.690007 9.12955 0 7.34955 0C3.58955 0 0.519531 3.08002 0.519531 6.83002V6.84998C0.519531 7.07998 0.529551 7.25 0.539551 7.38C0.559551 7.56 0.689528 7.69999 0.859528 7.73999L1.67953 7.89996C1.94953 7.94996 2.18955 7.73002 2.15955 7.46002Z" fill="white"/>
<path d="M13.8483 5.92003L13.0183 5.75005C12.7483 5.70005 12.5083 5.92005 12.5383 6.19005C12.5683 6.42005 12.5783 6.65006 12.5783 6.82006C12.5783 9.69006 10.2083 12.05 7.34834 12.05C6.00834 12.05 4.75833 11.51 3.83833 10.66L4.29832 10.2001C4.39832 10.1001 4.43833 9.94004 4.39833 9.80004C4.34833 9.66004 4.23834 9.56002 4.09834 9.53002C4.01834 9.51002 1.36834 8.66005 1.53834 8.69005C1.39834 8.67005 1.26832 8.71004 1.17832 8.80004C1.07832 8.89004 1.03834 9.03002 1.06834 9.16002C1.08834 9.24002 1.66835 12.16 1.63835 11.99C1.66835 12.13 1.77835 12.25 1.91835 12.29C2.08835 12.33 2.22833 12.2901 2.30833 12.1901L2.68833 11.81C3.89833 12.94 5.55834 13.65 7.34834 13.65C11.1083 13.65 14.1783 10.5701 14.1783 6.82006V6.80004C14.1783 6.62004 14.1783 6.45002 14.1583 6.28002C14.1383 6.10002 14.0083 5.96003 13.8383 5.92003H13.8483Z" fill="white"/>
</svg>
