<svg width="32" height="32" viewBox="0 0 32 32" fill="none" xmlns="http://www.w3.org/2000/svg">
<path fill-rule="evenodd" clip-rule="evenodd" d="M24.7142 13.1429C24.7142 15.886 23.5061 18.3469 21.593 20.0228C22.3943 20.1446 23.0559 20.7446 23.241 21.5543L24.1553 25.5543C24.4415 26.8065 23.49 28 22.2056 28H8.93729C7.65284 28 6.70137 26.8065 6.98758 25.5543L7.90186 21.5544C8.08692 20.7447 8.74843 20.1447 9.54964 20.0228C7.63652 18.347 6.42847 15.886 6.42847 13.1429C6.42847 8.0934 10.5219 4 15.5713 4C20.6208 4 24.7142 8.0934 24.7142 13.1429ZM20.2101 7.39705C19.3413 6.70509 17.5742 5.67131 17.3385 7.09759C17.2203 7.81332 17.7557 8.46813 18.8149 9.7637C19.2095 10.2463 19.6768 10.8179 20.21 11.5146C20.9866 12.5292 22.3129 13.0406 22.551 11.2494C22.7016 10.1165 20.9279 7.96878 20.2101 7.39705Z" fill="white"/>
<path d="M4.71429 4L5.04158 5.84933L6.42857 6.28571L5.04158 6.7221L4.71429 8.57143L4.387 6.7221L3 6.28571L4.387 5.84933L4.71429 4Z" fill="white"/>
<path d="M27.5715 17.7143L27.8988 19.5636L29.2857 20L27.8988 20.4364L27.5715 22.2857L27.2442 20.4364L25.8572 20L27.2442 19.5636L27.5715 17.7143Z" fill="white"/>
</svg>
