<svg width="60" height="60" viewBox="0 0 60 60" fill="none" xmlns="http://www.w3.org/2000/svg">
<rect width="60" height="60" rx="4" transform="matrix(-1 0 0 1 60 0)" fill="#3C6C54"/>
<mask id="mask0_111_597" style="mask-type:alpha" maskUnits="userSpaceOnUse" x="0" y="0" width="60" height="60">
<rect width="60" height="60" rx="4" transform="matrix(-1 0 0 1 60 0)" fill="#3C6C54"/>
</mask>
<g mask="url(#mask0_111_597)">
<path d="M0.816492 9.17671C-0.0117802 6.27443 -4.12488 6.27443 -4.95315 9.17671L-7.38274 17.69C-7.82705 19.2469 -9.42654 20.1704 -10.997 19.7767L-19.5845 17.6242C-22.5121 16.8903 -24.5687 20.4524 -22.4694 22.6208L-16.3114 28.9816C-15.1853 30.1448 -15.1853 31.9917 -16.3114 33.1549L-22.4694 39.5157C-24.5687 41.6841 -22.5121 45.2462 -19.5845 44.5123L-10.997 42.3598C-9.42654 41.9661 -7.82705 42.8896 -7.38274 44.4465L-4.95315 52.9598C-4.12488 55.8621 -0.0117783 55.8621 0.816494 52.9598L3.24609 44.4465C3.6904 42.8896 5.28989 41.9661 6.86033 42.3598L15.4479 44.5123C18.3755 45.2462 20.432 41.6841 18.3327 39.5157L12.1747 33.1549C11.0486 31.9917 11.0486 30.1448 12.1747 28.9816L18.3327 22.6208C20.432 20.4524 18.3755 16.8903 15.4479 17.6242L6.86033 19.7767C5.28988 20.1704 3.6904 19.2469 3.24609 17.69L0.816492 9.17671Z" fill="#F5AF37"/>
<path d="M11.3758 13.552C12.1097 10.6244 8.54764 8.56788 6.37919 10.6672L0.0184326 16.8252C-1.14478 17.9513 -2.99171 17.9513 -4.15493 16.8252L-10.5157 10.6672C-12.6841 8.56788 -16.2462 10.6244 -15.5123 13.552L-13.3598 22.1396C-12.9661 23.71 -13.8896 25.3095 -15.4464 25.7538L-23.9598 28.1834C-26.8621 29.0117 -26.8621 33.1248 -23.9598 33.9531L-15.4464 36.3826C-13.8896 36.827 -12.9661 38.4264 -13.3598 39.9969L-15.5123 48.5845C-16.2462 51.512 -12.6841 53.5686 -10.5157 51.4693L-4.15493 45.3113C-2.99171 44.1852 -1.14478 44.1852 0.0184345 45.3113L6.37919 51.4693C8.54764 53.5686 12.1097 51.512 11.3758 48.5844L9.22327 39.9969C8.82962 38.4264 9.75308 36.827 11.31 36.3826L19.8233 33.9531C22.7256 33.1248 22.7256 29.0117 19.8233 28.1834L11.31 25.7538C9.75308 25.3095 8.82962 23.71 9.22327 22.1396L11.3758 13.552Z" fill="#F5AF37"/>
</g>
<path d="M42.0708 52.3389C42.4128 52.3389 42.6648 52.2669 42.8808 52.0869C43.2048 51.8349 43.3848 51.5289 43.4388 50.9889C43.5288 49.7829 43.5108 47.7489 43.4748 45.9489C43.4568 44.9409 43.4208 44.0229 43.3308 43.4109C43.2588 42.8709 43.0788 42.4929 42.7368 42.2769C42.4128 42.0789 41.8908 41.8809 41.6028 42.1509C41.4048 42.2949 41.4588 42.7269 41.4768 42.9609C41.5668 44.2389 41.5488 45.5169 41.4768 46.7949C41.4048 48.1269 41.2428 49.5489 41.0268 50.9709C40.9728 51.2949 40.9908 51.6549 41.1708 51.9069C41.3688 52.1589 41.6208 52.3389 42.0708 52.3389Z" fill="white"/>
<path d="M46.0668 43.4649C45.3288 44.6709 45.2208 46.0569 45.2208 47.4069C45.2208 48.3609 45.3828 49.6749 45.7968 50.5749C46.4268 51.9429 47.5068 52.5729 48.8208 52.5549C50.0268 52.5369 50.9268 52.0509 51.4848 51.1689C52.4028 49.7469 52.5828 47.0289 52.2588 45.2289C51.8988 43.2309 50.6208 41.7909 48.2988 42.0249C47.3988 42.1149 46.6248 42.5649 46.0668 43.4649ZM50.8548 47.2989C50.8548 48.3069 50.7288 49.4049 50.2608 50.1069C49.9008 50.6649 49.3788 50.8629 48.7488 50.8449C48.1728 50.8269 47.6688 50.4489 47.3808 49.9089C47.0208 49.2249 46.8588 48.1269 46.8408 47.3709C46.8048 46.4529 46.9128 45.2649 47.3088 44.4189C47.5788 43.8429 48.1188 43.4469 48.7308 43.4109C49.3608 43.3749 49.9188 43.6629 50.2788 44.1849C50.8008 44.9409 50.8548 46.3629 50.8548 47.2989Z" fill="white"/>
<path d="M39.2869 9.51311C39.5021 8.82896 40.4979 8.82896 40.7131 9.51311L41.2881 11.3408C41.4026 11.705 41.7872 11.9209 42.1688 11.8354L44.0835 11.4059C44.8003 11.2451 45.2982 12.0839 44.7966 12.6072L43.4568 14.0054C43.1899 14.284 43.1899 14.716 43.4568 14.9946L44.7966 16.3928C45.2982 16.9161 44.8003 17.7549 44.0835 17.5941L42.1688 17.1646C41.7872 17.0791 41.4026 17.295 41.2881 17.6592L40.7131 19.4869C40.4979 20.171 39.5021 20.171 39.2869 19.4869L38.7119 17.6592C38.5974 17.295 38.2128 17.0791 37.8312 17.1646L35.9165 17.5941C35.1997 17.7549 34.7018 16.9161 35.2034 16.3928L36.5432 14.9946C36.8101 14.716 36.8101 14.284 36.5432 14.0054L35.2034 12.6072C34.7018 12.0839 35.1997 11.2451 35.9165 11.4059L37.8312 11.8354C38.2128 11.9209 38.5974 11.705 38.7119 11.3408L39.2869 9.51311Z" fill="#F5AF37"/>
<path fill-rule="evenodd" clip-rule="evenodd" d="M40.0001 10.5C40.2763 10.5 40.5001 10.7239 40.5001 11V13.691L42.7765 12.5528C43.0235 12.4293 43.3238 12.5294 43.4473 12.7764C43.5708 13.0234 43.4707 13.3237 43.2237 13.4472L41.1181 14.5L43.2237 15.5528C43.4707 15.6763 43.5708 15.9766 43.4473 16.2236C43.3238 16.4706 43.0235 16.5707 42.7765 16.4472L40.5001 15.309V18C40.5001 18.2761 40.2763 18.5 40.0001 18.5C39.724 18.5 39.5001 18.2761 39.5001 18V15.309L37.2237 16.4472C36.9767 16.5707 36.6764 16.4706 36.5529 16.2236C36.4294 15.9766 36.5295 15.6763 36.7765 15.5528L38.8821 14.5L36.7765 13.4472C36.5295 13.3237 36.4294 13.0234 36.5529 12.7764C36.6764 12.5294 36.9767 12.4293 37.2237 12.5528L39.5001 13.691V11C39.5001 10.7239 39.724 10.5 40.0001 10.5Z" fill="white"/>
</svg>
