<svg width="60" height="60" viewBox="0 0 60 60" fill="none" xmlns="http://www.w3.org/2000/svg">
<rect width="60" height="60" rx="4" fill="#3C6C54"/>
<path fill-rule="evenodd" clip-rule="evenodd" d="M49.1691 45.8681C49.5808 47.325 48.3251 48.5807 46.8682 48.1691L34.8506 44.7735C34.3024 44.6185 33.8757 44.2714 33.6052 43.8421C33.4493 43.7365 33.3011 43.6147 33.163 43.4767L11.2427 21.5564C8.89955 19.2132 8.89955 15.4142 11.2427 13.0711L14.0711 10.2426C16.4143 7.8995 20.2133 7.8995 22.5564 10.2426L44.4767 32.163C44.6148 32.301 44.7366 32.4492 44.8421 32.6051C45.2715 32.8757 45.6186 33.3023 45.7735 33.8506L49.1691 45.8681Z" fill="#123B27"/>
<rect width="16" height="1" transform="matrix(0.707107 -0.707107 -0.707107 -0.707107 33.8701 44.1838)" fill="#242424"/>
<rect width="16" height="1" transform="matrix(0.707107 -0.707107 -0.707107 -0.707107 13.3643 23.6777)" fill="#242424"/>
<rect width="16" height="2" transform="matrix(0.707107 -0.707107 -0.707107 -0.707107 32.4561 42.7695)" fill="#242424"/>
<rect width="16" height="1" transform="matrix(0.707107 -0.707107 -0.707107 -0.707107 11.9497 22.2635)" fill="#242424"/>
<rect width="8" height="18" rx="4" transform="matrix(0.707107 -0.707107 -0.707107 -0.707107 31.0415 35.6985)" fill="#242424"/>
<path d="M9.06981 52.496C9.41181 52.496 9.66381 52.424 9.87981 52.244C10.2038 51.992 10.3838 51.686 10.4378 51.146C10.5278 49.94 10.5098 47.906 10.4738 46.106C10.4558 45.098 10.4198 44.18 10.3298 43.568C10.2578 43.028 10.0778 42.65 9.73581 42.434C9.41181 42.236 8.88981 42.038 8.60181 42.308C8.40381 42.452 8.45781 42.884 8.47581 43.118C8.56581 44.396 8.54781 45.674 8.47581 46.952C8.40381 48.284 8.24181 49.706 8.02581 51.128C7.97181 51.452 7.98981 51.812 8.16981 52.064C8.36781 52.316 8.61981 52.496 9.06981 52.496Z" fill="white"/>
<path d="M14.3078 50.822C15.2078 49.904 16.5038 48.536 17.1338 47.402C17.4938 46.754 17.6738 46.16 17.7278 45.494C17.8898 43.478 16.5398 41.984 14.5238 42.182C13.5518 42.272 12.5978 42.668 12.2378 43.802C12.0758 44.288 12.1118 44.99 12.3998 45.386C12.5078 45.53 12.7058 45.656 12.8858 45.602C13.0658 45.548 13.1558 45.404 13.1378 45.296C13.0658 44.918 13.0118 44.63 13.1018 44.27C13.2278 43.802 13.6958 43.406 14.2538 43.352C15.3158 43.262 15.9278 43.874 16.0538 44.81C16.1258 45.35 16.0718 45.854 15.8738 46.34C15.2978 47.78 14.1098 48.86 12.9578 50.048C12.4178 50.588 11.8778 51.254 12.1118 52.028C12.2558 52.514 12.6698 52.694 13.4438 52.64C14.6138 52.568 16.0898 52.604 17.2598 52.658C17.6378 52.676 18.1418 52.586 18.3218 52.172C18.4838 51.686 18.3398 51.146 17.6738 50.876C17.2958 50.732 16.7558 50.66 16.1438 50.66C15.7478 50.66 14.8658 50.732 14.3078 50.822Z" fill="white"/>
</svg>
