<svg width="60" height="60" viewBox="0 0 60 60" fill="none" xmlns="http://www.w3.org/2000/svg">
<rect width="60" height="60" rx="4" fill="#3C6C54"/>
<path fill-rule="evenodd" clip-rule="evenodd" d="M38.2568 20.331C34.7925 20.9729 31.7451 22.628 29.2166 26.0967C28.5904 26.9557 28.0549 27.8863 27.61 28.8616C30.1959 28.8778 33.0236 29.3533 36.1883 29.9785C38.9938 30.5327 41.0449 31.8859 42.3806 33.7087C43.6995 35.5086 44.2469 37.663 44.2565 39.7329C44.2662 41.799 43.7423 43.8607 42.8223 45.5501C41.9128 47.2199 40.5263 48.6781 38.7194 49.2518C34.9392 50.4519 31.6849 50.219 29.0919 48.8182C26.5187 47.4281 24.8137 45.005 23.8785 42.2372C22.8868 39.3025 22.7137 35.8545 23.3454 32.4917C20.9338 33.3427 18.6989 35.196 16.2296 38.9077C15.3144 40.2833 14.923 42.349 15.0124 44.795C15.1005 47.2058 15.6493 49.7902 16.4019 52.0201C16.6668 52.8051 16.2453 53.6561 15.4603 53.921C14.6754 54.186 13.8243 53.7644 13.5594 52.9795C12.7333 50.5317 12.1151 47.6587 12.0144 44.9046C11.915 42.1856 12.313 39.3787 13.7318 37.246C16.7588 32.6961 19.7975 30.2306 23.5585 29.3006C23.7893 29.2436 24.0219 29.1926 24.2564 29.1474C24.8776 27.4313 25.7236 25.7956 26.7923 24.3295C29.8014 20.2016 33.5414 18.1536 37.7102 17.3812C41.8043 16.6227 46.2661 17.1032 50.7583 17.8883C51.5743 18.031 52.1202 18.8081 51.9776 19.6242C51.835 20.4403 51.0578 20.9862 50.2417 20.8435C45.8131 20.0695 41.7959 19.6753 38.2568 20.331ZM26.5502 31.8844C25.7296 35.1099 25.7855 38.5094 26.7206 41.2768C27.4788 43.5208 28.7732 45.2362 30.5178 46.1787C32.2425 47.1105 34.6246 47.4042 37.8117 46.3924C38.6382 46.13 39.5057 45.3674 40.1877 44.1152C40.859 42.8825 41.2639 41.3212 41.2566 39.7469C41.2492 38.1765 40.8337 36.6732 39.9607 35.4819C39.1045 34.3135 37.7347 33.3419 35.6069 32.9216C31.8697 32.1834 28.9853 31.7487 26.5502 31.8844Z" fill="white"/>
<path d="M8.25209 13.6576C9.15209 12.7396 10.4481 11.3716 11.0781 10.2376C11.4381 9.58962 11.6181 8.99562 11.6721 8.32962C11.8341 6.31362 10.4841 4.81962 8.46809 5.01762C7.49609 5.10762 6.54209 5.50362 6.18209 6.63762C6.02009 7.12362 6.05609 7.82562 6.34409 8.22162C6.45209 8.36562 6.65009 8.49162 6.83009 8.43762C7.01009 8.38362 7.10009 8.23962 7.08209 8.13162C7.01009 7.75362 6.95609 7.46562 7.04609 7.10562C7.17209 6.63762 7.64009 6.24162 8.19809 6.18762C9.26009 6.09762 9.87209 6.70962 9.99809 7.64562C10.0701 8.18562 10.0161 8.68962 9.81809 9.17562C9.24209 10.6156 8.05409 11.6956 6.90209 12.8836C6.36209 13.4236 5.82209 14.0896 6.05609 14.8636C6.20009 15.3496 6.61409 15.5296 7.38809 15.4756C8.55809 15.4036 10.0341 15.4396 11.2041 15.4936C11.5821 15.5116 12.0861 15.4216 12.2661 15.0076C12.4281 14.5216 12.2841 13.9816 11.6181 13.7116C11.2401 13.5676 10.7001 13.4956 10.0881 13.4956C9.69209 13.4956 8.81009 13.5676 8.25209 13.6576Z" fill="white"/>
</svg>
