<svg width="60" height="60" viewBox="0 0 60 60" fill="none" xmlns="http://www.w3.org/2000/svg">
<rect width="60" height="60" rx="4" fill="#3C6C54"/>
<path d="M7.24969 30.9317L7.23143 30.7773C6.89246 27.9118 6.82708 14.7987 7 0H54.7889C54.8855 4.39212 55.0297 8.45562 55.3865 10.5C55.8376 13.0841 57.6045 14.8528 60 16.0588V55.7974C54.4539 55.8159 47.9921 55.7918 40.4999 55.7918C10.1889 55.7918 8.51532 41.6367 7.24969 30.9317Z" fill="#AC473D"/>
<path d="M34.5 28C27.7 20.8 12.5 20.6666 7.00002 22.5C5.50002 37 7.5 44 16 51C22.8 56.6 36.5 56.6666 42.5 56C43 49.5 41.3 35.2 34.5 28Z" fill="#563930"/>
<path d="M20.2521 44.6576C21.1521 43.7396 22.4481 42.3716 23.0781 41.2376C23.4381 40.5896 23.6181 39.9956 23.6721 39.3296C23.8341 37.3136 22.4841 35.8196 20.4681 36.0176C19.4961 36.1076 18.5421 36.5036 18.1821 37.6376C18.0201 38.1236 18.0561 38.8256 18.3441 39.2216C18.4521 39.3656 18.6501 39.4916 18.8301 39.4376C19.0101 39.3836 19.1001 39.2396 19.0821 39.1316C19.0101 38.7536 18.9561 38.4656 19.0461 38.1056C19.1721 37.6376 19.6401 37.2416 20.1981 37.1876C21.2601 37.0976 21.8721 37.7096 21.9981 38.6456C22.0701 39.1856 22.0161 39.6896 21.8181 40.1756C21.2421 41.6156 20.0541 42.6956 18.9021 43.8836C18.3621 44.4236 17.8221 45.0896 18.0561 45.8636C18.2001 46.3496 18.6141 46.5296 19.3881 46.4756C20.5581 46.4036 22.0341 46.4396 23.2041 46.4936C23.5821 46.5116 24.0861 46.4216 24.2661 46.0076C24.4281 45.5216 24.2841 44.9816 23.6181 44.7116C23.2401 44.5676 22.7001 44.4956 22.0881 44.4956C21.6921 44.4956 20.8101 44.5676 20.2521 44.6576Z" fill="white"/>
<path d="M26.686 46.3316C27.028 46.3316 27.28 46.2596 27.496 46.0796C27.82 45.8276 28 45.5216 28.054 44.9816C28.144 43.7756 28.126 41.7416 28.09 39.9416C28.072 38.9336 28.036 38.0156 27.946 37.4036C27.874 36.8636 27.694 36.4856 27.352 36.2696C27.028 36.0716 26.506 35.8736 26.218 36.1436C26.02 36.2876 26.074 36.7196 26.092 36.9536C26.182 38.2316 26.164 39.5096 26.092 40.7876C26.02 42.1196 25.858 43.5416 25.642 44.9636C25.588 45.2876 25.606 45.6476 25.786 45.8996C25.984 46.1516 26.236 46.3316 26.686 46.3316Z" fill="white"/>
</svg>
