<svg width="60" height="60" viewBox="0 0 60 60" fill="none" xmlns="http://www.w3.org/2000/svg">
<rect width="60" height="60" rx="4" fill="#3C6C54"/>
<path d="M32.3457 54.2138C39.5962 54.4417 63.3928 32.3443 54.8944 16.7355C47.9691 5.94803 36.3722 8.76201 30.206 20.5977C23.7306 7.81253 10.8123 7.54617 4.95249 20.0649C-0.907343 35.2473 21.8482 53.4468 30.2061 53.9228C30.8449 54.0873 31.5556 54.1889 32.3457 54.2138Z" fill="#AC473D"/>
<path d="M24.8082 34.822C25.7082 33.904 27.0042 32.536 27.6342 31.402C27.9942 30.754 28.1742 30.16 28.2282 29.494C28.3902 27.478 27.0402 25.984 25.0242 26.182C24.0522 26.272 23.0982 26.668 22.7382 27.802C22.5762 28.288 22.6122 28.99 22.9002 29.386C23.0082 29.53 23.2062 29.656 23.3862 29.602C23.5662 29.548 23.6562 29.404 23.6382 29.296C23.5662 28.918 23.5122 28.63 23.6022 28.27C23.7282 27.802 24.1962 27.406 24.7542 27.352C25.8162 27.262 26.4282 27.874 26.5542 28.81C26.6262 29.35 26.5722 29.854 26.3742 30.34C25.7982 31.78 24.6102 32.86 23.4582 34.048C22.9182 34.588 22.3782 35.254 22.6122 36.028C22.7562 36.514 23.1702 36.694 23.9442 36.64C25.1142 36.568 26.5902 36.604 27.7602 36.658C28.1382 36.676 28.6422 36.586 28.8222 36.172C28.9842 35.686 28.8402 35.146 28.1742 34.876C27.7962 34.732 27.2562 34.66 26.6442 34.66C26.2482 34.66 25.3662 34.732 24.8082 34.822Z" fill="white"/>
<path d="M35.0761 26.686C34.0681 26.47 32.9521 26.506 31.9441 26.686C31.8901 26.056 31.5661 25.948 31.1701 25.93C30.4501 25.876 30.3241 26.578 30.2701 27.064C30.1621 27.946 30.1441 29.08 30.2161 29.98C30.2341 30.268 30.2881 30.574 30.3601 30.88C30.5221 31.42 30.9361 31.564 31.3141 31.528C31.5841 31.492 31.7821 31.348 31.9081 31.096C32.2861 30.898 32.7721 30.844 33.2221 30.898C34.2481 31.042 34.8781 31.762 34.8781 32.842C34.8961 34.048 34.2481 34.93 33.0601 34.984C32.4301 35.02 31.5841 34.768 31.2061 34.102C31.0261 33.778 30.7921 33.328 30.2881 33.508C29.7841 33.706 29.8381 34.318 30.0361 34.75C30.4681 35.794 31.5481 36.658 33.0601 36.64C35.1481 36.622 36.4261 35.2 36.4981 33.31C36.5701 31.402 35.7241 29.98 33.5641 29.728C33.0601 29.674 32.4841 29.746 31.9441 29.944C31.9261 29.458 31.9261 28.972 31.9261 28.558C31.9081 28.378 31.9081 28.036 31.9261 27.712C32.3941 27.604 32.7541 27.568 33.3301 27.55C34.1761 27.532 34.9501 27.64 35.7781 27.874C35.9041 27.91 36.1201 27.838 36.1741 27.694C36.2461 27.46 36.1921 27.244 36.0121 27.082C35.7601 26.848 35.4001 26.776 35.0761 26.686Z" fill="white"/>
</svg>
