<svg width="60" height="60" viewBox="0 0 60 60" fill="none" xmlns="http://www.w3.org/2000/svg">
<rect width="60" height="60" rx="4" fill="#3C6C54"/>
<path d="M32.9998 32.5C35.0577 44.8022 30 49 24.4998 52.5C21.276 54.5514 14.3613 55.6482 0.0699921 55.7737V17.5C6.18452 18.9918 13.57 18.5 15.4998 18.5C18.7925 18.5 30.9419 20.1978 32.9998 32.5Z" fill="#AC473D"/>
<circle cx="13" cy="30" r="2" fill="white"/>
<circle cx="12" cy="38" r="2" fill="white"/>
<circle cx="14" cy="46" r="2" fill="white"/>
<circle cx="18" cy="51" r="2" fill="white"/>
<circle cx="17" cy="22" r="2" fill="white"/>
<path d="M42.8082 17.822C43.7082 16.904 45.0042 15.536 45.6342 14.402C45.9942 13.754 46.1742 13.16 46.2282 12.494C46.3902 10.478 45.0402 8.98399 43.0242 9.18199C42.0522 9.27199 41.0982 9.66799 40.7382 10.802C40.5762 11.288 40.6122 11.99 40.9002 12.386C41.0082 12.53 41.2062 12.656 41.3862 12.602C41.5662 12.548 41.6562 12.404 41.6382 12.296C41.5662 11.918 41.5122 11.63 41.6022 11.27C41.7282 10.802 42.1962 10.406 42.7542 10.352C43.8162 10.262 44.4282 10.874 44.5542 11.81C44.6262 12.35 44.5722 12.854 44.3742 13.34C43.7982 14.78 42.6102 15.86 41.4582 17.048C40.9182 17.588 40.3782 18.254 40.6122 19.028C40.7562 19.514 41.1702 19.694 41.9442 19.64C43.1142 19.568 44.5902 19.604 45.7602 19.658C46.1382 19.676 46.6422 19.586 46.8222 19.172C46.9842 18.686 46.8402 18.146 46.1742 17.876C45.7962 17.732 45.2562 17.66 44.6442 17.66C44.2482 17.66 43.3662 17.732 42.8082 17.822Z" fill="white"/>
<path d="M49.9801 17.822C50.8801 16.904 52.1761 15.536 52.8061 14.402C53.1661 13.754 53.3461 13.16 53.4001 12.494C53.5621 10.478 52.2121 8.98399 50.1961 9.18199C49.2241 9.27199 48.2701 9.66799 47.9101 10.802C47.7481 11.288 47.7841 11.99 48.0721 12.386C48.1801 12.53 48.3781 12.656 48.5581 12.602C48.7381 12.548 48.8281 12.404 48.8101 12.296C48.7381 11.918 48.6841 11.63 48.7741 11.27C48.9001 10.802 49.3681 10.406 49.9261 10.352C50.9881 10.262 51.6001 10.874 51.7261 11.81C51.7981 12.35 51.7441 12.854 51.5461 13.34C50.9701 14.78 49.7821 15.86 48.6301 17.048C48.0901 17.588 47.5501 18.254 47.7841 19.028C47.9281 19.514 48.3421 19.694 49.1161 19.64C50.2861 19.568 51.7621 19.604 52.9321 19.658C53.3101 19.676 53.8141 19.586 53.9941 19.172C54.1561 18.686 54.0121 18.146 53.3461 17.876C52.9681 17.732 52.4281 17.66 51.8161 17.66C51.4201 17.66 50.5381 17.732 49.9801 17.822Z" fill="white"/>
</svg>
