<svg width="60" height="60" viewBox="0 0 60 60" fill="none" xmlns="http://www.w3.org/2000/svg">
<rect width="60" height="60" rx="4" fill="#3C6C54"/>
<path d="M8 21C8 19.8954 8.89543 19 10 19H50C51.1046 19 52 19.8954 52 21V54C52 55.1046 51.1046 56 50 56H10C8.89543 56 8 55.1046 8 54V21Z" fill="#003C7F"/>
<path d="M4 16C4 14.8954 4.89543 14 6 14H54C55.1046 14 56 14.8954 56 16V24C56 25.1046 55.1046 26 54 26H6C4.89543 26 4 25.1046 4 24V16Z" fill="#0A3260"/>
<path d="M37.2521 49.7131C38.1521 48.7951 39.4481 47.4271 40.0781 46.2931C40.4381 45.6451 40.6181 45.0511 40.6721 44.3851C40.8341 42.3691 39.4841 40.8751 37.4681 41.0731C36.4961 41.1631 35.5421 41.5591 35.1821 42.6931C35.0201 43.1791 35.0561 43.8811 35.3441 44.2771C35.4521 44.4211 35.6501 44.5471 35.8301 44.4931C36.0101 44.4391 36.1001 44.2951 36.0821 44.1871C36.0101 43.8091 35.9561 43.5211 36.0461 43.1611C36.1721 42.6931 36.6401 42.2971 37.1981 42.2431C38.2601 42.1531 38.8721 42.7651 38.9981 43.7011C39.0701 44.2411 39.0161 44.7451 38.8181 45.2311C38.2421 46.6711 37.0541 47.7511 35.9021 48.9391C35.3621 49.4791 34.8221 50.1451 35.0561 50.9191C35.2001 51.4051 35.6141 51.5851 36.3881 51.5311C37.5581 51.4591 39.0341 51.4951 40.2041 51.5491C40.5821 51.5671 41.0861 51.4771 41.2661 51.0631C41.4281 50.5771 41.2841 50.0371 40.6181 49.7671C40.2401 49.6231 39.7001 49.5511 39.0881 49.5511C38.6921 49.5511 37.8101 49.6231 37.2521 49.7131Z" fill="white"/>
<path d="M44.334 48.7051C44.748 48.7411 45.306 48.7591 45.9 48.7771C45.882 48.8671 45.882 48.9571 45.882 49.0471C45.846 49.6231 45.81 49.8211 45.81 50.3791C45.81 51.0991 46.17 51.5131 46.728 51.5491C47.412 51.5851 47.844 51.2431 47.934 50.5411C48.006 50.0011 48.024 49.4431 48.024 48.9031V48.7951C48.456 48.7771 48.888 48.7591 49.266 48.7231C49.716 48.6871 50.058 48.3991 50.112 47.9671C50.148 47.6251 50.076 47.3551 49.698 47.1391C49.446 46.9951 48.96 46.9411 48.636 46.9411C48.438 46.9411 48.222 46.9591 48.006 46.9591C47.988 45.5011 47.934 44.0611 47.718 42.5311C47.682 42.2431 47.592 41.8111 47.484 41.5411C47.34 41.1811 47.124 40.9831 46.746 41.0011C46.44 41.0191 46.296 41.2531 46.278 41.6311L46.242 42.9631C46.188 44.3131 46.116 45.6451 46.026 46.9591C45.36 46.9591 44.73 46.9411 44.334 46.9231C43.866 46.9051 43.596 46.8151 43.632 46.2931C43.686 45.5371 44.316 43.7011 44.766 42.4951C44.874 42.1711 44.982 41.7391 44.766 41.5951C44.496 41.4511 44.172 41.5951 44.01 41.9011C43.632 42.5131 43.056 43.6831 42.696 44.5651C42.39 45.3391 41.958 46.3471 41.994 47.3371C42.012 47.8591 42.354 48.2731 42.894 48.4531C43.29 48.5971 43.902 48.6691 44.334 48.7051Z" fill="white"/>
<rect x="28" y="10" width="4" height="46" rx="2" fill="#F5AF37"/>
<path fill-rule="evenodd" clip-rule="evenodd" d="M37.1603 8.59808L33.6962 10.5981C32.5649 11.2512 32.02 12.5298 32.2459 13.7448L38.1603 10.3301C38.6385 10.054 38.8024 9.44239 38.5263 8.9641C38.2501 8.48581 37.6385 8.32193 37.1603 8.59808ZM29.5718 15.2886C28.5653 12.5931 29.6215 9.4865 32.1962 8L35.6603 6C37.5734 4.89543 40.0198 5.55093 41.1244 7.4641C42.2289 9.37727 41.5734 11.8236 39.6603 12.9282L31 17.9282L30 16.1962C29.8296 15.9011 29.6872 15.5976 29.5718 15.2886Z" fill="#F5AF37"/>
<path fill-rule="evenodd" clip-rule="evenodd" d="M22.158 9.93306L26.0217 10.9683C27.2834 11.3064 28.1408 12.4004 28.237 13.6325L21.6404 11.8649C21.1069 11.722 20.7903 11.1736 20.9333 10.6402C21.0762 10.1067 21.6246 9.79012 22.158 9.93306ZM31.2195 14.4316C31.4941 11.5674 29.6699 8.84003 26.7982 8.07056L22.9345 7.03528C20.8006 6.46352 18.6073 7.72985 18.0355 9.86371C17.4637 11.9976 18.7301 14.1909 20.8639 14.7627L30.5232 17.3509L31.0408 15.419C31.129 15.0899 31.1881 14.7599 31.2195 14.4316Z" fill="#F5AF37"/>
</svg>
