<svg width="60" height="60" viewBox="0 0 60 60" fill="none" xmlns="http://www.w3.org/2000/svg">
<rect width="60" height="60" rx="4" fill="#3C6C54"/>
<path d="M8.34211 12.7051C8.75611 12.7411 9.31411 12.7591 9.90811 12.7771C9.89011 12.8671 9.89011 12.9571 9.89011 13.0471C9.85411 13.6231 9.81811 13.8211 9.81811 14.3791C9.81811 15.0991 10.1781 15.5131 10.7361 15.5491C11.4201 15.5851 11.8521 15.2431 11.9421 14.5411C12.0141 14.0011 12.0321 13.4431 12.0321 12.9031V12.7951C12.4641 12.7771 12.8961 12.7591 13.2741 12.7231C13.7241 12.6871 14.0661 12.3991 14.1201 11.9671C14.1561 11.6251 14.0841 11.3551 13.7061 11.1391C13.4541 10.9951 12.9681 10.9411 12.6441 10.9411C12.4461 10.9411 12.2301 10.9591 12.0141 10.9591C11.9961 9.50113 11.9421 8.06113 11.7261 6.53113C11.6901 6.24313 11.6001 5.81113 11.4921 5.54113C11.3481 5.18113 11.1321 4.98313 10.7541 5.00113C10.4481 5.01913 10.3041 5.25313 10.2861 5.63113L10.2501 6.96313C10.1961 8.31313 10.1241 9.64513 10.0341 10.9591C9.36811 10.9591 8.73811 10.9411 8.34211 10.9231C7.87411 10.9051 7.60411 10.8151 7.64011 10.2931C7.69411 9.53713 8.32411 7.70113 8.77411 6.49513C8.88211 6.17113 8.99011 5.73913 8.77411 5.59513C8.50411 5.45113 8.18011 5.59513 8.01811 5.90113C7.64011 6.51313 7.06411 7.68313 6.70411 8.56513C6.39811 9.33913 5.96611 10.3471 6.00211 11.3371C6.02011 11.8591 6.36211 12.2731 6.90211 12.4531C7.29811 12.5971 7.91011 12.6691 8.34211 12.7051Z" fill="white"/>
<path fill-rule="evenodd" clip-rule="evenodd" d="M11.2068 48.8681C10.7952 50.325 12.0509 51.5807 13.5078 51.1691L25.5254 47.7735C26.0736 47.6185 26.5002 47.2714 26.7708 46.8421C26.9267 46.7365 27.0749 46.6147 27.213 46.4767L49.1333 24.5564C51.4764 22.2132 51.4764 18.4142 49.1333 16.0711L46.3049 13.2426C43.9617 10.8995 40.1627 10.8995 37.8196 13.2426L15.8993 35.163C15.7612 35.301 15.6394 35.4492 15.5339 35.6051C15.1045 35.8757 14.7574 36.3023 14.6025 36.8506L11.2068 48.8681Z" fill="#AF4747"/>
<rect x="26.5059" y="47.1838" width="16" height="1" transform="rotate(-135 26.5059 47.1838)" fill="#242424"/>
<rect x="47.0117" y="26.6777" width="16" height="1" transform="rotate(-135 47.0117 26.6777)" fill="#242424"/>
<rect x="27.9199" y="45.7695" width="16" height="2" transform="rotate(-135 27.9199 45.7695)" fill="#242424"/>
<rect x="48.4263" y="25.2635" width="16" height="1" transform="rotate(-135 48.4263 25.2635)" fill="#242424"/>
<rect x="29.3345" y="38.6985" width="8" height="18" rx="4" transform="rotate(-135 29.3345 38.6985)" fill="#242424"/>
</svg>
