<svg width="60" height="60" viewBox="0 0 60 60" fill="none" xmlns="http://www.w3.org/2000/svg">
<rect width="60" height="60" rx="4" fill="#3C6C54"/>
<circle cx="30" cy="30" r="19" fill="white" fill-opacity="0.2"/>
<path fill-rule="evenodd" clip-rule="evenodd" d="M30 50.5C41.3218 50.5 50.5 41.3218 50.5 30C50.5 18.6782 41.3218 9.5 30 9.5C18.6782 9.5 9.5 18.6782 9.5 30C9.5 41.3218 18.6782 50.5 30 50.5ZM30 51C41.598 51 51 41.598 51 30C51 18.402 41.598 9 30 9C18.402 9 9 18.402 9 30C9 41.598 18.402 51 30 51Z" fill="white"/>
<path d="M31.9038 24.686C30.8958 24.47 29.7798 24.506 28.7718 24.686C28.7178 24.056 28.3938 23.948 27.9978 23.93C27.2778 23.876 27.1518 24.578 27.0978 25.064C26.9898 25.946 26.9718 27.08 27.0438 27.98C27.0618 28.268 27.1158 28.574 27.1878 28.88C27.3498 29.42 27.7638 29.564 28.1418 29.528C28.4118 29.492 28.6098 29.348 28.7358 29.096C29.1138 28.898 29.5998 28.844 30.0498 28.898C31.0758 29.042 31.7058 29.762 31.7058 30.842C31.7238 32.048 31.0758 32.93 29.8878 32.984C29.2578 33.02 28.4118 32.768 28.0338 32.102C27.8538 31.778 27.6198 31.328 27.1158 31.508C26.6118 31.706 26.6658 32.318 26.8638 32.75C27.2958 33.794 28.3758 34.658 29.8878 34.64C31.9758 34.622 33.2538 33.2 33.3258 31.31C33.3978 29.402 32.5518 27.98 30.3918 27.728C29.8878 27.674 29.3118 27.746 28.7718 27.944C28.7538 27.458 28.7538 26.972 28.7538 26.558C28.7358 26.378 28.7358 26.036 28.7538 25.712C29.2218 25.604 29.5818 25.568 30.1578 25.55C31.0038 25.532 31.7778 25.64 32.6058 25.874C32.7318 25.91 32.9478 25.838 33.0018 25.694C33.0738 25.46 33.0198 25.244 32.8398 25.082C32.5878 24.848 32.2278 24.776 31.9038 24.686Z" fill="white"/>
<path d="M13.9797 52.1337C14.5993 51.495 13.4899 47.5892 15.4491 45.5694C17.4084 43.5496 40.9194 43.4053 43.8582 45.5695C46.7971 47.7336 45.9154 52.2347 46.3073 52.6386C46.7971 53.1436 47.2869 55.1634 46.7971 55.6683C46.3073 56.1733 13 56.1732 13 55.1633C13 53.1436 13.4898 52.6386 13.9797 52.1337Z" fill="black"/>
</svg>
