<svg width="60" height="60" viewBox="0 0 60 60" fill="none" xmlns="http://www.w3.org/2000/svg">
<rect width="60" height="60" rx="4" fill="#3C6C54"/>
<path d="M9.17604 45.622C9.39204 45.64 9.55404 45.73 9.55404 46C9.55404 47.782 9.19404 50.644 8.65404 52.606C8.58204 52.876 8.51004 53.164 8.45604 53.452C8.36604 54.1 8.76204 54.55 9.24804 54.622C9.89604 54.712 10.562 54.388 10.706 53.758C10.796 53.38 10.868 53.02 10.904 52.66C11.156 50.5 11.3 48.358 11.138 46.234C11.048 45.064 10.634 44.524 9.77004 44.38C9.19404 44.29 8.76204 44.29 8.18604 44.344C7.80804 44.38 7.25004 44.47 6.76404 44.65C6.71004 44.416 6.53004 44.236 6.15204 44.2C5.81004 44.182 5.55804 44.452 5.48604 44.848C5.34204 45.82 5.32404 47.008 5.50404 48.196C5.59404 48.79 5.99004 49.096 6.53004 49.024C7.07004 48.952 7.25004 48.448 7.16004 47.998C7.05204 47.476 6.96204 46.72 6.87204 45.82C7.77204 45.55 8.47404 45.55 9.17604 45.622Z" fill="white"/>
<path d="M21.5002 19C21.5002 18.3259 20.0752 7.4999 31.5002 7.5C42.9253 7.5001 41.1098 19.3258 41.0003 20C40.8907 20.6742 41.0002 21.3136 42.0002 21.5C49.2324 22.8482 52.5004 25.5 51.0003 30C49.5002 34.5 43.0004 32 42.0003 32C41.0003 32 43.1324 35.8444 44.5003 39C47.1304 45.0673 48.0002 48.803 43.0003 51C35.0003 54.5152 33.4503 41 31.0003 41C28.5504 41 27.9748 54.4508 19.0002 51C13.7405 48.9776 14.7575 45.0673 17.5002 39C18.9165 35.8669 21.5002 31.7636 20.5002 32C19.5002 32.2364 11.5116 33.719 11.0002 29C10.4889 24.281 14.4703 23.0224 20.5002 21C21.9932 20.4993 21.5002 19.6741 21.5002 19Z" fill="#A58B60"/>
<path fill-rule="evenodd" clip-rule="evenodd" d="M37.4184 10.4557C36.0434 9.26059 34.1067 8.50002 31.4289 8.5C28.7645 8.49998 26.8408 9.17606 25.473 10.2475C24.1078 11.3168 23.3442 12.7423 22.9295 14.157C22.5158 15.5684 22.4432 16.9877 22.4708 18.0819C22.4846 18.631 22.5237 19.1025 22.5592 19.4547C22.5733 19.5944 22.5869 19.7166 22.5979 19.815C22.6006 19.8401 22.6033 19.8636 22.6057 19.8855C22.6118 19.9405 22.6163 19.9833 22.6193 20.0161C22.6228 20.0534 22.6227 20.062 22.6227 20.056C22.6227 20.1485 22.6276 20.2406 22.6321 20.3209L22.6334 20.3443C22.6376 20.4188 22.6413 20.4841 22.6427 20.5496C22.6458 20.6932 22.6361 20.7988 22.6085 20.8866C22.5683 21.0142 22.4536 21.23 21.8773 21.4251C21.2016 21.6539 20.5472 21.8639 19.9172 22.0655L19.8203 22.0965C19.2263 22.2865 18.6532 22.4699 18.1104 22.6535C16.9698 23.0392 15.934 23.4353 15.0769 23.9204C14.2168 24.4072 13.5061 25.0004 13.0491 25.7955C12.5887 26.5967 12.4148 27.5521 12.5389 28.7085C12.671 29.939 13.2587 30.7426 14.1233 31.1991C14.9492 31.6351 15.9773 31.728 16.9733 31.6884C17.9786 31.6484 19.0204 31.4694 19.9069 31.3062C20.0113 31.287 20.1128 31.2682 20.2114 31.2499C20.9824 31.107 21.5715 30.9978 21.936 30.9978C21.9852 30.9978 22.0102 31.0045 22.0192 31.0076C22.031 31.0282 22.065 31.1124 22.0552 31.3203C22.0345 31.7564 21.8405 32.4196 21.5197 33.2371C21.1136 34.2718 20.559 35.4274 20.0389 36.511C19.7387 37.1364 19.45 37.7379 19.208 38.2783C18.9795 38.7887 18.7502 39.2888 18.5271 39.7753C18.1539 40.589 17.7981 41.3649 17.4922 42.0885C17.0019 43.2482 16.6139 44.3315 16.4621 45.3165C16.3091 46.3092 16.3897 47.2452 16.8855 48.069C17.3785 48.8881 18.2367 49.5207 19.4834 50.0047C20.4384 50.3755 21.3124 50.4889 22.1148 50.3789C22.918 50.2688 23.6186 49.9391 24.2323 49.4705C25.4423 48.5467 26.3373 47.0641 27.0828 45.5784C27.4001 44.9461 27.6976 44.2977 27.982 43.6775C28.0343 43.5635 28.0862 43.4504 28.1377 43.3385C28.4718 42.6125 28.7889 41.9392 29.112 41.3609C29.4371 40.7789 29.7515 40.3244 30.0692 40.0197C30.3817 39.72 30.6628 39.5968 30.9375 39.5968H31.4289C31.6998 39.5968 31.9821 39.7216 32.2999 40.0309C32.622 40.3445 32.9415 40.8114 33.2721 41.407C33.6005 41.9988 33.9234 42.687 34.2629 43.4267C34.3144 43.5392 34.3664 43.6528 34.4188 43.7673C34.7084 44.4004 35.0107 45.0613 35.3322 45.7041C36.085 47.2091 36.9849 48.7053 38.1917 49.6145C38.8049 50.0765 39.5044 50.3928 40.3043 50.4774C41.103 50.5618 41.967 50.4117 42.9047 49.9957C44.0114 49.5047 44.7787 48.8654 45.2261 48.0521C45.6727 47.2404 45.7651 46.3194 45.646 45.3327C45.5275 44.351 45.1953 43.2698 44.755 42.1062C44.3803 41.1159 43.9176 40.0417 43.4246 38.8971C43.3377 38.6954 43.2499 38.4914 43.1614 38.2854C42.9356 37.7594 42.6531 37.1573 42.3608 36.5343C42.2487 36.2954 42.1352 36.0534 42.0229 35.8115C41.6132 34.9292 41.2152 34.0386 40.9298 33.2432C40.6373 32.428 40.4921 31.7882 40.5239 31.38C40.539 31.186 40.5897 31.1071 40.6207 31.076C40.6452 31.0515 40.7152 30.9978 40.9222 30.9978C41.4553 30.9978 42.1898 31.1383 43.0733 31.3145C43.1066 31.3211 43.1401 31.3278 43.1737 31.3345C44.0074 31.5009 44.9405 31.6872 45.8383 31.7638C46.7666 31.8429 47.7202 31.8116 48.5271 31.4781C49.3661 31.1313 50.0087 30.4726 50.304 29.4023C50.5808 28.3992 50.5676 27.4801 50.2441 26.6501C49.922 25.8237 49.3125 25.1373 48.4876 24.5601C46.8571 23.4193 44.2851 22.6371 41.0147 22.0216C40.3917 21.9043 40.2464 21.775 40.219 21.7387L40.2186 21.7382C40.2096 21.7265 40.1777 21.6846 40.2293 21.3639L40.2304 21.3573C40.2869 21.0069 40.7929 17.8663 39.9688 14.7828C39.5519 13.223 38.7861 11.6445 37.4184 10.4557ZM39.2425 21.2022L39.242 21.205C39.1956 21.4938 39.1262 21.9514 39.4212 22.3417C39.6972 22.7069 40.1946 22.8848 40.8297 23.0043C44.0859 23.6172 46.4723 24.3705 47.9143 25.3795C48.6256 25.8771 49.0809 26.4192 49.3124 27.0132C49.5425 27.6036 49.5717 28.2968 49.34 29.1363C49.1269 29.9088 48.6994 30.3249 48.1452 30.5539C47.5589 30.7963 46.7961 30.8418 45.9232 30.7674C45.0827 30.6957 44.1985 30.5193 43.3495 30.3498L43.2689 30.3338C42.42 30.1645 41.5759 29.9978 40.9222 29.9978C40.5359 29.9978 40.1779 30.1038 39.9126 30.3699C39.6537 30.6295 39.5527 30.9723 39.527 31.3023C39.4771 31.942 39.6937 32.7593 39.9885 33.5809C40.2904 34.4223 40.7052 35.3482 41.1159 36.2326C41.2329 36.4847 41.3493 36.7328 41.4629 36.975C41.7523 37.5917 42.0237 38.1702 42.2425 38.6799C42.3321 38.8886 42.4207 39.0942 42.508 39.2968C43.0015 40.4427 43.4537 41.4927 43.8197 42.4601C44.251 43.5998 44.5492 44.5916 44.6532 45.4526C44.7566 46.3086 44.6636 46.9999 44.3499 47.5702C44.0371 48.1389 43.4693 48.6512 42.4992 49.0816C41.6897 49.4407 41.0021 49.5456 40.4095 49.4829C39.8181 49.4204 39.2866 49.1874 38.7935 48.8158C37.7875 48.0579 36.9735 46.7499 36.2266 45.2568C35.9135 44.6308 35.6195 43.9881 35.3297 43.3546C35.2769 43.2393 35.2243 43.1242 35.1717 43.0097C34.833 42.2715 34.4957 41.5511 34.1465 40.9218C33.7993 40.2962 33.4237 39.7294 32.9975 39.3144C32.5669 38.8953 32.0479 38.5968 31.4289 38.5968H30.9375C30.3223 38.5968 29.8061 38.8864 29.3769 39.298C28.953 39.7047 28.5813 40.2603 28.239 40.8732C27.8945 41.4897 27.5627 42.196 27.2293 42.9204C27.1768 43.0346 27.1242 43.1492 27.0714 43.2642C26.7868 43.8846 26.4978 44.5147 26.189 45.1299C25.4512 46.6003 24.6405 47.9008 23.6255 48.6757C23.1267 49.0565 22.585 49.3051 21.979 49.3881C21.3724 49.4713 20.6703 49.3928 19.8453 49.0725C18.7188 48.6352 18.081 48.1161 17.7423 47.5533C17.4063 46.9951 17.3195 46.3188 17.4504 45.4688C17.5826 44.6111 17.9298 43.6215 18.4132 42.4779C18.7144 41.7655 19.0583 41.0158 19.4258 40.2145C19.6501 39.7256 19.8832 39.2175 20.1207 38.687C20.3402 38.1969 20.6165 37.6206 20.9105 37.0072C21.4432 35.8961 22.0341 34.6635 22.4506 33.6024C22.7731 32.7804 23.0249 31.9827 23.0541 31.3677C23.0685 31.0628 23.0333 30.7209 22.8448 30.443C22.6324 30.13 22.2969 29.9978 21.936 29.9978C21.4714 29.9978 20.7769 30.1272 20.0385 30.2647C19.935 30.284 19.8306 30.3035 19.7259 30.3227C18.8394 30.4859 17.8603 30.6523 16.9336 30.6892C15.9974 30.7264 15.1823 30.6273 14.5902 30.3147C14.0368 30.0226 13.6319 29.521 13.5332 28.6018C13.4266 27.6083 13.5823 26.8746 13.9162 26.2938C14.2535 25.7069 14.8017 25.2252 15.5695 24.7907C16.3402 24.3545 17.3013 23.9828 18.4308 23.6008C18.9655 23.4199 19.5315 23.2388 20.128 23.048L20.222 23.0179C20.8517 22.8164 21.5134 22.6041 22.198 22.3723C22.9691 22.1112 23.3969 21.7127 23.5624 21.1867C23.6376 20.9475 23.6465 20.7164 23.6425 20.5282C23.6407 20.4441 23.636 20.3608 23.6319 20.2888L23.6305 20.2648C23.6259 20.1834 23.6227 20.117 23.6227 20.056C23.6227 19.9795 23.6075 19.8373 23.5866 19.641C23.488 18.7145 23.261 16.5811 23.8892 14.4383C24.2622 13.1657 24.9308 11.9424 26.0896 11.0347C27.2458 10.1291 28.9381 9.49998 31.4289 9.5C33.9063 9.50002 35.5979 10.1983 36.7624 11.2105C37.9343 12.2291 38.6193 13.6065 39.0027 15.041C39.7713 17.917 39.2931 20.8879 39.2425 21.2022Z" fill="white"/>
<circle cx="29" cy="16" r="1" fill="white"/>
<circle cx="34" cy="16" r="1" fill="white"/>
<circle cx="31.5" cy="32.5" r="1.5" fill="white"/>
<circle cx="31.5" cy="27.5" r="1.5" fill="white"/>
<path fill-rule="evenodd" clip-rule="evenodd" d="M34.1693 18.5295C34.4292 18.6229 34.5641 18.9094 34.4706 19.1692C34.1629 20.0251 33.6864 20.644 33.105 21.0304C32.5236 21.4167 31.8673 21.5502 31.2391 21.4836C29.9997 21.3523 28.8468 20.4392 28.5152 19.1221C28.4478 18.8543 28.6103 18.5825 28.8781 18.5151C29.1459 18.4477 29.4176 18.6102 29.485 18.878C29.709 19.768 30.5005 20.3998 31.3445 20.4892C31.7579 20.533 32.178 20.4457 32.5515 20.1975C32.925 19.9493 33.2818 19.5199 33.5296 18.8308C33.6231 18.571 33.9095 18.4361 34.1693 18.5295Z" fill="white"/>
</svg>
