<svg width="60" height="60" viewBox="0 0 60 60" fill="none" xmlns="http://www.w3.org/2000/svg">
<rect width="60" height="60" rx="4" fill="#3C6C54"/>
<path d="M7.23135 24.5H55.3862C55.0393 33.4863 54.4401 48.576 54.5 60H7C7.12617 47.9162 7.51756 34.4807 7.23135 24.5Z" fill="#8E8E8E"/>
<path d="M28.6505 28.4359C27.3537 31.2336 24.0345 32.4504 21.2368 31.1536C18.439 29.8569 17.2223 26.5376 18.519 23.7399L29.5227 0H41.8308L28.6505 28.4359Z" fill="#8E8E8E"/>
<path d="M40.8735 2.14417C39.3735 5.14417 29.3735 4.14417 28.3735 2.64417L23.3735 13.1442C28.5735 15.9442 34.4312 16.0288 35.8735 13.1442C37.3159 10.2595 40.8735 2.14417 40.8735 2.14417Z" fill="#8E8E8E"/>
<path d="M3.72333 33.3096C2.94124 30.1809 1.72331 23.8097 6.72335 21.3096C11.7234 18.8096 51.2235 20.3096 55.7235 22.3096C57.5511 23.1218 58.89 29.9762 58.2233 34.3096C58.2233 34.3096 57.7233 37.8097 54.7233 38.8096C51.7233 39.8096 9.8233 38.8096 8.2233 38.8096C6.2233 38.8096 4.72324 37.3096 3.72333 33.3096Z" fill="#8E8E8E"/>
<path d="M28.0698 34.496C28.4118 34.496 28.6638 34.424 28.8798 34.244C29.2038 33.992 29.3838 33.686 29.4378 33.146C29.5278 31.94 29.5098 29.906 29.4738 28.106C29.4558 27.098 29.4198 26.18 29.3298 25.568C29.2578 25.028 29.0778 24.65 28.7358 24.434C28.4118 24.236 27.8898 24.038 27.6018 24.308C27.4038 24.452 27.4578 24.884 27.4758 25.118C27.5658 26.396 27.5478 27.674 27.4758 28.952C27.4038 30.284 27.2418 31.706 27.0258 33.128C26.9718 33.452 26.9898 33.812 27.1698 34.064C27.3678 34.316 27.6198 34.496 28.0698 34.496Z" fill="white"/>
<path d="M34.0098 27.206C34.4958 26.414 34.9818 25.892 35.5938 25.172C35.8638 24.848 35.9898 24.524 35.7738 24.326C35.5038 24.056 35.0718 24.218 34.7118 24.452C34.3338 24.704 33.9198 25.082 33.5778 25.424C32.3178 26.738 31.4898 28.304 31.2738 30.05C31.1838 30.824 31.2558 31.688 31.4718 32.426C31.8678 33.632 32.8758 34.748 34.5498 34.694C36.3858 34.64 37.6638 33.236 37.5918 31.4C37.5558 30.572 37.3938 29.78 36.7998 29.114C36.0618 28.304 35.1798 28.124 34.1178 28.286C33.8658 28.322 33.5238 28.448 33.2178 28.628C33.4518 28.124 33.7218 27.656 34.0098 27.206ZM34.3158 29.51C35.3058 29.528 35.8278 30.446 35.7738 31.418C35.7378 32.462 35.1258 33.11 34.3338 33.038C33.4878 32.966 33.0558 32.336 32.8938 31.58C32.8038 31.166 32.7858 30.788 32.8038 30.32C32.8038 30.194 32.8218 30.05 32.8398 29.906C33.2358 29.654 33.7758 29.492 34.3158 29.51Z" fill="white"/>
</svg>
