<svg width="60" height="60" viewBox="0 0 60 60" fill="none" xmlns="http://www.w3.org/2000/svg">
<rect width="60" height="60" rx="4" fill="#3C6C54"/>
<path d="M27.1468 8.78116C28.0449 6.01722 31.9551 6.01722 32.8532 8.78115L36.0619 18.6565C36.4635 19.8926 37.6154 20.7295 38.915 20.7295H49.2986C52.2048 20.7295 53.4131 24.4483 51.062 26.1565L42.6615 32.2599C41.61 33.0238 41.1701 34.3779 41.5717 35.614L44.7804 45.4894C45.6784 48.2533 42.515 50.5517 40.1639 48.8435L31.7634 42.7401C30.7119 41.9762 29.2881 41.9762 28.2366 42.7401L19.8361 48.8435C17.485 50.5517 14.3216 48.2533 15.2196 45.4894L18.4283 35.614C18.8299 34.3779 18.39 33.0238 17.3385 32.2599L8.938 26.1565C6.58686 24.4483 7.79518 20.7295 10.7014 20.7295H21.085C22.3846 20.7295 23.5365 19.8926 23.9381 18.6565L27.1468 8.78116Z" fill="#8E8E8E"/>
<path d="M25.8082 34.822C26.7082 33.904 28.0042 32.536 28.6342 31.402C28.9942 30.754 29.1742 30.16 29.2282 29.494C29.3902 27.478 28.0402 25.984 26.0242 26.182C25.0522 26.272 24.0982 26.668 23.7382 27.802C23.5762 28.288 23.6122 28.99 23.9002 29.386C24.0082 29.53 24.2062 29.656 24.3862 29.602C24.5662 29.548 24.6562 29.404 24.6382 29.296C24.5662 28.918 24.5122 28.63 24.6022 28.27C24.7282 27.802 25.1962 27.406 25.7542 27.352C26.8162 27.262 27.4282 27.874 27.5542 28.81C27.6262 29.35 27.5722 29.854 27.3742 30.34C26.7982 31.78 25.6102 32.86 24.4582 34.048C23.9182 34.588 23.3782 35.254 23.6122 36.028C23.7562 36.514 24.1702 36.694 24.9442 36.64C26.1142 36.568 27.5902 36.604 28.7602 36.658C29.1382 36.676 29.6422 36.586 29.8222 36.172C29.9842 35.686 29.8402 35.146 29.1742 34.876C28.7962 34.732 28.2562 34.66 27.6442 34.66C27.2482 34.66 26.3662 34.732 25.8082 34.822Z" fill="white"/>
<path d="M35.1941 31.024C36.1301 30.646 36.7061 29.656 36.6701 28.684C36.6161 27.172 35.6801 26.38 34.3301 26.254C33.4661 26.11 32.1701 26.452 31.5581 27.208C31.4501 27.334 31.2161 27.748 31.5401 28.036C31.8821 28.342 32.3141 28.036 32.6381 27.784C32.9441 27.55 33.4301 27.352 33.9881 27.424C34.7081 27.514 35.1221 27.91 35.2481 28.612C35.3741 29.35 35.0501 29.872 34.5821 30.16C34.2401 30.376 33.7361 30.502 33.3941 30.538C32.9441 30.61 32.5121 30.592 32.1341 30.808C31.9361 30.934 31.8101 31.168 31.8461 31.474C31.9361 31.798 32.2061 31.978 32.5301 31.96C32.9081 31.924 33.3041 31.888 33.6821 31.888C33.9881 31.888 34.4021 31.978 34.6181 32.122C35.2301 32.482 35.4101 33.382 35.2661 33.958C35.0861 34.66 34.4561 35.002 33.7541 35.074C33.2141 35.128 32.6561 34.93 32.2421 34.66C32.0801 34.552 31.8641 34.462 31.7201 34.408C31.3961 34.282 30.9821 34.39 30.8021 34.714C30.6581 35.002 30.6941 35.434 30.9281 35.722C31.1621 36.01 31.5041 36.226 31.8281 36.37C32.4581 36.658 33.2861 36.712 34.0601 36.658C35.6801 36.55 36.9941 35.524 37.0841 33.85C37.1561 32.554 36.5441 31.438 35.1941 31.024Z" fill="white"/>
</svg>
