<svg width="60" height="60" viewBox="0 0 60 60" fill="none" xmlns="http://www.w3.org/2000/svg">
<rect width="60" height="60" rx="4" fill="#3C6C54"/>
<path fill-rule="evenodd" clip-rule="evenodd" d="M20.7103 25.412C21.0143 26.6162 21.7024 27.489 22.8961 28.2848C23.0324 28.3757 23.1631 28.4631 23.2888 28.5471C24.8438 29.5865 25.6296 30.1117 26.7331 30.3965C26.9173 30.444 27.1126 30.4851 27.3238 30.5192C27.3417 29.8282 27.41 29.1307 27.5374 28.4461C28.0887 25.4844 29.8292 22.475 33.6662 21.5157C35.5255 21.0509 37.2146 21.2856 38.462 22.2474C39.7002 23.202 40.2424 24.6746 40.2098 26.1405C40.1444 29.0855 37.8463 32.1925 33.6397 33.2995L33.5332 33.3276L33.4236 33.3397C32.3849 33.4551 31.4628 33.5393 30.6328 33.5883C30.7705 34.1603 30.9442 34.6622 31.1346 35.0563C31.8415 36.5192 32.4509 37.198 33.1185 37.6025C33.4327 37.7928 33.7968 37.9459 34.2523 38.0737C35.7653 34.5829 38.6384 32.1728 41.9649 30.8422C44.2602 29.9241 46.8003 30.1366 48.3514 31.7139C50.0307 33.4215 49.9127 36.0084 48.267 38.4721L48.2015 38.5701L48.1215 38.6567C46.6474 40.2525 44.4542 41.0087 42.3712 41.3489C40.3098 41.6855 38.1342 41.6513 36.3325 41.4621C36.3145 41.5558 36.2975 41.6503 36.2816 41.7455C36.0244 43.2888 36.7275 44.3995 38.0786 45.2455C39.4901 46.1292 41.4203 46.5608 42.908 46.5608C43.7364 46.5608 44.408 47.2324 44.408 48.0608C44.408 48.8893 43.7364 49.5608 42.908 49.5608C40.9745 49.5608 38.4658 49.0274 36.4866 47.7882C34.447 46.5112 32.8077 44.3409 33.3224 41.2523C33.3397 41.1486 33.358 41.0457 33.3773 40.9435C32.7316 40.7567 32.127 40.5094 31.5641 40.1684C30.2052 39.3452 29.2706 38.094 28.4334 36.3615C28.0649 35.5988 27.7607 34.6373 27.5637 33.5719C26.9948 33.5172 26.4745 33.428 25.9835 33.3013C24.3607 32.8825 23.1428 32.0641 21.7076 31.0997C21.5519 30.9951 21.3936 30.8887 21.232 30.781C19.5693 29.6725 18.3274 28.2294 17.8016 26.1462C17.5204 25.0326 17.4585 23.7904 17.596 22.3923C16.7417 22.038 15.9535 21.5839 15.2979 21.0219C13.59 19.5581 12.683 17.3278 12.5118 15.3309C12.3506 13.45 12.8246 11.0527 14.8312 10.0495C15.5722 9.67897 16.4732 9.97932 16.8437 10.7203C17.2142 11.4613 16.9138 12.3623 16.1729 12.7327C15.8635 12.8874 15.3726 13.5782 15.5008 15.0747C15.6192 16.4554 16.2561 17.8921 17.2502 18.7442C17.5002 18.9585 17.8009 19.1576 18.1416 19.338C18.1911 19.1362 18.2435 18.9318 18.2988 18.7245C19.1493 15.5349 20.7023 13.5789 22.5895 12.613C24.4426 11.6646 26.3739 11.798 27.7578 12.2955C29.7326 13.0053 30.3612 15.1166 30.3612 16.7468C30.3612 18.4703 29.7117 20.4599 28.253 21.7707C27.4509 22.4915 26.3869 22.9106 25.3269 23.1403C24.2472 23.3742 23.0518 23.438 21.8688 23.3579C21.4329 23.3283 20.9879 23.2784 20.5414 23.2071C20.4927 24.0907 20.5589 24.812 20.7103 25.412ZM21.009 20.2442C21.3563 20.2997 21.7119 20.3404 22.0714 20.3647C23.0263 20.4294 23.9342 20.3724 24.6917 20.2083C25.469 20.0399 25.9761 19.7835 26.2478 19.5393C26.9368 18.9202 27.3612 17.8218 27.3612 16.7468C27.3612 15.5785 26.9159 15.1807 26.743 15.1186C25.9793 14.8441 24.9315 14.7845 23.9563 15.2836C23.0153 15.7652 21.8909 16.8972 21.1975 19.4975C21.129 19.7544 21.0662 20.0032 21.009 20.2442ZM37.3569 38.542C38.8017 38.6483 40.406 38.6301 41.8876 38.3881C43.6454 38.101 45.0204 37.5338 45.8402 36.7024C46.9459 34.989 46.5199 34.1301 46.2125 33.8174C45.7707 33.3682 44.6438 33.0017 43.0791 33.6276C40.6317 34.6066 38.5844 36.245 37.3569 38.542ZM30.3224 30.6004C31.0711 30.5593 31.9448 30.484 32.9791 30.3706C36.0295 29.5289 37.1799 27.4559 37.2106 26.0738C37.2262 25.3684 36.9723 24.8869 36.6303 24.6232C36.2975 24.3667 35.6224 24.119 34.3938 24.4261C32.0549 25.0109 30.9004 26.7728 30.4867 28.9951C30.3879 29.526 30.336 30.0668 30.3224 30.6004Z" fill="#8E8E8E"/>
<path d="M44.0698 16.496C44.4118 16.496 44.6638 16.424 44.8798 16.244C45.2038 15.992 45.3838 15.686 45.4378 15.146C45.5278 13.94 45.5098 11.906 45.4738 10.106C45.4558 9.09797 45.4198 8.17997 45.3298 7.56797C45.2578 7.02797 45.0778 6.64997 44.7358 6.43397C44.4118 6.23597 43.8898 6.03797 43.6018 6.30797C43.4038 6.45197 43.4578 6.88397 43.4758 7.11797C43.5658 8.39597 43.5478 9.67397 43.4758 10.952C43.4038 12.284 43.2418 13.706 43.0258 15.128C42.9718 15.452 42.9898 15.812 43.1698 16.064C43.3678 16.316 43.6198 16.496 44.0698 16.496Z" fill="white"/>
<path d="M50.6758 7.62197C50.8918 7.63997 51.0538 7.72997 51.0538 7.99997C51.0538 9.78197 50.6938 12.644 50.1538 14.606C50.0818 14.876 50.0098 15.164 49.9558 15.452C49.8658 16.1 50.2618 16.55 50.7478 16.622C51.3958 16.712 52.0618 16.388 52.2058 15.758C52.2958 15.38 52.3678 15.02 52.4038 14.66C52.6558 12.5 52.7998 10.358 52.6378 8.23397C52.5478 7.06397 52.1338 6.52397 51.2698 6.37997C50.6938 6.28997 50.2618 6.28997 49.6858 6.34397C49.3078 6.37997 48.7498 6.46997 48.2638 6.64997C48.2098 6.41597 48.0298 6.23597 47.6518 6.19997C47.3098 6.18197 47.0578 6.45197 46.9858 6.84797C46.8418 7.81997 46.8238 9.00797 47.0038 10.196C47.0938 10.79 47.4898 11.096 48.0298 11.024C48.5698 10.952 48.7498 10.448 48.6598 9.99797C48.5518 9.47597 48.4618 8.71997 48.3718 7.81997C49.2718 7.54997 49.9738 7.54997 50.6758 7.62197Z" fill="white"/>
</svg>
