<svg width="60" height="60" viewBox="0 0 60 60" fill="none" xmlns="http://www.w3.org/2000/svg">
<rect width="60" height="60" rx="4" fill="#3C6C54"/>
<path d="M6.06981 16.496C6.41181 16.496 6.66381 16.424 6.87981 16.244C7.20381 15.992 7.38381 15.686 7.43781 15.146C7.52781 13.94 7.50981 11.906 7.47381 10.106C7.45581 9.098 7.41981 8.18 7.32981 7.568C7.25781 7.028 7.07781 6.65 6.73581 6.434C6.41181 6.236 5.88981 6.038 5.60181 6.308C5.40381 6.452 5.45781 6.884 5.47581 7.118C5.56581 8.396 5.54781 9.674 5.47581 10.952C5.40381 12.284 5.24181 13.706 5.02581 15.128C4.97181 15.452 4.98981 15.812 5.16981 16.064C5.36781 16.316 5.61981 16.496 6.06981 16.496Z" fill="white"/>
<path d="M11.3258 10.664C10.7678 11.024 10.2998 11.366 9.99381 11.744C9.43581 12.446 9.21981 12.95 9.21981 13.868C9.21981 15.74 10.6418 16.964 12.6038 16.82C14.4578 16.676 15.7898 15.614 15.7178 13.652C15.6818 12.698 15.3218 11.798 14.5478 11.204C14.2418 10.988 13.7918 10.718 13.3778 10.502C13.7378 10.268 14.1158 10.016 14.4938 9.566C14.8718 9.116 15.0518 8.432 14.8718 7.65799C14.6018 6.56 13.5938 5.948 12.2438 6.02C11.0918 6.07399 10.0118 6.92 9.88581 8.18C9.79581 9.044 10.0118 9.944 11.0558 10.502L11.3258 10.664ZM11.2358 12.23C11.5058 11.816 11.9918 11.456 12.4058 11.186C12.7838 11.366 13.1618 11.672 13.5038 12.104C13.8098 12.518 13.9898 12.986 14.0258 13.418C14.0978 14.444 13.5398 15.074 12.5498 15.164C11.6498 15.254 10.9118 14.642 10.8398 13.688C10.8038 13.256 10.8758 12.752 11.2358 12.23ZM12.9458 9.692C12.7478 9.818 12.5498 9.944 12.3518 10.052C12.2078 9.998 12.0638 9.926 11.9018 9.8C11.5598 9.584 11.3078 9.26 11.2358 8.864C11.1278 8.18 11.4158 7.604 12.0098 7.37C12.8378 7.082 13.6298 7.532 13.6838 8.45C13.7198 9.026 13.3778 9.422 12.9458 9.692Z" fill="white"/>
<path fill-rule="evenodd" clip-rule="evenodd" d="M8.14888 23.1535C6.63695 23.2316 5.85108 24.8241 6.70886 26.0716L13.7844 36.3617C14.1072 36.8312 14.573 37.1237 15.0665 37.242C15.2165 37.3558 15.3795 37.457 15.5546 37.5434L43.3539 51.2618C46.3255 52.7282 49.9232 51.508 51.3896 48.5365L53.1598 44.9494C54.6262 41.9779 53.406 38.3802 50.4344 36.9137L22.635 23.1954C22.4599 23.1089 22.2805 23.0412 22.0989 22.9913C21.7048 22.6716 21.1893 22.4799 20.6203 22.5093L8.14888 23.1535Z" fill="#8E8E8E"/>
<rect x="14.6577" y="37.101" width="16" height="1" transform="rotate(-63.7347 14.6577 37.101)" fill="#8E8E8E"/>
<rect x="40.6636" y="49.9342" width="16" height="1" transform="rotate(-63.7347 40.6636 49.9342)" fill="#8E8E8E"/>
<rect x="16.4512" y="37.986" width="16" height="2" transform="rotate(-63.7347 16.4512 37.986)" fill="#8E8E8E"/>
<rect x="42.457" y="50.8193" width="16" height="1" transform="rotate(-63.7347 42.457 50.8193)" fill="#8E8E8E"/>
<rect x="23.6021" y="37.0541" width="8" height="18" rx="4" transform="rotate(-63.7347 23.6021 37.0541)" fill="#8E8E8E"/>
</svg>
