<svg width="60" height="60" viewBox="0 0 60 60" fill="none" xmlns="http://www.w3.org/2000/svg">
<rect width="60" height="60" rx="4" fill="#3C6C54"/>
<mask id="mask0_111_411" style="mask-type:alpha" maskUnits="userSpaceOnUse" x="0" y="0" width="60" height="60">
<rect width="60" height="60" rx="4" fill="#3C6C54"/>
</mask>
<g mask="url(#mask0_111_411)">
<path d="M59.4808 -56.7392C60.7534 -58.4203 63.2466 -58.4203 64.5192 -56.7392L92.4409 -17.932C94.0502 -15.8062 92.5599 -12.7273 89.9217 -12.7273H34.0783C31.4401 -12.7273 29.9498 -15.8062 31.5591 -17.932L59.4808 -56.7392Z" fill="#8E8E8E"/>
<path d="M59.4627 -36.1759C60.7347 -37.889 63.2653 -37.889 64.5373 -36.1759L107.959 21.2639C109.54 23.3937 108.046 26.4445 105.422 26.4445H18.5784C15.9539 26.4445 14.4598 23.3937 16.0411 21.2639L59.4627 -36.1759Z" fill="#8E8E8E"/>
<path d="M59.4701 -15.7392C60.7424 -17.4391 63.2576 -17.4391 64.5299 -15.7392L111.345 46.8095C112.938 48.9377 111.445 52 108.815 52H15.185C12.5549 52 11.0623 48.9377 12.6551 46.8095L59.4701 -15.7392Z" fill="#8E8E8E"/>
<path d="M59.4808 -56.7392C60.7534 -58.4203 63.2466 -58.4203 64.5192 -56.7392L92.4409 -17.932C94.0502 -15.8062 92.5599 -12.7273 89.9217 -12.7273H34.0783C31.4401 -12.7273 29.9498 -15.8062 31.5591 -17.932L59.4808 -56.7392Z" fill="#8E8E8E"/>
</g>
<path d="M48 37V45" stroke="#8E8E8E" stroke-linecap="round"/>
<path d="M52 41L44 41" stroke="#8E8E8E" stroke-linecap="round"/>
<path d="M50 39L46 43" stroke="#8E8E8E" stroke-linecap="round"/>
<path d="M50 43L46 39" stroke="#8E8E8E" stroke-linecap="round"/>
<path d="M10 23V35" stroke="white" stroke-linecap="round"/>
<path d="M16 29L4 29" stroke="white" stroke-linecap="round"/>
<path d="M13 26L6.99998 32" stroke="white" stroke-linecap="round"/>
<path d="M13 32L6.99998 26" stroke="white" stroke-linecap="round"/>
<path d="M41.0708 18.3196C41.4128 18.3196 41.6648 18.2476 41.8808 18.0676C42.2048 17.8156 42.3848 17.5096 42.4388 16.9696C42.5288 15.7636 42.5108 13.7296 42.4748 11.9296C42.4568 10.9216 42.4208 10.0036 42.3308 9.39158C42.2588 8.85158 42.0788 8.47358 41.7368 8.25758C41.4128 8.05958 40.8908 7.86158 40.6028 8.13158C40.4048 8.27558 40.4588 8.70758 40.4768 8.94158C40.5668 10.2196 40.5488 11.4976 40.4768 12.7756C40.4048 14.1076 40.2428 15.5296 40.0268 16.9516C39.9728 17.2756 39.9908 17.6356 40.1708 17.8876C40.3688 18.1396 40.6208 18.3196 41.0708 18.3196Z" fill="white"/>
<path d="M46.4168 8.40158C44.9228 8.43758 43.8608 9.51758 43.8608 11.2096C43.8608 12.6856 44.6708 13.6576 45.7148 13.9096C46.3988 14.0716 47.4788 14.0176 48.0368 13.4056C47.9288 15.0076 47.7128 15.5476 47.4068 16.9696C47.2988 17.4196 47.2448 17.7976 47.6408 18.0856C47.8748 18.2476 48.1988 18.2836 48.5588 18.1936C48.9188 18.1396 49.1888 17.9056 49.4228 17.5276C49.6388 17.1676 49.7468 16.5916 49.8008 16.1236C50.0168 14.0176 50.0708 11.8396 49.7828 9.53558C49.7288 9.12158 49.6388 8.83358 49.4768 8.56358C49.2968 8.27558 48.9728 8.11358 48.6668 8.11358C48.3428 8.11358 48.1448 8.27558 48.1628 8.50958C48.1988 8.70758 48.1988 8.97758 48.2528 9.21158C47.8928 8.65358 47.2268 8.38358 46.4168 8.40158ZM46.5788 9.40958C47.6588 9.40958 48.0368 10.2376 48.0368 11.1376C48.0368 12.2536 47.2988 12.7936 46.4528 12.7396C45.5888 12.6856 45.1388 11.9476 45.1388 11.1556C45.1388 10.2916 45.5888 9.40958 46.5788 9.40958Z" fill="white"/>
</svg>
