<svg width="60" height="60" viewBox="0 0 60 60" fill="none" xmlns="http://www.w3.org/2000/svg">
<rect width="60" height="60" rx="4" fill="#3C6C54"/>
<rect x="25" width="12" height="10" rx="2" fill="#8E8E8E"/>
<ellipse cx="31" cy="31" rx="15" ry="25" fill="#8E8E8E"/>
<path fill-rule="evenodd" clip-rule="evenodd" d="M40.8738 12.1678C41.0573 12.3742 41.0387 12.6903 40.8323 12.8737C36.3285 16.8771 25.1771 25.8253 16.6971 29.4596C16.4433 29.5684 16.1493 29.4508 16.0406 29.197C15.9318 28.9431 16.0494 28.6492 16.3032 28.5404C24.6232 24.9747 35.6718 16.1229 40.1679 12.1263C40.3743 11.9428 40.6904 11.9614 40.8738 12.1678Z" fill="#8E8E8E"/>
<path fill-rule="evenodd" clip-rule="evenodd" d="M34.3738 6.16782C34.5573 6.37421 34.5387 6.69025 34.3323 6.87371C33.5019 7.61183 32.7161 8.3503 31.9322 9.08687C28.5027 12.3096 25.1117 15.4962 18.1971 18.4596C17.9433 18.5684 17.6493 18.4508 17.5406 18.197C17.4318 17.9432 17.5494 17.6492 17.8032 17.5404C24.545 14.6511 27.8063 11.5883 31.2219 8.38054C32.0139 7.6368 32.8141 6.88527 33.6679 6.1263C33.8743 5.94284 34.1904 5.96143 34.3738 6.16782Z" fill="#8E8E8E"/>
<path fill-rule="evenodd" clip-rule="evenodd" d="M46.3738 28.6678C46.5573 28.8742 46.5387 29.1903 46.3323 29.3737C44.0648 31.3892 39.5245 35.0007 34.5016 38.558C29.4848 42.1111 23.9487 45.6375 19.6971 47.4596C19.4433 47.5684 19.1493 47.4508 19.0406 47.197C18.9318 46.9431 19.0494 46.6492 19.3032 46.5404C23.4516 44.7625 28.9155 41.2889 33.9236 37.742C38.9258 34.1993 43.4354 30.6108 45.6679 28.6263C45.8743 28.4428 46.1904 28.4614 46.3738 28.6678Z" fill="#8E8E8E"/>
<path fill-rule="evenodd" clip-rule="evenodd" d="M44.8738 40.1678C45.0573 40.3742 45.0387 40.6903 44.8323 40.8737L44.7038 40.988C40.2111 44.9819 33.6012 50.8578 25.1971 54.4596C24.9433 54.5684 24.6493 54.4508 24.5406 54.197C24.4318 53.9432 24.5494 53.6492 24.8032 53.5404C33.0573 50.0029 39.5662 44.2169 44.0681 40.2151L44.1679 40.1263C44.3743 39.9428 44.6904 39.9614 44.8738 40.1678Z" fill="#8E8E8E"/>
<path d="M30.106 28.6497C29.548 29.0097 29.08 29.3517 28.774 29.7297C28.216 30.4317 28 30.9357 28 31.8537C28 33.7257 29.422 34.9497 31.384 34.8057C33.238 34.6617 34.57 33.5997 34.498 31.6377C34.462 30.6837 34.102 29.7837 33.328 29.1897C33.022 28.9737 32.572 28.7037 32.158 28.4877C32.518 28.2537 32.896 28.0017 33.274 27.5517C33.652 27.1017 33.832 26.4177 33.652 25.6437C33.382 24.5457 32.374 23.9337 31.024 24.0057C29.872 24.0597 28.792 24.9057 28.666 26.1657C28.576 27.0297 28.792 27.9297 29.836 28.4877L30.106 28.6497ZM30.016 30.2157C30.286 29.8017 30.772 29.4417 31.186 29.1717C31.564 29.3517 31.942 29.6577 32.284 30.0897C32.59 30.5037 32.77 30.9717 32.806 31.4037C32.878 32.4297 32.32 33.0597 31.33 33.1497C30.43 33.2397 29.692 32.6277 29.62 31.6737C29.584 31.2417 29.656 30.7377 30.016 30.2157ZM31.726 27.6777C31.528 27.8037 31.33 27.9297 31.132 28.0377C30.988 27.9837 30.844 27.9117 30.682 27.7857C30.34 27.5697 30.088 27.2457 30.016 26.8497C29.908 26.1657 30.196 25.5897 30.79 25.3557C31.618 25.0677 32.41 25.5177 32.464 26.4357C32.5 27.0117 32.158 27.4077 31.726 27.6777Z" fill="white"/>
</svg>
