<svg width="60" height="60" viewBox="0 0 60 60" fill="none" xmlns="http://www.w3.org/2000/svg">
<rect width="60" height="60" rx="4" fill="#3C6C54"/>
<circle cx="30" cy="30" r="19" fill="#8E8E8E" fill-opacity="0.2"/>
<path fill-rule="evenodd" clip-rule="evenodd" d="M30 50.5C41.3218 50.5 50.5 41.3218 50.5 30C50.5 18.6782 41.3218 9.5 30 9.5C18.6782 9.5 9.5 18.6782 9.5 30C9.5 41.3218 18.6782 50.5 30 50.5ZM30 51C41.598 51 51 41.598 51 30C51 18.402 41.598 9 30 9C18.402 9 9 18.402 9 30C9 41.598 18.402 51 30 51Z" fill="#8E8E8E"/>
<path d="M31.9038 24.6859C30.8958 24.4699 29.7798 24.5059 28.7718 24.6859C28.7178 24.0559 28.3938 23.9479 27.9978 23.9299C27.2778 23.8759 27.1518 24.5779 27.0978 25.0639C26.9898 25.9459 26.9718 27.0799 27.0438 27.9799C27.0618 28.2679 27.1158 28.5739 27.1878 28.8799C27.3498 29.4199 27.7638 29.5639 28.1418 29.5279C28.4118 29.4919 28.6098 29.3479 28.7358 29.0959C29.1138 28.8979 29.5998 28.8439 30.0498 28.8979C31.0758 29.0419 31.7058 29.7619 31.7058 30.8419C31.7238 32.0479 31.0758 32.9299 29.8878 32.9839C29.2578 33.0199 28.4118 32.7679 28.0338 32.1019C27.8538 31.7779 27.6198 31.3279 27.1158 31.5079C26.6118 31.7059 26.6658 32.3179 26.8638 32.7499C27.2958 33.7939 28.3758 34.6579 29.8878 34.6399C31.9758 34.6219 33.2538 33.1999 33.3258 31.3099C33.3978 29.4019 32.5518 27.9799 30.3918 27.7279C29.8878 27.6739 29.3118 27.7459 28.7718 27.9439C28.7538 27.4579 28.7538 26.9719 28.7538 26.5579C28.7358 26.3779 28.7358 26.0359 28.7538 25.7119C29.2218 25.6039 29.5818 25.5679 30.1578 25.5499C31.0038 25.5319 31.7778 25.6399 32.6058 25.8739C32.7318 25.9099 32.9478 25.8379 33.0018 25.6939C33.0738 25.4599 33.0198 25.2439 32.8398 25.0819C32.5878 24.8479 32.2278 24.7759 31.9038 24.6859Z" fill="white"/>
<path d="M13.9797 52.1337C14.5993 51.495 13.4899 47.5892 15.4491 45.5694C17.4084 43.5496 40.9194 43.4053 43.8582 45.5695C46.7971 47.7336 45.9154 52.2347 46.3073 52.6386C46.7971 53.1436 47.2869 55.1634 46.7971 55.6683C46.3073 56.1733 13 56.1732 13 55.1633C13 53.1436 13.4898 52.6386 13.9797 52.1337Z" fill="#8E8E8E"/>
</svg>
