<svg width="60" height="60" viewBox="0 0 60 60" fill="none" xmlns="http://www.w3.org/2000/svg">
<rect width="60" height="60" rx="4" fill="#3C6C54"/>
<rect x="24" width="12" height="10" rx="2" fill="#8E8E8E"/>
<path d="M54 31C54 44.2548 43.2548 55 30 55C16.7452 55 6 44.2548 6 31C6 17.7452 16.7452 7 30 7C43.2548 7 54 17.7452 54 31Z" fill="#8E8E8E"/>
<rect x="6" y="26" width="48" height="10" rx="2" fill="#8E8E8E"/>
<rect x="12" y="44" width="36" height="4" rx="2" fill="#8E8E8E"/>
<rect x="12" y="14" width="36" height="4" rx="2" fill="#8E8E8E"/>
<path d="M29.5102 29.2061C29.9962 28.4141 30.4822 27.8921 31.0942 27.1721C31.3642 26.8481 31.4902 26.5241 31.2742 26.3261C31.0042 26.0561 30.5722 26.2181 30.2122 26.4521C29.8342 26.7041 29.4202 27.0821 29.0782 27.4241C27.8182 28.7381 26.9902 30.3041 26.7742 32.0501C26.6842 32.8241 26.7562 33.6881 26.9722 34.4261C27.3682 35.6321 28.3762 36.7481 30.0502 36.6941C31.8862 36.6401 33.1642 35.2361 33.0922 33.4001C33.0562 32.5721 32.8942 31.7801 32.3002 31.1141C31.5622 30.3041 30.6802 30.1241 29.6182 30.2861C29.3662 30.3221 29.0242 30.4481 28.7182 30.6281C28.9522 30.1241 29.2222 29.6561 29.5102 29.2061ZM29.8162 31.5101C30.8062 31.5281 31.3282 32.4461 31.2742 33.4181C31.2382 34.4621 30.6262 35.1101 29.8342 35.0381C28.9882 34.9661 28.5562 34.3361 28.3942 33.5801C28.3042 33.1661 28.2862 32.7881 28.3042 32.3201C28.3042 32.1941 28.3222 32.0501 28.3402 31.9061C28.7362 31.6541 29.2762 31.4921 29.8162 31.5101Z" fill="white"/>
<circle cx="42" cy="46" r="2" fill="#8E8E8E"/>
<circle cx="42" cy="16" r="2" fill="#8E8E8E"/>
<circle cx="34" cy="46" r="2" fill="#8E8E8E"/>
<circle cx="34" cy="16" r="2" fill="#8E8E8E"/>
<circle cx="26" cy="46" r="2" fill="#8E8E8E"/>
<circle cx="26" cy="16" r="2" fill="#8E8E8E"/>
<circle cx="18" cy="46" r="2" fill="#8E8E8E"/>
<circle cx="18" cy="16" r="2" fill="#8E8E8E"/>
</svg>
