<svg width="60" height="60" viewBox="0 0 60 60" fill="none" xmlns="http://www.w3.org/2000/svg">
<rect width="60" height="60" rx="4" fill="#3C6C54"/>
<path d="M36 26C36 35.9411 32.4867 44 30.8667 44C29.2466 44 25 35.9411 25 26C25 16.0589 29.2466 8 30.8667 8C32.4867 8 36 16.0589 36 26Z" fill="#8E8E8E"/>
<path d="M35.2839 32.3866C37.8569 41.989 36.5491 50.6826 34.9843 51.1018C33.4194 51.5211 27.2317 44.836 24.6587 35.2336C22.0858 25.6312 24.1019 16.7478 25.6668 16.3285C27.2316 15.9092 32.711 22.7842 35.2839 32.3866Z" fill="#8E8E8E"/>
<path d="M25.6585 32.3866C23.0855 41.989 24.3933 50.6826 25.9581 51.1018C27.523 51.5211 33.7107 44.836 36.2836 35.2336C38.8566 25.6312 36.8405 16.7478 35.2756 16.3285C33.7108 15.9092 28.2314 22.7842 25.6585 32.3866Z" fill="#8E8E8E"/>
<path d="M34 32C34 38.0751 31.7643 43 30.7333 43C29.7024 43 27 38.0751 27 32C27 25.9249 29.7024 21 30.7333 21C31.7643 21 34 25.9249 34 32Z" fill="#8E8E8E"/>
<path d="M16 37C16 35.8954 16.8954 35 18 35H43C44.1046 35 45 35.8954 45 37V60H16V37Z" fill="#8E8E8E"/>
<path d="M7.06981 18.496C7.41181 18.496 7.66381 18.424 7.87981 18.244C8.20381 17.992 8.38381 17.686 8.43781 17.146C8.52781 15.94 8.50981 13.906 8.47381 12.106C8.45581 11.098 8.41981 10.18 8.32981 9.56797C8.25781 9.02797 8.07781 8.64997 7.73581 8.43397C7.41181 8.23597 6.88981 8.03797 6.60181 8.30797C6.40381 8.45197 6.45781 8.88397 6.47581 9.11797C6.56581 10.396 6.54781 11.674 6.47581 12.952C6.40381 14.284 6.24181 15.706 6.02581 17.128C5.97181 17.452 5.98981 17.812 6.16981 18.064C6.36781 18.316 6.61981 18.496 7.06981 18.496Z" fill="white"/>
<path d="M14.5218 13.024C15.4578 12.646 16.0338 11.656 15.9978 10.684C15.9438 9.17197 15.0078 8.37997 13.6578 8.25397C12.7938 8.10997 11.4978 8.45197 10.8858 9.20797C10.7778 9.33397 10.5438 9.74797 10.8678 10.036C11.2098 10.342 11.6418 10.036 11.9658 9.78397C12.2718 9.54997 12.7578 9.35197 13.3158 9.42397C14.0358 9.51397 14.4498 9.90997 14.5758 10.612C14.7018 11.35 14.3778 11.872 13.9098 12.16C13.5678 12.376 13.0638 12.502 12.7218 12.538C12.2718 12.61 11.8398 12.592 11.4618 12.808C11.2638 12.934 11.1378 13.168 11.1738 13.474C11.2638 13.798 11.5338 13.978 11.8578 13.96C12.2358 13.924 12.6318 13.888 13.0098 13.888C13.3158 13.888 13.7298 13.978 13.9458 14.122C14.5578 14.482 14.7378 15.382 14.5938 15.958C14.4138 16.66 13.7838 17.002 13.0818 17.074C12.5418 17.128 11.9838 16.93 11.5698 16.66C11.4078 16.552 11.1918 16.462 11.0478 16.408C10.7238 16.282 10.3098 16.39 10.1298 16.714C9.98581 17.002 10.0218 17.434 10.2558 17.722C10.4898 18.01 10.8318 18.226 11.1558 18.37C11.7858 18.658 12.6138 18.712 13.3878 18.658C15.0078 18.55 16.3218 17.524 16.4118 15.85C16.4838 14.554 15.8718 13.438 14.5218 13.024Z" fill="white"/>
</svg>
