<svg width="60" height="60" viewBox="0 0 60 60" fill="none" xmlns="http://www.w3.org/2000/svg">
<rect width="60" height="60" rx="4" fill="#3C6C54"/>
<mask id="mask0_111_608" style="mask-type:alpha" maskUnits="userSpaceOnUse" x="0" y="0" width="60" height="60">
<rect width="60" height="60" rx="4" fill="#3C6C54"/>
</mask>
<g mask="url(#mask0_111_608)">
<path d="M59.1835 9.17671C60.0118 6.27443 64.1249 6.27443 64.9531 9.17671L67.3827 17.69C67.8271 19.2469 69.4265 20.1704 70.997 19.7767L79.5845 17.6242C82.5121 16.8903 84.5687 20.4524 82.4694 22.6208L76.3114 28.9816C75.1853 30.1448 75.1853 31.9917 76.3114 33.1549L82.4694 39.5157C84.5687 41.6841 82.5121 45.2462 79.5845 44.5123L70.997 42.3598C69.4265 41.9661 67.8271 42.8896 67.3827 44.4465L64.9531 52.9598C64.1249 55.8621 60.0118 55.8621 59.1835 52.9598L56.7539 44.4465C56.3096 42.8896 54.7101 41.9661 53.1397 42.3598L44.5521 44.5123C41.6245 45.2462 39.568 41.6841 41.6673 39.5157L47.8253 33.1549C48.9514 31.9917 48.9514 30.1448 47.8253 28.9816L41.6673 22.6208C39.568 20.4524 41.6245 16.8903 44.5521 17.6242L53.1397 19.7767C54.7101 20.1704 56.3096 19.2469 56.7539 17.69L59.1835 9.17671Z" fill="#8E8E8E"/>
<path d="M48.6242 13.552C47.8903 10.6244 51.4524 8.56788 53.6208 10.6672L59.9816 16.8252C61.1448 17.9513 62.9917 17.9513 64.1549 16.8252L70.5157 10.6672C72.6841 8.56788 76.2462 10.6244 75.5123 13.552L73.3598 22.1396C72.9661 23.71 73.8896 25.3095 75.4464 25.7538L83.9598 28.1834C86.8621 29.0117 86.8621 33.1248 83.9598 33.9531L75.4464 36.3826C73.8896 36.827 72.9661 38.4264 73.3598 39.9969L75.5123 48.5845C76.2462 51.512 72.6841 53.5686 70.5157 51.4693L64.1549 45.3113C62.9917 44.1852 61.1448 44.1852 59.9816 45.3113L53.6208 51.4693C51.4524 53.5686 47.8903 51.512 48.6242 48.5844L50.7767 39.9969C51.1704 38.4264 50.2469 36.827 48.69 36.3826L40.1767 33.9531C37.2744 33.1248 37.2744 29.0117 40.1767 28.1834L48.69 25.7538C50.2469 25.3095 51.1704 23.71 50.7767 22.1396L48.6242 13.552Z" fill="#8E8E8E"/>
</g>
<path d="M9.556 7.288C8.062 7.324 7 8.404 7 10.096C7 11.572 7.81 12.544 8.854 12.796C9.538 12.958 10.618 12.904 11.176 12.292C11.068 13.894 10.852 14.434 10.546 15.856C10.438 16.306 10.384 16.684 10.78 16.972C11.014 17.134 11.338 17.17 11.698 17.08C12.058 17.026 12.328 16.792 12.562 16.414C12.778 16.054 12.886 15.478 12.94 15.01C13.156 12.904 13.21 10.726 12.922 8.422C12.868 8.008 12.778 7.72 12.616 7.45C12.436 7.162 12.112 7 11.806 7C11.482 7 11.284 7.162 11.302 7.396C11.338 7.594 11.338 7.864 11.392 8.098C11.032 7.54 10.366 7.27 9.556 7.288ZM9.718 8.296C10.798 8.296 11.176 9.124 11.176 10.024C11.176 11.14 10.438 11.68 9.592 11.626C8.728 11.572 8.278 10.834 8.278 10.042C8.278 9.178 8.728 8.296 9.718 8.296Z" fill="white"/>
<path d="M20.2869 40.5131C20.5021 39.829 21.4979 39.829 21.7131 40.5131L22.2881 42.3408C22.4026 42.705 22.7872 42.9209 23.1688 42.8354L25.0835 42.4059C25.8003 42.2451 26.2982 43.0839 25.7966 43.6072L24.4568 45.0054C24.1899 45.284 24.1899 45.716 24.4568 45.9946L25.7966 47.3928C26.2982 47.9161 25.8003 48.7549 25.0835 48.5941L23.1688 48.1646C22.7872 48.0791 22.4026 48.295 22.2881 48.6592L21.7131 50.4869C21.4979 51.171 20.5021 51.171 20.2869 50.4869L19.7119 48.6592C19.5974 48.295 19.2128 48.0791 18.8312 48.1646L16.9165 48.5941C16.1997 48.7549 15.7018 47.9161 16.2034 47.3928L17.5432 45.9946C17.8101 45.716 17.8101 45.284 17.5432 45.0054L16.2034 43.6072C15.7018 43.0839 16.1997 42.2451 16.9165 42.4059L18.8312 42.8354C19.2128 42.9209 19.5974 42.705 19.7119 42.3408L20.2869 40.5131Z" fill="#8E8E8E"/>
<path fill-rule="evenodd" clip-rule="evenodd" d="M21.0001 41.5C21.2763 41.5 21.5001 41.7239 21.5001 42V44.691L23.7765 43.5528C24.0235 43.4293 24.3238 43.5294 24.4473 43.7764C24.5708 44.0234 24.4707 44.3237 24.2237 44.4472L22.1181 45.5L24.2237 46.5528C24.4707 46.6763 24.5708 46.9766 24.4473 47.2236C24.3238 47.4706 24.0235 47.5707 23.7765 47.4472L21.5001 46.309V49C21.5001 49.2761 21.2763 49.5 21.0001 49.5C20.724 49.5 20.5001 49.2761 20.5001 49V46.309L18.2237 47.4472C17.9767 47.5707 17.6764 47.4706 17.5529 47.2236C17.4294 46.9766 17.5295 46.6763 17.7765 46.5528L19.8821 45.5L17.7765 44.4472C17.5295 44.3237 17.4294 44.0234 17.5529 43.7764C17.6764 43.5294 17.9767 43.4293 18.2237 43.5528L20.5001 44.691V42C20.5001 41.7239 20.724 41.5 21.0001 41.5Z" fill="#8E8E8E"/>
</svg>
