<svg width="60" height="60" viewBox="0 0 60 60" fill="none" xmlns="http://www.w3.org/2000/svg">
<rect width="60" height="60" rx="4" fill="#3C6C54"/>
<path d="M32.9998 32.5C35.0577 44.8022 30 49 24.4998 52.5C21.276 54.5514 14.3613 55.6482 0.0699921 55.7737V17.5C6.18452 18.9918 13.57 18.5 15.4998 18.5C18.7925 18.5 30.9419 20.1978 32.9998 32.5Z" fill="#8E8E8E"/>
<circle cx="13" cy="30" r="2" fill="#8E8E8E"/>
<circle cx="12" cy="38" r="2" fill="#8E8E8E"/>
<circle cx="14" cy="46" r="2" fill="#8E8E8E"/>
<circle cx="18" cy="51" r="2" fill="#8E8E8E"/>
<circle cx="17" cy="22" r="2" fill="#8E8E8E"/>
<path d="M8.25209 15.6576C9.15209 14.7396 10.4481 13.3716 11.0781 12.2376C11.4381 11.5896 11.6181 10.9956 11.6721 10.3296C11.8341 8.31362 10.4841 6.81962 8.46809 7.01762C7.49609 7.10762 6.54209 7.50362 6.18209 8.63762C6.02009 9.12362 6.05609 9.82562 6.34409 10.2216C6.45209 10.3656 6.65009 10.4916 6.83009 10.4376C7.01009 10.3836 7.10009 10.2396 7.08209 10.1316C7.01009 9.75362 6.95609 9.46562 7.04609 9.10562C7.17209 8.63762 7.64009 8.24162 8.19809 8.18762C9.26009 8.09762 9.87209 8.70962 9.99809 9.64562C10.0701 10.1856 10.0161 10.6896 9.81809 11.1756C9.24209 12.6156 8.05409 13.6956 6.90209 14.8836C6.36209 15.4236 5.82209 16.0896 6.05609 16.8636C6.20009 17.3496 6.61409 17.5296 7.38809 17.4756C8.55809 17.4036 10.0341 17.4396 11.2041 17.4936C11.5821 17.5116 12.0861 17.4216 12.2661 17.0076C12.4281 16.5216 12.2841 15.9816 11.6181 15.7116C11.2401 15.5676 10.7001 15.4956 10.0881 15.4956C9.69209 15.4956 8.81009 15.5676 8.25209 15.6576Z" fill="white"/>
<path d="M15.424 15.6576C16.324 14.7396 17.62 13.3716 18.25 12.2376C18.61 11.5896 18.79 10.9956 18.844 10.3296C19.006 8.31362 17.656 6.81962 15.64 7.01762C14.668 7.10762 13.714 7.50362 13.354 8.63762C13.192 9.12362 13.228 9.82562 13.516 10.2216C13.624 10.3656 13.822 10.4916 14.002 10.4376C14.182 10.3836 14.272 10.2396 14.254 10.1316C14.182 9.75362 14.128 9.46562 14.218 9.10562C14.344 8.63762 14.812 8.24162 15.37 8.18762C16.432 8.09762 17.044 8.70962 17.17 9.64562C17.242 10.1856 17.188 10.6896 16.99 11.1756C16.414 12.6156 15.226 13.6956 14.074 14.8836C13.534 15.4236 12.994 16.0896 13.228 16.8636C13.372 17.3496 13.786 17.5296 14.56 17.4756C15.73 17.4036 17.206 17.4396 18.376 17.4936C18.754 17.5116 19.258 17.4216 19.438 17.0076C19.6 16.5216 19.456 15.9816 18.79 15.7116C18.412 15.5676 17.872 15.4956 17.26 15.4956C16.864 15.4956 15.982 15.5676 15.424 15.6576Z" fill="white"/>
</svg>
