<svg width="60" height="60" viewBox="0 0 60 60" fill="none" xmlns="http://www.w3.org/2000/svg">
<rect width="60" height="60" rx="4" fill="#3C6C54"/>
<mask id="mask0_345_122" style="mask-type:alpha" maskUnits="userSpaceOnUse" x="0" y="0" width="60" height="60">
<rect width="60" height="60" rx="4" fill="#3C6C54"/>
</mask>
<g mask="url(#mask0_345_122)">
<path d="M59.4808 -56.7392C60.7534 -58.4203 63.2466 -58.4203 64.5192 -56.7392L92.4409 -17.932C94.0502 -15.8062 92.5599 -12.7273 89.9217 -12.7273H34.0783C31.4401 -12.7273 29.9498 -15.8062 31.5591 -17.932L59.4808 -56.7392Z" fill="#8E8E8E"/>
<path d="M59.4627 -36.1759C60.7347 -37.889 63.2653 -37.889 64.5373 -36.1759L107.959 21.2639C109.54 23.3937 108.046 26.4445 105.422 26.4445H18.5784C15.9539 26.4445 14.4598 23.3937 16.0411 21.2639L59.4627 -36.1759Z" fill="#8E8E8E"/>
<path d="M59.4701 -15.7392C60.7424 -17.4391 63.2576 -17.4391 64.5299 -15.7392L111.345 46.8095C112.938 48.9377 111.445 52 108.815 52H15.185C12.5549 52 11.0623 48.9377 12.6551 46.8095L59.4701 -15.7392Z" fill="#8E8E8E"/>
<path d="M59.4808 -56.7392C60.7534 -58.4203 63.2466 -58.4203 64.5192 -56.7392L92.4409 -17.932C94.0502 -15.8062 92.5599 -12.7273 89.9217 -12.7273H34.0783C31.4401 -12.7273 29.9498 -15.8062 31.5591 -17.932L59.4808 -56.7392Z" fill="#8E8E8E"/>
</g>
<path d="M48 37V45" stroke="#8E8E8E" stroke-linecap="round"/>
<path d="M52 41L44 41" stroke="#8E8E8E" stroke-linecap="round"/>
<path d="M50 39L46 43" stroke="#8E8E8E" stroke-linecap="round"/>
<path d="M50 43L46 39" stroke="#8E8E8E" stroke-linecap="round"/>
<path d="M10 23V35" stroke="#8E8E8E" stroke-linecap="round"/>
<path d="M16 29L4 29" stroke="#8E8E8E" stroke-linecap="round"/>
<path d="M13 26L6.99998 32" stroke="#8E8E8E" stroke-linecap="round"/>
<path d="M13 32L6.99998 26" stroke="#8E8E8E" stroke-linecap="round"/>
<path d="M26.0708 34.3196C26.4128 34.3196 26.6648 34.2476 26.8808 34.0676C27.2048 33.8156 27.3848 33.5096 27.4388 32.9696C27.5288 31.7636 27.5108 29.7296 27.4748 27.9296C27.4568 26.9216 27.4208 26.0036 27.3308 25.3916C27.2588 24.8516 27.0788 24.4736 26.7368 24.2576C26.4128 24.0596 25.8908 23.8616 25.6028 24.1316C25.4048 24.2756 25.4588 24.7076 25.4768 24.9416C25.5668 26.2196 25.5488 27.4976 25.4768 28.7756C25.4048 30.1076 25.2428 31.5296 25.0268 32.9516C24.9728 33.2756 24.9908 33.6356 25.1708 33.8876C25.3688 34.1396 25.6208 34.3196 26.0708 34.3196Z" fill="white"/>
<path d="M31.4168 24.4016C29.9228 24.4376 28.8608 25.5176 28.8608 27.2096C28.8608 28.6856 29.6708 29.6576 30.7148 29.9096C31.3988 30.0716 32.4788 30.0176 33.0368 29.4056C32.9288 31.0076 32.7128 31.5476 32.4068 32.9696C32.2988 33.4196 32.2448 33.7976 32.6408 34.0856C32.8748 34.2476 33.1988 34.2836 33.5588 34.1936C33.9188 34.1396 34.1888 33.9056 34.4228 33.5276C34.6388 33.1676 34.7468 32.5916 34.8008 32.1236C35.0168 30.0176 35.0708 27.8396 34.7828 25.5356C34.7288 25.1216 34.6388 24.8336 34.4768 24.5636C34.2968 24.2756 33.9728 24.1136 33.6668 24.1136C33.3428 24.1136 33.1448 24.2756 33.1628 24.5096C33.1988 24.7076 33.1988 24.9776 33.2528 25.2116C32.8928 24.6536 32.2268 24.3836 31.4168 24.4016ZM31.5788 25.4096C32.6588 25.4096 33.0368 26.2376 33.0368 27.1376C33.0368 28.2536 32.2988 28.7936 31.4528 28.7396C30.5888 28.6856 30.1388 27.9476 30.1388 27.1556C30.1388 26.2916 30.5888 25.4096 31.5788 25.4096Z" fill="white"/>
</svg>
