<svg width="60" height="60" viewBox="0 0 60 60" fill="none" xmlns="http://www.w3.org/2000/svg">
<rect width="60" height="60" rx="4" fill="#3C6C54"/>
<mask id="mask0_111_375" style="mask-type:alpha" maskUnits="userSpaceOnUse" x="0" y="0" width="60" height="60">
<rect width="60" height="60" rx="4" fill="#3C6C54"/>
</mask>
<g mask="url(#mask0_111_375)">
<path d="M59.4808 7.26077C60.7534 5.57974 63.2466 5.57974 64.5192 7.26077L92.4409 46.068C94.0502 48.1938 92.5599 51.2727 89.9217 51.2727H34.0783C31.4401 51.2727 29.9498 48.1938 31.5591 46.068L59.4808 7.26077Z" fill="#8E8E8E"/>
<path d="M59.4627 27.8241C60.7347 26.111 63.2653 26.111 64.5373 27.8241L107.959 85.2639C109.54 87.3937 108.046 90.4445 105.422 90.4445H18.5784C15.9539 90.4445 14.4598 87.3937 16.0411 85.2639L59.4627 27.8241Z" fill="#8E8E8E"/>
<path d="M59.4701 48.2608C60.7424 46.5609 63.2576 46.5609 64.5299 48.2608L111.345 110.81C112.938 112.938 111.445 116 108.815 116H15.185C12.5549 116 11.0623 112.938 12.6551 110.81L59.4701 48.2608Z" fill="#8E8E8E"/>
<path d="M59.4808 7.26077C60.7534 5.57974 63.2466 5.57974 64.5192 7.26077L92.4409 46.068C94.0502 48.1938 92.5599 51.2727 89.9217 51.2727H34.0783C31.4401 51.2727 29.9498 48.1938 31.5591 46.068L59.4808 7.26077Z" fill="#8E8E8E"/>
</g>
<path d="M49 30V38" stroke="#8E8E8E" stroke-linecap="round"/>
<path d="M53 34L45 34" stroke="#8E8E8E" stroke-linecap="round"/>
<path d="M51 32L47 36" stroke="#8E8E8E" stroke-linecap="round"/>
<path d="M51 36L47 32" stroke="#8E8E8E" stroke-linecap="round"/>
<path d="M27 10V22" stroke="#8E8E8E" stroke-linecap="round"/>
<path d="M33 16L21 16" stroke="#8E8E8E" stroke-linecap="round"/>
<path d="M30 13L24 19" stroke="#8E8E8E" stroke-linecap="round"/>
<path d="M30 19L24 13" stroke="#8E8E8E" stroke-linecap="round"/>
<path d="M9.07079 53.3871C9.41279 53.3871 9.66478 53.3151 9.88079 53.1351C10.2048 52.8831 10.3848 52.5771 10.4388 52.0371C10.5288 50.8311 10.5108 48.7971 10.4748 46.9971C10.4568 45.9891 10.4208 45.0711 10.3308 44.4591C10.2588 43.9191 10.0788 43.5411 9.73679 43.3251C9.41279 43.1271 8.89079 42.9291 8.60278 43.1991C8.40478 43.3431 8.45878 43.7751 8.47679 44.0091C8.56679 45.2871 8.54879 46.5651 8.47679 47.8431C8.40478 49.1751 8.24279 50.5971 8.02679 52.0191C7.97278 52.3431 7.99079 52.7031 8.17079 52.9551C8.36879 53.2071 8.62079 53.3871 9.07079 53.3871Z" fill="white"/>
<path d="M14.2188 50.7051C14.6328 50.7411 15.1908 50.7591 15.7848 50.7771C15.7668 50.8671 15.7668 50.9571 15.7668 51.0471C15.7308 51.6231 15.6948 51.8211 15.6948 52.3791C15.6948 53.0991 16.0548 53.5131 16.6128 53.5491C17.2968 53.5851 17.7288 53.2431 17.8188 52.5411C17.8908 52.0011 17.9088 51.4431 17.9088 50.9031V50.7951C18.3408 50.7771 18.7728 50.7591 19.1508 50.7231C19.6008 50.6871 19.9428 50.3991 19.9968 49.9671C20.0328 49.6251 19.9608 49.3551 19.5828 49.1391C19.3308 48.9951 18.8448 48.9411 18.5208 48.9411C18.3228 48.9411 18.1068 48.9591 17.8908 48.9591C17.8728 47.5011 17.8188 46.0611 17.6028 44.5311C17.5668 44.2431 17.4768 43.8111 17.3688 43.5411C17.2248 43.1811 17.0088 42.9831 16.6308 43.0011C16.3248 43.0191 16.1808 43.2531 16.1628 43.6311L16.1268 44.9631C16.0728 46.3131 16.0008 47.6451 15.9108 48.9591C15.2448 48.9591 14.6148 48.9411 14.2188 48.9231C13.7508 48.9051 13.4808 48.8151 13.5168 48.2931C13.5708 47.5371 14.2008 45.7011 14.6508 44.4951C14.7588 44.1711 14.8668 43.7391 14.6508 43.5951C14.3808 43.4511 14.0568 43.5951 13.8948 43.9011C13.5168 44.5131 12.9408 45.6831 12.5808 46.5651C12.2748 47.3391 11.8428 48.3471 11.8788 49.3371C11.8968 49.8591 12.2388 50.2731 12.7788 50.4531C13.1748 50.5971 13.7868 50.6691 14.2188 50.7051Z" fill="white"/>
</svg>
