<svg width="60" height="60" viewBox="0 0 60 60" fill="none" xmlns="http://www.w3.org/2000/svg">
<rect width="60" height="60" rx="4" fill="#3C6C54"/>
<path d="M32.3457 54.2138C39.5962 54.4417 63.3928 32.3443 54.8944 16.7355C47.9691 5.94803 36.3722 8.76201 30.206 20.5977C23.7306 7.81253 10.8123 7.54617 4.95249 20.0649C-0.907343 35.2473 21.8482 53.4468 30.2061 53.9228C30.8449 54.0873 31.5556 54.1889 32.3457 54.2138Z" fill="#8E8E8E"/>
<path d="M24.8082 34.8219C25.7082 33.9039 27.0042 32.5359 27.6342 31.4019C27.9942 30.7539 28.1742 30.1599 28.2282 29.4939C28.3902 27.4779 27.0402 25.9839 25.0242 26.1819C24.0522 26.2719 23.0982 26.6679 22.7382 27.8019C22.5762 28.2879 22.6122 28.9899 22.9002 29.3859C23.0082 29.5299 23.2062 29.6559 23.3862 29.6019C23.5662 29.5479 23.6562 29.4039 23.6382 29.2959C23.5662 28.9179 23.5122 28.6299 23.6022 28.2699C23.7282 27.8019 24.1962 27.4059 24.7542 27.3519C25.8162 27.2619 26.4282 27.8739 26.5542 28.8099C26.6262 29.3499 26.5722 29.8539 26.3742 30.3399C25.7982 31.7799 24.6102 32.8599 23.4582 34.0479C22.9182 34.5879 22.3782 35.2539 22.6122 36.0279C22.7562 36.5139 23.1702 36.6939 23.9442 36.6399C25.1142 36.5679 26.5902 36.6039 27.7602 36.6579C28.1382 36.6759 28.6422 36.5859 28.8222 36.1719C28.9842 35.6859 28.8402 35.1459 28.1742 34.8759C27.7962 34.7319 27.2562 34.6599 26.6442 34.6599C26.2482 34.6599 25.3662 34.7319 24.8082 34.8219Z" fill="white"/>
<path d="M35.0761 26.6859C34.0681 26.4699 32.9521 26.5059 31.9441 26.6859C31.8901 26.0559 31.5661 25.9479 31.1701 25.9299C30.4501 25.8759 30.3241 26.5779 30.2701 27.0639C30.1621 27.9459 30.1441 29.0799 30.2161 29.9799C30.2341 30.2679 30.2881 30.5739 30.3601 30.8799C30.5221 31.4199 30.9361 31.5639 31.3141 31.5279C31.5841 31.4919 31.7821 31.3479 31.9081 31.0959C32.2861 30.8979 32.7721 30.8439 33.2221 30.8979C34.2481 31.0419 34.8781 31.7619 34.8781 32.8419C34.8961 34.0479 34.2481 34.9299 33.0601 34.9839C32.4301 35.0199 31.5841 34.7679 31.2061 34.1019C31.0261 33.7779 30.7921 33.3279 30.2881 33.5079C29.7841 33.7059 29.8381 34.3179 30.0361 34.7499C30.4681 35.7939 31.5481 36.6579 33.0601 36.6399C35.1481 36.6219 36.4261 35.1999 36.4981 33.3099C36.5701 31.4019 35.7241 29.9799 33.5641 29.7279C33.0601 29.6739 32.4841 29.7459 31.9441 29.9439C31.9261 29.4579 31.9261 28.9719 31.9261 28.5579C31.9081 28.3779 31.9081 28.0359 31.9261 27.7119C32.3941 27.6039 32.7541 27.5679 33.3301 27.5499C34.1761 27.5319 34.9501 27.6399 35.7781 27.8739C35.9041 27.9099 36.1201 27.8379 36.1741 27.6939C36.2461 27.4599 36.1921 27.2439 36.0121 27.0819C35.7601 26.8479 35.4001 26.7759 35.0761 26.6859Z" fill="white"/>
</svg>
