<svg width="60" height="60" viewBox="0 0 60 60" fill="none" xmlns="http://www.w3.org/2000/svg">
<rect width="60" height="60" rx="4" fill="#3C6C54"/>
<mask id="mask0_345_89" style="mask-type:alpha" maskUnits="userSpaceOnUse" x="0" y="0" width="60" height="60">
<rect width="60" height="60" rx="4" fill="#3C6C54"/>
</mask>
<g mask="url(#mask0_345_89)">
<path d="M-4.51921 7.26077C-3.24658 5.57974 -0.753428 5.57974 0.519207 7.26077L28.4409 46.068C30.0502 48.1938 28.5599 51.2727 25.9217 51.2727H-29.9217C-32.5599 51.2727 -34.0502 48.1938 -32.4409 46.068L-4.51921 7.26077Z" fill="#8E8E8E"/>
<path d="M-4.53725 27.8241C-3.26526 26.111 -0.734738 26.111 0.537251 27.8241L43.9589 85.2639C45.5402 87.3937 44.0461 90.4445 41.4216 90.4445H-45.4216C-48.0461 90.4445 -49.5402 87.3937 -47.9589 85.2639L-4.53725 27.8241Z" fill="#8E8E8E"/>
<path d="M-4.52987 48.2608C-3.25757 46.5609 -0.742442 46.5609 0.529865 48.2608L47.3449 110.81C48.9377 112.938 47.4451 116 44.815 116H-48.815C-51.4451 116 -52.9377 112.938 -51.3449 110.81L-4.52987 48.2608Z" fill="#8E8E8E"/>
<path d="M-4.51921 7.26077C-3.24658 5.57974 -0.753428 5.57974 0.519207 7.26077L28.4409 46.068C30.0502 48.1938 28.5599 51.2727 25.9217 51.2727H-29.9217C-32.5599 51.2727 -34.0502 48.1938 -32.4409 46.068L-4.51921 7.26077Z" fill="#8E8E8E"/>
</g>
<path d="M28 19V33" stroke="#8E8E8E" stroke-linecap="round"/>
<path d="M35 26L21 26" stroke="#8E8E8E" stroke-linecap="round"/>
<path d="M31.5 22.5L24.5 29.5" stroke="#8E8E8E" stroke-linecap="round"/>
<path d="M31.5 29.5L24.5 22.5" stroke="#8E8E8E" stroke-linecap="round"/>
<path d="M10 44V52" stroke="#8E8E8E" stroke-linecap="round"/>
<path d="M14 48L6 48" stroke="#8E8E8E" stroke-linecap="round"/>
<path d="M12 46L7.99999 50" stroke="#8E8E8E" stroke-linecap="round"/>
<path d="M12 50L7.99999 46" stroke="#8E8E8E" stroke-linecap="round"/>
<path d="M9.07079 17.5689C9.41279 17.5689 9.66478 17.4969 9.88079 17.3169C10.2048 17.0649 10.3848 16.7589 10.4388 16.2189C10.5288 15.0129 10.5108 12.9789 10.4748 11.1789C10.4568 10.1709 10.4208 9.25294 10.3308 8.64094C10.2588 8.10094 10.0788 7.72294 9.73679 7.50694C9.41279 7.30894 8.89079 7.11094 8.60278 7.38094C8.40478 7.52494 8.45878 7.95694 8.47679 8.19094C8.56679 9.46894 8.54879 10.7469 8.47679 12.0249C8.40478 13.3569 8.24279 14.7789 8.02679 16.2009C7.97278 16.5249 7.99079 16.8849 8.17079 17.1369C8.36879 17.3889 8.62079 17.5689 9.07079 17.5689Z" fill="white"/>
<path d="M17.4048 7.75894C16.3968 7.54294 15.2808 7.57894 14.2728 7.75894C14.2188 7.12894 13.8948 7.02094 13.4988 7.00294C12.7788 6.94894 12.6528 7.65094 12.5988 8.13694C12.4908 9.01894 12.4728 10.1529 12.5448 11.0529C12.5628 11.3409 12.6168 11.6469 12.6888 11.9529C12.8508 12.4929 13.2648 12.6369 13.6428 12.6009C13.9128 12.5649 14.1108 12.4209 14.2368 12.1689C14.6148 11.9709 15.1008 11.9169 15.5508 11.9709C16.5768 12.1149 17.2068 12.8349 17.2068 13.9149C17.2248 15.1209 16.5768 16.0029 15.3888 16.0569C14.7588 16.0929 13.9128 15.8409 13.5348 15.1749C13.3548 14.8509 13.1208 14.4009 12.6168 14.5809C12.1128 14.7789 12.1668 15.3909 12.3648 15.8229C12.7968 16.8669 13.8768 17.7309 15.3888 17.7129C17.4768 17.6949 18.7548 16.2729 18.8268 14.3829C18.8988 12.4749 18.0528 11.0529 15.8928 10.8009C15.3888 10.7469 14.8128 10.8189 14.2728 11.0169C14.2548 10.5309 14.2548 10.0449 14.2548 9.63094C14.2368 9.45094 14.2368 9.10894 14.2548 8.78494C14.7228 8.67694 15.0828 8.64094 15.6588 8.62294C16.5048 8.60494 17.2788 8.71294 18.1068 8.94694C18.2328 8.98294 18.4488 8.91094 18.5028 8.76694C18.5748 8.53294 18.5208 8.31694 18.3408 8.15494C18.0888 7.92094 17.7288 7.84894 17.4048 7.75894Z" fill="white"/>
</svg>
