<svg width="60" height="60" viewBox="0 0 60 60" fill="none" xmlns="http://www.w3.org/2000/svg">
<rect width="60" height="60" rx="4" fill="#3C6C54"/>
<path d="M6.06981 15.496C6.41181 15.496 6.66381 15.424 6.87981 15.244C7.20381 14.992 7.38381 14.686 7.43781 14.146C7.52781 12.94 7.50981 10.906 7.47381 9.10597C7.45581 8.09797 7.41981 7.17997 7.32981 6.56797C7.25781 6.02797 7.07781 5.64997 6.73581 5.43397C6.41181 5.23597 5.88981 5.03797 5.60181 5.30797C5.40381 5.45197 5.45781 5.88397 5.47581 6.11797C5.56581 7.39597 5.54781 8.67397 5.47581 9.95197C5.40381 11.284 5.24181 12.706 5.02581 14.128C4.97181 14.452 4.98981 14.812 5.16981 15.064C5.36781 15.316 5.61981 15.496 6.06981 15.496Z" fill="white"/>
<path d="M45.7729 30.5C45.7729 46.7273 36.7153 45.8 29.5456 45.8C22.3759 45.8 14.2456 39.5727 14.2456 31.8909C14.2456 24.2092 16.3487 24.0091 23.5183 24.0091C30.688 24.0091 45.7729 22.8183 45.7729 30.5Z" fill="#8E8E8E"/>
<circle cx="36.0362" cy="30.0364" r="0.927273" fill="#8E8E8E"/>
<circle cx="23.982" cy="30.0364" r="0.927273" fill="#8E8E8E"/>
<path d="M12.049 39.9154C12.3513 38.0231 14.8102 36.7225 16.5873 37.186C16.8503 36.5755 17.0665 35.3093 18.7707 34.7115C20.4749 34.1137 22.6834 34.2182 23.5719 36.0719C24.0162 34.6816 24.5549 34.0128 26.4526 33.7654C28.3504 33.518 29.8135 35.6577 29.8135 35.6577C30.2577 34.2673 32.2778 33.7654 33.7182 33.7654C35.1585 33.7654 37.0153 34.7116 37.0153 36.0719C38.9357 34.2384 42.215 35.6262 42.306 36.5755C43.6388 36.1121 44.796 36.4707 46.2363 37.9182C47.6767 39.3658 48.0134 41.0098 46.2363 42.5546C47.1249 42.8635 47.6272 43.7612 47.6272 46.7273C47.6272 49.6934 43.7868 50.4362 42.306 49.9728C43.7276 52.9388 39.2366 56.5037 37.0153 53.723C35.5936 56.6891 32.088 56.0402 31.6437 53.723C29.4224 57.894 24.5356 55.5768 24.5356 52.7961C21.87 56.0402 17.8716 53.1126 17.4274 50.4789C15.6503 50.7954 14.4241 51.2505 13.0332 49.2356C11.6521 47.2348 12.1447 45.2265 13.0332 43.5272C12.1447 42.9093 11.6936 42.1399 12.049 39.9154Z" fill="#8E8E8E"/>
<path d="M41.4583 30.1529C41.0633 29.0327 41.7875 27.1967 42.4459 26.8855C43.9273 25.952 44.7852 26.3575 45.9025 26.8856L45.9025 26.8856C47.8778 27.8191 48.5361 29.9973 47.3839 31.5532C49.3591 32.4867 49.0862 34.661 48.8653 35.2873C48.5361 36.2208 47.8777 37.1543 46.3963 37.1543C47.3839 38.0879 47.384 39.4881 45.4087 40.4216C43.2004 41.4653 42.9397 41.3551 40.9644 40.4216C38.9892 39.4881 39.4829 37.1543 41.952 36.2208C39.9161 34.2962 41.7875 32.0199 42.4459 31.5532C42.1167 31.242 41.8534 31.2731 41.4583 30.1529Z" fill="#8E8E8E"/>
<path d="M19.3162 30.1529C19.7508 29.0327 18.9541 27.1967 18.2298 26.8855C16.6003 25.952 15.6567 26.3575 14.4276 26.8856L14.4276 26.8856C12.2548 27.8191 11.5306 29.9973 12.7981 31.5532C10.6253 32.4867 10.9256 34.661 11.1685 35.2873C11.5306 36.2208 12.2549 37.1543 13.8844 37.1543C12.7981 38.0879 12.798 39.4881 14.9707 40.4216C17.4 41.4653 17.6867 41.3551 19.8595 40.4216C22.0322 39.4881 21.4891 37.1543 18.7731 36.2208C21.0127 34.2962 18.9541 32.0199 18.2299 31.5532C18.592 31.242 18.8817 31.2731 19.3162 30.1529Z" fill="#8E8E8E"/>
<path d="M13.3184 24.0091C13.3183 22.8485 14.2579 21.7287 16.1002 21.2273C17.9425 20.7259 42.7208 20.868 45.5078 21.5423C46.6397 21.8161 47.1638 23.5455 46.2365 25.2506C45.3092 26.9557 44.8456 27.1047 42.0638 27.1047C39.2819 27.1047 20.7365 27.7182 16.0896 27.1047C14.8616 26.9426 13.3184 25.8637 13.3184 24.0091Z" fill="#8E8E8E"/>
<path d="M14.2456 20.3C14.2455 19.1394 16.1001 14.2727 22.5909 11.0273C29.0818 7.78181 35.057 6.77008 41.6 6.85455C44.8454 6.89645 42.5273 10.1 40.6727 11.9545C37.4438 15.1834 42.5273 18.9091 44.3818 20.3C46.2363 21.6909 45.3091 22.4499 44.3818 22.6182C43.4545 22.7864 17.5545 22.6182 16.5636 22.6182C15.325 22.6182 14.2458 22.1545 14.2456 20.3Z" fill="#8E8E8E"/>
<circle cx="30.4728" cy="34.6727" r="3.70909" fill="#8E8E8E"/>
<path fill-rule="evenodd" clip-rule="evenodd" d="M26.1275 39.8059C26.3653 39.7108 26.6351 39.8264 26.7302 40.0642C26.9075 40.5075 27.3287 40.93 27.9518 41.2614C28.5691 41.5897 29.3447 41.806 30.1555 41.8601C31.7926 41.9692 33.4355 41.4187 34.2426 40.0063C34.3696 39.784 34.6529 39.7068 34.8752 39.8338C35.0975 39.9608 35.1747 40.244 35.0477 40.4664C34.0002 42.2995 31.9341 42.908 30.0939 42.7853C29.1661 42.7235 28.261 42.4761 27.5163 42.08C26.7775 41.687 26.1555 41.1242 25.8692 40.4085C25.7741 40.1708 25.8898 39.901 26.1275 39.8059Z" fill="#8E8E8E"/>
<path d="M39.7669 7.05661C39.8198 6.42584 40.2501 5.99234 40.5611 6.14682C40.6071 5.94333 40.645 5.52126 40.9432 5.32199C41.2414 5.12272 41.6279 5.15754 41.7834 5.77547C41.8612 5.31202 42.6589 5.08248 42.9911 5C42.9911 5 43.3798 5.00662 43.6319 5.00662C43.8839 5.00662 44.136 5.32201 44.136 5.77547C44.4721 5.1643 45.0459 5.62689 45.0619 5.94333C45.2951 5.78884 45.5643 5.94333 45.8164 6.42584C46.0685 6.90836 46.081 7.64014 45.77 8.15508C45.9255 8.25807 46.2365 8.35326 46.2365 9.34194C46.2365 10.3306 45.632 10.7323 45.3729 10.5778C45.6216 11.5665 44.6731 12.4316 44.2844 11.5047C44.0356 12.4934 43.2737 12.4316 43.196 11.6592C42.8073 13.0495 41.9521 12.2771 41.9521 11.3502C41.4856 12.4316 40.7859 11.4557 40.7081 10.5778C40.3971 10.6833 40.1825 10.835 39.9391 10.1634C39.6975 9.49642 39.7837 8.827 39.9391 8.26057C39.7837 8.05459 39.7047 7.79813 39.7669 7.05661Z" fill="#8E8E8E"/>
</svg>
