<svg width="35" height="16" viewBox="0 0 35 16" fill="none" xmlns="http://www.w3.org/2000/svg">
<rect width="35" height="16" rx="8" fill="#F15A24"/>
<path d="M11.0507 7.916C11.8747 8.188 12.2267 8.748 12.2267 9.46C12.2267 10.684 11.3947 11.324 10.0027 11.324H7.14669V4.796H9.69069C11.0747 4.796 11.9147 5.436 11.9147 6.628C11.9147 7.172 11.6747 7.652 11.0507 7.916ZM9.68269 5.708H8.17869V7.604H9.68269C10.4747 7.604 10.8987 7.244 10.8987 6.644C10.8987 6.028 10.4747 5.708 9.68269 5.708ZM8.17869 10.412H9.99469C10.7867 10.412 11.2107 10.068 11.2107 9.436C11.2107 8.82 10.7867 8.452 9.99469 8.452H8.17869V10.412ZM14.2021 8.412V10.412H17.4261V11.324H13.1701V4.796H17.3461V5.708H14.2021V7.5H17.1941V8.412H14.2021ZM18.0133 9.74L18.8853 9.308C19.2053 10.068 19.8533 10.508 20.7093 10.508C21.5573 10.508 22.0853 10.188 22.0853 9.604C22.0853 9.068 21.7413 8.812 21.1173 8.636L20.1573 8.372C19.2933 8.132 18.3813 7.652 18.3813 6.516C18.3813 5.372 19.3573 4.676 20.6293 4.676C21.8613 4.676 22.7173 5.388 23.0693 6.244L22.2053 6.676C21.9173 6.068 21.3973 5.612 20.6293 5.612C19.8533 5.612 19.3973 5.948 19.3973 6.516C19.3973 7.076 19.8293 7.3 20.3893 7.452L21.3253 7.708C22.1973 7.948 23.1013 8.452 23.1013 9.604C23.1013 10.764 22.0453 11.444 20.7093 11.444C19.3973 11.444 18.4293 10.804 18.0133 9.74ZM23.6061 4.796H28.8061V5.732H26.7261V11.324H25.6941V5.732H23.6061V4.796Z" fill="white"/>
</svg>
