<svg width="16" height="17" viewBox="0 0 16 17" fill="none" xmlns="http://www.w3.org/2000/svg">
<circle cx="8" cy="8.08398" r="8" fill="#1C3249"/>
<path d="M4 6.28571V5.42857C4 4.956 4.38457 4.57143 4.85714 4.57143H5.14286V4.28571C5.14286 4.128 5.27086 4 5.42857 4C5.58629 4 5.71429 4.128 5.71429 4.28571V4.57143H6.85714V4.28571C6.85714 4.128 6.98514 4 7.14286 4C7.30057 4 7.42857 4.128 7.42857 4.28571V4.57143H8.57143V4.28571C8.57143 4.128 8.69943 4 8.85714 4C9.01486 4 9.14286 4.128 9.14286 4.28571V4.57143H10.2857V4.28571C10.2857 4.128 10.4137 4 10.5714 4C10.7291 4 10.8571 4.128 10.8571 4.28571V4.57143H11.1429C11.6154 4.57143 12 4.956 12 5.42857V6.28571H4ZM4 6.85714V11.1429C4 11.6154 4.38457 12 4.85714 12H11.1429C11.6154 12 12 11.6154 12 11.1429V6.85714H4Z" fill="white"/>
</svg>
