<svg width="16" height="16" viewBox="0 0 16 16" fill="none" xmlns="http://www.w3.org/2000/svg">
<circle cx="8" cy="8" r="8" fill="#1C3249"/>
<path d="M12.8364 10.6663C12.7959 10.7113 12.7419 10.7358 12.6879 10.7481L11.8463 10.8954L12.4269 12.0572C12.4989 12.1758 12.4359 12.3231 12.3009 12.3804L11.3378 12.7936C11.2972 12.8181 11.2612 12.8181 11.2207 12.8181C11.1217 12.8181 11.0272 12.769 10.9822 12.679L10.4016 11.5213L9.73108 12.0163C9.68607 12.049 9.63206 12.0695 9.56456 12.0695C9.41604 12.0695 9.29903 11.959 9.29903 11.824V8.15448C9.29903 8.01948 9.41604 7.90902 9.56456 7.90902C9.63206 7.90902 9.69507 7.92948 9.74908 7.96221L12.7959 10.3186C12.9174 10.4127 12.9309 10.5681 12.8364 10.6663ZM7.94888 9.54539V7.49993H5.69863V9.54539H7.94888ZM11.0992 4.6363H10.6492V3.81812H9.74908V4.6363H6.14868V3.81812H5.24859V4.6363H4.79854C4.29898 4.6363 3.89844 5.00448 3.89844 5.45448V11.1818C3.89844 11.6318 4.29898 11.9999 4.79854 11.9999H8.39893V11.1818H4.79854V6.68175H11.0992V7.93357L11.9993 8.62902V5.45448C11.9993 5.00448 11.5943 4.6363 11.0992 4.6363Z" fill="white"/>
</svg>
