<svg width="10" height="10" viewBox="0 0 10 10" fill="none" xmlns="http://www.w3.org/2000/svg">
<path d="M2.53512 10H1.01404C0.459186 10 0 9.55577 0 8.99811V5.2552C0 4.707 0.449619 4.25331 1.01404 4.25331H2.53512C2.81255 4.25331 3.04214 4.48016 3.04214 4.75426V9.49905C3.04214 9.77316 2.81255 10 2.53512 10ZM1.01404 5.2552V8.99811H2.02808V5.2552H1.01404Z" fill="#8E8E8E"/>
<path d="M8.98303 3.75237H6.64882L7.24193 1.97542C7.50979 1.19092 7.0793 0.340252 6.28529 0.0756018C6.13223 0.0283427 5.9696 0 5.80697 0H5.19473C4.61118 0 4.07544 0.340269 3.82671 0.860118L2.07607 4.53686C2.04737 4.60302 2.02822 4.67864 2.02822 4.75426V9.49905C2.02822 9.77316 2.2577 10 2.53512 10H7.66286C8.38034 10 8.99258 9.50851 9.14564 8.81852L9.97794 4.97166C10.0927 4.43291 9.74832 3.90361 9.20304 3.79018C9.13607 3.77128 9.05957 3.77126 8.9926 3.77126L8.98303 3.75237Z" fill="#8E8E8E"/>
</svg>
