<svg width="40" height="40" viewBox="0 0 40 40" fill="none" xmlns="http://www.w3.org/2000/svg">
<path d="M15.4674 19.2772C18.5446 18.5498 20.4494 15.4656 19.722 12.3885C18.9947 9.31136 15.9105 7.40651 12.8334 8.13389C9.75623 8.86127 7.85138 11.9454 8.57876 15.0226C9.30614 18.0997 12.3903 20.0046 15.4674 19.2772Z" fill="#FFFFFF"/>
<path d="M14.2628 32.015C17.3701 32.015 24.1741 31.8721 24.1741 27.335C24.1741 24.8116 21.9477 22.9509 19.9103 21.8675C18.3241 21.0237 16.3778 20.495 14.2628 20.495C8.68281 20.495 4.35156 24.1737 4.35156 27.335C4.35156 29.0787 5.63406 32.015 14.2628 32.015Z" fill="#FFFFFF"/>
<path d="M23.6105 21.6965C24.6703 22.6606 25.5511 23.8407 26.0169 25.1525C26.387 26.1953 26.5479 27.3575 26.3094 28.4487C26.6469 28.46 26.9956 28.4712 27.3556 28.4712C34.6794 28.4712 35.7706 25.9175 35.7706 24.3987C35.7706 21.3837 31.6756 18.5375 27.3556 18.5375C25.0944 18.5375 23.1031 19.2575 21.6406 20.2587C22.3258 20.6547 22.9974 21.1385 23.6105 21.6965Z" fill="#FFFFFF"/>
<path d="M27.2664 17.2549C29.9889 17.2549 32.2052 15.0387 32.2052 12.3162C32.2052 9.59369 29.9889 7.37744 27.2664 7.37744C24.5439 7.37744 22.3164 9.59369 22.3164 12.3162C22.3164 15.0387 24.5327 17.2549 27.2664 17.2549Z" fill="#FFFFFF"/>
</svg>
