<svg width="26" height="26" viewBox="0 0 26 26" fill="none" xmlns="http://www.w3.org/2000/svg">
<path d="M0 7.42857V4.64286C0 3.107 1.24986 1.85714 2.78571 1.85714H3.71429V0.928571C3.71429 0.416 4.13029 0 4.64286 0C5.15543 0 5.57143 0.416 5.57143 0.928571V1.85714H9.28571V0.928571C9.28571 0.416 9.70171 0 10.2143 0C10.7269 0 11.1429 0.416 11.1429 0.928571V1.85714H14.8571V0.928571C14.8571 0.416 15.2731 0 15.7857 0C16.2983 0 16.7143 0.416 16.7143 0.928571V1.85714H20.4286V0.928571C20.4286 0.416 20.8446 0 21.3571 0C21.8697 0 22.2857 0.416 22.2857 0.928571V1.85714H23.2143C24.7501 1.85714 26 3.107 26 4.64286V7.42857H0ZM0 9.28571V23.2143C0 24.7501 1.24986 26 2.78571 26H23.2143C24.7501 26 26 24.7501 26 23.2143V9.28571H0Z" fill="#275085"/>
</svg>
