<svg width="40" height="40" viewBox="0 0 40 40" fill="none" xmlns="http://www.w3.org/2000/svg">
<path d="M7 14.4286V11.6429C7 10.107 8.24986 8.85714 9.78571 8.85714H10.7143V7.92857C10.7143 7.416 11.1303 7 11.6429 7C12.1554 7 12.5714 7.416 12.5714 7.92857V8.85714H16.2857V7.92857C16.2857 7.416 16.7017 7 17.2143 7C17.7269 7 18.1429 7.416 18.1429 7.92857V8.85714H21.8571V7.92857C21.8571 7.416 22.2731 7 22.7857 7C23.2983 7 23.7143 7.416 23.7143 7.92857V8.85714H27.4286V7.92857C27.4286 7.416 27.8446 7 28.3571 7C28.8697 7 29.2857 7.416 29.2857 7.92857V8.85714H30.2143C31.7501 8.85714 33 10.107 33 11.6429V14.4286H7ZM7 16.2857V30.2143C7 31.7501 8.24986 33 9.78571 33H30.2143C31.7501 33 33 31.7501 33 30.2143V16.2857H7Z" fill="#ffffff"/>
</svg>
