<svg width="26" height="27" viewBox="0 0 26 27" fill="none" xmlns="http://www.w3.org/2000/svg">
<path d="M25.79 25.4589L20.713 19.3189H23.4732C23.8849 19.3189 24.2604 19.11 24.4439 18.7811C24.6259 18.4509 24.584 18.0576 24.3341 17.7649L19.0548 11.581H20.5844C20.9889 11.581 21.3586 11.3798 21.545 11.06C21.7313 10.7402 21.7038 10.3546 21.4713 10.0592L13.8882 0.386893C13.4838 -0.128964 12.5189 -0.128964 12.1131 0.386893L4.52999 10.0592C4.29744 10.3546 4.27 10.7402 4.45632 11.06C4.64409 11.3798 5.01386 11.581 5.41829 11.581H6.9479L1.6672 17.7649C1.41732 18.0576 1.37543 18.4509 1.55742 18.7811C1.74086 19.11 2.1164 19.3189 2.52806 19.3189H5.28829L0.211246 25.4589C-0.0314119 25.7529 -0.0675217 26.1437 0.115916 26.4687C0.299354 26.7949 0.673453 27 1.08222 27H24.9147C25.3235 27 25.6976 26.7949 25.881 26.4687C26.0688 26.1424 26.0312 25.7516 25.79 25.4589Z" fill="#275085"/>
</svg>
