<svg width="40" height="40" viewBox="0 0 40 40" fill="none" xmlns="http://www.w3.org/2000/svg">
<path d="M31.219 23.0841C29.9828 24.5744 24.5458 29.0345 21.7179 31.3189C20.7115 32.1348 19.2729 32.1348 18.2664 31.3189C15.4386 29.0345 10.007 24.5744 8.76538 23.0841C6.87283 20.816 5.99219 18.6567 5.99219 16.307C5.99219 14.0117 6.77984 11.9013 8.21293 10.3566C9.6679 8.7956 11.6534 7.93079 13.814 7.93079C15.4331 7.93079 16.9099 8.44206 18.2118 9.44285C18.89 9.97045 19.4917 10.5905 19.9894 11.2921C20.4927 10.5959 21.0889 9.97045 21.7671 9.44285C23.0689 8.43662 24.5513 7.93079 26.1703 7.93079C28.3364 7.93079 30.3219 8.7956 31.7714 10.3566C33.199 11.9013 33.9922 14.0063 33.9922 16.307C33.9976 18.6567 33.117 20.816 31.219 23.0841Z" fill="#B3B3B3"/>
</svg>
