<svg width="40" height="40" viewBox="0 0 40 40" fill="none" xmlns="http://www.w3.org/2000/svg">
<path d="M34.9427 11.139C34.8124 10.2679 34.3743 9.47226 33.7078 8.89638C33.0413 8.32051 32.1905 8.0025 31.3097 8H8.68769C7.80687 8.0025 6.9561 8.32051 6.2896 8.89638C5.6231 9.47226 5.18499 10.2679 5.05469 11.139L19.9987 20.809L34.9427 11.139Z" fill="#FFFFFF"/>
<path d="M20.543 22.8401C20.3812 22.9447 20.1927 23.0004 20 23.0004C19.8073 23.0004 19.6188 22.9447 19.457 22.8401L5 13.4861V28.3111C5.00106 29.2892 5.39006 30.2269 6.08165 30.9185C6.77324 31.61 7.71094 31.999 8.689 32.0001H31.311C32.2891 31.999 33.2268 31.61 33.9183 30.9185C34.6099 30.2269 34.9989 29.2892 35 28.3111V13.4851L20.543 22.8401Z" fill="#FFFFFF"/>
</svg>
