<svg width="41" height="40" viewBox="0 0 41 40" fill="none" xmlns="http://www.w3.org/2000/svg">
<g clip-path="url(#clip0_1249_675)">
<path d="M32.1094 34.1211V30.5469C32.1094 30.0611 31.7163 29.668 31.2305 29.668H10.1367C9.65092 29.668 9.25781 30.0611 9.25781 30.5469V34.1211C9.25781 34.6069 9.65092 35 10.1367 35H31.2305C31.7163 35 32.1094 34.6069 32.1094 34.1211Z" fill="#B3B3B3"/>
<path d="M20.6836 5C13.4138 5 7.5 10.9723 7.5 18.2422C7.5 21.9938 9.06533 25.4429 11.7511 27.9102H12.8624C13.2707 25.9068 15.0459 24.3945 17.168 24.3945H19.8047V22.6367H17.168C16.8633 22.6367 16.5809 22.4788 16.4204 22.2196C16.2599 21.9604 16.2453 21.6368 16.3818 21.3647L17.5036 19.1211H17.168C16.8633 19.1211 16.5809 18.9632 16.4204 18.704C16.2599 18.4447 16.2453 18.1212 16.3818 17.8491L19.8974 10.8178C20.1961 10.2222 21.1711 10.2222 21.4698 10.8178L24.9854 17.8491C25.1219 18.1212 25.1073 18.4447 24.9468 18.704C24.7863 18.9632 24.5039 19.1211 24.1992 19.1211H23.8636L24.9854 21.3647C25.1219 21.6368 25.1073 21.9604 24.9468 22.2196C24.7863 22.4788 24.5039 22.6367 24.1992 22.6367H21.5625V24.3945H24.1992C26.3213 24.3945 28.0965 25.9068 28.5048 27.9102H29.6161C32.3019 25.4429 33.8672 21.9938 33.8672 18.2422C33.8672 10.9723 27.9534 5 20.6836 5ZM11.8945 17.3633C11.4091 17.3633 11.0156 16.9698 11.0156 16.4844C11.0156 15.9989 11.4091 15.6055 11.8945 15.6055C12.3799 15.6055 12.7734 15.9989 12.7734 16.4844C12.7734 16.9698 12.3799 17.3633 11.8945 17.3633ZM13.6523 22.6367C13.167 22.6367 12.7734 22.2432 12.7734 21.7578C12.7734 21.2723 13.167 20.8789 13.6523 20.8789C14.1377 20.8789 14.5312 21.2723 14.5312 21.7578C14.5312 22.2432 14.1377 22.6367 13.6523 22.6367ZM15.4102 12.0898C14.9248 12.0898 14.5312 11.6963 14.5312 11.2109C14.5312 10.7255 14.9248 10.332 15.4102 10.332C15.8955 10.332 16.2891 10.7255 16.2891 11.2109C16.2891 11.6963 15.8955 12.0898 15.4102 12.0898ZM25.957 12.0898C25.4716 12.0898 25.0781 11.6963 25.0781 11.2109C25.0781 10.7255 25.4716 10.332 25.957 10.332C26.4424 10.332 26.8359 10.7255 26.8359 11.2109C26.8359 11.6963 26.4424 12.0898 25.957 12.0898ZM27.7148 22.6367C27.2295 22.6367 26.8359 22.2432 26.8359 21.7578C26.8359 21.2723 27.2295 20.8789 27.7148 20.8789C28.2002 20.8789 28.5938 21.2723 28.5938 21.7578C28.5938 22.2432 28.2002 22.6367 27.7148 22.6367ZM29.4727 17.3633C28.9873 17.3633 28.5938 16.9698 28.5938 16.4844C28.5938 15.9989 28.9873 15.6055 29.4727 15.6055C29.958 15.6055 30.3516 15.9989 30.3516 16.4844C30.3516 16.9698 29.958 17.3633 29.4727 17.3633Z" fill="#B3B3B3"/>
<path d="M24.2014 26.1523H17.1701C16.0258 26.1523 15.0594 26.8893 14.6953 27.9102H26.6762C26.3122 26.8893 25.3457 26.1523 24.2014 26.1523Z" fill="#B3B3B3"/>
<path d="M18.5938 20.8788H22.7806L21.6587 18.6352C21.3659 18.0513 21.7941 17.3632 22.445 17.3632H22.7806L20.6872 13.1764L18.5938 17.3632H18.9294C19.5802 17.3632 20.0085 18.0513 19.7156 18.6352L18.5938 20.8788Z" fill="#B3B3B3"/>
</g>
<defs>
<clipPath id="clip0_1249_675">
<rect width="40" height="40" fill="white" transform="translate(0.5)"/>
</clipPath>
</defs>
</svg>
