<svg width="40" height="41" viewBox="0 0 40 41" fill="none" xmlns="http://www.w3.org/2000/svg">
<path d="M32.79 31.9589L27.713 25.8189H30.4732C30.8849 25.8189 31.2604 25.61 31.4439 25.2811C31.6259 24.9509 31.584 24.5576 31.3341 24.2649L26.0548 18.081H27.5844C27.9889 18.081 28.3586 17.8798 28.545 17.56C28.7313 17.2402 28.7038 16.8546 28.4713 16.5592L20.8882 6.88689C20.4838 6.37104 19.5189 6.37104 19.1131 6.88689L11.53 16.5592C11.2974 16.8546 11.27 17.2402 11.4563 17.56C11.6441 17.8798 12.0139 18.081 12.4183 18.081H13.9479L8.6672 24.2649C8.41732 24.5576 8.37543 24.9509 8.55742 25.2811C8.74086 25.61 9.1164 25.8189 9.52806 25.8189H12.2883L7.21125 31.9589C6.96859 32.2529 6.93248 32.6437 7.11592 32.9687C7.29935 33.2949 7.67345 33.5 8.08222 33.5H31.9147C32.3235 33.5 32.6976 33.2949 32.881 32.9687C33.0688 32.6424 33.0312 32.2516 32.79 31.9589Z" fill="#B3B3B3"/>
</svg>
