<svg width="40" height="40" viewBox="0 0 40 40" fill="none" xmlns="http://www.w3.org/2000/svg">
<path d="M32.79 32.4589L27.713 26.3189H30.4732C30.8849 26.3189 31.2604 26.11 31.4439 25.7811C31.6259 25.4509 31.584 25.0576 31.3341 24.7649L26.0548 18.581H27.5844C27.9889 18.581 28.3586 18.3798 28.545 18.06C28.7313 17.7402 28.7038 17.3546 28.4713 17.0592L20.8882 7.38689C20.4838 6.87104 19.5189 6.87104 19.1131 7.38689L11.53 17.0592C11.2974 17.3546 11.27 17.7402 11.4563 18.06C11.6441 18.3798 12.0139 18.581 12.4183 18.581H13.9479L8.6672 24.7649C8.41732 25.0576 8.37543 25.4509 8.55742 25.7811C8.74086 26.11 9.1164 26.3189 9.52806 26.3189H12.2883L7.21125 32.4589C6.96859 32.7529 6.93248 33.1437 7.11592 33.4687C7.29935 33.7949 7.67345 34 8.08222 34H31.9147C32.3235 34 32.6976 33.7949 32.881 33.4687C33.0688 33.1424 33.0312 32.7516 32.79 32.4589Z" fill="white"/>
</svg>
