<svg width="40" height="40" viewBox="0 0 40 40" fill="none" xmlns="http://www.w3.org/2000/svg">
<path d="M32.79 31.4589L27.713 25.3189H30.4732C30.8849 25.3189 31.2604 25.11 31.4439 24.7811C31.6259 24.4509 31.584 24.0576 31.3341 23.7649L26.0548 17.581H27.5844C27.9889 17.581 28.3586 17.3798 28.545 17.06C28.7313 16.7402 28.7038 16.3546 28.4713 16.0592L20.8882 6.38689C20.4838 5.87104 19.5189 5.87104 19.1131 6.38689L11.53 16.0592C11.2974 16.3546 11.27 16.7402 11.4563 17.06C11.6441 17.3798 12.0139 17.581 12.4183 17.581H13.9479L8.6672 23.7649C8.41732 24.0576 8.37543 24.4509 8.55742 24.7811C8.74086 25.11 9.1164 25.3189 9.52806 25.3189H12.2883L7.21125 31.4589C6.96859 31.7529 6.93248 32.1437 7.11592 32.4687C7.29935 32.7949 7.67345 33 8.08222 33H31.9147C32.3235 33 32.6976 32.7949 32.881 32.4687C33.0688 32.1424 33.0312 31.7516 32.79 31.4589Z" fill="#B3B3B3"/>
</svg>
