<svg width="40" height="40" viewBox="0 0 40 40" fill="none" xmlns="http://www.w3.org/2000/svg">
<path d="M5 10.6665C5 9.19385 6.19385 8 7.66655 8H31.6655C33.1382 8 34.332 9.19385 34.332 10.6665C34.332 12.1392 33.1382 13.3331 31.6655 13.3331H7.66655C6.19385 13.3331 5 12.1392 5 10.6665Z" fill="#EBEBEB"/>
<path d="M5 19.9994C5 18.5267 6.19385 17.3329 7.66655 17.3329H31.6655C33.1382 17.3329 34.332 18.5267 34.332 19.9994C34.332 21.4722 33.1382 22.666 31.6655 22.666H7.66655C6.19385 22.666 5 21.4722 5 19.9994Z" fill="#EBEBEB"/>
<path d="M7.66655 26.6659C6.19385 26.6659 5 27.8597 5 29.3324C5 30.8052 6.19385 31.999 7.66655 31.999H31.6655C33.1382 31.999 34.332 30.8052 34.332 29.3324C34.332 27.8597 33.1382 26.6659 31.6655 26.6659H7.66655Z" fill="#EBEBEB"/>
</svg>
