<svg width="44" height="44" viewBox="0 0 44 44" fill="none" xmlns="http://www.w3.org/2000/svg">
<path d="M22.16 31.88L22 32.04L21.824 31.88C14.224 24.984 9.2 20.424 9.2 15.8C9.2 12.6 11.6 10.2 14.8 10.2C17.264 10.2 19.664 11.8 20.512 13.976H23.488C24.336 11.8 26.736 10.2 29.2 10.2C32.4 10.2 34.8 12.6 34.8 15.8C34.8 20.424 29.776 24.984 22.16 31.88ZM29.2 7C26.416 7 23.744 8.296 22 10.328C20.256 8.296 17.584 7 14.8 7C9.872 7 6 10.856 6 15.8C6 21.832 11.44 26.776 19.68 34.248L22 36.36L24.32 34.248C32.56 26.776 38 21.832 38 15.8C38 10.856 34.128 7 29.2 7Z" fill="#F15A24"/>
</svg>
