<svg width="41" height="40" viewBox="0 0 41 40" fill="none" xmlns="http://www.w3.org/2000/svg">
<path d="M19.5098 23.7757C19.033 23.7757 18.5847 23.5899 18.2469 23.2527C15.5792 20.5849 15.5792 16.244 18.2469 13.5763L21.8222 10.0011C23.1125 8.71064 24.8307 8 26.6606 8C28.4904 8 30.2086 8.71064 31.4988 10.0011C34.1666 12.6688 34.1666 17.0097 31.4988 19.6774L29.1154 22.0608C28.7782 22.3982 28.3299 22.584 27.8525 22.5841C27.3757 22.5841 26.9274 22.3983 26.5896 22.0611C26.2524 21.7238 26.0663 21.2752 26.0663 20.798C26.0663 20.3209 26.2523 19.8724 26.5896 19.535L28.973 17.1516C30.2481 15.8766 30.2481 13.802 28.973 12.5271C28.3567 11.9108 27.5351 11.5712 26.6606 11.5712C25.786 11.5712 24.9645 11.9108 24.3481 12.5271L20.7728 16.1022C19.4976 17.3771 19.4976 19.4517 20.7728 20.7266C21.4693 21.423 21.4693 22.5562 20.7728 23.2526C20.4349 23.59 19.9866 23.7757 19.5098 23.7757Z" fill="white"/>
<path d="M15.3391 32.9999C13.5092 32.9999 11.791 32.2893 10.5008 30.9988C7.83307 28.3311 7.83307 23.9902 10.5008 21.3225L12.2888 19.5348C12.626 19.1976 13.0749 19.0118 13.5517 19.0118C14.0285 19.0118 14.4774 19.1977 14.8146 19.5351C15.1519 19.8723 15.3379 20.3208 15.3379 20.7979C15.3379 21.2751 15.1519 21.7237 14.8146 22.061L13.0266 23.8486C11.7515 25.1234 11.7515 27.1979 13.0266 28.4728C13.643 29.0892 14.4646 29.4287 15.3391 29.4287C16.2136 29.4287 17.0352 29.0893 17.6515 28.4728L21.2269 24.8977C22.502 23.6228 22.502 21.5483 21.2269 20.2733C20.8896 19.936 20.7035 19.4874 20.7035 19.0103C20.7035 18.5333 20.8896 18.0847 21.2269 17.7474C21.5641 17.41 22.013 17.2244 22.4898 17.2244C22.9666 17.2244 23.4155 17.41 23.7527 17.7472C26.4204 20.4151 26.4204 24.756 23.7527 27.4237L20.1773 30.9988C18.8871 32.2893 17.1689 32.9999 15.3391 32.9999Z" fill="white"/>
</svg>
