<svg width="41" height="40" viewBox="0 0 41 40" fill="none" xmlns="http://www.w3.org/2000/svg">
<path d="M22.84 23.7924C22.1434 24.2574 21.3343 24.5032 20.5 24.5032C19.6658 24.5032 18.8566 24.2574 18.16 23.7924L6.68643 16.1324C6.62277 16.0899 6.56076 16.0456 6.5 16.0001V28.5517C6.5 29.9908 7.66621 31.1329 9.07759 31.1329H31.9224C33.3594 31.1329 34.4999 29.965 34.4999 28.5517V16C34.4391 16.0457 34.377 16.0901 34.3131 16.1326L22.84 23.7924Z" fill="#D9D9D9"/>
<path d="M7.59648 13.6326L19.0701 21.2925C19.5044 21.5825 20.0022 21.7275 20.4999 21.7275C20.9978 21.7275 21.4956 21.5825 21.9299 21.2925L33.4035 13.6326C34.0901 13.1745 34.5 12.4078 34.5 11.5803C34.5 10.1575 33.3441 9 31.9233 9H9.07671C7.65593 9.00005 6.5 10.1575 6.5 11.5817C6.5 12.4078 6.90994 13.1745 7.59648 13.6326Z" fill="#D9D9D9"/>
</svg>
