<svg width="48" height="48" viewBox="0 0 48 48" fill="none" xmlns="http://www.w3.org/2000/svg">
<path fill-rule="evenodd" clip-rule="evenodd" d="M37.7776 26.9073C36.7427 26.3096 36.1 25.1961 36.1 24.0001C36.1 22.8046 36.7427 21.6911 37.7745 21.094C38.8336 20.4835 39.274 19.2152 38.8215 18.0784C38.2542 16.6424 37.4819 15.3012 36.5315 14.0914C35.7742 13.1283 34.4587 12.876 33.3998 13.4904C32.368 14.0914 31.0826 14.0932 30.0478 13.4949C29.0159 12.8965 28.3763 11.7812 28.3793 10.583C28.3793 9.3573 27.5044 8.34003 26.2946 8.16459C24.7739 7.94378 23.2292 7.945 21.7025 8.16911C20.4957 8.34578 19.6208 9.36246 19.6237 10.5858C19.6237 11.7825 18.984 12.8971 17.9522 13.4949C16.9173 14.0926 15.6351 14.0914 14.6003 13.491C13.5413 12.8766 12.2258 13.1301 11.4685 14.0932C10.9979 14.6934 10.5634 15.335 10.1803 16.0014C9.79707 16.6666 9.46217 17.3638 9.17858 18.0726C8.72297 19.2112 9.16352 20.4813 10.2225 21.0933C11.2574 21.6904 11.9 22.8045 11.9 24C11.9 25.1955 11.2574 26.3087 10.2255 26.9067C9.16654 27.5172 8.72606 28.7849 9.17858 29.9214C9.74583 31.3582 10.5182 32.6995 11.4685 33.9086C12.2258 34.8717 13.5413 35.124 14.6003 34.5096C15.6321 33.9086 16.9174 33.9073 17.9522 34.5051C18.984 35.1035 19.6237 36.2188 19.6237 37.417C19.6207 38.6424 20.4986 39.6596 21.7055 39.8355C22.4628 39.9453 23.2231 40 23.9833 40C24.7558 40 25.5281 39.9437 26.2975 39.8309C27.5043 39.6539 28.3792 38.6381 28.3792 37.4148C28.3762 36.2175 29.0158 35.1028 30.0477 34.5051C31.0825 33.9074 32.3648 33.9086 33.3996 34.509C34.4586 35.1234 35.7741 34.8705 36.5314 33.9067C37.002 33.3063 37.4365 32.6647 37.8197 31.9992C38.1998 31.334 38.5408 30.6367 38.8213 29.9274C39.2771 28.7888 38.8366 27.5183 37.7776 26.9073ZM28.1048 26.3768C27.4742 27.4761 26.4514 28.2628 25.2265 28.5914C24.0046 28.9198 22.7253 28.7514 21.6301 28.1161C19.3673 26.8057 18.5889 23.8936 19.8953 21.6233C20.7702 20.1005 22.3693 19.2481 24.0076 19.2481C24.8131 19.2481 25.6248 19.4526 26.3699 19.884C28.6327 21.1941 29.4112 24.1071 28.1048 26.3768Z" fill="#EBEBEB"/>
</svg>
