<svg width="40" height="40" viewBox="0 0 40 40" fill="none" xmlns="http://www.w3.org/2000/svg">
<path fill-rule="evenodd" clip-rule="evenodd" d="M19.0402 8.68738C19.3244 8.80576 19.5673 9.00615 19.7381 9.26321C19.9089 9.52028 20 9.82246 20 10.1316V28.8873C19.9999 29.1964 19.9087 29.4985 19.7377 29.7555C19.5668 30.0125 19.3239 30.2127 19.0397 30.331C18.7555 30.4493 18.4428 30.4802 18.1411 30.4199C17.8394 30.3596 17.5622 30.2108 17.3447 29.9923L11.5782 24.1983H7.55556C7.14299 24.1983 6.74734 24.0338 6.45561 23.7405C6.16389 23.4475 6 23.0499 6 22.6354V16.3835C6 15.9689 6.16389 15.5714 6.45561 15.2783C6.74734 14.9852 7.14299 14.8205 7.55556 14.8205H11.5782L17.3447 9.02655C17.5622 8.80782 17.8394 8.65887 18.1412 8.5985C18.443 8.53812 18.7559 8.56905 19.0402 8.68738ZM27.2442 8.45762C27.5359 8.16461 27.9315 8 28.344 8C28.7565 8 29.1521 8.16461 29.4438 8.45762C30.8901 9.90752 32.0372 11.6302 32.8192 13.5268C33.601 15.4234 34.0023 17.4566 34 19.5094C34.0023 21.5624 33.601 23.5955 32.8192 25.492C32.0372 27.3887 30.8901 29.1114 29.4438 30.5612C29.1504 30.846 28.7575 31.0035 28.3496 30.9999C27.9417 30.9963 27.5516 30.8319 27.2632 30.5421C26.9748 30.2524 26.8111 29.8604 26.8076 29.4506C26.804 29.0407 26.9608 28.6459 27.2442 28.3512C28.4017 27.1916 29.3196 25.8134 29.9451 24.296C30.5708 22.7785 30.8914 21.1518 30.8889 19.5094C30.8889 16.0553 29.4982 12.9324 27.2442 10.6677C26.9525 10.3746 26.7887 9.97709 26.7887 9.56265C26.7887 9.14819 26.9525 8.75071 27.2442 8.45762ZM22.8435 12.8777C22.9881 12.7324 23.1596 12.6171 23.3485 12.5385C23.5373 12.4598 23.7397 12.4193 23.9441 12.4193C24.1485 12.4193 24.3509 12.4598 24.5397 12.5385C24.7286 12.6171 24.9001 12.7324 25.0447 12.8777C25.9125 13.7478 26.6007 14.7815 27.0697 15.9196C27.5387 17.0577 27.7793 18.2776 27.7778 19.5094C27.7793 20.7412 27.5387 21.9611 27.0695 23.0992C26.6005 24.2373 25.9123 25.271 25.0447 26.1411C24.7528 26.4345 24.3569 26.5992 23.9441 26.5992C23.5313 26.5992 23.1354 26.4345 22.8435 26.1411C22.5517 25.8479 22.3876 25.4501 22.3876 25.0353C22.3876 24.6206 22.5517 24.2229 22.8435 23.9295C23.4225 23.35 23.8816 22.661 24.1945 21.9025C24.5074 21.1438 24.6679 20.3306 24.6667 19.5094C24.6679 18.6883 24.5075 17.875 24.1945 17.1164C23.8817 16.3578 23.4225 15.6689 22.8435 15.0893C22.6989 14.9442 22.5842 14.7718 22.5058 14.5821C22.4276 14.3923 22.3873 14.1889 22.3873 13.9835C22.3873 13.7781 22.4276 13.5747 22.5058 13.385C22.5842 13.1953 22.6989 13.0229 22.8435 12.8777Z" fill="#EBEBEB"/>
</svg>
