<svg width="226" height="429" viewBox="0 0 226 429" fill="none" xmlns="http://www.w3.org/2000/svg">
<path d="M124.261 322.58H97.6211V413.69H124.261V322.58Z" fill="#3B3B39"/>
<path d="M4.43129 355.78C9.58129 355.28 18.5113 353.66 21.9213 348.36C21.9213 348.36 24.1013 359.28 36.1213 359.28C48.1413 359.28 51.4113 353.82 51.4113 353.82C51.4113 353.82 61.2413 358.73 67.2413 359.28C73.2413 359.83 88.6613 348.36 88.6613 348.36C88.6613 348.36 90.0413 359.43 103.291 359.3C116.541 359.17 126.711 347.03 126.711 347.03C126.711 347.03 126.381 357.85 140.161 357.85C153.941 357.85 155.251 349.65 155.251 349.65C155.251 349.65 159.191 359.75 168.371 359.29C177.551 358.83 182.801 348.99 182.801 348.99C182.801 348.99 190.341 357.52 196.251 357.19C202.151 356.86 207.071 350.3 207.071 350.3C207.071 350.3 219.551 355.97 224.201 352.55C224.791 352.12 224.901 351.29 224.501 350.68L165.411 259.77H50.6113L2.35129 352.67C1.57129 354.16 2.75129 355.93 4.43129 355.77V355.78Z" fill="#007991"/>
<g filter="url(#filter0_d_1231_574)">
<path d="M50.279 226.93L7.91896 298.54C6.74896 300.52 8.87897 302.81 10.939 301.78L34.289 290.11C34.289 290.11 27.749 309.01 43.659 308.25C59.569 307.49 65.369 297.39 65.369 297.39C65.369 297.39 66.879 309.55 79.759 308.27C92.639 306.99 96.169 297.64 96.169 297.64C96.169 297.64 96.419 311.02 114.349 310.52C132.279 310.02 134.039 291.33 134.039 291.33C134.039 291.33 142.879 306.23 153.229 302.94C163.579 299.66 166.609 286.53 166.609 286.53C166.609 286.53 175.029 300.5 183.769 300.13C192.519 299.77 190.329 286.65 190.329 286.65L210.619 295.49C213.009 296.53 215.279 293.82 213.829 291.65L165.549 219.23L50.269 226.93H50.279Z" fill="#007F8A"/>
</g>
<g filter="url(#filter1_d_1231_574)">
<path d="M106.7 93.8401L47.0001 186.37L13.6401 250.32C12.3501 252.79 14.9801 255.45 17.4701 254.2L48.9601 238.3C48.9601 238.3 53.2501 254.7 69.6501 251.96C86.0501 249.22 92.6801 237.51 92.6801 237.51C92.6801 237.51 96.9701 258.59 114.15 254.3C131.33 250.01 130.55 237.12 130.55 237.12C130.55 237.12 130.16 256.64 147.73 252.74C165.3 248.84 158.66 234.78 158.66 234.78C158.66 234.78 166.08 247.66 176.23 246.1C186.38 244.54 182.48 231.65 182.48 231.65L205.2 247.67C207.06 248.98 209.41 246.86 208.3 244.87L169.6 176.01L106.71 93.8301L106.7 93.8401Z" fill="#00888B"/>
</g>
<g filter="url(#filter2_d_1231_574)">
<path d="M109.521 103.17L54.7508 142.08L21.6908 192.83C20.4308 194.76 22.4808 197.14 24.5808 196.17L45.3108 186.65C45.3108 186.65 44.1808 202.14 56.2608 199.49C68.3508 196.85 69.1008 189.29 69.1008 189.29C69.1008 189.29 71.3708 200.47 84.2108 199.79C97.0508 199.11 99.3208 190.04 99.3208 190.04C99.3208 190.04 99.3208 203.64 112.161 201.37C125.001 199.1 125.761 183.24 125.761 183.24C125.761 183.24 131.051 207.04 151.071 203.26C171.091 199.48 162.021 181.35 162.021 181.35L196.991 197.75C199.251 198.81 201.501 196.27 200.171 194.15L149.181 112.98L109.521 103.16V103.17Z" fill="#00877C"/>
</g>
<g filter="url(#filter3_d_1231_574)">
<path d="M110.592 32.3999L31.562 150.1C30.332 151.94 32.362 154.2 34.322 153.17L54.042 142.83C54.042 142.83 66.512 149.95 74.972 145.5C83.432 141.05 87.442 136.06 87.442 136.06C87.442 136.06 93.352 146.87 105.622 144.57C117.892 142.27 121.502 133.11 121.502 133.11C121.502 133.11 128.382 143.26 138.532 142.28C148.682 141.3 153.922 129.18 153.922 129.18C153.922 129.18 158.992 142.99 167.842 142.67L181.522 146.71C182.392 147.23 183.372 146.23 182.822 145.37L110.602 32.3999H110.592Z" fill="#02968E"/>
</g>
<path d="M110.941 0L107.031 24.49L96.0208 15.98L103.421 26.91L84.8008 30.54L103.441 34.52L97.1108 45.61L106.901 39.21L111.501 60.4L115.201 37.93L124.711 45.61L119.521 33.53L137.081 29.82L118.531 26.91L123.971 17.2L113.581 24.49L110.941 0Z" fill="#FEC636"/>
<path d="M188.222 392.77V390.16H33.3125V392.77H37.4625V417H184.502V413.7H184.423V392.78H188.222V392.77ZM39.3625 413.69V392.77H61.6325V413.69H39.3625ZM63.5425 413.69V392.77H85.8125V413.69H63.5425ZM87.7225 413.69V392.77H109.993V413.69H87.7225ZM111.902 413.69V392.77H134.173V413.69H111.902ZM136.083 413.69V392.77H158.353V413.69H136.083ZM160.262 413.69V392.77H182.533V413.69H160.262Z" fill="#1A1A1A"/>
<path d="M79.9022 107.57C83.1662 107.57 85.8122 104.924 85.8122 101.66C85.8122 98.396 83.1662 95.75 79.9022 95.75C76.6382 95.75 73.9922 98.396 73.9922 101.66C73.9922 104.924 76.6382 107.57 79.9022 107.57Z" fill="#62C5FE"/>
<path d="M134.16 127.71C137.424 127.71 140.07 125.064 140.07 121.8C140.07 118.536 137.424 115.89 134.16 115.89C130.896 115.89 128.25 118.536 128.25 121.8C128.25 125.064 130.896 127.71 134.16 127.71Z" fill="#F15A24"/>
<path d="M57.8709 171.91C61.1349 171.91 63.7809 169.264 63.7809 166C63.7809 162.736 61.1349 160.09 57.8709 160.09C54.6069 160.09 51.9609 162.736 51.9609 166C51.9609 169.264 54.6069 171.91 57.8709 171.91Z" fill="#FFB3B3"/>
<path d="M151.68 228.53C154.944 228.53 157.59 225.884 157.59 222.62C157.59 219.356 154.944 216.71 151.68 216.71C148.416 216.71 145.77 219.356 145.77 222.62C145.77 225.884 148.416 228.53 151.68 228.53Z" fill="#F49D47"/>
<path d="M80.4309 183.89C82.6235 183.89 84.4009 182.113 84.4009 179.92C84.4009 177.727 82.6235 175.95 80.4309 175.95C78.2384 175.95 76.4609 177.727 76.4609 179.92C76.4609 182.113 78.2384 183.89 80.4309 183.89Z" fill="white"/>
<path d="M53.9505 131.68C56.143 131.68 57.9205 129.903 57.9205 127.71C57.9205 125.517 56.143 123.74 53.9505 123.74C51.7579 123.74 49.9805 125.517 49.9805 127.71C49.9805 129.903 51.7579 131.68 53.9505 131.68Z" fill="#F9D366"/>
<path d="M123.72 153.43C125.913 153.43 127.69 151.653 127.69 149.46C127.69 147.267 125.913 145.49 123.72 145.49C121.527 145.49 119.75 147.267 119.75 149.46C119.75 151.653 121.527 153.43 123.72 153.43Z" fill="#F9D366"/>
<path d="M76.4609 121.61C77.4274 121.61 78.2109 120.826 78.2109 119.86C78.2109 118.893 77.4274 118.11 76.4609 118.11C75.4944 118.11 74.7109 118.893 74.7109 119.86C74.7109 120.826 75.4944 121.61 76.4609 121.61Z" fill="white"/>
<path d="M122.352 283.72C123.318 283.72 124.102 282.936 124.102 281.97C124.102 281.003 123.318 280.22 122.352 280.22C121.385 280.22 120.602 281.003 120.602 281.97C120.602 282.936 121.385 283.72 122.352 283.72Z" fill="white"/>
<path d="M90.6292 66.7599C92.3855 66.7599 93.8092 65.3362 93.8092 63.5799C93.8092 61.8236 92.3855 60.3999 90.6292 60.3999C88.873 60.3999 87.4492 61.8236 87.4492 63.5799C87.4492 65.3362 88.873 66.7599 90.6292 66.7599Z" fill="white"/>
<path d="M145.231 115.89C146.987 115.89 148.411 114.466 148.411 112.71C148.411 110.954 146.987 109.53 145.231 109.53C143.475 109.53 142.051 110.954 142.051 112.71C142.051 114.466 143.475 115.89 145.231 115.89Z" fill="white"/>
<path d="M140.301 93.23C141.267 93.23 142.051 92.4465 142.051 91.48C142.051 90.5135 141.267 89.73 140.301 89.73C139.334 89.73 138.551 90.5135 138.551 91.48C138.551 92.4465 139.334 93.23 140.301 93.23Z" fill="#F9D366"/>
<path d="M26.9309 238.59C29.1235 238.59 30.9009 236.812 30.9009 234.62C30.9009 232.427 29.1235 230.65 26.9309 230.65C24.7384 230.65 22.9609 232.427 22.9609 234.62C22.9609 236.812 24.7384 238.59 26.9309 238.59Z" fill="#F9D366"/>
<path d="M185.751 263.74C187.944 263.74 189.721 261.963 189.721 259.77C189.721 257.578 187.944 255.8 185.751 255.8C183.559 255.8 181.781 257.578 181.781 259.77C181.781 261.963 183.559 263.74 185.751 263.74Z" fill="#F9D366"/>
<path d="M151.681 330.39C153.873 330.39 155.651 328.612 155.651 326.42C155.651 324.227 153.873 322.45 151.681 322.45C149.488 322.45 147.711 324.227 147.711 326.42C147.711 328.612 149.488 330.39 151.681 330.39Z" fill="#F9D366"/>
<path d="M84.3997 268.85C86.5923 268.85 88.3697 267.073 88.3697 264.88C88.3697 262.687 86.5923 260.91 84.3997 260.91C82.2071 260.91 80.4297 262.687 80.4297 264.88C80.4297 267.073 82.2071 268.85 84.3997 268.85Z" fill="#F9D366"/>
<path d="M38.1419 274.15C40.3344 274.15 42.1119 272.373 42.1119 270.18C42.1119 267.987 40.3344 266.21 38.1419 266.21C35.9493 266.21 34.1719 267.987 34.1719 270.18C34.1719 272.373 35.9493 274.15 38.1419 274.15Z" fill="white"/>
<path d="M127.689 216.19C129.881 216.19 131.659 214.413 131.659 212.22C131.659 210.027 129.881 208.25 127.689 208.25C125.496 208.25 123.719 210.027 123.719 212.22C123.719 214.413 125.496 216.19 127.689 216.19Z" fill="#F9D366"/>
<path d="M122.349 169.97C124.541 169.97 126.319 168.193 126.319 166C126.319 163.807 124.541 162.03 122.349 162.03C120.156 162.03 118.379 163.807 118.379 166C118.379 168.193 120.156 169.97 122.349 169.97Z" fill="white"/>
<path d="M189.72 180.35C191.913 180.35 193.69 178.572 193.69 176.38C193.69 174.187 191.913 172.41 189.72 172.41C187.527 172.41 185.75 174.187 185.75 176.38C185.75 178.572 187.527 180.35 189.72 180.35Z" fill="white"/>
<path d="M128.262 274.81C131.526 274.81 134.172 272.164 134.172 268.9C134.172 265.636 131.526 262.99 128.262 262.99C124.998 262.99 122.352 265.636 122.352 268.9C122.352 272.164 124.998 274.81 128.262 274.81Z" fill="#FFB3B3"/>
<path d="M93.5789 93.8399C95.2081 93.8399 96.5289 92.5192 96.5289 90.89C96.5289 89.2607 95.2081 87.9399 93.5789 87.9399C91.9497 87.9399 90.6289 89.2607 90.6289 90.89C90.6289 92.5192 91.9497 93.8399 93.5789 93.8399Z" fill="#FFB3B3"/>
<path d="M31.3592 335.57C34.6232 335.57 37.2692 332.924 37.2692 329.66C37.2692 326.396 34.6232 323.75 31.3592 323.75C28.0952 323.75 25.4492 326.396 25.4492 329.66C25.4492 332.924 28.0952 335.57 31.3592 335.57Z" fill="#F49D47"/>
<path d="M147.2 174.92C153.198 174.92 158.06 170.058 158.06 164.06C158.06 158.062 153.198 153.2 147.2 153.2C141.202 153.2 136.34 158.062 136.34 164.06C136.34 170.058 141.202 174.92 147.2 174.92Z" fill="#F9D366"/>
<path d="M52.0394 296.33C56.0048 296.33 59.2194 293.115 59.2194 289.15C59.2194 285.185 56.0048 281.97 52.0394 281.97C48.074 281.97 44.8594 285.185 44.8594 289.15C44.8594 293.115 48.074 296.33 52.0394 296.33Z" fill="#FFB3B3"/>
<path d="M98.8519 340.77C102.817 340.77 106.032 337.555 106.032 333.59C106.032 329.625 102.817 326.41 98.8519 326.41C94.8865 326.41 91.6719 329.625 91.6719 333.59C91.6719 337.555 94.8865 340.77 98.8519 340.77Z" fill="#CEEBFF"/>
<path d="M192.93 335.57C196.895 335.57 200.11 332.355 200.11 328.39C200.11 324.425 196.895 321.21 192.93 321.21C188.965 321.21 185.75 324.425 185.75 328.39C185.75 332.355 188.965 335.57 192.93 335.57Z" fill="#F15A24"/>
<path d="M132.852 84.2101C136.817 84.2101 140.032 80.9955 140.032 77.0301C140.032 73.0647 136.817 69.8501 132.852 69.8501C128.886 69.8501 125.672 73.0647 125.672 77.0301C125.672 80.9955 128.886 84.2101 132.852 84.2101Z" fill="#F9D366"/>
<path d="M72.89 228.43C79.1805 228.43 84.28 223.33 84.28 217.04C84.28 210.749 79.1805 205.65 72.89 205.65C66.5995 205.65 61.5 210.749 61.5 217.04C61.5 223.33 66.5995 228.43 72.89 228.43Z" fill="#F15A24"/>
<path d="M163.07 300.54C169.36 300.54 174.46 295.441 174.46 289.15C174.46 282.86 169.36 277.76 163.07 277.76C156.779 277.76 151.68 282.86 151.68 289.15C151.68 295.441 156.779 300.54 163.07 300.54Z" fill="#62C5FE"/>
<path d="M75.3106 13.7701C76.5206 15.1001 77.2206 19.2001 77.7306 21.4601C78.2406 19.2001 78.9406 15.1001 80.1506 13.7701C81.4306 12.3601 83.1606 11.8001 85.3206 10.9801C82.2506 10.8101 80.8306 9.56012 80.8306 9.56012C78.2706 8.02012 77.7306 2.14014 77.7306 2.14014C77.7306 2.14014 77.1906 8.03012 74.6306 9.56012C74.6306 9.56012 73.2106 10.8101 70.1406 10.9801C72.3006 11.8001 74.0406 12.3601 75.3106 13.7701Z" fill="#CEEBFF"/>
<path d="M5.17 218.12C6.38 219.45 7.08 223.55 7.59 225.81C8.1 223.55 8.8 219.45 10.01 218.12C11.29 216.71 13.02 216.15 15.18 215.33C12.11 215.16 10.69 213.91 10.69 213.91C8.13 212.37 7.59 206.49 7.59 206.49C7.59 206.49 7.05 212.38 4.49 213.91C4.49 213.91 3.07 215.16 0 215.33C2.16 216.15 3.9 216.71 5.17 218.12Z" fill="#CEEBFF"/>
<path d="M56.7989 328.39C58.0089 329.72 58.7089 333.82 59.2189 336.08C59.7289 333.82 60.4289 329.72 61.6389 328.39C62.9189 326.98 64.6489 326.42 66.8089 325.6C63.7389 325.43 62.3189 324.18 62.3189 324.18C59.7589 322.64 59.2189 316.76 59.2189 316.76C59.2189 316.76 58.6789 322.65 56.1189 324.18C56.1189 324.18 54.6989 325.43 51.6289 325.6C53.7889 326.42 55.5289 326.98 56.7989 328.39Z" fill="#CEEBFF"/>
<path d="M106.101 195.82C107.651 197.52 108.551 202.77 109.191 205.66C109.841 202.77 110.741 197.53 112.281 195.82C113.921 194.02 116.141 193.3 118.901 192.25C114.971 192.03 113.151 190.43 113.151 190.43C109.871 188.46 109.181 180.93 109.181 180.93C109.181 180.93 108.491 188.46 105.211 190.43C105.211 190.43 103.391 192.03 99.4609 192.25C102.231 193.3 104.451 194.02 106.081 195.82H106.101Z" fill="#CEEBFF"/>
<path d="M139.782 50.05C140.742 51.11 141.302 54.38 141.712 56.18C142.112 54.38 142.672 51.11 143.642 50.05C144.662 48.93 146.042 48.48 147.772 47.83C145.322 47.69 144.192 46.7 144.192 46.7C142.152 45.48 141.722 40.78 141.722 40.78C141.722 40.78 141.292 45.47 139.252 46.7C139.252 46.7 138.122 47.7 135.672 47.83C137.392 48.48 138.782 48.93 139.802 50.05H139.782Z" fill="#CEEBFF"/>
<path d="M168.272 352.6C170.122 354.64 171.202 360.91 171.972 364.37C172.742 360.91 173.822 354.64 175.672 352.6C177.632 350.45 180.282 349.59 183.592 348.33C178.892 348.07 176.712 346.15 176.712 346.15C172.792 343.8 171.962 334.79 171.962 334.79C171.962 334.79 171.132 343.8 167.212 346.15C167.212 346.15 165.032 348.07 160.332 348.33C163.642 349.59 166.302 350.44 168.252 352.6H168.272Z" fill="#CEEBFF"/>
<path d="M75.8014 290.72C76.7614 291.78 77.3214 295.05 77.7314 296.85C78.1314 295.05 78.6914 291.78 79.6614 290.72C80.6814 289.6 82.0614 289.15 83.7914 288.5C81.3414 288.36 80.2114 287.37 80.2114 287.37C78.1714 286.15 77.7414 281.45 77.7414 281.45C77.7414 281.45 77.3114 286.14 75.2714 287.37C75.2714 287.37 74.1414 288.37 71.6914 288.5C73.4114 289.15 74.8014 289.6 75.8214 290.72H75.8014Z" fill="#CEEBFF"/>
<path d="M45.5514 347.73C46.5114 348.79 47.0714 352.06 47.4814 353.86C47.8814 352.06 48.4414 348.79 49.4114 347.73C50.4314 346.61 51.8114 346.16 53.5414 345.51C51.0914 345.37 49.9614 344.38 49.9614 344.38C47.9214 343.16 47.4914 338.46 47.4914 338.46C47.4914 338.46 47.0614 343.15 45.0214 344.38C45.0214 344.38 43.8914 345.38 41.4414 345.51C43.1614 346.16 44.5514 346.61 45.5714 347.73H45.5514Z" fill="#CEEBFF"/>
<path d="M32.28 103.2C33.22 104.24 33.77 107.44 34.17 109.2C34.56 107.44 35.11 104.24 36.06 103.2C37.06 102.1 38.41 101.67 40.1 101.03C37.7 100.9 36.6 99.9199 36.6 99.9199C34.6 98.7199 34.18 94.1299 34.18 94.1299C34.18 94.1299 33.76 98.7199 31.76 99.9199C31.76 99.9199 30.65 100.9 28.25 101.03C29.94 101.67 31.29 102.11 32.29 103.2H32.28Z" fill="#CEEBFF"/>
<path d="M198.69 158.93C199.63 159.97 200.18 163.17 200.58 164.93C200.97 163.17 201.52 159.97 202.47 158.93C203.47 157.83 204.82 157.4 206.51 156.76C204.11 156.63 203.01 155.65 203.01 155.65C201.01 154.45 200.59 149.86 200.59 149.86C200.59 149.86 200.17 154.45 198.17 155.65C198.17 155.65 197.06 156.63 194.66 156.76C196.35 157.4 197.7 157.84 198.7 158.93H198.69Z" fill="#CEEBFF"/>
<path d="M177.159 243.96C178.629 245.58 179.479 250.55 180.089 253.29C180.699 250.55 181.549 245.58 183.019 243.96C184.569 242.25 186.669 241.57 189.299 240.58C185.569 240.37 183.849 238.85 183.849 238.85C180.739 236.99 180.089 229.84 180.089 229.84C180.089 229.84 179.429 236.98 176.329 238.85C176.329 238.85 174.599 240.37 170.879 240.58C173.499 241.57 175.609 242.25 177.159 243.96Z" fill="#CEEBFF"/>
<path d="M192.931 416.99H25.4609V428.03H192.931V416.99Z" fill="#CCCCCC"/>
<defs>
<filter id="filter0_d_1231_574" x="0.195938" y="219.23" width="225.179" height="110.714" filterUnits="userSpaceOnUse" color-interpolation-filters="sRGB">
<feFlood flood-opacity="0" result="BackgroundImageFix"/>
<feColorMatrix in="SourceAlpha" type="matrix" values="0 0 0 0 0 0 0 0 0 0 0 0 0 0 0 0 0 0 127 0" result="hardAlpha"/>
<feOffset dx="1.85" dy="10.17"/>
<feGaussianBlur stdDeviation="4.62"/>
<feColorMatrix type="matrix" values="0 0 0 0 0 0 0 0 0 0.447059 0 0 0 0 0.415686 0 0 0 0.75 0"/>
<feBlend mode="normal" in2="BackgroundImageFix" result="effect1_dropShadow_1231_574"/>
<feBlend mode="normal" in="SourceGraphic" in2="effect1_dropShadow_1231_574" result="shape"/>
</filter>
<filter id="filter1_d_1231_574" x="5.91078" y="93.8301" width="213.765" height="180.456" filterUnits="userSpaceOnUse" color-interpolation-filters="sRGB">
<feFlood flood-opacity="0" result="BackgroundImageFix"/>
<feColorMatrix in="SourceAlpha" type="matrix" values="0 0 0 0 0 0 0 0 0 0 0 0 0 0 0 0 0 0 127 0" result="hardAlpha"/>
<feOffset dx="1.85" dy="10.17"/>
<feGaussianBlur stdDeviation="4.62"/>
<feColorMatrix type="matrix" values="0 0 0 0 0 0 0 0 0 0.447059 0 0 0 0 0.415686 0 0 0 0.75 0"/>
<feBlend mode="normal" in2="BackgroundImageFix" result="effect1_dropShadow_1231_574"/>
<feBlend mode="normal" in="SourceGraphic" in2="effect1_dropShadow_1231_574" result="shape"/>
</filter>
<filter id="filter2_d_1231_574" x="13.9147" y="103.16" width="197.742" height="119.917" filterUnits="userSpaceOnUse" color-interpolation-filters="sRGB">
<feFlood flood-opacity="0" result="BackgroundImageFix"/>
<feColorMatrix in="SourceAlpha" type="matrix" values="0 0 0 0 0 0 0 0 0 0 0 0 0 0 0 0 0 0 127 0" result="hardAlpha"/>
<feOffset dx="1.85" dy="10.17"/>
<feGaussianBlur stdDeviation="4.62"/>
<feColorMatrix type="matrix" values="0 0 0 0 0 0 0 0 0 0.447059 0 0 0 0 0.415686 0 0 0 0.75 0"/>
<feBlend mode="normal" in2="BackgroundImageFix" result="effect1_dropShadow_1231_574"/>
<feBlend mode="normal" in="SourceGraphic" in2="effect1_dropShadow_1231_574" result="shape"/>
</filter>
<filter id="filter3_d_1231_574" x="23.7975" y="32.3999" width="170.273" height="140.438" filterUnits="userSpaceOnUse" color-interpolation-filters="sRGB">
<feFlood flood-opacity="0" result="BackgroundImageFix"/>
<feColorMatrix in="SourceAlpha" type="matrix" values="0 0 0 0 0 0 0 0 0 0 0 0 0 0 0 0 0 0 127 0" result="hardAlpha"/>
<feOffset dx="1.85" dy="10.17"/>
<feGaussianBlur stdDeviation="4.62"/>
<feColorMatrix type="matrix" values="0 0 0 0 0 0 0 0 0 0.447059 0 0 0 0 0.415686 0 0 0 0.75 0"/>
<feBlend mode="normal" in2="BackgroundImageFix" result="effect1_dropShadow_1231_574"/>
<feBlend mode="normal" in="SourceGraphic" in2="effect1_dropShadow_1231_574" result="shape"/>
</filter>
</defs>
</svg>
