<svg width="62" height="58" viewBox="0 0 62 58" fill="none" xmlns="http://www.w3.org/2000/svg">
<path d="M51.2891 0.97998H11.2891C5.76621 0.97998 1.28906 5.45713 1.28906 10.98V46.98C1.28906 52.5028 5.76621 56.9799 11.2891 56.9799H51.2891C56.8119 56.9799 61.2891 52.5028 61.2891 46.98V10.98C61.2891 5.45713 56.8119 0.97998 51.2891 0.97998Z" fill="#1C3249"/>
<path d="M60.9883 50.47C60.9883 50.47 62.3983 47.02 55.5783 46.54C50.3183 46.17 47.8083 50.04 41.7383 50.04C35.6683 50.04 29.0583 45.3 23.2683 46.13C17.4783 46.96 11.7783 49.67 8.09829 48.06C-0.351712 44.36 0.648289 49.44 0.928289 52.47C1.20829 55.5 5.89829 57.44 13.8983 57.16C21.8983 56.88 48.3883 58.26 53.6283 57.44C58.8683 56.61 60.9983 52.41 60.9983 50.47H60.9883Z" fill="#F9F9F9"/>
<path d="M17.0076 23.76C17.6676 23.59 17.6676 22.71 16.7976 22.85C15.7876 23.09 14.5576 23.23 13.4776 23.3C11.6576 23.44 10.4776 22.29 10.0176 20.16C9.52763 17.33 11.0676 15.62 12.9876 14.92C14.5276 14.4 16.7976 14.15 18.8576 14.15C21.6176 14.15 23.8176 15.44 23.9576 18.13C24.2676 24.52 24.2376 34.2 23.9576 40.59C23.8176 42.97 21.4776 44.01 19.0376 44.01C16.5976 44.01 14.2876 42.96 14.1476 40.59C13.9076 35.74 13.9076 28.58 14.1476 24.35C15.0576 24.21 16.2476 24 17.0076 23.76Z" fill="#5B93BC"/>
<path d="M27.6158 26.1001C27.4758 23.2401 27.8258 20.0201 28.5258 17.6101C29.1158 15.4101 30.4858 14.3301 32.7558 14.1201C36.3858 13.8101 40.4058 13.8101 44.2158 14.0901C46.9358 14.2601 48.1958 14.8901 48.9358 16.5401C49.5658 17.9401 49.5258 20.6601 48.7658 22.6201C48.3458 23.6301 47.4058 23.9501 46.5658 23.5601C44.1558 22.4801 41.8558 22.0901 39.2658 22.0601C38.3958 22.0601 38.4258 23.0701 39.1258 23.1101C41.4358 23.1801 50.9958 23.4201 50.9958 33.7601C50.9958 41.3001 44.7458 44.3101 38.5958 44.3101C34.8958 44.3101 31.6858 43.3301 29.7558 41.8601C25.5958 38.6801 26.1958 33.5801 28.5658 31.4201C29.8258 30.2701 31.3958 29.8101 32.8958 29.8101C34.3958 29.8101 35.9658 30.3301 37.0558 31.3101C38.4858 32.5001 38.6958 33.5801 38.9058 34.2101C39.0758 34.8701 40.1658 34.8401 40.0958 34.0701C40.0258 33.1601 39.1858 31.5901 38.2458 30.6501C36.9158 29.3601 34.9958 28.8301 33.0458 28.8301C31.5758 28.8301 30.3258 29.0701 29.1358 29.6701C28.1558 29.2901 27.7758 28.1701 27.6358 26.1101L27.6158 26.1001Z" fill="#5B93BC"/>
</svg>
