<svg width="61" height="57" viewBox="0 0 61 57" fill="none" xmlns="http://www.w3.org/2000/svg">
<path d="M50.8086 0.800049H10.8086C5.28575 0.800049 0.808594 5.2772 0.808594 10.8V46.8C0.808594 52.3229 5.28575 56.8 10.8086 56.8H50.8086C56.3314 56.8 60.8086 52.3229 60.8086 46.8V10.8C60.8086 5.2772 56.3314 0.800049 50.8086 0.800049Z" fill="#1C3249"/>
<path d="M11.9665 13.86C12.3465 13.76 12.3465 13.26 11.8465 13.34C11.2665 13.48 10.5665 13.56 9.94655 13.6C8.90655 13.68 8.22654 13.02 7.96654 11.8C7.68654 10.18 8.56655 9.19999 9.66655 8.79999C10.5466 8.49999 11.8465 8.35999 13.0265 8.35999C14.6065 8.35999 15.8665 9.09998 15.9465 10.64C16.1265 14.3 16.1065 19.84 15.9465 23.5C15.8665 24.86 14.5265 25.46 13.1265 25.46C11.7265 25.46 10.4066 24.86 10.3266 23.5C10.1866 20.72 10.1866 16.62 10.3266 14.2C10.8466 14.12 11.5265 14 11.9665 13.86Z" fill="#5B93BC"/>
<path d="M19.6093 16C17.8693 15.56 17.1093 14.2801 17.1293 12.8601C17.1493 10.8001 18.4293 9.62005 19.8693 8.98005C21.7493 8.12005 25.4293 7.94004 27.8493 8.44004C29.7293 8.82004 30.6493 9.84006 30.6093 11.8001C30.5093 15.4001 29.5293 20.6 28.2293 23.5C27.6093 24.84 26.8093 25.44 25.3893 25.44C23.9693 25.44 23.1693 24.48 23.1093 22.82C22.9093 18.86 23.8493 14.72 25.2093 11.76C25.3093 11.5 24.9093 11.32 24.7693 11.6C24.3093 12.42 23.9093 13.38 23.5893 14.48C22.7693 15.76 21.4693 16.5 19.6093 16Z" fill="#5B93BC"/>
</svg>
