<svg width="61" height="58" viewBox="0 0 61 58" fill="none" xmlns="http://www.w3.org/2000/svg">
<path d="M50.9961 0.670044H10.9961C5.47325 0.670044 0.996094 5.1472 0.996094 10.67V46.67C0.996094 52.1929 5.47325 56.67 10.9961 56.67H50.9961C56.5189 56.67 60.9961 52.1929 60.9961 46.67V10.67C60.9961 5.1472 56.5189 0.670044 50.9961 0.670044Z" fill="#1C3249"/>
<path d="M60.8867 50.3801C60.8867 50.3801 62.2967 46.9301 55.4767 46.4501C50.2167 46.0801 47.7067 49.9501 41.6367 49.9501C35.5667 49.9501 28.9567 45.21 23.1667 46.04C17.3767 46.87 11.6767 49.5801 7.99673 47.9701C-0.453271 44.2701 0.546726 49.3501 0.826726 52.3801C1.10673 55.4101 5.79673 57.3501 13.7967 57.0701C21.7967 56.7901 48.2867 58.17 53.5267 57.35C58.7667 56.53 60.8967 52.3201 60.8967 50.3801H60.8867Z" fill="#F9F9F9"/>
<path d="M12.2869 14.2899C12.6669 14.1899 12.6669 13.69 12.1669 13.77C11.5869 13.91 10.8869 13.99 10.2669 14.03C9.22685 14.11 8.54685 13.4499 8.28685 12.2299C8.00685 10.6099 8.88685 9.62992 9.98685 9.22992C10.8669 8.92992 12.1669 8.78992 13.3469 8.78992C14.9269 8.78992 16.1869 9.52995 16.2669 11.0699C16.4469 14.7299 16.4269 20.2699 16.2669 23.9299C16.1869 25.2899 14.8469 25.89 13.4469 25.89C12.0469 25.89 10.7269 25.2899 10.6469 23.9299C10.5069 21.1499 10.5069 17.0499 10.6469 14.6299C11.1669 14.5499 11.8469 14.4299 12.2869 14.2899Z" fill="#5B93BC"/>
<path d="M18.2689 13.5099C18.2689 11.0699 20.4089 8.60997 24.9689 8.58997C29.5089 8.58997 31.6689 11.0699 31.6689 13.5099C31.6689 15.4099 30.9889 16.5699 30.0889 17.1099C31.5089 17.7699 32.3089 19.3299 32.3089 20.9299C32.3089 24.0499 29.5089 26.03 24.9689 26.03C20.4089 26.01 17.6289 24.0499 17.6289 20.9299C17.6289 19.3299 18.4289 17.7699 19.8689 17.1099C18.9489 16.5699 18.2689 15.4099 18.2689 13.5099ZM25.0489 15.15C25.5889 14.37 25.7089 13.2699 25.7489 12.2899C25.7489 11.8299 25.0889 11.8299 25.0689 12.1699C25.0089 13.1499 24.8289 13.9699 24.3489 14.9299C24.1889 15.2299 24.7689 15.53 25.0489 15.15ZM25.0489 22.41C25.5889 21.65 25.7089 20.5499 25.7489 19.5699C25.7489 19.0899 25.0889 19.0899 25.0689 19.4299C25.0089 20.4099 24.8289 21.2499 24.3489 22.1899C24.1889 22.5099 24.7689 22.79 25.0489 22.41Z" fill="#5B93BC"/>
</svg>
