<svg width="61" height="57" viewBox="0 0 61 57" fill="none" xmlns="http://www.w3.org/2000/svg">
<path d="M50.5469 0.0300293H10.5469C5.02403 0.0300293 0.546875 4.50718 0.546875 10.03V46.03C0.546875 51.5529 5.02403 56.0301 10.5469 56.0301H50.5469C56.0697 56.0301 60.5469 51.5529 60.5469 46.03V10.03C60.5469 4.50718 56.0697 0.0300293 50.5469 0.0300293Z" fill="#1C3249"/>
<path d="M12.2595 12.76C12.6395 12.66 12.6395 12.16 12.1395 12.24C11.5595 12.38 10.8595 12.46 10.2395 12.5C9.1995 12.58 8.51951 11.92 8.25951 10.7C7.97951 9.08001 8.85951 8.10001 9.95951 7.70001C10.8395 7.40001 12.1395 7.26001 13.3195 7.26001C14.8995 7.26001 16.1595 8.00001 16.2395 9.54001C16.4195 13.2 16.3995 18.74 16.2395 22.4C16.1595 23.76 14.8195 24.36 13.4195 24.36C12.0195 24.36 10.6995 23.76 10.6195 22.4C10.4795 19.62 10.4795 15.52 10.6195 13.1C11.1395 13.02 11.8195 12.9 12.2595 12.76Z" fill="#5B93BC"/>
<path d="M22.2792 14.0401C23.2792 13.0601 24.7192 12.3201 26.5592 12.3401C29.8792 12.3601 32.1592 14.8401 32.1592 18.3801C32.1592 21.9201 29.5592 24.5401 24.8192 24.5401C20.0792 24.5401 17.6992 21.7401 17.6992 18.1601C17.6992 15.0601 18.2792 12.2001 19.0792 10.2601C19.8392 8.48007 21.4192 7.20007 23.7792 7.20007C25.8192 7.20007 27.3592 8.10006 27.2792 9.62006C27.2392 10.4601 26.9392 11.2401 26.2992 11.7601C24.2792 11.7601 22.6992 12.7401 21.8792 13.6001C21.5592 13.8801 22.0192 14.3001 22.2792 14.0401ZM25.6792 19.8801C25.3792 19.4001 25.2792 18.8001 25.2792 18.3201C25.2792 17.8401 25.3792 17.2601 25.6792 16.7601C25.9192 16.4201 25.1592 16.1801 24.9592 16.5401C24.6392 17.1201 24.5192 17.7001 24.5192 18.3201C24.5192 18.9401 24.6392 19.5401 24.9592 20.1201C25.1592 20.4601 25.9192 20.2401 25.6792 19.8801Z" fill="#5B93BC"/>
</svg>
