<svg width="63" height="58" viewBox="0 0 63 58" fill="none" xmlns="http://www.w3.org/2000/svg">
<path d="M52.0859 0.400024H12.0859C6.56309 0.400024 2.08594 4.87718 2.08594 10.4V46.4C2.08594 51.9229 6.56309 56.4 12.0859 56.4H52.0859C57.6088 56.4 62.0859 51.9229 62.0859 46.4V10.4C62.0859 4.87718 57.6088 0.400024 52.0859 0.400024Z" fill="#1C3249"/>
<path d="M3.32677 47.2201C1.77677 46.9701 0.496767 48.4101 0.946767 49.9201C1.84677 52.9101 4.36677 57.1201 11.4668 57.1201H54.3468C54.3468 57.1201 62.8368 56.4901 62.8368 45.3701C62.8368 45.3701 61.4568 43.1901 57.9068 43.6501C50.6268 44.5901 52.8668 47.2001 46.8968 47.6601C40.9268 48.1201 41.2768 45.1401 36.2368 45.2501C31.1968 45.3601 30.1768 47.7901 26.9468 47.8901C19.3768 48.1201 20.7568 45.7401 15.4768 45.3701C10.5468 45.0301 7.33677 48.0101 4.46677 47.4301C4.04677 47.3501 3.66677 47.2801 3.31677 47.2201H3.32677Z" fill="#F9F9F9"/>
<path d="M13.3259 12.17C13.7059 12.07 13.7059 11.57 13.2059 11.65C12.6259 11.79 11.9259 11.87 11.3059 11.91C10.2659 11.99 9.58591 11.33 9.32591 10.11C9.04591 8.49005 9.92591 7.51005 11.0259 7.11005C11.9059 6.81005 13.2059 6.67004 14.3859 6.67004C15.9659 6.67004 17.2259 7.41004 17.3059 8.95004C17.4859 12.61 17.4759 18.15 17.3159 21.81C17.2359 23.17 15.8959 23.7701 14.4959 23.7701C13.0959 23.7701 11.7759 23.17 11.6959 21.81C11.5559 19.03 11.5459 14.93 11.6959 12.51C12.2159 12.43 12.8959 12.31 13.3359 12.17H13.3259Z" fill="#5B93BC"/>
<path d="M22.6267 12.16C23.0067 12.06 23.0067 11.56 22.5067 11.64C21.9267 11.78 21.2267 11.86 20.6067 11.9C19.5667 11.98 18.8867 11.32 18.6267 10.1C18.3467 8.48004 19.2267 7.50004 20.3267 7.10004C21.2067 6.80004 22.5067 6.66003 23.6867 6.66003C25.2667 6.66003 26.5267 7.40003 26.6067 8.94003C26.7867 12.6 26.7767 18.14 26.6167 21.8C26.5367 23.16 25.1967 23.76 23.7967 23.76C22.3967 23.76 21.0767 23.16 20.9967 21.8C20.8567 19.02 20.8467 14.92 20.9967 12.5C21.5167 12.42 22.1967 12.3 22.6367 12.16H22.6267Z" fill="#5B93BC"/>
</svg>
