<svg width="61" height="57" viewBox="0 0 61 57" fill="none" xmlns="http://www.w3.org/2000/svg">
<path d="M50.2891 0.359985H10.2891C4.76621 0.359985 0.289062 4.83714 0.289062 10.36V46.36C0.289062 51.8828 4.76621 56.36 10.2891 56.36H50.2891C55.8119 56.36 60.2891 51.8828 60.2891 46.36V10.36C60.2891 4.83714 55.8119 0.359985 50.2891 0.359985Z" fill="#1C3249"/>
<path d="M33.5095 37.04C33.8895 36.94 33.8895 36.4401 33.3895 36.5201C32.8095 36.66 32.1095 36.74 31.4895 36.78C30.4495 36.86 29.7695 36.2 29.5095 34.98C29.2295 33.36 30.1095 32.38 31.2095 31.98C32.0895 31.68 33.3895 31.54 34.5695 31.54C36.1495 31.54 37.4095 32.28 37.4895 33.82C37.6695 37.48 37.6495 43.02 37.4895 46.68C37.4095 48.04 36.0695 48.64 34.6695 48.64C33.2695 48.64 31.9495 48.04 31.8695 46.68C31.7295 43.9 31.7295 39.8 31.8695 37.38C32.3895 37.3 33.0695 37.18 33.5095 37.04Z" fill="#5B93BC"/>
<path d="M45.2886 43.9C45.0486 44.36 45.6486 44.56 45.8686 44.14C46.5686 42.86 47.7286 41.86 49.5286 41.86C51.5486 41.86 52.8486 43.2 52.8486 45.2C52.8486 47.2 51.6886 48.4 49.8086 48.6C47.5886 48.84 44.2286 48.86 42.0086 48.62C40.3286 48.42 38.8886 47.24 39.0686 45.42C39.2886 42.52 43.8086 39.9 45.9686 37.36L46.2886 36.98C46.5286 36.68 46.0286 36.3 45.7486 36.62L44.9686 37.54C44.4886 38.1 43.9486 38.66 43.2886 38.88C42.3486 39.22 41.1886 39.08 40.3486 38.58C39.1286 37.86 38.7286 36.22 39.3086 34.82C40.3486 32.42 43.0086 31.34 46.0886 31.34C49.8886 31.34 52.4486 33.36 52.4486 36.26C52.4486 39.16 50.6686 40.52 48.9886 41.3C47.1686 41.6 45.9086 42.56 45.2886 43.9Z" fill="#5B93BC"/>
</svg>
