<svg width="127" height="58" viewBox="0 0 127 58" fill="none" xmlns="http://www.w3.org/2000/svg">
<path d="M74.9958 0.999986H65.1058L11.0658 1.05998C5.46578 1.05998 0.925781 5.54999 0.925781 11.07L0.965778 47.07C0.965778 52.59 5.51578 57.07 11.1258 57.06L65.1658 57.01H75.0558L115.906 56.96C121.506 56.96 126.046 52.47 126.046 46.95L126.006 10.95C126.006 5.43 121.456 0.949978 115.846 0.959978L74.9958 0.999986Z" fill="#1C3249"/>
<path d="M97.8689 38.11C98.2489 38.01 98.2489 37.51 97.7489 37.59C97.1689 37.73 96.4689 37.81 95.8489 37.85C94.8089 37.93 94.1289 37.27 93.8689 36.05C93.5889 34.43 94.4689 33.45 95.5689 33.05C96.4489 32.75 97.7489 32.61 98.9289 32.61C100.509 32.61 101.769 33.35 101.849 34.89C102.029 38.55 102.009 44.09 101.849 47.75C101.769 49.11 100.429 49.71 99.0289 49.71C97.6289 49.71 96.3089 49.11 96.2289 47.75C96.0889 44.97 96.0889 40.87 96.2289 38.45C96.7489 38.37 97.4289 38.25 97.8689 38.11Z" fill="#5B93BC"/>
<path d="M109.27 46.97C108.03 47.03 106.87 46.93 105.63 46.69C104.33 46.41 103.27 45.43 103.27 43.87C103.27 42.87 103.71 41.99 104.17 41.35C105.85 39.07 108.19 36.29 110.31 34.01C111.09 33.19 112.33 32.51 113.73 32.51C115.35 32.51 116.37 33.55 116.61 35.21C116.83 36.79 116.45 37.91 115.73 38.79C113.47 38.39 111.63 39.09 110.21 40.49C109.99 40.69 110.37 41.07 110.61 40.85C111.67 39.83 113.03 39.21 114.43 39.21C117.03 39.21 118.13 41.13 118.13 42.83C118.13 44.83 116.43 46.27 114.57 46.47C114.15 46.51 114.23 46.89 114.59 46.87C115.13 46.83 115.83 46.69 116.55 46.31C117.07 48.09 115.61 49.89 112.97 49.89C110.33 49.89 108.87 48.49 109.27 46.97Z" fill="#5B93BC"/>
</svg>
