<svg width="61" height="57" viewBox="0 0 61 57" fill="none" xmlns="http://www.w3.org/2000/svg">
<path d="M50.7461 0.199951H10.7461C5.22325 0.199951 0.746094 4.6771 0.746094 10.2V46.2C0.746094 51.7228 5.22325 56.2 10.7461 56.2H50.7461C56.2689 56.2 60.7461 51.7228 60.7461 46.2V10.2C60.7461 4.6771 56.2689 0.199951 50.7461 0.199951Z" fill="#1C3249"/>
<path d="M12.8689 11.8599C13.2489 11.7599 13.2489 11.2598 12.7489 11.3398C12.1689 11.4798 11.4689 11.5599 10.8489 11.5999C9.80889 11.6799 9.12888 11.0199 8.86888 9.79987C8.58888 8.17987 9.46889 7.19987 10.5689 6.79987C11.4489 6.49987 12.7489 6.35986 13.9289 6.35986C15.5089 6.35986 16.7689 7.09986 16.8489 8.63986C17.0289 12.2999 17.0089 17.8398 16.8489 21.4998C16.7689 22.8598 15.4289 23.4598 14.0289 23.4598C12.6289 23.4598 11.3089 22.8598 11.2289 21.4998C11.0889 18.7198 11.0889 14.6199 11.2289 12.1999C11.7489 12.1199 12.4289 11.9999 12.8689 11.8599Z" fill="#5B93BC"/>
<path d="M32.1695 18.0799C32.1695 21.3999 29.3695 23.5999 25.2095 23.5999C21.0495 23.5999 18.3495 21.4599 18.2695 18.7599C18.2695 16.6999 19.8895 15.6999 21.8095 15.6999C23.5895 15.6999 25.2095 16.6199 25.3095 18.3999C25.3295 18.8199 25.9095 18.7799 25.8895 18.3799C25.7895 16.6599 24.2695 15.2399 22.0695 15.2399H21.5295C20.7295 15.2399 20.7295 13.5399 21.5295 13.5399H22.3295C24.3295 13.5399 25.4295 12.6199 25.9295 11.6799C26.1495 11.2799 25.6495 11.0399 25.4495 11.4199C24.9095 12.4999 23.5695 13.0999 22.1895 13.0999C20.0695 13.0999 18.6695 11.8599 18.6695 10.2199C18.6695 7.33988 22.2495 6.13989 25.2095 6.13989C29.1295 6.13989 31.7695 7.87987 31.7695 10.3399C31.7695 11.8599 30.7895 13.2399 28.9695 13.7599C31.0295 14.3999 32.1695 15.9599 32.1695 18.0799Z" fill="#5B93BC"/>
</svg>
