<svg width="127" height="58" viewBox="0 0 127 58" fill="none" xmlns="http://www.w3.org/2000/svg">
<path d="M65.6861 0.219926H64.9261L10.8861 0.269945C5.28609 0.269945 0.746094 4.75992 0.746094 10.2799L0.786091 46.2799C0.786091 51.7999 5.33609 56.2799 10.9461 56.2699L64.9861 56.2199H65.7461L115.726 56.1699C121.326 56.1699 125.866 51.6799 125.866 46.1599L125.826 10.1599C125.826 4.63993 121.276 0.159939 115.666 0.169939L65.6861 0.219926Z" fill="#1C3249"/>
<path d="M0.449219 51.2099C0.449219 51.2099 0.449221 43.8699 8.59922 44.0699C16.7492 44.2699 23.6892 48.1499 31.8392 48.1499C39.9892 48.1499 60.5892 45.4999 68.5392 45.9099C76.4892 46.3199 89.9492 49.5799 98.0992 49.1699C106.249 48.7599 114.209 45.2999 118.279 45.4999C122.349 45.6999 126.589 45.3099 126.589 49.9199C126.589 52.3699 125.619 57.1199 110.329 57.1199H10.9492C10.9492 57.1199 0.659219 58.1399 0.449219 51.2099Z" fill="#F9F9F9"/>
<path d="M16.1658 14.6199C16.5458 14.5199 16.5458 14.0199 16.0458 14.0999C15.4658 14.2399 14.7658 14.3199 14.1458 14.3599C13.1058 14.4399 12.4258 13.7799 12.1658 12.5599C11.8858 10.9399 12.7658 9.95988 13.8658 9.55988C14.7458 9.25988 16.0458 9.11987 17.2258 9.11987C18.8058 9.11987 20.0658 9.85987 20.1458 11.3999C20.3258 15.0599 20.3058 20.5999 20.1458 24.2599C20.0658 25.6199 18.7258 26.2199 17.3258 26.2199C15.9258 26.2199 14.6058 25.6199 14.5258 24.2599C14.3858 21.4799 14.3858 17.3799 14.5258 14.9599C15.0458 14.8799 15.7258 14.7599 16.1658 14.6199Z" fill="#5B93BC"/>
</svg>
