<svg width="63" height="58" viewBox="0 0 63 58" fill="none" xmlns="http://www.w3.org/2000/svg">
<path d="M51.8867 0.429932H11.8867C6.36387 0.429932 1.88672 4.90708 1.88672 10.4299V46.4299C1.88672 51.9528 6.36387 56.4299 11.8867 56.4299H51.8867C57.4096 56.4299 61.8867 51.9528 61.8867 46.4299V10.4299C61.8867 4.90708 57.4096 0.429932 51.8867 0.429932Z" fill="#1C3249"/>
<path d="M62.9466 48.4C62.9466 48.4 62.1466 57.0201 50.7266 57.0201C39.3066 57.0201 11.6566 57.0201 11.6566 57.0201C11.6566 57.0201 -3.21337 55.85 0.636627 46.6C2.90663 41.15 10.6566 47 20.0766 47C29.4966 47 30.2966 44.6 36.5066 44.4C42.7166 44.2 47.9266 47.2101 52.5366 45.8001C57.1466 44.4001 62.1566 42.79 62.9566 48.4H62.9466Z" fill="#F9F9F9"/>
<path d="M13.3259 12.98C13.7059 12.88 13.7059 12.38 13.2059 12.46C12.6259 12.6 11.9259 12.68 11.3059 12.72C10.2659 12.8 9.58591 12.14 9.32591 10.92C9.04591 9.29998 9.92592 8.31998 11.0259 7.91998C11.9059 7.61998 13.2059 7.47998 14.3859 7.47998C15.9659 7.47998 17.2259 8.21998 17.3059 9.75998C17.4859 13.42 17.4659 18.96 17.3059 22.62C17.2259 23.98 15.8859 24.58 14.4859 24.58C13.0859 24.58 11.7659 23.98 11.6859 22.62C11.5459 19.84 11.5459 15.74 11.6859 13.32C12.2059 13.24 12.8859 13.12 13.3259 12.98Z" fill="#5B93BC"/>
<path d="M18.7695 15.98C18.7695 11.16 21.1495 7.28003 25.9095 7.28003C30.6695 7.28003 33.0295 11.16 33.0295 15.98C33.0295 20.8 30.6695 24.74 25.9095 24.74C21.1495 24.74 18.7695 20.84 18.7695 15.98ZM26.2895 18.72C25.8495 17.82 25.6895 16.82 25.6895 15.98C25.6895 15.14 25.8495 14.16 26.2895 13.28C26.5895 12.66 25.8695 12.3 25.5695 12.86C25.0895 13.8 24.8695 14.92 24.8695 15.98C24.8695 17.04 25.0895 18.18 25.5695 19.12C25.8695 19.68 26.5895 19.32 26.2895 18.72Z" fill="#5B93BC"/>
</svg>
