<svg width="61" height="57" viewBox="0 0 61 57" fill="none" xmlns="http://www.w3.org/2000/svg">
<path d="M50.207 0.619995H10.207C4.68418 0.619995 0.207031 5.09715 0.207031 10.62V46.62C0.207031 52.1428 4.68418 56.62 10.207 56.62H50.207C55.7299 56.62 60.207 52.1428 60.207 46.62V10.62C60.207 5.09715 55.7299 0.619995 50.207 0.619995Z" fill="#1C3249"/>
<path d="M12.7283 14.28C13.1083 14.18 13.1083 13.68 12.6083 13.76C12.0283 13.9 11.3283 13.98 10.7083 14.02C9.66826 14.1 8.98826 13.44 8.72826 12.22C8.44826 10.6 9.32826 9.62003 10.4283 9.22003C11.3083 8.92003 12.6083 8.78003 13.7883 8.78003C15.3683 8.78003 16.6283 9.52 16.7083 11.06C16.8883 14.72 16.8683 20.26 16.7083 23.92C16.6283 25.28 15.2883 25.88 13.8883 25.88C12.4883 25.88 11.1683 25.28 11.0883 23.92C10.9483 21.14 10.9483 17.04 11.0883 14.62C11.6083 14.54 12.2883 14.42 12.7283 14.28Z" fill="#5B93BC"/>
<path d="M28.4758 19.5399C28.7758 19.2199 28.3358 18.82 28.0558 19.08C27.0558 20.06 25.6158 20.8 23.7758 20.78C20.6358 20.76 18.1758 18.2599 18.1758 15.0999C18.1758 11.4799 20.7758 8.57996 25.5358 8.57996C30.0358 8.57996 32.6358 11.38 32.6358 15.72C32.6358 18.06 32.0758 20.9399 31.2558 22.8599C30.5158 24.6399 28.9158 26.0399 26.4958 26.0399C24.3558 26.0399 22.9158 25.0199 22.9758 23.4799C23.0158 22.6599 23.4358 21.9 24.0358 21.34C26.0558 21.34 27.6558 20.3599 28.4758 19.5399ZM25.2758 16.16C24.9758 15.68 24.8558 15.0999 24.8558 14.6199C24.8558 14.1399 24.9758 13.5399 25.2758 13.0399C25.5158 12.6999 24.7558 12.4799 24.5558 12.8199C24.2358 13.3999 24.1158 13.9799 24.1158 14.6199C24.1158 15.2199 24.2358 15.8199 24.5558 16.3799C24.7558 16.7399 25.5158 16.52 25.2758 16.16Z" fill="#5B93BC"/>
</svg>
