<svg width="61" height="57" viewBox="0 0 61 57" fill="none" xmlns="http://www.w3.org/2000/svg">
<path d="M50.1094 0.130005H10.1094C4.58653 0.130005 0.109375 4.60716 0.109375 10.13V46.13C0.109375 51.6529 4.58653 56.13 10.1094 56.13H50.1094C55.6322 56.13 60.1094 51.6529 60.1094 46.13V10.13C60.1094 4.60716 55.6322 0.130005 50.1094 0.130005Z" fill="#1C3249"/>
<path d="M27.9363 37.7599C27.3863 38.8099 28.7663 39.2699 29.2663 38.3099C30.8763 35.3699 33.5363 33.08 37.6663 33.08C42.2963 33.08 45.2863 36.1499 45.2863 40.7399C45.2863 45.3299 42.6263 48.0799 38.3163 48.5399C33.2263 49.0899 25.5163 49.1399 20.4263 48.5899C16.5763 48.1299 13.2663 45.4199 13.6863 41.2499C14.1963 34.5999 24.5563 28.5899 29.5163 22.7599L30.2463 21.89C30.7963 21.2 29.6463 20.3299 29.0063 21.0599L27.2163 23.17C26.1163 24.45 24.8763 25.7399 23.3663 26.2399C21.2063 27.0199 18.5463 26.7 16.6263 25.55C13.8263 23.9 12.9063 20.14 14.2363 16.92C16.6263 11.41 22.7263 8.93994 29.7863 8.93994C38.5063 8.93994 44.3763 13.57 44.3763 20.2299C44.3763 26.8899 40.2963 29.9999 36.4363 31.7899C32.2563 32.4799 29.3663 34.6799 27.9463 37.7499L27.9363 37.7599Z" fill="#5B93BC"/>
</svg>
