<svg width="61" height="57" viewBox="0 0 61 57" fill="none" xmlns="http://www.w3.org/2000/svg">
<path d="M50.2461 0.190063H10.2461C4.72325 0.190063 0.246094 4.66722 0.246094 10.1901V46.1901C0.246094 51.7129 4.72325 56.1901 10.2461 56.1901H50.2461C55.7689 56.1901 60.2461 51.7129 60.2461 46.1901V10.1901C60.2461 4.66722 55.7689 0.190063 50.2461 0.190063Z" fill="#1C3249"/>
<path d="M20.0687 35.57C19.6087 36.45 20.7586 36.84 21.1886 36.03C22.5386 33.57 24.7686 31.64 28.2286 31.64C32.1186 31.64 34.6187 34.22 34.6187 38.07C34.6187 41.92 32.3886 44.23 28.7686 44.61C24.4986 45.07 18.0287 45.11 13.7587 44.65C10.5287 44.27 7.75865 42 8.09865 38.49C8.51865 32.91 17.2186 27.87 21.3786 22.98L21.9987 22.25C22.4587 21.67 21.4986 20.94 20.9586 21.56L19.4586 23.33C18.5386 24.41 17.4986 25.48 16.2286 25.91C14.4186 26.56 12.1887 26.3 10.5687 25.33C8.21865 23.94 7.44865 20.79 8.56865 18.1C10.5687 13.48 15.6886 11.4 21.6186 11.4C28.9286 11.4 33.8586 15.29 33.8586 20.87C33.8586 26.45 30.4386 29.07 27.1986 30.57C23.6986 31.15 21.2687 32.99 20.0787 35.57H20.0687Z" fill="#5B93BC"/>
<path d="M43.6566 22.3699C44.3866 22.1799 44.3866 21.2199 43.4266 21.3699C42.3066 21.6399 40.9666 21.7899 39.7666 21.8699C37.7666 22.0199 36.4566 20.75 35.9566 18.41C35.4166 15.29 37.1166 13.41 39.2266 12.64C40.9166 12.06 43.4166 11.7899 45.6966 11.7899C48.7366 11.7899 51.1566 13.2099 51.3166 16.1799C51.6666 23.2199 51.6266 33.8799 51.3166 40.9199C51.1666 43.5399 48.5866 44.6899 45.8866 44.6899C43.1866 44.6899 40.6566 43.5299 40.4966 40.9199C40.2266 35.5699 40.2266 27.68 40.4966 23.03C41.4966 22.88 42.8066 22.6399 43.6566 22.3799V22.3699Z" fill="#5B93BC"/>
</svg>
