<svg width="63" height="57" viewBox="0 0 63 57" fill="none" xmlns="http://www.w3.org/2000/svg">
<path d="M51.0586 0.26001H11.0586C5.53575 0.26001 1.05859 4.73716 1.05859 10.26V46.26C1.05859 51.7829 5.53575 56.26 11.0586 56.26H51.0586C56.5814 56.26 61.0586 51.7829 61.0586 46.26V10.26C61.0586 4.73716 56.5814 0.26001 51.0586 0.26001Z" fill="#1C3249"/>
<path d="M59.5959 46.23C61.1459 45.98 62.4259 47.42 61.9759 48.93C61.0759 51.92 58.5559 56.13 51.4559 56.13C40.4459 56.13 8.57594 56.13 8.57594 56.13C8.57594 56.13 0.0859375 55.5 0.0859375 44.38C0.0859375 44.38 1.46593 42.2001 5.01593 42.6601C12.2959 43.6001 10.0559 46.21 16.0259 46.67C21.9859 47.13 21.6459 44.15 26.6859 44.26C31.7259 44.37 32.7459 46.8001 35.9759 46.9001C43.5459 47.1301 42.1659 44.75 47.4459 44.38C52.3759 44.04 55.5859 47.02 58.4559 46.44C58.8759 46.36 59.2559 46.29 59.6059 46.23H59.5959Z" fill="#F9F9F9"/>
<path d="M31.9878 35.72C31.7478 36.18 32.3478 36.38 32.5678 35.96C33.2678 34.68 34.4278 33.68 36.2278 33.68C38.2478 33.68 39.5478 35.02 39.5478 37.02C39.5478 39.02 38.3879 40.22 36.5079 40.42C34.2879 40.66 30.9278 40.68 28.7078 40.44C27.0278 40.24 25.5878 39.06 25.7678 37.24C25.9878 34.34 30.5078 31.72 32.6678 29.18L32.9878 28.8C33.2278 28.5 32.7278 28.12 32.4478 28.44L31.6678 29.36C31.1878 29.92 30.6478 30.48 29.9878 30.7C29.0478 31.04 27.8878 30.9 27.0478 30.4C25.8278 29.68 25.4278 28.04 26.0078 26.64C27.0478 24.24 29.7078 23.16 32.7878 23.16C36.5878 23.16 39.1479 25.18 39.1479 28.08C39.1479 30.98 37.3678 32.34 35.6878 33.12C33.8678 33.42 32.6078 34.38 31.9878 35.72Z" fill="#5B93BC"/>
<path d="M40.3867 31.86C40.3867 27.04 42.7667 23.16 47.5267 23.16C52.2867 23.16 54.6467 27.04 54.6467 31.86C54.6467 36.68 52.2867 40.62 47.5267 40.62C42.7667 40.62 40.3867 36.72 40.3867 31.86ZM47.9067 34.6C47.4667 33.7 47.3067 32.7 47.3067 31.86C47.3067 31.02 47.4667 30.04 47.9067 29.16C48.2067 28.54 47.4867 28.18 47.1867 28.74C46.7067 29.68 46.4867 30.8 46.4867 31.86C46.4867 32.92 46.7067 34.06 47.1867 35C47.4867 35.56 48.2067 35.2 47.9067 34.6Z" fill="#5B93BC"/>
</svg>
