<svg width="61" height="57" viewBox="0 0 61 57" fill="none" xmlns="http://www.w3.org/2000/svg">
<path d="M50.8672 0.400024H10.8672C5.34434 0.400024 0.867188 4.87718 0.867188 10.4V46.4C0.867188 51.9229 5.34434 56.4 10.8672 56.4H50.8672C56.39 56.4 60.8672 51.9229 60.8672 46.4V10.4C60.8672 4.87718 56.39 0.400024 50.8672 0.400024Z" fill="#1C3249"/>
<path d="M16.7978 34.37C16.3978 35.13 17.3978 35.46 17.7578 34.77C18.9178 32.65 20.8478 30.99 23.8278 30.99C27.1778 30.99 29.3378 33.21 29.3378 36.53C29.3378 39.85 27.4178 41.84 24.2978 42.17C20.6178 42.57 15.0478 42.6 11.3578 42.2C8.56781 41.87 6.1878 39.91 6.4778 36.89C6.8478 32.08 14.3378 27.74 17.9178 23.52L18.4478 22.89C18.8478 22.39 18.0178 21.76 17.5478 22.29L16.2578 23.82C15.4578 24.75 14.5678 25.68 13.4678 26.04C11.9078 26.6 9.98779 26.37 8.58779 25.54C6.56779 24.35 5.89779 21.63 6.86779 19.3C8.58779 15.32 13.0078 13.53 18.1078 13.53C24.4078 13.53 28.6578 16.88 28.6578 21.69C28.6578 26.5 25.7078 28.75 22.9178 30.05C19.8978 30.55 17.8078 32.14 16.7778 34.36L16.7978 34.37Z" fill="#5B93BC"/>
<path d="M40.5984 37.6901C38.5384 37.7901 36.6184 37.62 34.5584 37.23C32.3984 36.77 30.6484 35.14 30.6484 32.55C30.6484 30.89 31.3785 29.4301 32.1385 28.3701C34.9285 24.5901 38.8085 19.9801 42.3185 16.2001C43.6085 14.8401 45.6685 13.7101 47.9885 13.7101C50.6785 13.7101 52.3685 15.4301 52.7685 18.1901C53.1385 20.8101 52.5084 22.6701 51.3084 24.1301C47.5584 23.4701 44.5084 24.6301 42.1584 26.9501C41.7984 27.2801 42.4285 27.91 42.8185 27.55C44.5785 25.86 46.8284 24.8301 49.1584 24.8301C53.4684 24.8301 55.2985 28.0101 55.2985 30.8301C55.2985 34.1501 52.4784 36.5401 49.3984 36.8701C48.6984 36.9401 48.8384 37.5701 49.4284 37.5301C50.3284 37.4601 51.4884 37.23 52.6784 36.6C53.5384 39.55 51.1185 42.54 46.7385 42.54C42.3585 42.54 39.9384 40.2201 40.5984 37.7001V37.6901Z" fill="#5B93BC"/>
</svg>
