<svg width="127" height="57" viewBox="0 0 127 57" fill="none" xmlns="http://www.w3.org/2000/svg">
<path d="M72.038 0.030046H64.928L10.818 0.0900436C5.20798 0.0900436 0.657985 4.57999 0.667985 10.1L0.707978 46.1C0.707978 51.62 5.26798 56.1 10.878 56.09L64.988 56.04H72.098L115.798 55.99C121.408 55.99 125.958 51.5 125.948 45.98L125.908 9.98C125.908 4.46 121.348 -0.0199931 115.738 -0.00999306L72.038 0.030046Z" fill="#1C3249"/>
<path d="M0.66626 50.87C0.66626 50.87 0.666254 43.53 8.81625 43.73C16.9663 43.93 23.9062 47.81 32.0562 47.81C40.2062 47.81 60.8063 45.16 68.7563 45.57C76.7063 45.98 90.1663 49.24 98.3163 48.83C106.466 48.42 114.426 44.96 118.496 45.16C122.576 45.36 126.806 44.97 126.806 49.58C126.806 52.03 125.836 56.78 110.546 56.78H11.1562C11.1562 56.78 0.86625 57.8 0.65625 50.87H0.66626Z" fill="#F9F9F9"/>
<path d="M96.4566 35.72C96.2166 36.18 96.8166 36.38 97.0366 35.96C97.7366 34.68 98.8966 33.68 100.697 33.68C102.717 33.68 104.017 35.02 104.017 37.02C104.017 39.02 102.857 40.22 100.977 40.42C98.7566 40.66 95.3966 40.68 93.1766 40.44C91.4966 40.24 90.0566 39.06 90.2366 37.24C90.4566 34.34 94.9766 31.72 97.1366 29.18L97.4566 28.8C97.6966 28.5 97.1966 28.12 96.9166 28.44L96.1366 29.36C95.6566 29.92 95.1166 30.48 94.4566 30.7C93.5166 31.04 92.3566 30.9 91.5166 30.4C90.2966 29.68 89.8966 28.04 90.4766 26.64C91.5166 24.24 94.1766 23.16 97.2566 23.16C101.057 23.16 103.617 25.18 103.617 28.08C103.617 30.98 101.837 32.34 100.157 33.12C98.3366 33.42 97.0766 34.38 96.4566 35.72Z" fill="#5B93BC"/>
<path d="M105.498 30.2C105.418 28.56 105.618 26.72 106.018 25.34C106.358 24.08 107.138 23.46 108.438 23.34C110.518 23.16 112.818 23.16 114.998 23.32C116.558 23.42 117.278 23.78 117.698 24.72C118.058 25.52 118.038 27.08 117.598 28.2C117.358 28.78 116.818 28.96 116.338 28.74C114.958 28.12 113.638 27.9 112.158 27.88C111.658 27.88 111.678 28.46 112.078 28.48C113.398 28.52 118.878 28.66 118.878 34.58C118.878 38.9 115.298 40.62 111.778 40.62C109.658 40.62 107.818 40.06 106.718 39.22C104.338 37.4 104.678 34.48 106.038 33.24C106.758 32.58 107.658 32.32 108.518 32.32C109.378 32.32 110.278 32.62 110.898 33.18C111.718 33.86 111.838 34.48 111.958 34.84C112.058 35.22 112.678 35.2 112.638 34.76C112.598 34.24 112.118 33.34 111.578 32.8C110.818 32.06 109.718 31.76 108.598 31.76C107.758 31.76 107.038 31.9 106.358 32.24C105.798 32.02 105.578 31.38 105.498 30.2Z" fill="#5B93BC"/>
</svg>
