<svg width="61" height="57" viewBox="0 0 61 57" fill="none" xmlns="http://www.w3.org/2000/svg">
<path d="M50.6289 0.52002H10.6289C5.10606 0.52002 0.628906 4.99717 0.628906 10.52V46.52C0.628906 52.0429 5.10606 56.52 10.6289 56.52H50.6289C56.1518 56.52 60.6289 52.0429 60.6289 46.52V10.52C60.6289 4.99717 56.1518 0.52002 50.6289 0.52002Z" fill="#1C3249"/>
<path d="M31.9683 46.8799C31.7283 47.3399 32.3283 47.5399 32.5483 47.1199C33.2483 45.8399 34.4083 44.84 36.2083 44.84C38.2283 44.84 39.5283 46.1799 39.5283 48.1799C39.5283 50.1799 38.3683 51.38 36.4883 51.58C34.2683 51.82 30.9083 51.8399 28.6883 51.5999C27.0083 51.3999 25.5683 50.22 25.7483 48.4C25.9683 45.5 30.4883 42.88 32.6483 40.34L32.9683 39.96C33.2083 39.66 32.7083 39.2799 32.4283 39.5999L31.6483 40.52C31.1683 41.08 30.6283 41.6399 29.9683 41.8599C29.0283 42.1999 27.8683 42.0599 27.0283 41.5599C25.8083 40.8399 25.4083 39.1999 25.9883 37.7999C27.0283 35.3999 29.6883 34.3199 32.7683 34.3199C36.5683 34.3199 39.1283 36.3399 39.1283 39.2399C39.1283 42.1399 37.3483 43.5 35.6683 44.28C33.8483 44.58 32.5883 45.5399 31.9683 46.8799Z" fill="#5B93BC"/>
<path d="M54.2281 46.2399C54.2281 49.5599 51.4281 51.7599 47.2681 51.7599C43.1081 51.7599 40.4081 49.6199 40.3281 46.9199C40.3281 44.8599 41.9481 43.8599 43.8681 43.8599C45.6481 43.8599 47.2681 44.7799 47.3681 46.5599C47.3881 46.9799 47.9681 46.9399 47.9481 46.5399C47.8481 44.8199 46.3281 43.4 44.1281 43.4H43.5881C42.7881 43.4 42.7881 41.7 43.5881 41.7H44.3881C46.3881 41.7 47.4881 40.78 47.9881 39.84C48.2081 39.44 47.7081 39.2 47.5081 39.58C46.9681 40.66 45.6281 41.2599 44.2481 41.2599C42.1281 41.2599 40.7281 40.0199 40.7281 38.3799C40.7281 35.4999 44.3081 34.2999 47.2681 34.2999C51.1881 34.2999 53.8281 36.0399 53.8281 38.4999C53.8281 40.0199 52.8481 41.3999 51.0281 41.9199C53.0881 42.5599 54.2281 44.1199 54.2281 46.2399Z" fill="#5B93BC"/>
</svg>
