<svg width="61" height="118" viewBox="0 0 61 118" fill="none" xmlns="http://www.w3.org/2000/svg">
<path d="M10.408 0.619951C4.88798 0.619951 0.407985 5.16996 0.417985 10.76L0.457979 50.28V57.3699L0.517976 107.02C0.517976 112.62 5.00797 117.15 10.528 117.14L50.528 117.1C56.048 117.1 60.528 112.55 60.518 106.96L60.468 57.31V50.22L60.418 10.7C60.418 5.09997 55.928 0.569973 50.408 0.579973L10.408 0.619951Z" fill="#1C3249"/>
<path d="M13.5472 20.1699C13.3072 20.6299 13.9072 20.83 14.1272 20.41C14.8272 19.12 15.9972 18.1199 17.8072 18.1199C19.8372 18.1199 21.1472 19.4699 21.1472 21.4799C21.1472 23.4899 19.9772 24.69 18.0972 24.9C15.8672 25.14 12.4872 25.1599 10.2572 24.9199C8.56717 24.7199 7.12717 23.53 7.30717 21.71C7.52717 18.8 12.0672 16.1599 14.2372 13.6099L14.5572 13.2299C14.7972 12.9299 14.2972 12.5499 14.0172 12.8699L13.2372 13.7899C12.7572 14.3499 12.2072 14.92 11.5472 15.14C10.6072 15.48 9.43716 15.34 8.59716 14.84C7.36716 14.12 6.96717 12.4699 7.55717 11.0599C8.59717 8.64994 11.2772 7.55994 14.3672 7.55994C18.1872 7.55994 20.7572 9.58994 20.7572 12.4999C20.7572 15.4099 18.9672 16.7799 17.2772 17.5599C15.4472 17.8599 14.1872 18.8299 13.5572 20.1699H13.5472Z" fill="#5B93BC"/>
<path d="M28.3558 20.1699C28.1158 20.6299 28.7158 20.83 28.9358 20.41C29.6358 19.12 30.8058 18.1199 32.6158 18.1199C34.6458 18.1199 35.9558 19.4699 35.9558 21.4799C35.9558 23.4899 34.7858 24.69 32.9058 24.9C30.6758 25.14 27.2958 25.1599 25.0658 24.9199C23.3758 24.7199 21.9358 23.53 22.1158 21.71C22.3358 18.8 26.8758 16.1599 29.0458 13.6099L29.3658 13.2299C29.6058 12.9299 29.1058 12.5499 28.8258 12.8699L28.0458 13.7899C27.5658 14.3499 27.0158 14.92 26.3558 15.14C25.4158 15.48 24.2458 15.34 23.4058 14.84C22.1758 14.12 21.7758 12.4699 22.3658 11.0599C23.4058 8.64994 26.0858 7.55994 29.1758 7.55994C32.9958 7.55994 35.5658 9.58994 35.5658 12.4999C35.5658 15.4099 33.7758 16.7799 32.0858 17.5599C30.2558 17.8599 28.9958 18.8299 28.3658 20.1699H28.3558Z" fill="#5B93BC"/>
</svg>
