<svg width="61" height="58" viewBox="0 0 61 58" fill="none" xmlns="http://www.w3.org/2000/svg">
<path d="M50.3672 0.0700684H10.3672C4.84434 0.0700684 0.367188 4.54722 0.367188 10.0701V46.0701C0.367188 51.5929 4.84434 56.0701 10.3672 56.0701H50.3672C55.89 56.0701 60.3672 51.5929 60.3672 46.0701V10.0701C60.3672 4.54722 55.89 0.0700684 50.3672 0.0700684Z" fill="#1C3249"/>
<path d="M0.687066 50.3301C0.687066 50.3301 -0.722931 46.8801 6.09707 46.4001C11.3571 46.0301 13.8671 49.9001 19.9371 49.9001C26.0071 49.9001 32.6171 45.1601 38.4071 45.9901C44.1971 46.8201 49.8971 49.5301 53.5771 47.9201C62.0271 44.2201 61.0271 49.3001 60.7471 52.3301C60.4671 55.3601 55.7771 57.3001 47.7771 57.0201C39.7771 56.7401 13.2871 58.1201 8.04707 57.3001C2.80707 56.4801 0.677071 52.2701 0.677071 50.3301H0.687066Z" fill="#F9F9F9"/>
<path d="M22.9391 20.8801C22.9391 24.2001 20.1391 26.4001 15.9791 26.4001C11.8191 26.4001 9.11906 24.2601 9.03906 21.5601C9.03906 19.5001 10.6591 18.5001 12.5791 18.5001C14.3591 18.5001 15.9791 19.4201 16.0791 21.2001C16.0991 21.6201 16.6791 21.5801 16.6591 21.1801C16.5591 19.4601 15.0391 18.0401 12.8391 18.0401H12.2991C11.4991 18.0401 11.4991 16.3401 12.2991 16.3401H13.0991C15.0991 16.3401 16.1991 15.4201 16.6991 14.4801C16.9191 14.0801 16.4191 13.8401 16.2191 14.2201C15.6791 15.3001 14.3391 15.9001 12.9591 15.9001C10.8391 15.9001 9.43906 14.6601 9.43906 13.0201C9.43906 10.1401 13.0191 8.94006 15.9791 8.94006C19.8991 8.94006 22.5391 10.6801 22.5391 13.1401C22.5391 14.6601 21.5591 16.0401 19.7391 16.5601C21.7991 17.2001 22.9391 18.7601 22.9391 20.8801Z" fill="#5B93BC"/>
</svg>
