<svg width="61" height="56" viewBox="0 0 61 56" fill="none" xmlns="http://www.w3.org/2000/svg">
<path d="M50.6367 0H10.6367C5.11387 0 0.636719 4.47715 0.636719 10V46C0.636719 51.5228 5.11387 56 10.6367 56H50.6367C56.1596 56 60.6367 51.5228 60.6367 46V10C60.6367 4.47715 56.1596 0 50.6367 0Z" fill="#1C3249"/>
<path d="M15.0977 23.44C13.8577 23.5 12.6976 23.4 11.4576 23.16C10.1576 22.88 9.09766 21.9 9.09766 20.34C9.09766 19.34 9.53765 18.46 9.99765 17.82C11.6776 15.54 14.0177 12.76 16.1377 10.48C16.9177 9.65998 18.1576 8.97998 19.5576 8.97998C21.1776 8.97998 22.1977 10.02 22.4377 11.68C22.6577 13.26 22.2776 14.38 21.5576 15.26C19.2976 14.86 17.4577 15.56 16.0377 16.96C15.8177 17.16 16.1977 17.54 16.4377 17.32C17.4977 16.3 18.8577 15.68 20.2577 15.68C22.8577 15.68 23.9576 17.6 23.9576 19.3C23.9576 21.3 22.2576 22.74 20.3976 22.94C19.9776 22.98 20.0577 23.36 20.4177 23.34C20.9577 23.3 21.6577 23.16 22.3777 22.78C22.8977 24.56 21.4377 26.36 18.7977 26.36C16.1577 26.36 14.6977 24.96 15.0977 23.44Z" fill="#5B93BC"/>
</svg>
