<svg width="61" height="57" viewBox="0 0 61 57" fill="none" xmlns="http://www.w3.org/2000/svg">
<path d="M50.8281 0.839966H10.8281C5.30528 0.839966 0.828125 5.31712 0.828125 10.84V46.84C0.828125 52.3628 5.30528 56.84 10.8281 56.84H50.8281C56.351 56.84 60.8281 52.3628 60.8281 46.84V10.84C60.8281 5.31712 56.351 0.839966 50.8281 0.839966Z" fill="#1C3249"/>
<path d="M16.3491 25.0399C16.1691 21.3499 16.6191 17.1999 17.5191 14.0999C18.2891 11.2599 20.0391 9.86994 22.9691 9.59994C27.6491 9.18994 32.8291 9.18995 37.7391 9.54995C41.2491 9.77995 42.8691 10.5899 43.8191 12.6999C44.6291 14.4999 44.5891 18.0099 43.5891 20.5399C43.0491 21.8499 41.8291 22.2499 40.7491 21.7599C37.6391 20.3599 34.6691 19.8699 31.3391 19.8199C30.2091 19.8199 30.2591 21.1299 31.1591 21.1699C34.1291 21.2599 46.4691 21.5799 46.4691 34.9099C46.4691 44.6399 38.4091 48.5099 30.4791 48.5099C25.7091 48.5099 21.5591 47.2499 19.0891 45.3599C13.7291 41.2599 14.4991 34.6899 17.5591 31.8899C19.1791 30.3999 21.2091 29.8199 23.1491 29.8199C25.0891 29.8199 27.1091 30.4899 28.5091 31.7599C30.3591 33.2899 30.6291 34.6899 30.8991 35.4999C31.1291 36.3599 32.5191 36.3099 32.4291 35.3199C32.3391 34.1499 31.2591 32.1199 30.0391 30.9099C28.3291 29.2399 25.8491 28.5699 23.3291 28.5699C21.4391 28.5699 19.8191 28.8899 18.2891 29.6499C17.0291 29.1499 16.5291 27.7099 16.3491 25.0599V25.0399Z" fill="#5B93BC"/>
</svg>
