<svg width="61" height="57" viewBox="0 0 61 57" fill="none" xmlns="http://www.w3.org/2000/svg">
<path d="M50.0273 0.830078H10.0273C4.5045 0.830078 0.0273438 5.30723 0.0273438 10.8301V46.8301C0.0273438 52.3529 4.5045 56.8301 10.0273 56.8301H50.0273C55.5502 56.8301 60.0273 52.3529 60.0273 46.8301V10.8301C60.0273 5.30723 55.5502 0.830078 50.0273 0.830078Z" fill="#1C3249"/>
<path d="M11.998 15.4101C12.998 14.4301 14.438 13.6901 16.278 13.7101C19.598 13.7301 21.878 16.2101 21.878 19.7501C21.878 23.2901 19.278 25.9101 14.538 25.9101C9.79797 25.9101 7.41797 23.1101 7.41797 19.5301C7.41797 16.4301 7.99797 13.5701 8.79797 11.6301C9.55797 9.85007 11.138 8.57007 13.498 8.57007C15.538 8.57007 17.078 9.47005 16.998 10.9901C16.958 11.8301 16.658 12.6101 16.018 13.1301C13.998 13.1301 12.418 14.1101 11.598 14.9701C11.278 15.2501 11.738 15.6701 11.998 15.4101ZM15.398 21.2501C15.098 20.7701 14.998 20.1701 14.998 19.6901C14.998 19.2101 15.098 18.6301 15.398 18.1301C15.638 17.7901 14.878 17.5501 14.678 17.9101C14.358 18.4901 14.238 19.0701 14.238 19.6901C14.238 20.3101 14.358 20.9101 14.678 21.4901C14.878 21.8301 15.638 21.6101 15.398 21.2501Z" fill="#5B93BC"/>
</svg>
