<svg width="64" height="59" viewBox="0 0 64 59" fill="none" xmlns="http://www.w3.org/2000/svg">
<path d="M51.2266 0.75H11.2266C5.70371 0.75 1.22656 5.22715 1.22656 10.75V46.75C1.22656 52.2728 5.70371 56.75 11.2266 56.75H51.2266C56.7494 56.75 61.2266 52.2728 61.2266 46.75V10.75C61.2266 5.22715 56.7494 0.75 51.2266 0.75Z" fill="#1C3249"/>
<path d="M0.22876 49.4201C0.22876 49.4201 1.02876 58.0401 12.4488 58.0401H51.5188C51.5188 58.0401 66.3888 56.8701 62.5388 47.6201C60.2688 42.1701 52.5188 48.0201 43.0988 48.0201C33.6788 48.0201 32.8788 45.6201 26.6688 45.4201C20.4588 45.2201 15.2487 48.2301 10.6387 46.8201C6.02875 45.4101 1.01875 43.8101 0.21875 49.4201H0.22876Z" fill="#F9F9F9"/>
<path d="M10.3671 16.44C8.62711 16 7.8671 14.72 7.8871 13.3C7.9071 11.24 9.18711 10.06 10.6271 9.41999C12.5071 8.55999 16.1871 8.37998 18.6071 8.87998C20.4871 9.25998 21.4071 10.28 21.3671 12.24C21.2671 15.84 20.2871 21.04 18.9871 23.94C18.3671 25.28 17.5671 25.88 16.1471 25.88C14.7271 25.88 13.9271 24.92 13.8671 23.26C13.6671 19.3 14.6071 15.16 15.9671 12.2C16.0671 11.94 15.6671 11.76 15.5271 12.04C15.0671 12.86 14.6671 13.82 14.3471 14.92C13.5271 16.2 12.2271 16.94 10.3671 16.44Z" fill="#5B93BC"/>
</svg>
