<svg width="61" height="119" viewBox="0 0 61 119" fill="none" xmlns="http://www.w3.org/2000/svg">
<path d="M10.4666 0.749986C4.94657 0.749986 0.466579 5.29998 0.476579 10.9L0.526567 60.58V71.73L0.57657 107.22C0.57657 112.82 5.06658 117.36 10.5866 117.35L50.5866 117.31C56.1066 117.31 60.5866 112.76 60.5766 107.16L60.5366 71.67V60.52L60.4766 10.84C60.4766 5.23998 55.9866 0.699977 50.4666 0.709977L10.4666 0.749986Z" fill="#1C3249"/>
<path d="M0.687066 110.78C0.687066 110.78 -0.722931 107.33 6.09707 106.85C11.3571 106.48 13.8671 110.35 19.9371 110.35C26.0071 110.35 32.6171 105.61 38.4071 106.44C44.1971 107.27 49.8971 109.98 53.5771 108.37C62.0271 104.67 61.0271 109.75 60.7471 112.78C60.4671 115.81 55.7771 117.75 47.7771 117.47C39.7771 117.19 13.2871 118.57 8.04707 117.75C2.80707 116.93 0.677071 112.72 0.677071 110.78H0.687066Z" fill="#F9F9F9"/>
<path d="M8.44797 46.4301C8.44797 38.7001 15.228 30.9001 29.688 30.8301C44.078 30.8301 50.918 38.6901 50.918 46.4301C50.918 52.4501 48.768 56.1301 45.908 57.8401C50.408 59.9301 52.948 64.8801 52.948 69.9501C52.948 79.8401 44.078 86.1101 29.688 86.1101C15.238 86.0501 6.41797 79.8301 6.41797 69.9501C6.41797 64.8801 8.95796 59.9301 13.518 57.8401C10.598 56.1301 8.44797 52.4501 8.44797 46.4301ZM29.938 51.6301C31.648 49.1601 32.028 45.6701 32.158 42.5601C32.158 41.1001 30.068 41.1001 29.998 42.1801C29.808 45.2901 29.238 47.8801 27.718 50.9301C27.208 51.8801 29.048 52.8301 29.938 51.6301ZM29.938 74.6401C31.648 72.2301 32.028 68.7401 32.158 65.6401C32.158 64.1201 30.068 64.1201 29.998 65.2001C29.808 68.3101 29.238 70.9701 27.718 73.9501C27.208 74.9601 29.048 75.8501 29.938 74.6501V74.6401Z" fill="#5B93BC"/>
</svg>
