<svg width="61" height="57" viewBox="0 0 61 57" fill="none" xmlns="http://www.w3.org/2000/svg">
<path d="M50.6992 0.599976H10.6992C5.17637 0.599976 0.699219 5.07713 0.699219 10.6V46.6C0.699219 52.1228 5.17637 56.6 10.6992 56.6H50.6992C56.2221 56.6 60.6992 52.1228 60.6992 46.6V10.6C60.6992 5.07713 56.2221 0.599976 50.6992 0.599976Z" fill="#1C3249"/>
<path d="M49.1672 43.6499C49.4672 43.3299 49.0272 42.9299 48.7472 43.1899C47.7472 44.1699 46.3072 44.91 44.4672 44.89C41.3272 44.87 38.8672 42.3699 38.8672 39.2099C38.8672 35.5899 41.4672 32.6899 46.2272 32.6899C50.7272 32.6899 53.3272 35.49 53.3272 39.83C53.3272 42.17 52.7672 45.0499 51.9472 46.9699C51.2072 48.7499 49.6072 50.1499 47.1872 50.1499C45.0472 50.1499 43.6072 49.1299 43.6672 47.5899C43.7072 46.7699 44.1272 46.01 44.7272 45.45C46.7472 45.45 48.3472 44.4699 49.1672 43.6499ZM45.9672 40.27C45.6672 39.79 45.5472 39.2099 45.5472 38.7299C45.5472 38.2499 45.6672 37.6499 45.9672 37.1499C46.2072 36.8099 45.4472 36.5899 45.2472 36.9299C44.9272 37.5099 44.8072 38.09 44.8072 38.7299C44.8072 39.3299 44.9272 39.9299 45.2472 40.4899C45.4472 40.8499 46.2072 40.63 45.9672 40.27Z" fill="#5B93BC"/>
</svg>
